<svg xmlns="http://www.w3.org/2000/svg" viewBox="0 0 141.7 61.8"><path d="M28.2 44.8l.1-17.8H10.2l-.1 17.8H0L.3 0h10.1l-.1 17.6h18.1V0h10.1l-.3 44.8h-10zm46.5-16.6c0 7-4.3 13.4-10.9 15.7-6.6 2.3-14.4.6-18.9-4.8-4.6-5.4-5-13.7-1.4-19.8 3.7-6.1 11.1-8.7 18-7.4 7.8 1.5 13.2 8.4 13.2 16.3-.1 9.8 0-9.7 0 0zm-9.7 0c0-3.2-1.5-6.3-4.7-7.4-2.7-.9-5.9-.2-7.8 1.9-2.2 2.6-2.5 6.9-.8 9.8 1.5 2.6 4.5 3.9 7.4 3.4 3.8-.6 5.9-4 5.9-7.7zm19 5.4c.2 3.3 3.7 5 6.7 4 1.1-.4 2.1-1.4 1.9-2.7-.2-1.5-1.8-2.1-3.1-2.3l-3.6-.8c-3.4-.7-7-2.4-8.5-5.7-1.4-2.9-1-6.4.6-9.1 3.9-6.2 13.8-7.1 19.5-2.9 2.2 1.6 3.7 4.1 3.9 6.8l-8 1.5c-.3-2.7-2.8-4.3-5.5-3.7-1.2.3-2.4 1.1-2.5 2.5-.1 1.5 1.2 2.2 2.5 2.5l4.2.8c3.7.7 7.4 2.6 9 6.2 1.3 2.9.8 6.5-.9 9.1-2.1 3.2-5.8 4.8-9.5 5.1-3.8.3-8-.4-11.1-2.8-2.1-1.7-3.7-4.2-3.8-7l8.2-1.5zm35.3-21h6.2V21h-6.2l-.1 11.8c0 3.5 3.3 3.6 6 3v8c-3.1 1.5-7.6 1.2-10.6-.3-3.4-1.7-5-5.2-5-8.9l.1-13.5h-5.6v-8.4h1.6c3.3 0 4.9-2.2 4.9-5.1v-4h8.7v9zm15.9 19c2.7 0 5.2 1.7 6.1 4.2 1 2.6.1 5.4-2 7.2-4.6 3.9-11.8-.2-10.6-6.1.7-3.1 3.5-5.3 6.5-5.3zM9.1 54.3h1.1L8 61.6H6.9L5 55.7l-1.9 5.9h-1L0 54.3h1.1L2.6 60l1.9-5.7h1.1l1.9 5.8 1.6-5.8zm2.6 7.3h-1v-7.5h1v3.1c1.1-1.6 3.3-.5 3.3 1.2v3.1h-1v-3c0-1.7-2.3-1.6-2.3.1v3zm8.8-1.4c-.5 1.4-2.1 1.9-3.4 1.3-1.2-.6-1.6-2-1.3-3.2.9-2.9 5.2-1.9 4.7 1.1h-3.8c0 1.6 2.4 2.1 2.9.5l.9.3zm-.9-1.6c0-1.7-2.6-1.6-2.7 0h2.7zm4.6-1c-1.1-.2-1.8.4-1.8 1.5v2.5h-1v-5h1v.9c.3-.7 1.1-1.1 1.8-.9v1zm5 2.6c-.5 1.4-2.1 1.9-3.4 1.3-1.2-.6-1.6-2-1.3-3.2.9-2.9 5.2-1.9 4.7 1.1h-3.8c0 1.6 2.4 2.1 2.9.5l.9.3zm-1-1.6c0-1.7-2.6-1.6-2.7 0h2.7zM33 60c.1.7.8 1.1 1.5.9.8-.2.7-1.1-.1-1.3l-.9-.2c-1.6-.3-1.6-2.3-.1-2.8 1-.4 2.3.1 2.6 1.2l-.9.3c-.1-.6-.6-.9-1.2-.8-.7.1-1 1.1-.1 1.2l.8.2c1.4.3 1.9 2 .6 2.8-1 .6-2.9.1-3.1-1.2l.9-.3zm5.3-3.3h1.1v.9h-1.1v2.6c0 .6.5.8 1.1.6v.8c-1 .4-2.1-.2-2.1-1.3v-2.7h-1v-.9h.3c.5 0 .8-.3.8-.8v-.8h.9v1.6zm3.6 5.1c-1.2 0-1.9-.9-1.9-2v-3.1h1v3c0 1.7 2.3 1.7 2.3 0v-3h1v4.9h-.9V61c-.3.5-.9.8-1.5.8zm7.2-.9c-.5 1-1.8 1.1-2.7.6-.9-.4-1.3-1.4-1.3-2.4s.5-1.9 1.4-2.4c.8-.4 2.2-.4 2.6.6v-3.2h1v7.5h-.9c-.1-.1-.1-.3-.1-.7zm-1.5 0c1.9 0 2-3.5 0-3.5-1.9 0-2 3.5 0 3.5zm8-.7c-.5 1.4-2.1 1.9-3.4 1.3-1.2-.6-1.6-2-1.3-3.2.9-2.9 5.2-1.9 4.7 1.1h-3.8c0 1.6 2.4 2.1 2.9.5l.9.3zm-1-1.6c0-1.7-2.6-1.6-2.7 0h2.7zm2.8 3h-1v-5h1v.7c1-1.7 3.3-.7 3.3 1.1v3.1h-1v-3c0-1.7-2.3-1.5-2.3.1v3zm5.8-4.9h1.1v.9h-1.1v2.6c0 .6.5.8 1.1.6v.8c-1 .4-2.1-.2-2.1-1.3v-2.7h-1v-.9h.3c.5 0 .8-.3.8-.8v-.8h.9v1.6zm2.4 3.3c.1.7.8 1.1 1.5.9.8-.2.7-1.1-.1-1.3l-.9-.2c-1.6-.3-1.6-2.3-.1-2.8 1-.4 2.3.1 2.6 1.2l-.9.3c-.1-.6-.6-.9-1.2-.8-.7.1-1 1.1-.1 1.2l.8.2c1.4.3 1.9 2 .6 2.8-1 .6-2.9.1-3.1-1.2l.9-.3zm7.6-1.2l1.4-.2c.8-.1.2-1.1-.3-1.2-.7-.2-1.5.2-1.6.9l-.9-.2c.3-2.2 4.1-2.1 4.1.2v2.5c0 .4 0 .7.1.8h-1c0-.1-.1-.3 0-.7-.6 1-2.3 1.2-3 .2-.8-1 .1-2.1 1.2-2.3zm1.7.7v-.2l-1.5.2c-1.1.2-.8 1.5.2 1.5.8 0 1.3-.7 1.3-1.5zm4.9-1.9c-1.1-.1-1.8.4-1.8 1.5v2.5h-1v-5h1v.9c.3-.7 1.1-1.1 1.8-.9v1zm5 2.6c-.5 1.4-2.1 1.9-3.4 1.3-1.2-.6-1.6-2-1.3-3.2.9-2.9 5.2-1.9 4.7 1.1H81c0 1.6 2.4 2.1 2.9.5l.9.3zm-1-1.6c0-1.7-2.6-1.6-2.7 0h2.7zm5.6.2l1.4-.2c.8-.1.2-1.1-.3-1.2-.7-.2-1.5.2-1.6.9l-.9-.2c.3-2.2 4.1-2.1 4.1.2v2.5c0 .4 0 .7.1.8h-1c0-.1-.1-.3 0-.7-.6 1-2.3 1.2-3 .2-.9-1 0-2.1 1.2-2.3zm1.7.7v-.2l-1.5.2c-1.1.2-.8 1.5.2 1.5.8 0 1.3-.7 1.3-1.5zm3.4-2.8h1.1v.9h-1.1v2.6c0 .6.5.8 1.1.6v.8c-1 .4-2.1-.2-2.1-1.3v-2.7h-1v-.9h.3c.5 0 .8-.3.8-.8v-.8h.9v1.6zm5.4 4.9h-1v-7.5h1v3.1c1.1-1.6 3.3-.5 3.3 1.2v3.1h-1v-3c0-1.7-2.3-1.6-2.3.1v3zm9.2-2.5c0 3.4-5.1 3.4-5.1 0s5.1-3.4 5.1 0c0 1.6 0-1.5 0 0zm-1 0c0-2.3-3.1-2.3-3.1 0s3.1 2.3 3.1 0c0-1.1 0 1.2 0 0zm1.8 2.5v-5h.9v.7c.6-1.1 2.5-1.1 3 .1 1-1.7 3.4-.9 3.4 1v3.2h-1v-3.1c0-1.6-2.2-1.4-2.2.1v3h-1v-3.1c0-1.6-2.2-1.4-2.2.1v3h-.9zm12.9-1.4c-.5 1.4-2.1 1.9-3.4 1.3-1.2-.6-1.6-2-1.3-3.2.9-2.9 5.2-1.9 4.7 1.1H119c0 1.6 2.4 2.1 2.9.5l.9.3zm-1-1.6c0-1.7-2.6-1.6-2.7 0h2.7zm2.4 1.6c.9 0 .9 1.4 0 1.4-.9.1-.9-1.4 0-1.4z"/></svg>