<svg xmlns="http://www.w3.org/2000/svg"><defs><style>.cls-1{fill:none;stroke:#000100;stroke-linecap:round;stroke-linejoin:round;stroke-width:2.5px}</style><style>.cls-1,.cls-2{fill:none;stroke:#1d1d1b;stroke-linecap:round;stroke-linejoin:round;stroke-width:2.5px}.cls-2{fill:#fff}.cls-3{fill:#1d1d1b}</style><style>.cls-1,.cls-2{fill:#fff;stroke:#1d1d1b;stroke-linecap:round;stroke-linejoin:round;stroke-width:2.5px}.cls-2{fill:none}</style><style>.cls-1{fill:none;stroke:#000100;stroke-linecap:round;stroke-linejoin:round;stroke-width:2.5px}</style><style>.cls-1{fill:none;stroke:#1d1d1b;stroke-linecap:round;stroke-linejoin:round;stroke-width:2.5px}</style><style>.cls-1{fill:none;stroke:#000100;stroke-linecap:round;stroke-linejoin:round;stroke-width:2.5px}</style></defs><symbol id="icon-arrow-left" viewBox="0 0 14.6 23"><path d="M14.6 3.2L11.5 0 0 11.5 11.5 23l3.1-3.2-8.3-8.3z"/></symbol><symbol id="icon-bills-1" viewBox="0 0 44.77 59.37"><title>bills-1</title><path class="cls-1" d="M23.85 23.95c-3.38-9.63-10.41-22.7-10.41-22.7S1.25 25.07 1.25 31.53a12.19 12.19 0 0 0 12.19 12.19c5 0 9.31-2.53 11.18-7"/><path class="cls-1" d="M38.93 6.11L13.44 36.26h12.27l-3.66 21.86 21.47-28.89H31.25l7.68-23.12z" id="wea-bolt"/></symbol><symbol id="icon-camera" viewBox="0 0 43.26 36.53"><path d="M15.71 0a1.44 1.44 0 0 0-1.14.8l-2.49 5H6.25A6.27 6.27 0 0 0 0 12v18.28a6.27 6.27 0 0 0 6.25 6.25H37a6.27 6.27 0 0 0 6.25-6.25V12A6.27 6.27 0 0 0 37 5.77h-5.82L28.69.8A1.44 1.44 0 0 0 27.4 0H15.71zm1.05 2.88h9.73l2.49 5a1.44 1.44 0 0 0 1.29.8H37A3.33 3.33 0 0 1 40.37 12v18.28A3.33 3.33 0 0 1 37 33.65H6.25a3.33 3.33 0 0 1-3.36-3.36V12a3.33 3.33 0 0 1 3.36-3.35H13a1.44 1.44 0 0 0 1.29-.8zm4.87 7.21a11.05 11.05 0 1 0 11.05 11.06 11.08 11.08 0 0 0-11.05-11.06zm0 2.88a8.17 8.17 0 1 1-8.17 8.17A8.15 8.15 0 0 1 21.63 13zm-.06 1a1.44 1.44 0 0 0 .06 2.88 4.3 4.3 0 0 1 4.37 4.3 1.44 1.44 0 1 0 2.88 0 7.23 7.23 0 0 0-7.21-7.21z"/></symbol><symbol id="icon-computer" viewBox="0 0 40.6 35.63"><rect width="38.1" height="27.84" x="1.25" y="1.25" class="cls-1" rx="2.2" ry="2.2"/><path d="M38.94 21.85H1.36" class="cls-2"/><circle cx="20.3" cy="25.45" r="1.16" class="cls-3"/><path d="M17.68 29.09l-.95 5.29h7.14l-1.35-5.29h-4.84zm6.19 5.29h2.63m-12.7 0h2.93" class="cls-1"/></symbol><symbol id="icon-cross" viewBox="0 0 14 14"><path d="M14 3l-3-3-4 4-4-4-3 3 4 4-4 4 3 3 4-4 4 4 3-3-4-4 4-4z"/></symbol><symbol id="icon-facebook" viewBox="0 0 11.589 22.756"><path d="M11.589 3.412H9.734c-.912 0-2.123.739-2.123 1.646v3.085h3.617v3.748H7.611v10.864H3.582V11.892H0V8.144h3.582V4.075C3.582 1.645 5.794 0 7.573 0h4.016v3.412z"/></symbol><symbol id="icon-googleplus" viewBox="0 0 20 20"><title>Google Plus</title><path d="M1.99 5.59c0 1.492.5 2.57 1.482 3.204.805.52 1.74.597 2.226.597h.278s-.154 1.01.59 2h-.034c-1.29 0-5.494.27-5.494 3.73 0 3.52 3.862 3.7 4.636 3.7h.254c.497 0 1.782-.06 2.976-.64 1.548-.75 2.334-2.06 2.334-3.88 0-1.76-1.196-2.81-2.07-3.58-.533-.47-.994-.87-.994-1.27s.336-.7.762-1.08c.688-.61 1.338-1.49 1.338-3.15 0-1.46-.19-2.43-1.354-3.05.122-.06.55-.11.764-.14.63-.08 1.554-.18 1.554-.7v-.1H6.64c-.046 0-4.65.17-4.65 4.39zm7.423 9.01c.088 1.406-1.115 2.444-2.92 2.575-1.835.135-3.346-.69-3.434-2.097-.05-.675.25-1.336.83-1.863.59-.533 1.4-.862 2.28-.928.1-.007.2-.012.31-.012 1.69 0 2.84.998 2.93 2.324zm-1.2-9.976c.45 1.587-.23 3.246-1.316 3.552a1.423 1.423 0 0 1-.384.053c-.995 0-1.98-1.01-2.345-2.39-.204-.78-.188-1.46.046-2.12.23-.65.643-1.08 1.163-1.23.125-.04.255-.06.385-.06 1.2 0 1.972.5 2.45 2.18zM15.96 8.08v-3h-1.9v3h-3v1.9h3v3h1.9v-3h3v-1.9h-3z"/></symbol><symbol id="icon-heart" viewBox="0 0 21.1 21.1"><path stroke-width="2.5" d="M5.9 1.3c2.3 0 3.5 1.1 4.7 3.4 1.2-2.2 2.3-3.4 4.6-3.4 2.5 0 4.6 2 4.7 4.5 0 4.5-4.7 9.1-9.3 13.6-4.7-4.5-9.3-9.1-9.3-13.6 0-2.5 2.1-4.6 4.6-4.5z"/></symbol><symbol id="icon-host-logo" viewBox="0 0 141.7 61.8"><path d="M28.2 44.8l.1-17.8H10.2l-.1 17.8H0L.3 0h10.1l-.1 17.6h18.1V0h10.1l-.3 44.8h-10zm46.5-16.6c0 7-4.3 13.4-10.9 15.7-6.6 2.3-14.4.6-18.9-4.8-4.6-5.4-5-13.7-1.4-19.8 3.7-6.1 11.1-8.7 18-7.4 7.8 1.5 13.2 8.4 13.2 16.3-.1 9.8 0-9.7 0 0zm-9.7 0c0-3.2-1.5-6.3-4.7-7.4-2.7-.9-5.9-.2-7.8 1.9-2.2 2.6-2.5 6.9-.8 9.8 1.5 2.6 4.5 3.9 7.4 3.4 3.8-.6 5.9-4 5.9-7.7zm19 5.4c.2 3.3 3.7 5 6.7 4 1.1-.4 2.1-1.4 1.9-2.7-.2-1.5-1.8-2.1-3.1-2.3l-3.6-.8c-3.4-.7-7-2.4-8.5-5.7-1.4-2.9-1-6.4.6-9.1 3.9-6.2 13.8-7.1 19.5-2.9 2.2 1.6 3.7 4.1 3.9 6.8l-8 1.5c-.3-2.7-2.8-4.3-5.5-3.7-1.2.3-2.4 1.1-2.5 2.5-.1 1.5 1.2 2.2 2.5 2.5l4.2.8c3.7.7 7.4 2.6 9 6.2 1.3 2.9.8 6.5-.9 9.1-2.1 3.2-5.8 4.8-9.5 5.1-3.8.3-8-.4-11.1-2.8-2.1-1.7-3.7-4.2-3.8-7l8.2-1.5zm35.3-21h6.2V21h-6.2l-.1 11.8c0 3.5 3.3 3.6 6 3v8c-3.1 1.5-7.6 1.2-10.6-.3-3.4-1.7-5-5.2-5-8.9l.1-13.5h-5.6v-8.4h1.6c3.3 0 4.9-2.2 4.9-5.1v-4h8.7v9zm15.9 19c2.7 0 5.2 1.7 6.1 4.2 1 2.6.1 5.4-2 7.2-4.6 3.9-11.8-.2-10.6-6.1.7-3.1 3.5-5.3 6.5-5.3zM9.1 54.3h1.1L8 61.6H6.9L5 55.7l-1.9 5.9h-1L0 54.3h1.1L2.6 60l1.9-5.7h1.1l1.9 5.8 1.6-5.8zm2.6 7.3h-1v-7.5h1v3.1c1.1-1.6 3.3-.5 3.3 1.2v3.1h-1v-3c0-1.7-2.3-1.6-2.3.1v3zm8.8-1.4c-.5 1.4-2.1 1.9-3.4 1.3-1.2-.6-1.6-2-1.3-3.2.9-2.9 5.2-1.9 4.7 1.1h-3.8c0 1.6 2.4 2.1 2.9.5l.9.3zm-.9-1.6c0-1.7-2.6-1.6-2.7 0h2.7zm4.6-1c-1.1-.2-1.8.4-1.8 1.5v2.5h-1v-5h1v.9c.3-.7 1.1-1.1 1.8-.9v1zm5 2.6c-.5 1.4-2.1 1.9-3.4 1.3-1.2-.6-1.6-2-1.3-3.2.9-2.9 5.2-1.9 4.7 1.1h-3.8c0 1.6 2.4 2.1 2.9.5l.9.3zm-1-1.6c0-1.7-2.6-1.6-2.7 0h2.7zM33 60c.1.7.8 1.1 1.5.9.8-.2.7-1.1-.1-1.3l-.9-.2c-1.6-.3-1.6-2.3-.1-2.8 1-.4 2.3.1 2.6 1.2l-.9.3c-.1-.6-.6-.9-1.2-.8-.7.1-1 1.1-.1 1.2l.8.2c1.4.3 1.9 2 .6 2.8-1 .6-2.9.1-3.1-1.2l.9-.3zm5.3-3.3h1.1v.9h-1.1v2.6c0 .6.5.8 1.1.6v.8c-1 .4-2.1-.2-2.1-1.3v-2.7h-1v-.9h.3c.5 0 .8-.3.8-.8v-.8h.9v1.6zm3.6 5.1c-1.2 0-1.9-.9-1.9-2v-3.1h1v3c0 1.7 2.3 1.7 2.3 0v-3h1v4.9h-.9V61c-.3.5-.9.8-1.5.8zm7.2-.9c-.5 1-1.8 1.1-2.7.6-.9-.4-1.3-1.4-1.3-2.4s.5-1.9 1.4-2.4c.8-.4 2.2-.4 2.6.6v-3.2h1v7.5h-.9c-.1-.1-.1-.3-.1-.7zm-1.5 0c1.9 0 2-3.5 0-3.5-1.9 0-2 3.5 0 3.5zm8-.7c-.5 1.4-2.1 1.9-3.4 1.3-1.2-.6-1.6-2-1.3-3.2.9-2.9 5.2-1.9 4.7 1.1h-3.8c0 1.6 2.4 2.1 2.9.5l.9.3zm-1-1.6c0-1.7-2.6-1.6-2.7 0h2.7zm2.8 3h-1v-5h1v.7c1-1.7 3.3-.7 3.3 1.1v3.1h-1v-3c0-1.7-2.3-1.5-2.3.1v3zm5.8-4.9h1.1v.9h-1.1v2.6c0 .6.5.8 1.1.6v.8c-1 .4-2.1-.2-2.1-1.3v-2.7h-1v-.9h.3c.5 0 .8-.3.8-.8v-.8h.9v1.6zm2.4 3.3c.1.7.8 1.1 1.5.9.8-.2.7-1.1-.1-1.3l-.9-.2c-1.6-.3-1.6-2.3-.1-2.8 1-.4 2.3.1 2.6 1.2l-.9.3c-.1-.6-.6-.9-1.2-.8-.7.1-1 1.1-.1 1.2l.8.2c1.4.3 1.9 2 .6 2.8-1 .6-2.9.1-3.1-1.2l.9-.3zm7.6-1.2l1.4-.2c.8-.1.2-1.1-.3-1.2-.7-.2-1.5.2-1.6.9l-.9-.2c.3-2.2 4.1-2.1 4.1.2v2.5c0 .4 0 .7.1.8h-1c0-.1-.1-.3 0-.7-.6 1-2.3 1.2-3 .2-.8-1 .1-2.1 1.2-2.3zm1.7.7v-.2l-1.5.2c-1.1.2-.8 1.5.2 1.5.8 0 1.3-.7 1.3-1.5zm4.9-1.9c-1.1-.1-1.8.4-1.8 1.5v2.5h-1v-5h1v.9c.3-.7 1.1-1.1 1.8-.9v1zm5 2.6c-.5 1.4-2.1 1.9-3.4 1.3-1.2-.6-1.6-2-1.3-3.2.9-2.9 5.2-1.9 4.7 1.1H81c0 1.6 2.4 2.1 2.9.5l.9.3zm-1-1.6c0-1.7-2.6-1.6-2.7 0h2.7zm5.6.2l1.4-.2c.8-.1.2-1.1-.3-1.2-.7-.2-1.5.2-1.6.9l-.9-.2c.3-2.2 4.1-2.1 4.1.2v2.5c0 .4 0 .7.1.8h-1c0-.1-.1-.3 0-.7-.6 1-2.3 1.2-3 .2-.9-1 0-2.1 1.2-2.3zm1.7.7v-.2l-1.5.2c-1.1.2-.8 1.5.2 1.5.8 0 1.3-.7 1.3-1.5zm3.4-2.8h1.1v.9h-1.1v2.6c0 .6.5.8 1.1.6v.8c-1 .4-2.1-.2-2.1-1.3v-2.7h-1v-.9h.3c.5 0 .8-.3.8-.8v-.8h.9v1.6zm5.4 4.9h-1v-7.5h1v3.1c1.1-1.6 3.3-.5 3.3 1.2v3.1h-1v-3c0-1.7-2.3-1.6-2.3.1v3zm9.2-2.5c0 3.4-5.1 3.4-5.1 0s5.1-3.4 5.1 0c0 1.6 0-1.5 0 0zm-1 0c0-2.3-3.1-2.3-3.1 0s3.1 2.3 3.1 0c0-1.1 0 1.2 0 0zm1.8 2.5v-5h.9v.7c.6-1.1 2.5-1.1 3 .1 1-1.7 3.4-.9 3.4 1v3.2h-1v-3.1c0-1.6-2.2-1.4-2.2.1v3h-1v-3.1c0-1.6-2.2-1.4-2.2.1v3h-.9zm12.9-1.4c-.5 1.4-2.1 1.9-3.4 1.3-1.2-.6-1.6-2-1.3-3.2.9-2.9 5.2-1.9 4.7 1.1H119c0 1.6 2.4 2.1 2.9.5l.9.3zm-1-1.6c0-1.7-2.6-1.6-2.7 0h2.7zm2.4 1.6c.9 0 .9 1.4 0 1.4-.9.1-.9-1.4 0-1.4z"/></symbol><symbol id="icon-instagram" viewBox="0 0 169.063 169.063"><path d="M122.406 0H46.654C20.93 0 0 20.93 0 46.655v75.752c0 25.726 20.93 46.655 46.654 46.655h75.752c25.727 0 46.656-20.93 46.656-46.655V46.655C169.062 20.93 148.132 0 122.406 0zm31.657 122.407c0 17.455-14.2 31.655-31.656 31.655H46.654C29.2 154.062 15 139.862 15 122.407V46.655C15 29.2 29.2 15 46.654 15h75.752c17.455 0 31.656 14.2 31.656 31.655v75.752z"/><path d="M84.53 40.97c-24.02 0-43.562 19.542-43.562 43.563 0 24.02 19.542 43.56 43.563 43.56s43.564-19.54 43.564-43.56c0-24.02-19.542-43.563-43.563-43.563zm0 72.123c-15.748 0-28.562-12.812-28.562-28.56 0-15.75 12.813-28.564 28.563-28.564s28.564 12.812 28.564 28.562c0 15.75-12.814 28.56-28.563 28.56zm45.39-84.843c-2.89 0-5.728 1.17-7.77 3.22a11.057 11.057 0 0 0-3.23 7.78c0 2.892 1.18 5.73 3.23 7.78 2.04 2.04 4.88 3.22 7.77 3.22 2.9 0 5.73-1.18 7.78-3.22 2.05-2.05 3.22-4.89 3.22-7.78 0-2.9-1.17-5.74-3.22-7.78-2.04-2.05-4.88-3.22-7.78-3.22z"/></symbol><symbol id="icon-insurance-1" viewBox="0 0 37.53 48.78"><title>insurance-1</title><path class="cls-1" d="M18.77 14.51v19M28.26 24.01h-19"/><path class="cls-2" d="M36.24 27.42v-1.67c-.06-2.44 0-4.87 0-7.31V9.25a.91.91 0 0 0-.66-1 46 46 0 0 1-4.07-2.19 1.78 1.78 0 0 1-.68-1.15.71.71 0 0 0-.63-.71c-3-.83-6.11-1.62-9.13-2.57a7.38 7.38 0 0 0-4.68 0c-1.53.48-3.07.92-4.62 1.35M1.26 17.59v9a16.4 16.4 0 0 0 .89 5.26 21.73 21.73 0 0 0 6 8.94 34.31 34.31 0 0 0 10.14 6.57 1.2 1.2 0 0 0 .84.07 36.21 36.21 0 0 0 7.68-4.38"/><path class="cls-2" d="M36.26 18.43V9.24a.91.91 0 0 0-.66-1 46 46 0 0 1-4.07-2.19 1.78 1.78 0 0 1-.68-1.15.71.71 0 0 0-.63-.71c-3-.83-6.11-1.62-9.13-2.57a7.38 7.38 0 0 0-4.68 0c-3 1-6.12 1.74-9.18 2.61-.2.06-.52.28-.51.41a1.75 1.75 0 0 1-1 1.67 73.06 73.06 0 0 1-3.83 2 .83.83 0 0 0-.61.88v17.47a16.4 16.4 0 0 0 .89 5.26 21.73 21.73 0 0 0 6 8.94 34.3 34.3 0 0 0 10.14 6.57 1.2 1.2 0 0 0 .84.07 31.77 31.77 0 0 0 13.29-10 18.33 18.33 0 0 0 3.89-11.79c-.12-2.4-.07-4.84-.07-7.28z"/></symbol><symbol id="icon-linkedin" viewBox="0 0 16.4 16.374"><path fill="#FFF" d="M3.677 16.374H.265V5.438h3.412v10.936zM1.973 3.942a1.971 1.971 0 1 1 0-3.942 1.972 1.972 0 0 1 0 3.942zM16.4 16.374h-3.403v-5.322c0-1.268-.019-2.898-1.761-2.898-1.772 0-2.039 1.38-2.039 2.804v5.417H5.796V5.438h3.262v1.49h.047c.447-.859 1.561-1.768 3.207-1.768 3.444 0 4.089 2.27 4.089 5.211v6.003z"/></symbol><symbol id="icon-marker" viewBox="0 0 19.2 27.3"><path d="M9.6 0C4.3 0 0 4.4 0 9.7c0 5.4 9.6 17.6 9.6 17.6s9.6-12.2 9.6-17.6c0-5.3-4.3-9.7-9.6-9.7zm0 6.1c2 0 3.6 1.6 3.6 3.6s-1.6 3.6-3.6 3.6S6 11.7 6 9.7s1.6-3.6 3.6-3.6z"/></symbol><symbol id="icon-national-code" viewBox="0 0 120 74.9"><path d="M34.5 0c-3.5 0-6.3 2.8-6.3 6.3v13.3c0 1.5-1.2 2.6-2.6 2.6H6.3C2.8 22.2 0 25 0 28.5c0 1.7.7 3.3 1.9 4.4C.7 34 0 35.6 0 37.4c0 1.7.7 3.3 1.9 4.4C.7 42.9 0 44.5 0 46.2c0 1.7.7 3.3 1.9 4.4C.7 51.8 0 53.4 0 55.1c0 3.5 2.8 6.3 6.3 6.3h17.4c9.4 0 17.1-7.7 17.1-17.1v-38C40.8 2.8 38 0 34.5 0zM17.3 57.8h-11c-1.5 0-2.6-1.2-2.6-2.6 0-1.5 1.2-2.6 2.6-2.6h11.1c1.5 0 2.6 1.2 2.6 2.6 0 1.4-1.2 2.6-2.7 2.6zm0-8.9h-11c-1.5 0-2.6-1.2-2.6-2.6 0-1.5 1.2-2.6 2.6-2.6h11.1c1.5 0 2.6 1.2 2.6 2.6 0 1.4-1.2 2.6-2.7 2.6zm0-8.9h-11c-1.5 0-2.6-1.2-2.6-2.6 0-1.5 1.2-2.6 2.6-2.6h11.1c1.5 0 2.6 1.2 2.6 2.6 0 1.4-1.2 2.6-2.7 2.6zm0-8.9h-11c-1.5 0-2.6-1.2-2.6-2.6 0-1.5 1.2-2.6 2.6-2.6h11.1c1.5 0 2.6 1.2 2.6 2.6 0 1.4-1.2 2.6-2.7 2.6zm19.8 13.2c0 7.4-6.1 13.5-13.5 13.5H23c.4-.8.6-1.7.6-2.6 0-1.7-.7-3.3-1.9-4.4 1.1-1.1 1.9-2.7 1.9-4.4 0-1.7-.7-3.3-1.9-4.4 1.1-1.1 1.9-2.7 1.9-4.4 0-1.7-.7-3.3-1.9-4.4 1.1-1.1 1.9-2.7 1.9-4.4 0-.9-.2-1.8-.6-2.6h2.6c3.5 0 6.3-2.8 6.3-6.3V6.3c0-1.5 1.2-2.6 2.6-2.6 1.5 0 2.6 1.2 2.6 2.6v38zm14.6-6h-2.4v-9.5H52l1.8 3.1c.6 1 1.1 2 1.6 3-.1-1.7-.1-2.9-.1-3.7v-2.4h2.4v9.5H55l-1.9-3.2c-.4-.7-.9-1.7-1.5-2.8.1 1.3.1 2.4.1 3.1v2.9zm9.8-1.7h3.2l.6 1.7h2.6l-3.4-9.5h-2.7l-3.4 9.5H61l.5-1.7zm1.6-5.3l1.1 3.3h-2.1l1-3.3zm7-.5h-2.7v-1.9h7.9v1.9h-2.7v7.6h-2.4v-7.6zm8.6 7.5h-2.4v-9.5h2.4v9.5zm6.2.3c2.9 0 4.8-1.9 4.8-5s-1.9-5-4.8-5-4.8 1.9-4.8 5 1.8 5 4.8 5zm0-8c1.5 0 2.3 1 2.3 3s-.8 3-2.3 3c-1.5 0-2.3-1-2.3-3s.8-3 2.3-3zm8.4 7.7H91v-9.5h2.6l1.8 3.1c.6 1 1.1 2 1.6 3-.1-1.7-.1-2.9-.1-3.7v-2.4h2.4v9.5h-2.6l-1.9-3.2c-.4-.7-.9-1.7-1.5-2.8.1 1.3.1 2.4.1 3.1v2.9zm9.8-1.7h3.2l.6 1.7h2.6l-3.4-9.5h-2.7l-3.4 9.5h2.5l.6-1.7zm1.6-5.3l1.1 3.3h-2.1l1-3.3zm12.7 7h-7v-9.5h2.4v7.4h4.6v2.1zM48.2 50.6c0-5.9 3.6-9.7 9.1-9.7 4.4 0 7.4 2.5 7.8 6.5h-4.4c-.4-1.7-1.6-2.6-3.6-2.6-2.5 0-4.2 2.1-4.2 5.8 0 3.6 1.6 5.6 4.1 5.6 2.1 0 3.4-1 3.7-3H65c-.6 4.4-3.6 6.9-8 6.9-5.2 0-8.8-3.8-8.8-9.5zm17.7-.1c0 5.9 3.5 9.6 9.1 9.6s9.1-3.7 9.1-9.6S80.6 41 75 41s-9.1 3.6-9.1 9.5zm13.5 0c0 3.7-1.6 5.7-4.4 5.7-2.8 0-4.4-2-4.4-5.7s1.6-5.7 4.4-5.7c2.8 0 4.4 2 4.4 5.7zm6.5-9.1v18.1H93c6 0 8.9-3 8.9-9.1 0-5.8-2.9-9.1-8.3-9.1h-7.7zm11.3 9.1c0 3.6-1.3 5.2-4.2 5.2h-2.5V45.3H93c2.9 0 4.2 1.6 4.2 5.2zm11.1-5.4v3.2h8.3V52h-8.3v3.9h9.4v3.7h-14.1V41.4h13.8v3.7h-9.1zM2.1 70.6c-.2.9-.9 2.1-.5 2.9 1.6-.7 2.8-2.4 4.2-3.4-.2 1.2-.5 2.5-.5 3.9.2.3.5.5 1 .4.4-.3 1.3-.8 1.1-1.4-.6 0-.7.6-1.3.5-.3-1.4.3-2.6.7-3.8 0-.6 1-.6.7-1.4-1.8-.9-4.4.3-5.4 2.3zm.1 1.7c.2-1.1 1-2.3 2-3 .5-.2 1.6-.9 1.7-.2-1.1 1-2.3 2.3-3.7 3.2zm7 2.3c-.7.3-1.2-.4-1.6-.5.1-.1-.3-.6.2-.6 0 .4.5.6.8.7 1.9-.8.1-2.8.6-4.5.1-.7.2-1.5 1-1.7.3.1.8-.2.9.2 0 .6-1.1.2-1.3 1-.7 1.8 1.5 4.2-.6 5.4zm5.2-6.4c0 .6-1.1.2-1.3 1-.7 1.9 1.5 4.3-.6 5.5-.7.3-1.2-.4-1.6-.5.1-.1-.3-.6.2-.6 0 .4.5.6.8.7 1.9-.8.1-2.8.6-4.5.1-.7.2-1.5 1-1.7.3 0 .8-.3.9.1zm10 1.4c-2.1.8-1.6 3-2.6 4.3-.1-.2-.3 0-.4-.1-.1-.4-.2-.8-.1-1.2-.2.2-.6.3-.8.4-.7.5-1.4-.2-1.5-.8-.2-.7 0-1.6-.1-2.1-1.3 1.1-2.2 2.5-3.5 3.4-.8.2-.6-.6-.6-1.1.2-1.2-.1-3.4 1.1-3.8-.3 1-.3 2.5-.5 3.8 1.6-1 3.3-2.6 4.2-4.3.1-.1.1.2.3.1 0 1.4-.9 2.9-.1 4.3.7.4 1.1-.2 1.6-.4.4-1.3 1.5-2.4.7-4.1 1.1-.1.4 1.2.8 1.8.8-.2 1.6-1.3 2.7-.8.3.3.4.7.3 1.2-.8.2-.5-1.5-1.5-.6zm5.6-.9c.2-.2.2-.6 0-.8-2.8-.7-2.4 3.5-4.8 3.5 0 .7.8.3 1.1.4 0 1-.6 2.2.4 3 1.8.4 2.7-1.7 3.6-2.9-1 .8-1.9 2-3.1 2.4-2-3.1 2.5-3 2.8-5.6zm-2.1 1.2c.5-.5.7-1.2 1.5-1.2-.2.5-.6 1-1 1.3-.2.6-1.2.5-.5-.1zm6.5 3.3c-.9-.1 0-1.5 0-2.2 1.3-1.5.9-3.5 1.8-5.2.1-.3.3-1.3-.4-1-.4 1.4-.6 2.8-1.2 4-.9.1-1.9.2-2.6.8-1 1.1-2 3-1.4 4.5 1-.5 1.8-2 3.1-2.9-.1 1-.2 1.8-.3 3 1.7-.1 3.4-1.9 4.4-3.5-1.3.3-2 2-3.4 2.5zm-.7-2.9c-.8.3-3.3 4.2-2.2 1.1.3-.7 1.1-1.7 1.9-1.8.9-.3.7.3.3.7zm8.4.3c-.2.9-.9 2.1-.5 2.9 1.6-.7 2.8-2.4 4.2-3.4-.2 1.2-.5 2.5-.5 3.9.2.3.5.5 1 .4.4-.3 1.3-.8 1.1-1.4-.6 0-.7.6-1.3.5-.3-1.4.3-2.6.7-3.8 0-.6 1-.6.7-1.4-1.8-.9-4.4.3-5.4 2.3zm.1 1.7c.2-1.1 1-2.3 2-3 .5-.2 1.6-.9 1.7-.2-1.1 1-2.3 2.3-3.7 3.2zm10.5-1.4c0 1.2-1.7 1.8-2.6 2.6-.8.2-1.7.8-2.5.3.6-2 .9-4.5 3.2-5.5.6-.1 1.3.1 1.5.8 0 1.7-.4-.4-1.1-.2-1.8.6-2.5 2.6-2.9 4.3 1.7 0 3.2-1.2 4.4-2.3zm.7 2.3c1.6 0 3-1.1 4.3-2.3 0 1.2-1.7 1.8-2.6 2.6-.8.2-1.7.8-2.5.3.6-2 .9-4.5 3.2-5.5.6-.1 1.3.1 1.5.8 0 1.7-.4-.4-1.1-.2-1.7.6-2.4 2.6-2.8 4.3zm9.3-4.4c-1.4.4-2.3.2-3.5-.4-1.3 1.1-1.1 2.7-1 4.4.2.8.6 1.9 1.6 1.4 1-1.4.9-3 .8-4.7.7.1 1.5.2 2.1-.7zm-3.4 4.9c-.6-1.2-.6-3.2 0-4.4.9 0 .7 1 .8 1.5.3 1.2-.1 2.1-.8 2.9zm27.6-4.9c-1.4.4-2.3.2-3.5-.4-1.1.9-1.1 2.2-1.1 3.6-.3.3-.8.6-1.2.7-1.1-1.2-.4-3-1.4-4.3-1.3.3-2 1.7-2.9 2.6-.1-.5.1-1.1.2-1.6 0-.5 0-1.4-.7-1.3-1 .8-2.2 2.3-2.9 3.1.2-1.1.5-2.3.6-3.4-.1-.2-.1-.8-.6-.4 0 1.4-.4 2.7-.7 4-.2.6-.9 1.1-1.5 1.3-1.1-1.2-.4-3-1.4-4.3-1.3.3-2 1.7-2.9 2.6-.1-.5.1-1.1.2-1.6-.1-.5-.1-1.3-.8-1.3-1 .8-2.2 2.3-2.9 3.1.2-1.1.5-2.3.6-3.4-.1-.2-.1-.8-.6-.4 0 2-.7 3.7-1.1 5.6-.1.3-.4 1.5.5 1.1.8-2 1.7-3.9 3.5-5.3.4 1.7-.6 3.5-.9 5 1.1-.1 1.2-1.5 1.8-2.3.8-.8 1.3-2.1 2.4-2.5.4 1.5.2 2.9 1.3 4.1.6.1 1-.2 1.4-.6.1-.1.2-.3.3-.4-.1.3-.1.6-.2.9-.1.3-.4 1.5.5 1.1.8-2 1.7-3.9 3.5-5.3.4 1.7-.6 3.5-.9 5 1.1-.1 1.2-1.5 1.8-2.3.8-.8 1.3-2.1 2.4-2.5.4 1.5.2 2.9 1.3 4.1.6.1 1-.2 1.4-.6 0-.1.1-.1.1-.2v.4c.2.8.6 1.9 1.6 1.4 1-1.4.9-3 .8-4.7.6.2 1.3.3 2-.6zm-3.4 4.9c-.6-1.2-.6-3.2 0-4.4.9 0 .7 1 .8 1.5.2 1.2-.2 2.1-.8 2.9zm9.7-3.1c0 .1 0 .2-.1.2-1.1.4-1.8 2-3.2 2.4-.9-.1 0-1.5 0-2.2 1.3-1.5.9-3.5 1.8-5.2.1-.3.3-1.3-.4-1-.4 1.4-.6 2.8-1.2 4-.9.1-1.9.2-2.6.8-1 1.1-2 3-1.4 4.5 1-.5 1.8-2 3.1-2.9-.1 1-.2 1.8-.3 3 1.6-.1 3.1-1.6 4.1-3-.3.8-.7 1.7-.3 2.3 1.6-.7 2.8-2.4 4.2-3.4-.2 1.2-.5 2.5-.5 3.9.2.3.5.5 1 .4.4-.3 1.3-.8 1.1-1.4-.6 0-.7.6-1.3.5-.3-1.4.3-2.6.7-3.8 0-.6 1-.6.7-1.4-1.8-.9-4.4.3-5.4 2.3zm-4-.3c-.8.3-3.3 4.2-2.2 1.1.3-.7 1.1-1.7 1.9-1.8 1-.3.8.3.3.7zm4.1 2c.2-1.1 1-2.3 2-3 .5-.2 1.6-.9 1.7-.2-1.1 1-2.3 2.3-3.7 3.2zm8 1.7c.3.4-.1.9-.5.8-.6 0-.8-.8-.9-1.4.1-1-.2-2.4.4-3.4-.6-.6-1.5.9-1.5-.4 2.1.5 1.8-2 3.3-2.4.3.2-.1.4-.1.6-.4.3-.6.7-.6 1.2 1.2.1 2.5 0 3.8-.4.2.1 0 .4 0 .5-1.3.4-2.7.6-4.1.7-.5 1.4-.8 2.9-.1 4.3.1.1-.1-.3.3-.1zm6.6-9.1c.1.3-.1.4-.2.7 0-.3-.7-.6-.4-1 .4-.1.4.2.6.3zm5.3 3.9c-1.4.4-2.3.2-3.5-.4-.9.8-1.1 1.8-1.1 3-1 .8-1.5 2.2-2.8 2.7-1-1.4-.1-3.3.4-4.8 0-.3.5-1.5-.4-1.2-.3 2.1-1.8 4.3-.7 6.5 1.9.3 2.7-1.4 3.5-2.8 0 .4.1.8.1 1.1.2.8.6 1.9 1.6 1.4 1-1.4.9-3 .8-4.7.7 0 1.5.1 2.1-.8zm-3.4 4.9c-.6-1.2-.6-3.2 0-4.4.9 0 .7 1 .8 1.5.3 1.2-.1 2.1-.8 2.9zm10.2-2.5c-.3.8-1 2.1-1.9 2.6-.6.3-1.5 0-1.5-.8-.2-1.4 0-2.3-.2-3.5-1.7 1.2-2.8 3-3.5 4.7-.2-.1-.4 0-.5-.2.7-1.9.8-4.2 1.6-5.9.1.2.3 0 .3.2-.1.5-.2.9-.2 1.1-.1.6-.3 1.3-.4 1.9.1.3.2-.1.3 0 .6-1.2 1.7-2.2 2.9-2.6.8 1.4-.3 3.1.5 4.4.9.1 1.9-1.2 2.6-1.9zm-6-1.7c.1-.4.1-.7.2-1.1-.2 1-.3 1.2-.2 1.1z"/></symbol><symbol id="icon-security-1" viewBox="0 0 44.96 48.5"><title>security-1</title><path class="cls-1" d="M30 17.17h11a2.65 2.65 0 0 1 2.65 2.65V44.6A2.65 2.65 0 0 1 41 47.25H3.9a2.65 2.65 0 0 1-2.65-2.65V19.83a2.65 2.65 0 0 1 2.65-2.66h15.52M24.68 30.99h11.39M24.68 35.23h6.3"/><path class="cls-1" d="M40.17 1.25L27.79 20.71H17.17L29.56 1.25M8.99 1.25l10.13 15.93M19.6 1.25L24.63 9"/><circle class="cls-1" cx="14.7" cy="29.57" r="5.06"/><path class="cls-1" d="M7.87 41.55a8.27 8.27 0 0 1 6.83-3.29 8.27 8.27 0 0 1 6.83 3.29"/></symbol><symbol id="icon-site-logo" viewBox="0 0 141.7 61.8"><path d="M28.2 44.8l.1-17.8H10.2l-.1 17.8H0L.3 0h10.1l-.1 17.6h18.1V0h10.1l-.3 44.8h-10zm46.5-16.6c0 7-4.3 13.4-10.9 15.7-6.6 2.3-14.4.6-18.9-4.8-4.6-5.4-5-13.7-1.4-19.8 3.7-6.1 11.1-8.7 18-7.4 7.8 1.5 13.2 8.4 13.2 16.3-.1 9.8 0-9.7 0 0zm-9.7 0c0-3.2-1.5-6.3-4.7-7.4-2.7-.9-5.9-.2-7.8 1.9-2.2 2.6-2.5 6.9-.8 9.8 1.5 2.6 4.5 3.9 7.4 3.4 3.8-.6 5.9-4 5.9-7.7zm19 5.4c.2 3.3 3.7 5 6.7 4 1.1-.4 2.1-1.4 1.9-2.7-.2-1.5-1.8-2.1-3.1-2.3l-3.6-.8c-3.4-.7-7-2.4-8.5-5.7-1.4-2.9-1-6.4.6-9.1 3.9-6.2 13.8-7.1 19.5-2.9 2.2 1.6 3.7 4.1 3.9 6.8l-8 1.5c-.3-2.7-2.8-4.3-5.5-3.7-1.2.3-2.4 1.1-2.5 2.5-.1 1.5 1.2 2.2 2.5 2.5l4.2.8c3.7.7 7.4 2.6 9 6.2 1.3 2.9.8 6.5-.9 9.1-2.1 3.2-5.8 4.8-9.5 5.1-3.8.3-8-.4-11.1-2.8-2.1-1.7-3.7-4.2-3.8-7l8.2-1.5zm35.3-21h6.2V21h-6.2l-.1 11.8c0 3.5 3.3 3.6 6 3v8c-3.1 1.5-7.6 1.2-10.6-.3-3.4-1.7-5-5.2-5-8.9l.1-13.5h-5.6v-8.4h1.6c3.3 0 4.9-2.2 4.9-5.1v-4h8.7v9zm15.9 19c2.7 0 5.2 1.7 6.1 4.2 1 2.6.1 5.4-2 7.2-4.6 3.9-11.8-.2-10.6-6.1.7-3.1 3.5-5.3 6.5-5.3zM9.1 54.3h1.1L8 61.6H6.9L5 55.7l-1.9 5.9h-1L0 54.3h1.1L2.6 60l1.9-5.7h1.1l1.9 5.8 1.6-5.8zm2.6 7.3h-1v-7.5h1v3.1c1.1-1.6 3.3-.5 3.3 1.2v3.1h-1v-3c0-1.7-2.3-1.6-2.3.1v3zm8.8-1.4c-.5 1.4-2.1 1.9-3.4 1.3-1.2-.6-1.6-2-1.3-3.2.9-2.9 5.2-1.9 4.7 1.1h-3.8c0 1.6 2.4 2.1 2.9.5l.9.3zm-.9-1.6c0-1.7-2.6-1.6-2.7 0h2.7zm4.6-1c-1.1-.2-1.8.4-1.8 1.5v2.5h-1v-5h1v.9c.3-.7 1.1-1.1 1.8-.9v1zm5 2.6c-.5 1.4-2.1 1.9-3.4 1.3-1.2-.6-1.6-2-1.3-3.2.9-2.9 5.2-1.9 4.7 1.1h-3.8c0 1.6 2.4 2.1 2.9.5l.9.3zm-1-1.6c0-1.7-2.6-1.6-2.7 0h2.7zM33 60c.1.7.8 1.1 1.5.9.8-.2.7-1.1-.1-1.3l-.9-.2c-1.6-.3-1.6-2.3-.1-2.8 1-.4 2.3.1 2.6 1.2l-.9.3c-.1-.6-.6-.9-1.2-.8-.7.1-1 1.1-.1 1.2l.8.2c1.4.3 1.9 2 .6 2.8-1 .6-2.9.1-3.1-1.2l.9-.3zm5.3-3.3h1.1v.9h-1.1v2.6c0 .6.5.8 1.1.6v.8c-1 .4-2.1-.2-2.1-1.3v-2.7h-1v-.9h.3c.5 0 .8-.3.8-.8v-.8h.9v1.6zm3.6 5.1c-1.2 0-1.9-.9-1.9-2v-3.1h1v3c0 1.7 2.3 1.7 2.3 0v-3h1v4.9h-.9V61c-.3.5-.9.8-1.5.8zm7.2-.9c-.5 1-1.8 1.1-2.7.6-.9-.4-1.3-1.4-1.3-2.4s.5-1.9 1.4-2.4c.8-.4 2.2-.4 2.6.6v-3.2h1v7.5h-.9c-.1-.1-.1-.3-.1-.7zm-1.5 0c1.9 0 2-3.5 0-3.5-1.9 0-2 3.5 0 3.5zm8-.7c-.5 1.4-2.1 1.9-3.4 1.3-1.2-.6-1.6-2-1.3-3.2.9-2.9 5.2-1.9 4.7 1.1h-3.8c0 1.6 2.4 2.1 2.9.5l.9.3zm-1-1.6c0-1.7-2.6-1.6-2.7 0h2.7zm2.8 3h-1v-5h1v.7c1-1.7 3.3-.7 3.3 1.1v3.1h-1v-3c0-1.7-2.3-1.5-2.3.1v3zm5.8-4.9h1.1v.9h-1.1v2.6c0 .6.5.8 1.1.6v.8c-1 .4-2.1-.2-2.1-1.3v-2.7h-1v-.9h.3c.5 0 .8-.3.8-.8v-.8h.9v1.6zm2.4 3.3c.1.7.8 1.1 1.5.9.8-.2.7-1.1-.1-1.3l-.9-.2c-1.6-.3-1.6-2.3-.1-2.8 1-.4 2.3.1 2.6 1.2l-.9.3c-.1-.6-.6-.9-1.2-.8-.7.1-1 1.1-.1 1.2l.8.2c1.4.3 1.9 2 .6 2.8-1 .6-2.9.1-3.1-1.2l.9-.3zm7.6-1.2l1.4-.2c.8-.1.2-1.1-.3-1.2-.7-.2-1.5.2-1.6.9l-.9-.2c.3-2.2 4.1-2.1 4.1.2v2.5c0 .4 0 .7.1.8h-1c0-.1-.1-.3 0-.7-.6 1-2.3 1.2-3 .2-.8-1 .1-2.1 1.2-2.3zm1.7.7v-.2l-1.5.2c-1.1.2-.8 1.5.2 1.5.8 0 1.3-.7 1.3-1.5zm4.9-1.9c-1.1-.1-1.8.4-1.8 1.5v2.5h-1v-5h1v.9c.3-.7 1.1-1.1 1.8-.9v1zm5 2.6c-.5 1.4-2.1 1.9-3.4 1.3-1.2-.6-1.6-2-1.3-3.2.9-2.9 5.2-1.9 4.7 1.1H81c0 1.6 2.4 2.1 2.9.5l.9.3zm-1-1.6c0-1.7-2.6-1.6-2.7 0h2.7zm5.6.2l1.4-.2c.8-.1.2-1.1-.3-1.2-.7-.2-1.5.2-1.6.9l-.9-.2c.3-2.2 4.1-2.1 4.1.2v2.5c0 .4 0 .7.1.8h-1c0-.1-.1-.3 0-.7-.6 1-2.3 1.2-3 .2-.9-1 0-2.1 1.2-2.3zm1.7.7v-.2l-1.5.2c-1.1.2-.8 1.5.2 1.5.8 0 1.3-.7 1.3-1.5zm3.4-2.8h1.1v.9h-1.1v2.6c0 .6.5.8 1.1.6v.8c-1 .4-2.1-.2-2.1-1.3v-2.7h-1v-.9h.3c.5 0 .8-.3.8-.8v-.8h.9v1.6zm5.4 4.9h-1v-7.5h1v3.1c1.1-1.6 3.3-.5 3.3 1.2v3.1h-1v-3c0-1.7-2.3-1.6-2.3.1v3zm9.2-2.5c0 3.4-5.1 3.4-5.1 0s5.1-3.4 5.1 0c0 1.6 0-1.5 0 0zm-1 0c0-2.3-3.1-2.3-3.1 0s3.1 2.3 3.1 0c0-1.1 0 1.2 0 0zm1.8 2.5v-5h.9v.7c.6-1.1 2.5-1.1 3 .1 1-1.7 3.4-.9 3.4 1v3.2h-1v-3.1c0-1.6-2.2-1.4-2.2.1v3h-1v-3.1c0-1.6-2.2-1.4-2.2.1v3h-.9zm12.9-1.4c-.5 1.4-2.1 1.9-3.4 1.3-1.2-.6-1.6-2-1.3-3.2.9-2.9 5.2-1.9 4.7 1.1H119c0 1.6 2.4 2.1 2.9.5l.9.3zm-1-1.6c0-1.7-2.6-1.6-2.7 0h2.7zm2.4 1.6c.9 0 .9 1.4 0 1.4-.9.1-.9-1.4 0-1.4z"/></symbol><symbol id="icon-travel-location-2" viewBox="0 0 30.8 42.29"><title>travel-location-2</title><path class="cls-1" d="M15.4 1.25A14.15 14.15 0 0 0 1.25 15.4C1.25 23.21 15.4 41 15.4 41s14.15-17.79 14.15-25.6A14.15 14.15 0 0 0 15.4 1.25zm0 8.84a5.31 5.31 0 1 1-5.31 5.31 5.31 5.31 0 0 1 5.31-5.31z"/></symbol><symbol id="icon-twitter" viewBox="0 0 19.472 15.829"><path d="M17.481 3.943c.007.172.007.348.007.515 0 5.282-4.016 11.371-11.364 11.371A11.28 11.28 0 0 1 0 14.032a8.024 8.024 0 0 0 5.915-1.653A4.006 4.006 0 0 1 2.18 9.603a4.058 4.058 0 0 0 1.806-.07A3.992 3.992 0 0 1 .787 5.615v-.051c.529.305 1.147.48 1.8.499A3.993 3.993 0 0 1 .815 2.738c0-.731.198-1.42.54-2.007A11.34 11.34 0 0 0 9.59 4.906a3.997 3.997 0 0 1 6.805-3.646 8.03 8.03 0 0 0 2.544-.969 4.04 4.04 0 0 1-1.762 2.213 7.913 7.913 0 0 0 2.294-.631 8.076 8.076 0 0 1-1.99 2.07z"/></symbol><symbol id="icon-wifi" viewBox="0 0 50.59 42.05"><title>wifi</title><path class="cls-1" d="M14.74 26.66a14.38 14.38 0 0 1 21.11 0M8.19 19.32a23.31 23.31 0 0 1 34.22 0M49.34 11.76a32.76 32.76 0 0 0-48.09 0"/><circle class="cls-1" cx="25.3" cy="36.42" r="4.38"/></symbol><symbol id="icon-youtube" viewBox="0 0 20.791 24.061"><path fill-rule="evenodd" clip-rule="evenodd" fill="#FFF" d="M10.584 2.219a1.864 1.864 0 0 0-.558 0c-.411.077-1.137.34-1.405 1.22 0 0-.059.441-.059.629v3.123s.013.537.31 1.004c.224.355.616.664 1.237.732.086.011.363.011.462-.002.585-.086.96-.39 1.181-.73.294-.467.303-1.004.303-1.004V4.068c0-.188-.057-.629-.057-.629-.271-.889-1.017-1.15-1.414-1.22zm.289 1.848V7.19c0 .749-.563.69-.563.69s-.625.059-.625-.69V4.067c0-.879.625-.812.625-.812.626.001.563.812.563.812zm4.436-1.814v5.065c-.18.437-.683.562-.683.562-.44 0-.38-.312-.38-.312V2.253h-1.189V7.94c0 .629.319 1.001.943 1.001.626 0 1.309-.811 1.309-.811v.748h1.188V2.253h-1.188zM6.25 3.438L5.309 0H3.932l1.691 5.251v3.568h1.246V5.251L8.496 0h-1.31L6.25 3.438zM17.828 16.436s-.059-.693-.566-.693c-.502 0-.633.568-.633.693v.818h1.199v-.818zm.822-5.863c-1.447-.25-3.095-.188-8.316-.25-3.53 0-5.305.062-5.545.062-2.273.126-3.848-.189-4.418 2.274C.127 14.042 0 15.807 0 17.155c.127 2.936-.133 6.461 2.707 6.719 1.453.129 5.229.188 7.719.188 3.404 0 7.089-.064 8.356-.316.551-.135 1.031-.705 1.192-.943.734-.99.75-2.479.816-5.672-.128-2.711.067-6.242-2.14-6.558zM6.109 13.725H4.664v7.629h-1.33v-7.629H1.947v-1.324h4.162s.063 1.324 0 1.324zm3.717 7.692H8.625v-.764s-.629.824-1.32.824c-.695 0-.943-.439-.943-1.258v-5.482h1.19v5.354s0 .254.325.254c.305 0 .748-.445.748-.57v-5.037h1.201v6.679zm4.604-1.198s-.135 1.258-.889 1.258-1.195-.439-1.443-.756v.695h-1.195v-8.952h1.195v2.899s.636-.756 1.195-.756c.566 0 1.137.377 1.137 1.199v4.413zm4.535 0c-.183 1.135-1.578 1.258-1.578 1.258-2.019 0-1.954-1.893-1.954-1.893v-3.148c0-.253.123-.629.123-.629.137-.381.267-1.133 1.77-1.133 1.764 0 1.704 1.762 1.704 1.762v1.83h-2.4v1.318c0 .377.191.76.696.76.503 0 .503-.76.503-.76v-.498h1.201c-.001 0 .059.309-.065 1.133zm-6.232-4.476c-.326 0-.576.254-.576.254v4.094c.188.254.576.254.576.254.497 0 .497-.57.497-.57v-3.338c0-.44-.189-.694-.497-.694z"/></symbol></svg>