<svg xmlns="http://www.w3.org/2000/svg"><defs><style>.cls-1,.cls-2{fill:none;stroke:#1d1d1b;stroke-linecap:round;stroke-linejoin:round;stroke-width:2.5px}.cls-2{fill:#fff}.cls-3{fill:#1d1d1b}</style></defs><symbol id="icon-arrow-left" viewBox="0 0 14.6 23"><path d="M14.6 3.2L11.5 0 0 11.5 11.5 23l3.1-3.2-8.3-8.3z"/></symbol><symbol id="icon-balcony" viewBox="0 0 45.03 49.22"><title>balcony-2</title><g stroke="#231f20" stroke-width="2.5"><path fill="none" stroke-linecap="round" stroke-linejoin="round" d="M9 26.9V1.25h27.11V26.9"/><path fill="#fff" stroke-linecap="round" stroke-miterlimit="10" d="M22.3 2.34v25.93"/><path fill="#fff" stroke-miterlimit="10" d="M8.77 11.75h27.1"/><path fill="none" stroke-linecap="round" stroke-miterlimit="10" d="M1.33 28.27h42.45M1.33 47.97h42.45"/><path fill="none" stroke-miterlimit="10" d="M4.78 28.63L1.33 39.26l3.45 8.71M10.29 28.63L8.57 39.26l1.72 8.71M16.04 28.63l-.7 10.63.7 8.71M22.3 28.27v19.7M39.51 28.63l3.45 10.63-3.45 8.71M33.86 28.63l1.73 10.63-1.73 8.71M28.73 28.63l.69 10.63-.69 8.71"/><path fill="none" stroke-linecap="round" stroke-miterlimit="10" d="M26.26 22.19v2.62M18.26 22.19v2.62"/></g></symbol><symbol id="icon-bed-double" viewBox="0 0 61.72 51.8"><title>bed-double-2</title><g stroke="#231f20" stroke-linecap="round" stroke-linejoin="round" stroke-width="2.5"><path fill="none" d="M1.25 1.25h59.22v49.3H1.25z"/><path fill="#fff" d="M1.87 23.55h58.6"/><path fill="none" d="M6.66 6.93h20.06v9.49H6.66zM34.11 6.93h20.06v9.49H34.11z"/><path fill="#fff" d="M3.95 23.55L60.47 35"/></g></symbol><symbol id="icon-bed-single" viewBox="0 0 34.17 51.8"><title>bed-single-1</title><g stroke="#231f20" stroke-linecap="round" stroke-linejoin="round" stroke-width="2.5"><path fill="none" d="M1.25 1.25h31.67v49.3H1.25z"/><path fill="#fff" d="M1.81 22.23h29.37"/><path fill="none" d="M6.92 6.93h20.06v9.49H6.92zM32.92 33.68L1.81 22.23"/></g></symbol><symbol id="icon-bike-dlock" viewBox="0 0 49.47 49.47"><title>bike-storage-1</title><g fill="none" stroke="#231f20" stroke-miterlimit="10" stroke-width="2.5"><path d="M20.98 44.565l23.589-23.59 3.132 3.133-23.589 23.59z"/><path d="M25.89 4.56C20-.38 11.46.33 5.89 5.89S-.38 20 4.56 25.89l.35.37L22.1 43.45 43.45 22.1 26.26 4.91z"/></g></symbol><symbol id="icon-bike" viewBox="0 0 79.61 40.76"><title>bike-storage-2</title><g fill="none" stroke="#231f20" stroke-linecap="round" stroke-linejoin="round" stroke-width="2.5"><circle cx="66.02" cy="27.16" r="12.35"/><path d="M66.02 27.16L60.27 2.5l-5.62-1.25"/><path d="M36.84 3.34h-3.51l.71 3.84 4.06 21.83 23.94-18.9-.85-3.64-26.04.8"/><circle cx="24.49" cy="27.16" r="12.35"/><path d="M38.1 29.01H23.61L34.04 7.18M23.85 1.97H1.25M23.85 9.08H1.25M8.16 16.25H1.25"/></g></symbol><symbol id="icon-bills-gas-and-electricity" viewBox="0 0 44.77 59.37"><title>bills-1</title><path d="M23.85 23.95c-3.38-9.63-10.41-22.7-10.41-22.7S1.25 25.07 1.25 31.53a12.19 12.19 0 0 0 12.19 12.19c5 0 9.31-2.53 11.18-7" fill="none" stroke="#000" stroke-linecap="round" stroke-linejoin="round" stroke-width="2.5"/><path fill="none" stroke="#000" stroke-linecap="round" stroke-linejoin="round" stroke-width="2.5" d="M38.93 6.11L13.44 36.26h12.27l-3.66 21.86 21.47-28.89H31.25l7.68-23.12z" id="34e510ba-87c8-49ef-9908-5b49f62cd066" data-name="wea-bolt"/></symbol><symbol id="icon-binocular" viewBox="0 0 43.78 37.92"><title>balcony-1</title><g fill="none" stroke="#231f20" stroke-miterlimit="10" stroke-width="2.5"><circle cx="10" cy="27.92" r="8.75"/><circle cx="10" cy="27.92" r="5.09"/><path d="M18.75 15.5v12.42M4.1 21.19L10 3.92s4.58-6 8.75 0v2.24"/><circle cx="33.77" cy="27.92" r="8.75"/><path d="M25.02 15.5v12.42M39.81 21.59l-6-17.67s-4.58-6-8.75 0v2.64M14.86 9.59s6-6.81 13.06 0v4.31L21.39 16l-6.53-2.22zM27.92 13.89s-4.66-3.71-13.06-.14"/><circle cx="33.77" cy="27.92" r="5.09"/></g></symbol><symbol id="icon-camera" viewBox="0 0 43.26 36.53"><path d="M15.71 0a1.44 1.44 0 0 0-1.14.8l-2.49 5H6.25A6.27 6.27 0 0 0 0 12v18.28a6.27 6.27 0 0 0 6.25 6.25H37a6.27 6.27 0 0 0 6.25-6.25V12A6.27 6.27 0 0 0 37 5.77h-5.82L28.69.8A1.44 1.44 0 0 0 27.4 0H15.71zm1.05 2.88h9.73l2.49 5a1.44 1.44 0 0 0 1.29.8H37A3.33 3.33 0 0 1 40.37 12v18.28A3.33 3.33 0 0 1 37 33.65H6.25a3.33 3.33 0 0 1-3.36-3.36V12a3.33 3.33 0 0 1 3.36-3.35H13a1.44 1.44 0 0 0 1.29-.8zm4.87 7.21a11.05 11.05 0 1 0 11.05 11.06 11.08 11.08 0 0 0-11.05-11.06zm0 2.88a8.17 8.17 0 1 1-8.17 8.17A8.15 8.15 0 0 1 21.63 13zm-.06 1a1.44 1.44 0 0 0 .06 2.88 4.3 4.3 0 0 1 4.37 4.3 1.44 1.44 0 1 0 2.88 0 7.23 7.23 0 0 0-7.21-7.21z"/></symbol><symbol id="icon-cleaning-bin" viewBox="0 0 34.42 43.99"><title>cleaning-2</title><g fill="none" stroke="#000" stroke-linecap="round" stroke-linejoin="round" stroke-width="2.5"><path d="M31.09 10.44c-1.07-.32-2.3-.79-2.61-1.87a7.69 7.69 0 0 1-.13-1.15c-.28-2.2-3-3.37-5.17-2.8a3.53 3.53 0 0 1-1.18.22 3.17 3.17 0 0 1-1.3-.58c-3.83-2.31-9.28-4.38-12.1-.93a6.73 6.73 0 0 1-1.07 1.18 9.32 9.32 0 0 1-1.37.73 5.39 5.39 0 0 0-2.81 5.11M1.25 10.82h31.92l-4 29.41a2.9 2.9 0 0 1-2.88 2.51H8.14a2.9 2.9 0 0 1-2.88-2.51z"/><path d="M9.82 36.94L7.05 16.62h17.34"/></g></symbol><symbol id="icon-cleaning-hoover" viewBox="0 0 63.22 54.5"><title>cleaning-1</title><g fill="none" stroke="#000" stroke-linecap="round" stroke-linejoin="round" stroke-width="2.5"><path d="M61.97 1.25v1.92L51.4 6.96l.01 5.29-5.3.01-.01-5.29-10.59-3.76V1.3l26.46-.05zM31.75 42.64c0 9.5-1.22 10.59-13.21 10.61-11.83.02-13.24-1.06-13.25-10.56s2.52-23.82 13.19-23.84C29 18.83 31.73 33.14 31.75 42.64z"/><ellipse cx="18.49" cy="30.08" rx="2.65" ry="4.19" transform="rotate(-.1 17.164 28.663)"/><path d="M18.48 18.85v-4c0-5.12 2.63-9.27 7.75-9.28s8.14 4.13 8.15 9.25v8.81c0 5.12 1.91 9.26 7 9.25s7.38-4.16 7.37-9.27V12.29M4.43 49.33c-1.75 0-3.18-2.46-3.18-5.51s1.41-5.52 3.17-5.52M32.49 38.26c1.75 0 3.18 2.46 3.18 5.51s-1.41 5.52-3.17 5.52"/></g></symbol><symbol id="icon-cleaning-rubbish" viewBox="0 0 59.92 53.1"><title>cleaning-3</title><g fill="none" stroke="#000" stroke-linecap="round" stroke-linejoin="round" stroke-width="2.5"><path d="M24.71 48.15c2 2.54 4.91 3.48 8.9 3.57 11.89.27 13.38 0 13.38 0s11.68-.58 11.68-20.29-19-13.6-15.85-24.66c2.46-3.5 2.12-4.17 2.12-4.17a10 10 0 0 0-10 0s0 1.26 1.9 4.17c1.54 7.89-8.19 3.16-13.61 11.6"/><path d="M47.34 41.21a39.23 39.23 0 0 0 2.93-6.72A19.76 19.76 0 0 0 49.79 22M47.93 30.3a11.63 11.63 0 0 0-1.41-7 34.66 34.66 0 0 0-4.21-5.92M26.29 22.83c-.9-.27-1.93-.66-2.19-1.57a6.46 6.46 0 0 1-.11-1c-.23-1.85-2.54-2.83-4.34-2.35a3 3 0 0 1-1 .18 2.66 2.66 0 0 1-1.09-.49c-3.2-1.94-7.77-4.15-10.14-1.26a5.65 5.65 0 0 1-.9 1 7.82 7.82 0 0 1-1.15.66A4.53 4.53 0 0 0 3 22.28M1.25 23.15H28l-3.32 24.69a2.44 2.44 0 0 1-2.41 2.11H7a2.44 2.44 0 0 1-2.41-2.11zM8.45 45.08L6.12 28.02"/></g></symbol><symbol id="icon-cleaning-standing-hoover" viewBox="0 0 25.38 61.16"><title>cleaning-4</title><g fill="none" stroke="#000" stroke-linecap="round" stroke-linejoin="round" stroke-width="2.5"><path d="M24.13 59.91H1.25L2 55.08h21.07l1.06 4.83zM4.39 55.08l.01-3.47h16.34l.26 3.47M18.24 45.55l-.85-24.24H7.62l-.85 24.24h11.47zM14.4 21.31l-.28-20.06h-3.23l-.28 20.06M10.89 46.37l-.28 5.24M14.4 51.61l-.28-5.24"/></g></symbol><symbol id="icon-computer" viewBox="0 0 40.6 35.63"><rect width="38.1" height="27.84" x="1.25" y="1.25" class="cls-1" rx="2.2" ry="2.2"/><path d="M38.94 21.85H1.36" class="cls-2"/><circle cx="20.3" cy="25.45" r="1.16" class="cls-3"/><path d="M17.68 29.09l-.95 5.29h7.14l-1.35-5.29h-4.84zm6.19 5.29h2.63m-12.7 0h2.93" class="cls-1"/></symbol><symbol id="icon-cross" viewBox="0 0 14 14"><path d="M14 3l-3-3-4 4-4-4-3 3 4 4-4 4 3 3 4-4 4 4 3-3-4-4 4-4z"/></symbol><symbol id="icon-desk-1" viewBox="0 0 77.75 36.2"><title>desk-1</title><g stroke="#231f20" stroke-linecap="round" stroke-linejoin="round" stroke-width="2.5"><path fill="none" d="M1.25 1.25H76.5v5H1.25zM6.08 6.25h31.29v28.7H6.08zM67.48 6.25h4.1v28.7h-4.1z"/><path fill="#fff" d="M6.08 20.6h31.29"/><path fill="none" d="M18.66 13.67h6.13M18.66 28.03h6.13"/></g></symbol><symbol id="icon-desk-chair" viewBox="0 0 84.55 39.62"><title>desk-2</title><g stroke="#231f20" stroke-linecap="round" stroke-linejoin="round" stroke-width="2.5"><path fill="none" d="M44.37 9.68H1.25v-5h43.62M66.37 4.68H83.3v5H66.81"/><path fill="none" d="M6.08 9.67h31.29v28.7H6.08zM73.46 9.67h4.47v28.7h-4.47z"/><path fill="#fff" d="M6.08 24.02h31.29"/><path fill="none" d="M18.66 17.09h6.13M18.66 31.45h6.13M56.54 23.44c.42 0 .76-.05 1.09-.06l7.71-.1a3.8 3.8 0 0 0 3.73-2.94c.28-1.24.39-2.51.54-3.78a2.93 2.93 0 0 0-1-2.7c-.47-.41-.95-.8-1.45-1.17a1.26 1.26 0 0 1-.57-1c-.16-1.92-.35-3.84-.5-5.76a4.35 4.35 0 0 0-1.56-3.5A6.15 6.15 0 0 0 61 1.41a84.15 84.15 0 0 0-11.67.09c-2.36.22-4 1.38-4.19 4.14-.1 1.67-.24 3.35-.39 5-.08.9-.09 1.83-1 2.39a7.88 7.88 0 0 0-.93.76 2.93 2.93 0 0 0-1.18 2.59 33.33 33.33 0 0 0 .47 3.74 3.82 3.82 0 0 0 4 3.22c2.23.05 4.46.07 6.7.1h1.95a16.46 16.46 0 0 0 1.78 0zM67.5 31.06l-11.83.46-11.99-.64"/><path fill="none" d="M55.67 23.53v7.99l6.24 5.96M49.14 37.49l6.54-5.91"/><rect x="49.57" y="5.4" width="12.35" height="6.96" rx="2.48" ry="2.48" fill="none"/></g></symbol><symbol id="icon-electricity" viewBox="0 0 32.58 54.5"><title>bills-2</title><path fill="none" stroke="#000" stroke-linecap="round" stroke-linejoin="round" stroke-width="2.5" d="M26.74 1.25L1.25 31.39h12.28L9.86 53.25l21.48-28.89H19.06l7.68-23.11z" id="19c80def-5ae9-44b8-a3df-6fdd1ed6f74a" data-name="wea-bolt"/></symbol><symbol id="icon-emergency-hazard" viewBox="0 0 41.95 36.67"><title>emergency-2</title><path fill="none" stroke="#000" stroke-linecap="round" stroke-linejoin="round" stroke-width="2.5" d="M1.25 35.42L20.98 1.25 40.7 35.42H1.25zM20.98 11.18V24.8"/><circle cx="20.98" cy="29.7" r="1.21"/></symbol><symbol id="icon-emergency-response" viewBox="0 0 49.23 40.95"><title>emergency-1</title><g fill="none" stroke="#000" stroke-linecap="round" stroke-linejoin="round" stroke-width="2.5"><path d="M24.49 10.76a13.67 13.67 0 0 0-13.67 13.67V39.7h27.34V24.43a13.67 13.67 0 0 0-13.67-13.67zM24.49 15.23a9.21 9.21 0 0 1 9.2 9.2M5.07 24.42H1.25M7.79 14.68l-3.31-1.91M15.01 7.59L13.1 4.28M24.81 5.07V1.25M34.56 7.79l1.91-3.31M41.64 15.01l3.31-1.91M44.16 24.81h3.82M10.82 33.7h27.34"/></g></symbol><symbol id="icon-facebook" viewBox="0 0 11.589 22.756"><path d="M11.589 3.412H9.734c-.912 0-2.123.739-2.123 1.646v3.085h3.617v3.748H7.611v10.864H3.582V11.892H0V8.144h3.582V4.075C3.582 1.645 5.794 0 7.573 0h4.016v3.412z"/></symbol><symbol id="icon-finishing-touches-chair" viewBox="0 0 37.46 47.76"><title>finishing-touches-chair</title><g fill="none" stroke="#231f20" stroke-linecap="round" stroke-linejoin="round" stroke-width="2.5"><path d="M19.85 29c.53 0 .94-.07 1.36-.07l9.62-.13a4.74 4.74 0 0 0 4.66-3.67c.35-1.55.49-3.14.68-4.72A3.66 3.66 0 0 0 34.88 17c-.59-.51-1.18-1-1.81-1.46a1.57 1.57 0 0 1-.71-1.19c-.2-2.4-.44-4.8-.62-7.2-.13-1.7-.47-3.28-1.95-4.37a7.68 7.68 0 0 0-4.33-1.32 105.12 105.12 0 0 0-14.58.11c-2.95.27-5 1.73-5.23 5.17-.12 2.09-.31 4.18-.49 6.27-.1 1.12-.11 2.28-1.26 3a9.84 9.84 0 0 0-1.17 1 3.67 3.67 0 0 0-1.47 3.24 41.63 41.63 0 0 0 .59 4.67 4.78 4.78 0 0 0 5 4c2.79.07 5.58.09 8.37.13h2.43a20.55 20.55 0 0 0 2.2-.05zM33.54 38.49l-14.77.57-14.98-.8"/><path d="M18.77 29.08v9.98l7.79 7.45M10.61 46.51l8.17-7.38"/><rect x="11.14" y="6.44" width="15.42" height="8.69" rx="2.48" ry="2.48"/></g></symbol><symbol id="icon-finishing-touches-frame" viewBox="0 0 36.6 39.32"><title>finishing-touches-frame</title><g fill="none" stroke="#231f20" stroke-linecap="round" stroke-linejoin="round" stroke-width="2.5"><path d="M1.25 10.8h34.1v27.28H1.25zM8.07 10.8L18.3 1.25l10.23 9.55"/><circle cx="9.72" cy="17.2" r="2.73"/><path d="M1.77 34.82l10.39-10.38 10.97 13.63M16.93 29.21l7.51-7.5 10.91 10.91"/></g></symbol><symbol id="icon-finishing-touches-lamp" viewBox="0 0 38.96 39.38"><title>finishing-touches-lamp</title><g fill="none" stroke="#231f20" stroke-linecap="round" stroke-linejoin="round" stroke-width="2.5"><path d="M14.27 38.13L1.25 10.55l12.33-9.3 2.93 3.86M2.46 38.13H26.5"/><path d="M29.42 6.51c-4-4-9.73-4.57-12.91-1.39S14 14.07 17.9 18zM23.44 18.54l1.98 7.71M26.91 15.71l5.6 5.6M29.53 11.79l8.18 1.99"/></g></symbol><symbol id="icon-freezer" viewBox="0 0 39.73 43.4"><title>kitchen-2</title><g fill="none" stroke="#231f20" stroke-linecap="round" stroke-linejoin="round" stroke-width="2.5"><path d="M19.86 3.05V21.7M19.86 10.85l-3.77-3.77M19.86 10.85l3.58-3.77M18.06 1.25l1.8 1.8M19.86 3.05l1.71-1.8M3.71 12.38l16.15 9.32M10.47 16.28l-5.16 1.38M10.47 16.28l-1.48-4.99M1.25 13.04l2.46-.66M3.71 12.38L3.01 10M3.71 31.03l16.15-9.33M10.47 27.13l-1.39 5.15M10.47 27.13l-5.06-1.22M3.05 33.49l.66-2.46M3.71 31.03l-2.41-.58M19.86 40.35V21.7M19.86 32.55l3.78 3.78M19.86 32.55l-3.58 3.78M21.66 42.15l-1.8-1.8M19.86 40.35l-1.71 1.8M36.02 31.03L19.86 21.7M29.26 27.13l5.15-1.38M29.26 27.13l1.48 4.99M38.48 30.37l-2.46.66M36.02 31.03l.7 2.38M36.02 12.38L19.86 21.7M29.26 16.28l1.38-5.16M29.26 16.28l5.06 1.21M36.67 9.92l-.65 2.46M36.02 12.38l2.41.58"/></g></symbol><symbol id="icon-fridge" viewBox="0 0 30.04 51.51"><title>kitchen-1</title><g fill="none" stroke="#231f20" stroke-linecap="round" stroke-linejoin="round" stroke-width="2.5"><path d="M1.25 24.8V7.91a6.68 6.68 0 0 1 6.66-6.66h14.22a6.68 6.68 0 0 1 6.66 6.66V24.8"/><path d="M1.25 47.51v-27c0-3.66 27.54-3.66 27.54 0v27c0 3.66-27.54 3.66-27.54 0zM22.83 12.21V9.16M22.83 27.86V24.8"/></g></symbol><symbol id="icon-furnishing-bedside" viewBox="0 0 29.84 40.69"><title>furnishing-bedside</title><g fill="none" stroke="#231f20" stroke-linecap="round" stroke-linejoin="round" stroke-width="2.5"><path d="M12.37 24.81h5.1M12.37 34.43h5.1M1.25 19.1h27.34v20.34H1.25zM1.25 29.27h27.34M16.63 1.25l-2.04 8.68h10.95l-1.95-8.68h-6.96zM18.25 9.93v3.34s-2.8 3.74-.53 4.67h5.07s1.47-.4-.6-4.67V9.93"/></g></symbol><symbol id="icon-furnishing-drawers" viewBox="0 0 48.69 29.84"><title>furnishing-drawers</title><g fill="none" stroke="#231f20" stroke-linecap="round" stroke-linejoin="round" stroke-width="2.5"><path d="M21.75 8.93h5.1M21.75 20.75h5.1M1.25 1.25h46.19v27.34H1.25zM1.25 14.92h46.19"/></g></symbol><symbol id="icon-furnishing-wardrobe" viewBox="0 0 37.92 49.68"><title>furnishing-wardrobe</title><g fill="none" stroke="#231f20" stroke-linecap="round" stroke-linejoin="round" stroke-width="2.5"><path d="M1.25 1.25h35.42v47.18H1.25zM13.96 1.25v47.18M18.75 22.25v5.83M8.92 22.25v5.83"/></g></symbol><symbol id="icon-googleplus" viewBox="0 0 20 20"><title>Google Plus</title><path d="M1.99 5.59c0 1.492.5 2.57 1.482 3.204.805.52 1.74.597 2.226.597h.278s-.154 1.01.59 2h-.034c-1.29 0-5.494.27-5.494 3.73 0 3.52 3.862 3.7 4.636 3.7h.254c.497 0 1.782-.06 2.976-.64 1.548-.75 2.334-2.06 2.334-3.88 0-1.76-1.196-2.81-2.07-3.58-.533-.47-.994-.87-.994-1.27s.336-.7.762-1.08c.688-.61 1.338-1.49 1.338-3.15 0-1.46-.19-2.43-1.354-3.05.122-.06.55-.11.764-.14.63-.08 1.554-.18 1.554-.7v-.1H6.64c-.046 0-4.65.17-4.65 4.39zm7.423 9.01c.088 1.406-1.115 2.444-2.92 2.575-1.835.135-3.346-.69-3.434-2.097-.05-.675.25-1.336.83-1.863.59-.533 1.4-.862 2.28-.928.1-.007.2-.012.31-.012 1.69 0 2.84.998 2.93 2.324zm-1.2-9.976c.45 1.587-.23 3.246-1.316 3.552a1.423 1.423 0 0 1-.384.053c-.995 0-1.98-1.01-2.345-2.39-.204-.78-.188-1.46.046-2.12.23-.65.643-1.08 1.163-1.23.125-.04.255-.06.385-.06 1.2 0 1.972.5 2.45 2.18zM15.96 8.08v-3h-1.9v3h-3v1.9h3v3h1.9v-3h3v-1.9h-3z"/></symbol><symbol id="icon-gym-bicep" viewBox="0 0 46.82 49.6"><title>gym-1</title><path d="M46.1 27.42A89.2 89.2 0 0 0 42.17 10a28.28 28.28 0 0 0-.48-2.88 12.49 12.49 0 0 0-2-5c-.12-.16-.28-.3-1-.63A16.19 16.19 0 0 0 37 .86 16.37 16.37 0 0 0 32 0a10.15 10.15 0 0 0-4 .75c-2.39 1-4.11 3.84-3.54 5.83a2.53 2.53 0 0 0 1.18 1.56v.1a2.12 2.12 0 0 0 1.22 2 3 3 0 0 0 1.21.24 4.47 4.47 0 0 0 .73-.06 3 3 0 0 0 2 1.72 2.4 2.4 0 0 0 .54.06 4.69 4.69 0 0 0 1.66-.32c-.37 8-.3 12.64-.16 15.13a17.24 17.24 0 0 0-3.53-1.86 18.78 18.78 0 0 0-6.7-1.25 24.25 24.25 0 0 0-8.3 1.51 14.6 14.6 0 0 0-2.71-2.91A16 16 0 0 0 1 19a1 1 0 0 0-1 1v28.57a1 1 0 0 0 1 1 1 1 0 0 0 .67-.25l9-7.74a23.15 23.15 0 0 0 9.93 4 28.41 28.41 0 0 0 4.51.35 32.22 32.22 0 0 0 6.61-.7 30.39 30.39 0 0 0 9.19-3.51 15.22 15.22 0 0 0 5.75-5.47 1 1 0 0 0 .12-.52c.04-.11-.06-3.44-.68-8.31zM31.43 10.13h-.07c-.58-.13-.74-1-.75-1.1a1 1 0 0 0-.5-.77 1 1 0 0 0-.92-.06 3.18 3.18 0 0 1-1 .21 1.11 1.11 0 0 1-.35 0 1.57 1.57 0 0 1 0-.66 1 1 0 0 0-1-1.32c-.17 0-.29-.15-.35-.38-.21-.72.65-2.64 2.36-3.36A8.13 8.13 0 0 1 32 2.07a14.93 14.93 0 0 1 6.11 1.47c1.14 1.46 1.74 4.59 1.95 6.21a6 6 0 0 1-2.88.77H37a2.25 2.25 0 0 1-2-.76 1 1 0 0 0-.61-.55 1 1 0 0 0-.85.12 5.67 5.67 0 0 1-2.11.8zm3.5 4.13q0-1 .08-2a5.38 5.38 0 0 0 2 .35h.29a8.38 8.38 0 0 0 3.33-.78q.33 1 .63 2l.55 2a101.46 101.46 0 0 1 3 19.69c-2 3.33-7.3 6.4-13.42 7.7a28.73 28.73 0 0 1-10.39.34 21.26 21.26 0 0 1-8.65-3.34l1.8-1.55a1 1 0 1 0-1.35-1.57L10 39.5l-7.93 6.82V21a13.62 13.62 0 0 1 8.11 3 11.68 11.68 0 0 1 2.76 3.12 1 1 0 0 0 1.29.48 22.7 22.7 0 0 1 8.25-1.6 16.74 16.74 0 0 1 5.93 1 13.82 13.82 0 0 1 4.87 3.05 1 1 0 0 0 .77.35 1 1 0 0 0 .46-.11 1 1 0 0 0 .54-1.13s-.52-2.8-.21-12.79"/><path d="M17.07 31s7.76-2.83 12.59 1.17" fill="none" stroke="#000" stroke-linecap="round" stroke-linejoin="round" stroke-width="2.5"/></symbol><symbol id="icon-heart" viewBox="0 0 21.1 21.1"><path stroke-width="2.5" d="M5.9 1.3c2.3 0 3.5 1.1 4.7 3.4 1.2-2.2 2.3-3.4 4.6-3.4 2.5 0 4.6 2 4.7 4.5 0 4.5-4.7 9.1-9.3 13.6-4.7-4.5-9.3-9.1-9.3-13.6 0-2.5 2.1-4.6 4.6-4.5z"/></symbol><symbol id="icon-host-logo" viewBox="0 0 141.7 61.8"><path d="M28.2 44.8l.1-17.8H10.2l-.1 17.8H0L.3 0h10.1l-.1 17.6h18.1V0h10.1l-.3 44.8h-10zm46.5-16.6c0 7-4.3 13.4-10.9 15.7-6.6 2.3-14.4.6-18.9-4.8-4.6-5.4-5-13.7-1.4-19.8 3.7-6.1 11.1-8.7 18-7.4 7.8 1.5 13.2 8.4 13.2 16.3-.1 9.8 0-9.7 0 0zm-9.7 0c0-3.2-1.5-6.3-4.7-7.4-2.7-.9-5.9-.2-7.8 1.9-2.2 2.6-2.5 6.9-.8 9.8 1.5 2.6 4.5 3.9 7.4 3.4 3.8-.6 5.9-4 5.9-7.7zm19 5.4c.2 3.3 3.7 5 6.7 4 1.1-.4 2.1-1.4 1.9-2.7-.2-1.5-1.8-2.1-3.1-2.3l-3.6-.8c-3.4-.7-7-2.4-8.5-5.7-1.4-2.9-1-6.4.6-9.1 3.9-6.2 13.8-7.1 19.5-2.9 2.2 1.6 3.7 4.1 3.9 6.8l-8 1.5c-.3-2.7-2.8-4.3-5.5-3.7-1.2.3-2.4 1.1-2.5 2.5-.1 1.5 1.2 2.2 2.5 2.5l4.2.8c3.7.7 7.4 2.6 9 6.2 1.3 2.9.8 6.5-.9 9.1-2.1 3.2-5.8 4.8-9.5 5.1-3.8.3-8-.4-11.1-2.8-2.1-1.7-3.7-4.2-3.8-7l8.2-1.5zm35.3-21h6.2V21h-6.2l-.1 11.8c0 3.5 3.3 3.6 6 3v8c-3.1 1.5-7.6 1.2-10.6-.3-3.4-1.7-5-5.2-5-8.9l.1-13.5h-5.6v-8.4h1.6c3.3 0 4.9-2.2 4.9-5.1v-4h8.7v9zm15.9 19c2.7 0 5.2 1.7 6.1 4.2 1 2.6.1 5.4-2 7.2-4.6 3.9-11.8-.2-10.6-6.1.7-3.1 3.5-5.3 6.5-5.3zM9.1 54.3h1.1L8 61.6H6.9L5 55.7l-1.9 5.9h-1L0 54.3h1.1L2.6 60l1.9-5.7h1.1l1.9 5.8 1.6-5.8zm2.6 7.3h-1v-7.5h1v3.1c1.1-1.6 3.3-.5 3.3 1.2v3.1h-1v-3c0-1.7-2.3-1.6-2.3.1v3zm8.8-1.4c-.5 1.4-2.1 1.9-3.4 1.3-1.2-.6-1.6-2-1.3-3.2.9-2.9 5.2-1.9 4.7 1.1h-3.8c0 1.6 2.4 2.1 2.9.5l.9.3zm-.9-1.6c0-1.7-2.6-1.6-2.7 0h2.7zm4.6-1c-1.1-.2-1.8.4-1.8 1.5v2.5h-1v-5h1v.9c.3-.7 1.1-1.1 1.8-.9v1zm5 2.6c-.5 1.4-2.1 1.9-3.4 1.3-1.2-.6-1.6-2-1.3-3.2.9-2.9 5.2-1.9 4.7 1.1h-3.8c0 1.6 2.4 2.1 2.9.5l.9.3zm-1-1.6c0-1.7-2.6-1.6-2.7 0h2.7zM33 60c.1.7.8 1.1 1.5.9.8-.2.7-1.1-.1-1.3l-.9-.2c-1.6-.3-1.6-2.3-.1-2.8 1-.4 2.3.1 2.6 1.2l-.9.3c-.1-.6-.6-.9-1.2-.8-.7.1-1 1.1-.1 1.2l.8.2c1.4.3 1.9 2 .6 2.8-1 .6-2.9.1-3.1-1.2l.9-.3zm5.3-3.3h1.1v.9h-1.1v2.6c0 .6.5.8 1.1.6v.8c-1 .4-2.1-.2-2.1-1.3v-2.7h-1v-.9h.3c.5 0 .8-.3.8-.8v-.8h.9v1.6zm3.6 5.1c-1.2 0-1.9-.9-1.9-2v-3.1h1v3c0 1.7 2.3 1.7 2.3 0v-3h1v4.9h-.9V61c-.3.5-.9.8-1.5.8zm7.2-.9c-.5 1-1.8 1.1-2.7.6-.9-.4-1.3-1.4-1.3-2.4s.5-1.9 1.4-2.4c.8-.4 2.2-.4 2.6.6v-3.2h1v7.5h-.9c-.1-.1-.1-.3-.1-.7zm-1.5 0c1.9 0 2-3.5 0-3.5-1.9 0-2 3.5 0 3.5zm8-.7c-.5 1.4-2.1 1.9-3.4 1.3-1.2-.6-1.6-2-1.3-3.2.9-2.9 5.2-1.9 4.7 1.1h-3.8c0 1.6 2.4 2.1 2.9.5l.9.3zm-1-1.6c0-1.7-2.6-1.6-2.7 0h2.7zm2.8 3h-1v-5h1v.7c1-1.7 3.3-.7 3.3 1.1v3.1h-1v-3c0-1.7-2.3-1.5-2.3.1v3zm5.8-4.9h1.1v.9h-1.1v2.6c0 .6.5.8 1.1.6v.8c-1 .4-2.1-.2-2.1-1.3v-2.7h-1v-.9h.3c.5 0 .8-.3.8-.8v-.8h.9v1.6zm2.4 3.3c.1.7.8 1.1 1.5.9.8-.2.7-1.1-.1-1.3l-.9-.2c-1.6-.3-1.6-2.3-.1-2.8 1-.4 2.3.1 2.6 1.2l-.9.3c-.1-.6-.6-.9-1.2-.8-.7.1-1 1.1-.1 1.2l.8.2c1.4.3 1.9 2 .6 2.8-1 .6-2.9.1-3.1-1.2l.9-.3zm7.6-1.2l1.4-.2c.8-.1.2-1.1-.3-1.2-.7-.2-1.5.2-1.6.9l-.9-.2c.3-2.2 4.1-2.1 4.1.2v2.5c0 .4 0 .7.1.8h-1c0-.1-.1-.3 0-.7-.6 1-2.3 1.2-3 .2-.8-1 .1-2.1 1.2-2.3zm1.7.7v-.2l-1.5.2c-1.1.2-.8 1.5.2 1.5.8 0 1.3-.7 1.3-1.5zm4.9-1.9c-1.1-.1-1.8.4-1.8 1.5v2.5h-1v-5h1v.9c.3-.7 1.1-1.1 1.8-.9v1zm5 2.6c-.5 1.4-2.1 1.9-3.4 1.3-1.2-.6-1.6-2-1.3-3.2.9-2.9 5.2-1.9 4.7 1.1H81c0 1.6 2.4 2.1 2.9.5l.9.3zm-1-1.6c0-1.7-2.6-1.6-2.7 0h2.7zm5.6.2l1.4-.2c.8-.1.2-1.1-.3-1.2-.7-.2-1.5.2-1.6.9l-.9-.2c.3-2.2 4.1-2.1 4.1.2v2.5c0 .4 0 .7.1.8h-1c0-.1-.1-.3 0-.7-.6 1-2.3 1.2-3 .2-.9-1 0-2.1 1.2-2.3zm1.7.7v-.2l-1.5.2c-1.1.2-.8 1.5.2 1.5.8 0 1.3-.7 1.3-1.5zm3.4-2.8h1.1v.9h-1.1v2.6c0 .6.5.8 1.1.6v.8c-1 .4-2.1-.2-2.1-1.3v-2.7h-1v-.9h.3c.5 0 .8-.3.8-.8v-.8h.9v1.6zm5.4 4.9h-1v-7.5h1v3.1c1.1-1.6 3.3-.5 3.3 1.2v3.1h-1v-3c0-1.7-2.3-1.6-2.3.1v3zm9.2-2.5c0 3.4-5.1 3.4-5.1 0s5.1-3.4 5.1 0c0 1.6 0-1.5 0 0zm-1 0c0-2.3-3.1-2.3-3.1 0s3.1 2.3 3.1 0c0-1.1 0 1.2 0 0zm1.8 2.5v-5h.9v.7c.6-1.1 2.5-1.1 3 .1 1-1.7 3.4-.9 3.4 1v3.2h-1v-3.1c0-1.6-2.2-1.4-2.2.1v3h-1v-3.1c0-1.6-2.2-1.4-2.2.1v3h-.9zm12.9-1.4c-.5 1.4-2.1 1.9-3.4 1.3-1.2-.6-1.6-2-1.3-3.2.9-2.9 5.2-1.9 4.7 1.1H119c0 1.6 2.4 2.1 2.9.5l.9.3zm-1-1.6c0-1.7-2.6-1.6-2.7 0h2.7zm2.4 1.6c.9 0 .9 1.4 0 1.4-.9.1-.9-1.4 0-1.4z"/></symbol><symbol id="icon-instagram" viewBox="0 0 169.063 169.063"><path d="M122.406 0H46.654C20.93 0 0 20.93 0 46.655v75.752c0 25.726 20.93 46.655 46.654 46.655h75.752c25.727 0 46.656-20.93 46.656-46.655V46.655C169.062 20.93 148.132 0 122.406 0zm31.657 122.407c0 17.455-14.2 31.655-31.656 31.655H46.654C29.2 154.062 15 139.862 15 122.407V46.655C15 29.2 29.2 15 46.654 15h75.752c17.455 0 31.656 14.2 31.656 31.655v75.752z"/><path d="M84.53 40.97c-24.02 0-43.562 19.542-43.562 43.563 0 24.02 19.542 43.56 43.563 43.56s43.564-19.54 43.564-43.56c0-24.02-19.542-43.563-43.563-43.563zm0 72.123c-15.748 0-28.562-12.812-28.562-28.56 0-15.75 12.813-28.564 28.563-28.564s28.564 12.812 28.564 28.562c0 15.75-12.814 28.56-28.563 28.56zm45.39-84.843c-2.89 0-5.728 1.17-7.77 3.22a11.057 11.057 0 0 0-3.23 7.78c0 2.892 1.18 5.73 3.23 7.78 2.04 2.04 4.88 3.22 7.77 3.22 2.9 0 5.73-1.18 7.78-3.22 2.05-2.05 3.22-4.89 3.22-7.78 0-2.9-1.17-5.74-3.22-7.78-2.04-2.05-4.88-3.22-7.78-3.22z"/></symbol><symbol id="icon-insurance" viewBox="0 0 37.53 48.78"><title>insurance-1</title><g stroke="#231f20" stroke-linecap="round" stroke-linejoin="round" stroke-width="2.5"><path fill="#fff" d="M18.77 14.51v19M28.26 24.01h-19"/><g fill="none"><path d="M36.24 27.42v-1.67c-.06-2.44 0-4.87 0-7.31V9.25a.91.91 0 0 0-.66-1 46 46 0 0 1-4.07-2.19 1.78 1.78 0 0 1-.68-1.15.71.71 0 0 0-.63-.71c-3-.83-6.11-1.62-9.13-2.57a7.38 7.38 0 0 0-4.68 0c-1.53.48-3.07.92-4.62 1.35M1.26 17.59v9a16.4 16.4 0 0 0 .89 5.26 21.73 21.73 0 0 0 6 8.94 34.31 34.31 0 0 0 10.14 6.57 1.2 1.2 0 0 0 .84.07 36.21 36.21 0 0 0 7.68-4.38"/></g><path d="M36.26 18.43V9.24a.91.91 0 0 0-.66-1 46 46 0 0 1-4.07-2.19 1.78 1.78 0 0 1-.68-1.15.71.71 0 0 0-.63-.71c-3-.83-6.11-1.62-9.13-2.57a7.38 7.38 0 0 0-4.68 0c-3 1-6.12 1.74-9.18 2.61-.2.06-.52.28-.51.41a1.75 1.75 0 0 1-1 1.67 73.06 73.06 0 0 1-3.83 2 .83.83 0 0 0-.61.88v17.47a16.4 16.4 0 0 0 .89 5.26 21.73 21.73 0 0 0 6 8.94 34.3 34.3 0 0 0 10.14 6.57 1.2 1.2 0 0 0 .84.07 31.77 31.77 0 0 0 13.29-10 18.33 18.33 0 0 0 3.89-11.79c-.12-2.4-.07-4.84-.07-7.28z" fill="none"/></g></symbol><symbol id="icon-laundry-2" viewBox="0 0 52.07 33.88"><title>laundry-3</title><g fill="none" stroke="#000" stroke-linecap="round" stroke-linejoin="round" stroke-width="2.5"><path d="M50.82 5.24V1.25H1.25v3.99M1.25 5.24h49.57v10.09S38.91 32.63 26 32.63 1.25 15.33 1.25 15.33z"/><path d="M1.25 14.3a26.13 26.13 0 0 1 10.35.83 9.89 9.89 0 0 1 6.68 5.71 13.33 13.33 0 0 1 1.1 5.09c0 1.42-.18 3.68-.87 4.75M50.82 14.28s-14.4-1.55-17.11 6.59c-2.22 8.23.19 9.81.19 9.81M33.7 20.87l-8.14-7.13-6.98 7.13M25.56 13.74v-8.5"/></g></symbol><symbol id="icon-laundry-pants" viewBox="0 0 55.53 37.79"><title>laundry-2</title><g stroke="#000" stroke-linejoin="round" stroke-width="2.5"><path fill="none" stroke-linecap="round" d="M33.12 10.54l-.02 3.13 5.12 20.25-15.18 2.39-3.7-8.65-2.54 8.88-15.55-1.3 3.97-20.66.02-3.04 27.88-1z"/><path fill="#fff" d="M5.6 16.31l28.27-1.08"/><path d="M54.28 4.54S41.36 6 16.19 1.25L17 5.73S29.56 9.49 31.27 22a5.05 5.05 0 0 0 4.37.38s3.55-10.87 17.07-13.22z" fill="none" stroke-linecap="round"/></g></symbol><symbol id="icon-linkedin" viewBox="0 0 16.4 16.374"><path fill="#FFF" d="M3.677 16.374H.265V5.438h3.412v10.936zM1.973 3.942a1.971 1.971 0 1 1 0-3.942 1.972 1.972 0 0 1 0 3.942zM16.4 16.374h-3.403v-5.322c0-1.268-.019-2.898-1.761-2.898-1.772 0-2.039 1.38-2.039 2.804v5.417H5.796V5.438h3.262v1.49h.047c.447-.859 1.561-1.768 3.207-1.768 3.444 0 4.089 2.27 4.089 5.211v6.003z"/></symbol><symbol id="icon-maintenance-drill" viewBox="0 0 51.26 42.91"><title>maintenance-2</title><g fill="none" stroke="#000" stroke-linecap="round" stroke-linejoin="round" stroke-width="2.5"><path d="M38.66 8.82h11.35M33.42 5h2.84a1.89 1.89 0 0 1 1.89 1.89v3.78a1.89 1.89 0 0 1-1.89 1.89h-2.84M3.14 33.42l3.79-17.03M22.89 10.71h5.35M15.9 6.93h12.34M3.14 33.42v6.34A1.89 1.89 0 0 0 5 41.66h15.17a1.89 1.89 0 0 0 1.89-1.89v-4.46a1.89 1.89 0 0 0-1.89-1.89h-6.26a2.49 2.49 0 0 1-2.39-3.18l3-13.85M3.14 33.42H14.5"/><rect x="1.25" y="1.25" width="32.17" height="15.14" rx="3.78" ry="3.78"/><path d="M13.58 20.66h6.15v-4.27"/></g></symbol><symbol id="icon-maintenance-spanner" viewBox="0 0 33.37 48.5"><title>maintenance-3</title><g fill="none" stroke="#000" stroke-linecap="round" stroke-linejoin="round" stroke-width="2.5"><path d="M18.87 33.87a13.65 13.65 0 0 1-4.27-9.62V5a3.71 3.71 0 0 0-7.41 0v19.25a13.65 13.65 0 0 1-4.27 9.62s-1.67 1.21-1.67 4.48c0 4.51 1.58 8.9 4.45 8.9v-7.42c0-1.64 2.33-3 5.19-3s5.19 1.33 5.19 3v7.42c2.87 0 4.45-4.4 4.45-8.9M30.64 20.54c0-1.27.6-4.08 1.48-4.67V4.22c0-2.46-2-3-4.45-3s-4.45.51-4.45 3v11.65c.89.59 1.48 3.4 1.48 4.67 0 0 .24 4.26-1.48 4.45h8.9v-1.48a3.55 3.55 0 0 1-1.48-2.97zM27.67 47.25V24.99"/></g></symbol><symbol id="icon-maintenance-tools" viewBox="0 0 51.81 45.5"><title>maintenance-1</title><g fill="none" stroke="#000" stroke-linecap="round" stroke-linejoin="round" stroke-width="2.5"><path d="M23.6 17.85a4 4 0 0 1-4.5-4.5L9 3.21c-1.9-1.87-3.8-.74-5.67 1.13S.34 8.1 2.21 10l10.13 10.1a4 4 0 0 1 4.5 4.51L18 25.73 24.73 19zM21.28 22.48l20.7 20.58M30.75 8.36C26.67 3.58 20.3 2.83 20.3 2.83S31.87-1.87 38.58 5l4.48 4.5a3.25 3.25 0 0 0 0 4.55 3.48 3.48 0 0 0 3.07.83c2-.26 2.53.31 2.53.31l1.68 1.71a.81.81 0 0 1 0 1.14l-6.72 6.82a.78.78 0 0 1-1.12 0l-1.68-1.71s-.56-.57-.29-2.62a3.57 3.57 0 0 0-.83-3.06 3.13 3.13 0 0 0-4.48 0l-1.44 1.48-4.48-4.56M14.72 29.15l-10 10.2a1.22 1.22 0 0 0 0 1.7l2.8 2.84a1.18 1.18 0 0 0 1.68 0L23.09 29.8"/><path d="M30.75 8.36a3.25 3.25 0 0 1 0 4.55l-3 3M33.78 18.94l-4.93 4.96"/></g></symbol><symbol id="icon-microwave" viewBox="0 0 59.91 35.3"><title>kitchen-3</title><path fill="none" stroke="#231f20" stroke-linecap="round" stroke-linejoin="round" stroke-width="2.5" d="M7.15 6.49H43.6v22.32H7.15z"/><path fill="none" stroke="#231f20" stroke-linecap="round" stroke-linejoin="round" stroke-width="2.5" d="M1.25 1.25h57.41v32.8H1.25z"/><circle cx="50.95" cy="8.41" r="2.52" fill="#231f20"/><circle cx="50.95" cy="18.41" r="2.52" fill="#231f20"/><path fill="none" stroke="#231f20" stroke-linecap="round" stroke-linejoin="round" stroke-width="2.5" d="M15.93 14.43h17.45M15.93 20.86h17.45"/></symbol><symbol id="icon-national-code" viewBox="0 0 120 74.9"><path d="M34.5 0c-3.5 0-6.3 2.8-6.3 6.3v13.3c0 1.5-1.2 2.6-2.6 2.6H6.3C2.8 22.2 0 25 0 28.5c0 1.7.7 3.3 1.9 4.4C.7 34 0 35.6 0 37.4c0 1.7.7 3.3 1.9 4.4C.7 42.9 0 44.5 0 46.2c0 1.7.7 3.3 1.9 4.4C.7 51.8 0 53.4 0 55.1c0 3.5 2.8 6.3 6.3 6.3h17.4c9.4 0 17.1-7.7 17.1-17.1v-38C40.8 2.8 38 0 34.5 0zM17.3 57.8h-11c-1.5 0-2.6-1.2-2.6-2.6 0-1.5 1.2-2.6 2.6-2.6h11.1c1.5 0 2.6 1.2 2.6 2.6 0 1.4-1.2 2.6-2.7 2.6zm0-8.9h-11c-1.5 0-2.6-1.2-2.6-2.6 0-1.5 1.2-2.6 2.6-2.6h11.1c1.5 0 2.6 1.2 2.6 2.6 0 1.4-1.2 2.6-2.7 2.6zm0-8.9h-11c-1.5 0-2.6-1.2-2.6-2.6 0-1.5 1.2-2.6 2.6-2.6h11.1c1.5 0 2.6 1.2 2.6 2.6 0 1.4-1.2 2.6-2.7 2.6zm0-8.9h-11c-1.5 0-2.6-1.2-2.6-2.6 0-1.5 1.2-2.6 2.6-2.6h11.1c1.5 0 2.6 1.2 2.6 2.6 0 1.4-1.2 2.6-2.7 2.6zm19.8 13.2c0 7.4-6.1 13.5-13.5 13.5H23c.4-.8.6-1.7.6-2.6 0-1.7-.7-3.3-1.9-4.4 1.1-1.1 1.9-2.7 1.9-4.4 0-1.7-.7-3.3-1.9-4.4 1.1-1.1 1.9-2.7 1.9-4.4 0-1.7-.7-3.3-1.9-4.4 1.1-1.1 1.9-2.7 1.9-4.4 0-.9-.2-1.8-.6-2.6h2.6c3.5 0 6.3-2.8 6.3-6.3V6.3c0-1.5 1.2-2.6 2.6-2.6 1.5 0 2.6 1.2 2.6 2.6v38zm14.6-6h-2.4v-9.5H52l1.8 3.1c.6 1 1.1 2 1.6 3-.1-1.7-.1-2.9-.1-3.7v-2.4h2.4v9.5H55l-1.9-3.2c-.4-.7-.9-1.7-1.5-2.8.1 1.3.1 2.4.1 3.1v2.9zm9.8-1.7h3.2l.6 1.7h2.6l-3.4-9.5h-2.7l-3.4 9.5H61l.5-1.7zm1.6-5.3l1.1 3.3h-2.1l1-3.3zm7-.5h-2.7v-1.9h7.9v1.9h-2.7v7.6h-2.4v-7.6zm8.6 7.5h-2.4v-9.5h2.4v9.5zm6.2.3c2.9 0 4.8-1.9 4.8-5s-1.9-5-4.8-5-4.8 1.9-4.8 5 1.8 5 4.8 5zm0-8c1.5 0 2.3 1 2.3 3s-.8 3-2.3 3c-1.5 0-2.3-1-2.3-3s.8-3 2.3-3zm8.4 7.7H91v-9.5h2.6l1.8 3.1c.6 1 1.1 2 1.6 3-.1-1.7-.1-2.9-.1-3.7v-2.4h2.4v9.5h-2.6l-1.9-3.2c-.4-.7-.9-1.7-1.5-2.8.1 1.3.1 2.4.1 3.1v2.9zm9.8-1.7h3.2l.6 1.7h2.6l-3.4-9.5h-2.7l-3.4 9.5h2.5l.6-1.7zm1.6-5.3l1.1 3.3h-2.1l1-3.3zm12.7 7h-7v-9.5h2.4v7.4h4.6v2.1zM48.2 50.6c0-5.9 3.6-9.7 9.1-9.7 4.4 0 7.4 2.5 7.8 6.5h-4.4c-.4-1.7-1.6-2.6-3.6-2.6-2.5 0-4.2 2.1-4.2 5.8 0 3.6 1.6 5.6 4.1 5.6 2.1 0 3.4-1 3.7-3H65c-.6 4.4-3.6 6.9-8 6.9-5.2 0-8.8-3.8-8.8-9.5zm17.7-.1c0 5.9 3.5 9.6 9.1 9.6s9.1-3.7 9.1-9.6S80.6 41 75 41s-9.1 3.6-9.1 9.5zm13.5 0c0 3.7-1.6 5.7-4.4 5.7-2.8 0-4.4-2-4.4-5.7s1.6-5.7 4.4-5.7c2.8 0 4.4 2 4.4 5.7zm6.5-9.1v18.1H93c6 0 8.9-3 8.9-9.1 0-5.8-2.9-9.1-8.3-9.1h-7.7zm11.3 9.1c0 3.6-1.3 5.2-4.2 5.2h-2.5V45.3H93c2.9 0 4.2 1.6 4.2 5.2zm11.1-5.4v3.2h8.3V52h-8.3v3.9h9.4v3.7h-14.1V41.4h13.8v3.7h-9.1zM2.1 70.6c-.2.9-.9 2.1-.5 2.9 1.6-.7 2.8-2.4 4.2-3.4-.2 1.2-.5 2.5-.5 3.9.2.3.5.5 1 .4.4-.3 1.3-.8 1.1-1.4-.6 0-.7.6-1.3.5-.3-1.4.3-2.6.7-3.8 0-.6 1-.6.7-1.4-1.8-.9-4.4.3-5.4 2.3zm.1 1.7c.2-1.1 1-2.3 2-3 .5-.2 1.6-.9 1.7-.2-1.1 1-2.3 2.3-3.7 3.2zm7 2.3c-.7.3-1.2-.4-1.6-.5.1-.1-.3-.6.2-.6 0 .4.5.6.8.7 1.9-.8.1-2.8.6-4.5.1-.7.2-1.5 1-1.7.3.1.8-.2.9.2 0 .6-1.1.2-1.3 1-.7 1.8 1.5 4.2-.6 5.4zm5.2-6.4c0 .6-1.1.2-1.3 1-.7 1.9 1.5 4.3-.6 5.5-.7.3-1.2-.4-1.6-.5.1-.1-.3-.6.2-.6 0 .4.5.6.8.7 1.9-.8.1-2.8.6-4.5.1-.7.2-1.5 1-1.7.3 0 .8-.3.9.1zm10 1.4c-2.1.8-1.6 3-2.6 4.3-.1-.2-.3 0-.4-.1-.1-.4-.2-.8-.1-1.2-.2.2-.6.3-.8.4-.7.5-1.4-.2-1.5-.8-.2-.7 0-1.6-.1-2.1-1.3 1.1-2.2 2.5-3.5 3.4-.8.2-.6-.6-.6-1.1.2-1.2-.1-3.4 1.1-3.8-.3 1-.3 2.5-.5 3.8 1.6-1 3.3-2.6 4.2-4.3.1-.1.1.2.3.1 0 1.4-.9 2.9-.1 4.3.7.4 1.1-.2 1.6-.4.4-1.3 1.5-2.4.7-4.1 1.1-.1.4 1.2.8 1.8.8-.2 1.6-1.3 2.7-.8.3.3.4.7.3 1.2-.8.2-.5-1.5-1.5-.6zm5.6-.9c.2-.2.2-.6 0-.8-2.8-.7-2.4 3.5-4.8 3.5 0 .7.8.3 1.1.4 0 1-.6 2.2.4 3 1.8.4 2.7-1.7 3.6-2.9-1 .8-1.9 2-3.1 2.4-2-3.1 2.5-3 2.8-5.6zm-2.1 1.2c.5-.5.7-1.2 1.5-1.2-.2.5-.6 1-1 1.3-.2.6-1.2.5-.5-.1zm6.5 3.3c-.9-.1 0-1.5 0-2.2 1.3-1.5.9-3.5 1.8-5.2.1-.3.3-1.3-.4-1-.4 1.4-.6 2.8-1.2 4-.9.1-1.9.2-2.6.8-1 1.1-2 3-1.4 4.5 1-.5 1.8-2 3.1-2.9-.1 1-.2 1.8-.3 3 1.7-.1 3.4-1.9 4.4-3.5-1.3.3-2 2-3.4 2.5zm-.7-2.9c-.8.3-3.3 4.2-2.2 1.1.3-.7 1.1-1.7 1.9-1.8.9-.3.7.3.3.7zm8.4.3c-.2.9-.9 2.1-.5 2.9 1.6-.7 2.8-2.4 4.2-3.4-.2 1.2-.5 2.5-.5 3.9.2.3.5.5 1 .4.4-.3 1.3-.8 1.1-1.4-.6 0-.7.6-1.3.5-.3-1.4.3-2.6.7-3.8 0-.6 1-.6.7-1.4-1.8-.9-4.4.3-5.4 2.3zm.1 1.7c.2-1.1 1-2.3 2-3 .5-.2 1.6-.9 1.7-.2-1.1 1-2.3 2.3-3.7 3.2zm10.5-1.4c0 1.2-1.7 1.8-2.6 2.6-.8.2-1.7.8-2.5.3.6-2 .9-4.5 3.2-5.5.6-.1 1.3.1 1.5.8 0 1.7-.4-.4-1.1-.2-1.8.6-2.5 2.6-2.9 4.3 1.7 0 3.2-1.2 4.4-2.3zm.7 2.3c1.6 0 3-1.1 4.3-2.3 0 1.2-1.7 1.8-2.6 2.6-.8.2-1.7.8-2.5.3.6-2 .9-4.5 3.2-5.5.6-.1 1.3.1 1.5.8 0 1.7-.4-.4-1.1-.2-1.7.6-2.4 2.6-2.8 4.3zm9.3-4.4c-1.4.4-2.3.2-3.5-.4-1.3 1.1-1.1 2.7-1 4.4.2.8.6 1.9 1.6 1.4 1-1.4.9-3 .8-4.7.7.1 1.5.2 2.1-.7zm-3.4 4.9c-.6-1.2-.6-3.2 0-4.4.9 0 .7 1 .8 1.5.3 1.2-.1 2.1-.8 2.9zm27.6-4.9c-1.4.4-2.3.2-3.5-.4-1.1.9-1.1 2.2-1.1 3.6-.3.3-.8.6-1.2.7-1.1-1.2-.4-3-1.4-4.3-1.3.3-2 1.7-2.9 2.6-.1-.5.1-1.1.2-1.6 0-.5 0-1.4-.7-1.3-1 .8-2.2 2.3-2.9 3.1.2-1.1.5-2.3.6-3.4-.1-.2-.1-.8-.6-.4 0 1.4-.4 2.7-.7 4-.2.6-.9 1.1-1.5 1.3-1.1-1.2-.4-3-1.4-4.3-1.3.3-2 1.7-2.9 2.6-.1-.5.1-1.1.2-1.6-.1-.5-.1-1.3-.8-1.3-1 .8-2.2 2.3-2.9 3.1.2-1.1.5-2.3.6-3.4-.1-.2-.1-.8-.6-.4 0 2-.7 3.7-1.1 5.6-.1.3-.4 1.5.5 1.1.8-2 1.7-3.9 3.5-5.3.4 1.7-.6 3.5-.9 5 1.1-.1 1.2-1.5 1.8-2.3.8-.8 1.3-2.1 2.4-2.5.4 1.5.2 2.9 1.3 4.1.6.1 1-.2 1.4-.6.1-.1.2-.3.3-.4-.1.3-.1.6-.2.9-.1.3-.4 1.5.5 1.1.8-2 1.7-3.9 3.5-5.3.4 1.7-.6 3.5-.9 5 1.1-.1 1.2-1.5 1.8-2.3.8-.8 1.3-2.1 2.4-2.5.4 1.5.2 2.9 1.3 4.1.6.1 1-.2 1.4-.6 0-.1.1-.1.1-.2v.4c.2.8.6 1.9 1.6 1.4 1-1.4.9-3 .8-4.7.6.2 1.3.3 2-.6zm-3.4 4.9c-.6-1.2-.6-3.2 0-4.4.9 0 .7 1 .8 1.5.2 1.2-.2 2.1-.8 2.9zm9.7-3.1c0 .1 0 .2-.1.2-1.1.4-1.8 2-3.2 2.4-.9-.1 0-1.5 0-2.2 1.3-1.5.9-3.5 1.8-5.2.1-.3.3-1.3-.4-1-.4 1.4-.6 2.8-1.2 4-.9.1-1.9.2-2.6.8-1 1.1-2 3-1.4 4.5 1-.5 1.8-2 3.1-2.9-.1 1-.2 1.8-.3 3 1.6-.1 3.1-1.6 4.1-3-.3.8-.7 1.7-.3 2.3 1.6-.7 2.8-2.4 4.2-3.4-.2 1.2-.5 2.5-.5 3.9.2.3.5.5 1 .4.4-.3 1.3-.8 1.1-1.4-.6 0-.7.6-1.3.5-.3-1.4.3-2.6.7-3.8 0-.6 1-.6.7-1.4-1.8-.9-4.4.3-5.4 2.3zm-4-.3c-.8.3-3.3 4.2-2.2 1.1.3-.7 1.1-1.7 1.9-1.8 1-.3.8.3.3.7zm4.1 2c.2-1.1 1-2.3 2-3 .5-.2 1.6-.9 1.7-.2-1.1 1-2.3 2.3-3.7 3.2zm8 1.7c.3.4-.1.9-.5.8-.6 0-.8-.8-.9-1.4.1-1-.2-2.4.4-3.4-.6-.6-1.5.9-1.5-.4 2.1.5 1.8-2 3.3-2.4.3.2-.1.4-.1.6-.4.3-.6.7-.6 1.2 1.2.1 2.5 0 3.8-.4.2.1 0 .4 0 .5-1.3.4-2.7.6-4.1.7-.5 1.4-.8 2.9-.1 4.3.1.1-.1-.3.3-.1zm6.6-9.1c.1.3-.1.4-.2.7 0-.3-.7-.6-.4-1 .4-.1.4.2.6.3zm5.3 3.9c-1.4.4-2.3.2-3.5-.4-.9.8-1.1 1.8-1.1 3-1 .8-1.5 2.2-2.8 2.7-1-1.4-.1-3.3.4-4.8 0-.3.5-1.5-.4-1.2-.3 2.1-1.8 4.3-.7 6.5 1.9.3 2.7-1.4 3.5-2.8 0 .4.1.8.1 1.1.2.8.6 1.9 1.6 1.4 1-1.4.9-3 .8-4.7.7 0 1.5.1 2.1-.8zm-3.4 4.9c-.6-1.2-.6-3.2 0-4.4.9 0 .7 1 .8 1.5.3 1.2-.1 2.1-.8 2.9zm10.2-2.5c-.3.8-1 2.1-1.9 2.6-.6.3-1.5 0-1.5-.8-.2-1.4 0-2.3-.2-3.5-1.7 1.2-2.8 3-3.5 4.7-.2-.1-.4 0-.5-.2.7-1.9.8-4.2 1.6-5.9.1.2.3 0 .3.2-.1.5-.2.9-.2 1.1-.1.6-.3 1.3-.4 1.9.1.3.2-.1.3 0 .6-1.2 1.7-2.2 2.9-2.6.8 1.4-.3 3.1.5 4.4.9.1 1.9-1.2 2.6-1.9zm-6-1.7c.1-.4.1-.7.2-1.1-.2 1-.3 1.2-.2 1.1z"/></symbol><symbol id="icon-no-smoking-1" viewBox="0 0 46.39 46.39"><title>no-smoking-1</title><g fill="none" stroke-linecap="round" stroke-linejoin="round" stroke-width="2.5"><circle cx="23.2" cy="23.2" r="21.95" stroke="#000"/><path stroke="#231f20" d="M39.02 38L8.24 7.22M36.4 20.02l-2.32-6.5M31.55 20.02l-1.17-3.25M7.86 24.2h30.67v5.4H7.86zM17.86 24.2v4.4"/></g></symbol><symbol id="icon-pin-empty" viewBox="0 0 30.8 42.29"><title>travel-location-2</title><path d="M15.4 1.25A14.15 14.15 0 0 0 1.25 15.4C1.25 23.21 15.4 41 15.4 41s14.15-17.79 14.15-25.6A14.15 14.15 0 0 0 15.4 1.25zm0 8.84a5.31 5.31 0 1 1-5.31 5.31 5.31 5.31 0 0 1 5.31-5.31z" fill="none" stroke="#231f20" stroke-linecap="round" stroke-linejoin="round" stroke-width="2.5"/></symbol><symbol id="icon-pin-filled" viewBox="0 0 19.2 27.3"><path d="M9.6 0C4.3 0 0 4.4 0 9.7c0 5.4 9.6 17.6 9.6 17.6s9.6-12.2 9.6-17.6c0-5.3-4.3-9.7-9.6-9.7zm0 6.1c2 0 3.6 1.6 3.6 3.6s-1.6 3.6-3.6 3.6S6 11.7 6 9.7s1.6-3.6 3.6-3.6z"/></symbol><symbol id="icon-reading" viewBox="0 0 57.5 37.13"><title>study-3</title><g fill="none" stroke="#231f20" stroke-linejoin="round" stroke-width="2.5"><path d="M51.52 6.63h4.73v29.25h-55V6.63h4.13"/><path d="M28.63 35.38c8.71-8.71 22.9-3.17 22.9-3.17v-29C39.27-2.7 28.89 6.63 28.89 6.63h-.44S17.63-2.7 5.38 3.21v29s14.53-5.54 23.25 3.17z"/><path d="M20.97 2.38v18l-4.17-2.94-4.17 2.94v-18M28.45 6.63v28.75"/></g></symbol><symbol id="icon-room-gender-female" viewBox="0 0 20.36 46.63"><title>room-gender-female</title><g fill="none" stroke="#000" stroke-linecap="round" stroke-linejoin="round" stroke-width="2.5"><circle cx="10.63" cy="7.73" r="6.48"/><path d="M5.94 32.95v12.43M15.3 45.38V32.96M15.3 32.95h3.81l-8.57-18.74-9.29 18.74h4.68"/></g></symbol><symbol id="icon-room-gender-male" viewBox="0 0 23.96 46.63"><title>room-gender-male</title><g fill="none" stroke="#000" stroke-linecap="round" stroke-linejoin="round" stroke-width="2.5"><circle cx="11.98" cy="7.73" r="6.48"/><path d="M7.28 32.95v12.43M16.65 45.38V32.96M7.28 32.98L1.25 15.11h21.46l-6.06 17.87"/></g></symbol><symbol id="icon-room-gender-mixed" viewBox="0 0 44.21 47.37"><title>room-gender-mixed</title><g fill="none" stroke="#000" stroke-linecap="round" stroke-linejoin="round" stroke-width="2.5"><circle cx="10.63" cy="7.73" r="6.48"/><path d="M5.94 32.95v12.43M15.3 45.38V32.96M15.3 32.95h3.81l-8.57-18.74-9.29 18.74h4.68"/><circle cx="32.22" cy="8.46" r="6.48"/><path d="M27.53 33.68v12.44M36.89 46.12V33.69M27.52 33.72l-6.03-17.87h21.47l-6.07 17.87"/></g></symbol><symbol id="icon-room-occupancy-double" viewBox="0 0 36.07 46.63"><title>room-occupancy-double</title><g fill="none" stroke="#000" stroke-linecap="round" stroke-linejoin="round" stroke-width="2.5"><circle cx="9.64" cy="7.73" r="6.48"/><path d="M14.32 45.38V33A10.56 10.56 0 0 0 18 24.69c0-5.5-3.76-10-8.39-10s-8.39 4.46-8.39 10a10.56 10.56 0 0 0 3.7 8.26v12.43"/><circle cx="26.42" cy="7.73" r="6.48"/><path d="M31.1 45.38V33a10.56 10.56 0 0 0 3.72-8.27c0-5.5-3.76-10-8.39-10S18 19.19 18 24.69a10.56 10.56 0 0 0 3.7 8.26v12.43"/></g></symbol><symbol id="icon-room-occupancy-group-1" viewBox="0 0 52.85 46.63"><title>room-occupancy-group-1</title><g fill="none" stroke="#000" stroke-linecap="round" stroke-linejoin="round" stroke-width="2.5"><circle cx="9.64" cy="7.73" r="6.48"/><path d="M14.32 45.38V33A10.56 10.56 0 0 0 18 24.69c0-5.5-3.76-10-8.39-10s-8.39 4.46-8.39 10a10.56 10.56 0 0 0 3.7 8.26v12.43"/><circle cx="26.42" cy="7.73" r="6.48"/><path d="M31.1 45.38V33a10.56 10.56 0 0 0 3.72-8.27c0-5.5-3.76-10-8.39-10S18 19.19 18 24.69a10.56 10.56 0 0 0 3.7 8.26v12.43"/><circle cx="43.21" cy="7.73" r="6.48"/><path d="M47.88 45.38V33a10.56 10.56 0 0 0 3.72-8.27c0-5.5-3.76-10-8.39-10s-8.39 4.46-8.39 10a10.56 10.56 0 0 0 3.7 8.26v12.39"/></g></symbol><symbol id="icon-room-occupancy-group-2" viewBox="0 0 50.16 46.63"><title>room-occupancy-group-2</title><g fill="none" stroke-linecap="round" stroke-width="2.5"><circle cx="9.64" cy="7.73" r="6.48" stroke="#000" stroke-linejoin="round"/><path d="M14.32 45.38V33A10.56 10.56 0 0 0 18 24.69c0-5.5-3.76-10-8.39-10s-8.39 4.46-8.39 10a10.56 10.56 0 0 0 3.7 8.26v12.43" stroke="#000" stroke-linejoin="round"/><circle cx="26.42" cy="7.73" r="6.48" stroke="#000" stroke-linejoin="round"/><path d="M31.1 45.38V33a10.56 10.56 0 0 0 3.72-8.27c0-5.5-3.76-10-8.39-10S18 19.19 18 24.69a10.56 10.56 0 0 0 3.7 8.26v12.43" stroke="#000" stroke-linejoin="round"/><path stroke="#231f20" stroke-miterlimit="10" d="M44.24 1.25v9.33M48.91 5.91h-9.33"/></g></symbol><symbol id="icon-room-occupancy-single" viewBox="0 0 19.28 46.63"><title>room-occupancy-single</title><g fill="none" stroke="#000" stroke-linecap="round" stroke-linejoin="round" stroke-width="2.5"><circle cx="9.64" cy="7.73" r="6.48"/><path d="M14.32 45.38V33A10.56 10.56 0 0 0 18 24.69c0-5.5-3.76-10-8.39-10s-8.39 4.46-8.39 10a10.56 10.56 0 0 0 3.7 8.26v12.43"/></g></symbol><symbol id="icon-security-lanyard" viewBox="0 0 44.96 48.5"><title>security-1</title><g fill="none" stroke="#000" stroke-linecap="round" stroke-linejoin="round" stroke-width="2.5"><path d="M30 17.17h11a2.65 2.65 0 0 1 2.65 2.65V44.6A2.65 2.65 0 0 1 41 47.25H3.9a2.65 2.65 0 0 1-2.65-2.65V19.83a2.65 2.65 0 0 1 2.65-2.66h15.52M24.68 30.99h11.39M24.68 35.23h6.3"/><path d="M40.17 1.25L27.79 20.71H17.17L29.56 1.25M8.99 1.25l10.13 15.93M19.6 1.25L24.63 9"/><circle cx="14.7" cy="29.57" r="5.06"/><path d="M7.87 41.55a8.27 8.27 0 0 1 6.83-3.29 8.27 8.27 0 0 1 6.83 3.29"/></g></symbol><symbol id="icon-shower" viewBox="0 0 50.35 47.64"><title>convenience-1</title><g fill="none" stroke="#231f20" stroke-linecap="round" stroke-linejoin="round" stroke-width="2.5"><path d="M33.5 8.33l3.76 3.76-25.42 25.42-3.76-3.76"/><path d="M33.59 8.42C27.22 2 16.36 2.57 9.34 9.59S1.8 27.47 8.17 33.84zM20.41 37.66l7.72 7.72M37.47 20.59l7.72 7.73M29.03 29.03l7.73 7.72M30.2 38.67l7.73 7.72M38.75 30.12l7.72 7.73M24.91 33.37l1.25 1.25M33.45 24.83l1.25 1.25M1.26 5.285l4.037-4.037 5.947 5.947-4.038 4.037z"/></g></symbol><symbol id="icon-site-logo" viewBox="0 0 141.7 61.8"><path d="M28.2 44.8l.1-17.8H10.2l-.1 17.8H0L.3 0h10.1l-.1 17.6h18.1V0h10.1l-.3 44.8h-10zm46.5-16.6c0 7-4.3 13.4-10.9 15.7-6.6 2.3-14.4.6-18.9-4.8-4.6-5.4-5-13.7-1.4-19.8 3.7-6.1 11.1-8.7 18-7.4 7.8 1.5 13.2 8.4 13.2 16.3-.1 9.8 0-9.7 0 0zm-9.7 0c0-3.2-1.5-6.3-4.7-7.4-2.7-.9-5.9-.2-7.8 1.9-2.2 2.6-2.5 6.9-.8 9.8 1.5 2.6 4.5 3.9 7.4 3.4 3.8-.6 5.9-4 5.9-7.7zm19 5.4c.2 3.3 3.7 5 6.7 4 1.1-.4 2.1-1.4 1.9-2.7-.2-1.5-1.8-2.1-3.1-2.3l-3.6-.8c-3.4-.7-7-2.4-8.5-5.7-1.4-2.9-1-6.4.6-9.1 3.9-6.2 13.8-7.1 19.5-2.9 2.2 1.6 3.7 4.1 3.9 6.8l-8 1.5c-.3-2.7-2.8-4.3-5.5-3.7-1.2.3-2.4 1.1-2.5 2.5-.1 1.5 1.2 2.2 2.5 2.5l4.2.8c3.7.7 7.4 2.6 9 6.2 1.3 2.9.8 6.5-.9 9.1-2.1 3.2-5.8 4.8-9.5 5.1-3.8.3-8-.4-11.1-2.8-2.1-1.7-3.7-4.2-3.8-7l8.2-1.5zm35.3-21h6.2V21h-6.2l-.1 11.8c0 3.5 3.3 3.6 6 3v8c-3.1 1.5-7.6 1.2-10.6-.3-3.4-1.7-5-5.2-5-8.9l.1-13.5h-5.6v-8.4h1.6c3.3 0 4.9-2.2 4.9-5.1v-4h8.7v9zm15.9 19c2.7 0 5.2 1.7 6.1 4.2 1 2.6.1 5.4-2 7.2-4.6 3.9-11.8-.2-10.6-6.1.7-3.1 3.5-5.3 6.5-5.3zM9.1 54.3h1.1L8 61.6H6.9L5 55.7l-1.9 5.9h-1L0 54.3h1.1L2.6 60l1.9-5.7h1.1l1.9 5.8 1.6-5.8zm2.6 7.3h-1v-7.5h1v3.1c1.1-1.6 3.3-.5 3.3 1.2v3.1h-1v-3c0-1.7-2.3-1.6-2.3.1v3zm8.8-1.4c-.5 1.4-2.1 1.9-3.4 1.3-1.2-.6-1.6-2-1.3-3.2.9-2.9 5.2-1.9 4.7 1.1h-3.8c0 1.6 2.4 2.1 2.9.5l.9.3zm-.9-1.6c0-1.7-2.6-1.6-2.7 0h2.7zm4.6-1c-1.1-.2-1.8.4-1.8 1.5v2.5h-1v-5h1v.9c.3-.7 1.1-1.1 1.8-.9v1zm5 2.6c-.5 1.4-2.1 1.9-3.4 1.3-1.2-.6-1.6-2-1.3-3.2.9-2.9 5.2-1.9 4.7 1.1h-3.8c0 1.6 2.4 2.1 2.9.5l.9.3zm-1-1.6c0-1.7-2.6-1.6-2.7 0h2.7zM33 60c.1.7.8 1.1 1.5.9.8-.2.7-1.1-.1-1.3l-.9-.2c-1.6-.3-1.6-2.3-.1-2.8 1-.4 2.3.1 2.6 1.2l-.9.3c-.1-.6-.6-.9-1.2-.8-.7.1-1 1.1-.1 1.2l.8.2c1.4.3 1.9 2 .6 2.8-1 .6-2.9.1-3.1-1.2l.9-.3zm5.3-3.3h1.1v.9h-1.1v2.6c0 .6.5.8 1.1.6v.8c-1 .4-2.1-.2-2.1-1.3v-2.7h-1v-.9h.3c.5 0 .8-.3.8-.8v-.8h.9v1.6zm3.6 5.1c-1.2 0-1.9-.9-1.9-2v-3.1h1v3c0 1.7 2.3 1.7 2.3 0v-3h1v4.9h-.9V61c-.3.5-.9.8-1.5.8zm7.2-.9c-.5 1-1.8 1.1-2.7.6-.9-.4-1.3-1.4-1.3-2.4s.5-1.9 1.4-2.4c.8-.4 2.2-.4 2.6.6v-3.2h1v7.5h-.9c-.1-.1-.1-.3-.1-.7zm-1.5 0c1.9 0 2-3.5 0-3.5-1.9 0-2 3.5 0 3.5zm8-.7c-.5 1.4-2.1 1.9-3.4 1.3-1.2-.6-1.6-2-1.3-3.2.9-2.9 5.2-1.9 4.7 1.1h-3.8c0 1.6 2.4 2.1 2.9.5l.9.3zm-1-1.6c0-1.7-2.6-1.6-2.7 0h2.7zm2.8 3h-1v-5h1v.7c1-1.7 3.3-.7 3.3 1.1v3.1h-1v-3c0-1.7-2.3-1.5-2.3.1v3zm5.8-4.9h1.1v.9h-1.1v2.6c0 .6.5.8 1.1.6v.8c-1 .4-2.1-.2-2.1-1.3v-2.7h-1v-.9h.3c.5 0 .8-.3.8-.8v-.8h.9v1.6zm2.4 3.3c.1.7.8 1.1 1.5.9.8-.2.7-1.1-.1-1.3l-.9-.2c-1.6-.3-1.6-2.3-.1-2.8 1-.4 2.3.1 2.6 1.2l-.9.3c-.1-.6-.6-.9-1.2-.8-.7.1-1 1.1-.1 1.2l.8.2c1.4.3 1.9 2 .6 2.8-1 .6-2.9.1-3.1-1.2l.9-.3zm7.6-1.2l1.4-.2c.8-.1.2-1.1-.3-1.2-.7-.2-1.5.2-1.6.9l-.9-.2c.3-2.2 4.1-2.1 4.1.2v2.5c0 .4 0 .7.1.8h-1c0-.1-.1-.3 0-.7-.6 1-2.3 1.2-3 .2-.8-1 .1-2.1 1.2-2.3zm1.7.7v-.2l-1.5.2c-1.1.2-.8 1.5.2 1.5.8 0 1.3-.7 1.3-1.5zm4.9-1.9c-1.1-.1-1.8.4-1.8 1.5v2.5h-1v-5h1v.9c.3-.7 1.1-1.1 1.8-.9v1zm5 2.6c-.5 1.4-2.1 1.9-3.4 1.3-1.2-.6-1.6-2-1.3-3.2.9-2.9 5.2-1.9 4.7 1.1H81c0 1.6 2.4 2.1 2.9.5l.9.3zm-1-1.6c0-1.7-2.6-1.6-2.7 0h2.7zm5.6.2l1.4-.2c.8-.1.2-1.1-.3-1.2-.7-.2-1.5.2-1.6.9l-.9-.2c.3-2.2 4.1-2.1 4.1.2v2.5c0 .4 0 .7.1.8h-1c0-.1-.1-.3 0-.7-.6 1-2.3 1.2-3 .2-.9-1 0-2.1 1.2-2.3zm1.7.7v-.2l-1.5.2c-1.1.2-.8 1.5.2 1.5.8 0 1.3-.7 1.3-1.5zm3.4-2.8h1.1v.9h-1.1v2.6c0 .6.5.8 1.1.6v.8c-1 .4-2.1-.2-2.1-1.3v-2.7h-1v-.9h.3c.5 0 .8-.3.8-.8v-.8h.9v1.6zm5.4 4.9h-1v-7.5h1v3.1c1.1-1.6 3.3-.5 3.3 1.2v3.1h-1v-3c0-1.7-2.3-1.6-2.3.1v3zm9.2-2.5c0 3.4-5.1 3.4-5.1 0s5.1-3.4 5.1 0c0 1.6 0-1.5 0 0zm-1 0c0-2.3-3.1-2.3-3.1 0s3.1 2.3 3.1 0c0-1.1 0 1.2 0 0zm1.8 2.5v-5h.9v.7c.6-1.1 2.5-1.1 3 .1 1-1.7 3.4-.9 3.4 1v3.2h-1v-3.1c0-1.6-2.2-1.4-2.2.1v3h-1v-3.1c0-1.6-2.2-1.4-2.2.1v3h-.9zm12.9-1.4c-.5 1.4-2.1 1.9-3.4 1.3-1.2-.6-1.6-2-1.3-3.2.9-2.9 5.2-1.9 4.7 1.1H119c0 1.6 2.4 2.1 2.9.5l.9.3zm-1-1.6c0-1.7-2.6-1.6-2.7 0h2.7zm2.4 1.6c.9 0 .9 1.4 0 1.4-.9.1-.9-1.4 0-1.4z"/></symbol><symbol id="icon-smoking" viewBox="0 0 46.54 27.29"><title>no-smoking-2</title><g fill="none" stroke="#231f20" stroke-linecap="round" stroke-linejoin="round" stroke-width="2.5"><path d="M4.016 3.708l37.89 15.664-2.758 6.672-37.89-15.663zM17.29 9.19l-2.25 5.44M40.44 1.37L36.17 11.7M44.92 1.25l-4.97 12.01M45.29 11.17l-1.52 3.67"/></g></symbol><symbol id="icon-snacks-chocolate" viewBox="0 0 26.13 58.83"><title>snacks-2</title><g stroke="#231f20" stroke-linecap="round" stroke-linejoin="round" stroke-width="2.5"><path d="M21.79 18.31V1.25H18a3.51 3.51 0 0 1-3.11 1.9h-.08a5 5 0 0 1 .08.76 5 5 0 0 1-4.63 5v.33a4 4 0 0 1-4.92 3.89v5.78M23.18 21.95v31.1H3.94V29.32M3.94 19.07h19.24M24.88 57.58H2.24l1.7-4.53h19.24l1.7 4.53z" fill="none"/><path d="M19.82 57.58a35.16 35.16 0 0 0-1.47-3.63M7.12 57.58a35.16 35.16 0 0 1 1.47-3.63M13.56 57.58v-4.17" fill="#fff"/><path d="M23.18 19.07S25.34 20.72 22 23c-1 1.09-2.63 1.17-4 1.21a13.36 13.36 0 0 0-2 .09 8.25 8.25 0 0 0-2.38 1.18 6.49 6.49 0 0 1-3.2.8 14.12 14.12 0 0 0-3-.06c-1.45.29-2.53 1.49-3.85 2.16-.51.26-1.2.42-1.59 0a1.42 1.42 0 0 1-.3-.61 11.66 11.66 0 0 1 0-6.42 4.12 4.12 0 0 1 .78-1.61c.83-.94 2.29-.68 3.43-.68h17.29z" fill="none"/><path fill="#fff" d="M13.56 13.56v5.03"/></g></symbol><symbol id="icon-snacks-drink" viewBox="0 0 34.53 64.96"><title>snacks-1</title><path fill="none" stroke="#231f20" stroke-linecap="round" stroke-linejoin="round" stroke-width="2.5" d="M33.28 57.09V19.67l-1.93-2.2M3.58 57.09V19.67l1.93-2.2M32.25 58.92c0 2.64-6.18 4.78-13.81 4.78S4.62 61.56 4.62 58.92"/><ellipse cx="18.43" cy="15.78" rx="13.81" ry="4.78" fill="none" stroke="#231f20" stroke-linecap="round" stroke-linejoin="round" stroke-width="2.5"/><ellipse cx="18.79" cy="16.94" rx="4.8" ry="1.66" fill="#231f20"/><path d="M33.28 57.72a30 30 0 0 1-7.2 1.9A48.89 48.89 0 0 1 9 59.09c-1.73-.35-3.54-.8-5.41-1.37M18.79 16.94L13.06 1.25 1.25 4.62M28.15 48.64s-.78 1.94-11.77 1.94-12.8-4.93-12.8-4.93V27S6 31.33 15.86 31.33 28.15 30 28.15 30z" fill="none" stroke="#231f20" stroke-linecap="round" stroke-linejoin="round" stroke-width="2.5"/></symbol><symbol id="icon-social-room-cocktails" viewBox="0 0 43.27 51.87"><title>social-room-2</title><g fill="none" stroke="#231f20" stroke-linecap="round" stroke-linejoin="round" stroke-width="2.5"><path d="M28.16 50.62H12.82L7.71 10.85h24.71l-4.26 39.77zM8.87 19.93h22.57"/><path d="M13.52 19.34L8.87 1.77 1.25 9.61"/><circle cx="23.41" cy="38.29" r="2.1"/><circle cx="18.25" cy="29.16" r="3.01"/><path d="M22.81 10.85a9.6 9.6 0 1 1 9.6 9.6M32.42 10.85H27.5M32.42 10.85l-4.27-2.46M32.42 10.85V5.93M32.42 10.85l4.26-2.46M32.42 10.85l4.26 2.46"/></g></symbol><symbol id="icon-social-room-discussion" viewBox="0 0 59.45 40.97"><title>social-room-3</title><g fill="none" stroke="#231f20" stroke-linecap="round" stroke-linejoin="round" stroke-width="2.5"><path d="M21.71 1.25H7.18a5.94 5.94 0 0 0-5.93 5.93v10.87A5.94 5.94 0 0 0 7.18 24h6.12c1.15 2.16 3.23 5.08 9.91 5.08 0 0-2-1-2.82-5.08h1.32a5.94 5.94 0 0 0 5.93-5.93V7.18a5.94 5.94 0 0 0-5.93-5.93zM37.74 11.91h14.53a5.94 5.94 0 0 1 5.93 5.93v10.87a5.94 5.94 0 0 1-5.93 5.93h-6.12c-1.15 2.16-3.23 5.08-9.91 5.08 0 0 2-1 2.82-5.08h-1.32a5.94 5.94 0 0 1-5.93-5.93V17.84a5.94 5.94 0 0 1 5.93-5.93zM7.12 9.49h14.45M7.12 15.6h8.23M39.85 20.66h12.38M45 26.77h7.23"/></g></symbol><symbol id="icon-social-room-pizza" viewBox="0 0 48.04 47.74"><title>social-room-4</title><g fill="none" stroke="#231f20" stroke-linecap="round" stroke-linejoin="round" stroke-width="2.5"><path d="M43.34 13.31L23.6 46.49 4.83 12.84"/><path d="M46.08 8.71s-5.94-7.46-22-7.46-22 6.92-22 6.92a2.33 2.33 0 0 0-.46 3.17 3.14 3.14 0 0 0 3.14 1.5S10 6.76 24.12 6.76 42.6 12.5 42.6 12.5a3 3 0 0 0 3.48-.58 2.23 2.23 0 0 0 0-3.21z"/><circle cx="16.69" cy="17.22" r="4.72"/><circle cx="32.73" cy="20.99" r="5.02" transform="rotate(-67.68 32.724 20.989)"/><path d="M20.28 38.89a4.72 4.72 0 1 0-4.63-8.15z"/></g></symbol><symbol id="icon-social-room-sofa" viewBox="0 0 62.08 25.52"><title>social-room-1</title><g fill="none" stroke="#231f20" stroke-linecap="round" stroke-linejoin="round" stroke-width="2.5"><path d="M53.99 24.27H8.29v-7.63h45.7v7.63zM54 10.8h6.84v13.46H54zM1.25 11.01h6.84v13.26H1.25zM55.72 9.69c0-5.58-4.35-8.44-9.67-8.44H34.72"/><path d="M6.08 9.69c0-5.58 4.35-8.44 9.67-8.44H36"/></g></symbol><symbol id="icon-travel-location-1" viewBox="0 0 28.3 39.79"><title>travel-location-1</title><path d="M14.15 0A14.15 14.15 0 0 0 0 14.15C0 22 14.15 39.79 14.15 39.79S28.3 22 28.3 14.15A14.15 14.15 0 0 0 14.15 0zm0 8.84a5.31 5.31 0 1 1-5.31 5.31 5.31 5.31 0 0 1 5.31-5.31z"/></symbol><symbol id="icon-travel-public-bus" viewBox="0 0 55.9 38.42"><title>travel-public</title><path d="M4.86 1.84a2.84 2.84 0 0 0-2.59 1.54l-.37.74H54l-.37-.74A2.84 2.84 0 0 0 51 1.84zm-3 9.77h7.88v-6h-7.9zm9.36 0h7.27v-6h-7.28zm8.74 0h7.27v-6h-7.28zm8.74 0H36v-6h-7.32zm8.74 0h7.27v-6h-7.29zm8.74 0h7.89v-6h-7.91zM1.84 24.09h7.9v-6h-7.9zm9.36 0h7.27v-6h-7.26zm8.74 0h7.27v-6h-7.26zm8.74 0H36v-6h-7.32zm17.48 0h7.89v-11h-7.89zm2.39 5a4.5 4.5 0 0 1 3.86 2.24l.15.25h1.5v-6h-8.63a.73.73 0 0 1-.73-.73V13.08H1.84v3.52h34.85a.74.74 0 0 1 .73.73v7.49a.73.73 0 0 1-.73.73H1.84v6h1.5l.15-.25a4.45 4.45 0 0 1 7.73 0l.15.25h33.17l.15-.25a4.49 4.49 0 0 1 3.86-2.24m-41.2 1.49a3 3 0 1 0 3 3 3 3 0 0 0-3-3m41.19 0a3 3 0 1 0 3 3 3 3 0 0 0-3-3m0 7.49a4.49 4.49 0 0 1-4.48-4.48v-.51H11.83v.51a4.48 4.48 0 1 1-9 0v-.51H1.11a.74.74 0 0 1-.73-.73V4.85A4.48 4.48 0 0 1 4.86.38H51a4.48 4.48 0 0 1 4.48 4.48v27.46a.73.73 0 0 1-.73.73H53v.51A4.49 4.49 0 0 1 48.55 38" stroke="#00c0f3" stroke-miterlimit="10" stroke-width=".5"/></symbol><symbol id="icon-travel-walking" viewBox="0 0 69.57 27.99"><title>travel-walking</title><path d="M62.35 13.48h-.11L49.55 11l-2.22-1.27.28-.41a1.11 1.11 0 0 0-1.83-1.25l-.38.55-1.56-.9.42-.54a1.11 1.11 0 1 0-1.73-1.37l-.63.79-2.3-1.33.26-.34a1.11 1.11 0 0 0-1.74-1.36l-.46.58-6.93-4a1.1 1.1 0 0 0-.66-.15 3 3 0 0 0-1.94 1.25c-.8 1.1-1 2.71-.71 4.8-1 .86-4.29 3.08-10.67 3.08a30.72 30.72 0 0 1-3.37-.19c-6.7-.74-8.05-3.37-8.05-3.37a1.11 1.11 0 0 0-2-.14A26.76 26.76 0 0 0 .09 20.34v6.55A1.11 1.11 0 0 0 1.2 28h67.25a1.11 1.11 0 0 0 1.11-1.11v-6.16c.08-.82.16-5.05-7.21-7.25zm5 6.52H28.26c1.74-2.68 5.1-5 12.74-3.69 5.55.92 8.89.55 10.21-1.14a2.64 2.64 0 0 0 .56-1.48l10 1.92c4.62 1.39 5.44 3.48 5.57 4.39zM30.11 2.33l6.2 3.58-.13.16L30.8 4a1.1 1.1 0 0 0-1.12.18l-.19.16a2.58 2.58 0 0 1 .62-2.01zM4.53 8c1.29 1.16 3.81 2.6 8.61 3.14a33 33 0 0 0 3.61.21c7.32 0 11.08-2.71 12.27-3.75l1.59-1.34 4.15 1.63-.1.12a1.11 1.11 0 1 0 1.74 1.37l.5-.64 2.53 1-.38.48a1.11 1.11 0 1 0 1.73 1.37l.8-1 2 .77-.14.2a1.11 1.11 0 0 0 1.83 1.25l.43-.62 3.89 1.53a.49.49 0 0 1-.06.11c-.19.25-1.48 1.42-8.1.32-7.85-1.3-12.86.57-15.69 5.87H12.2c-.64-5.67-6-9.73-8-11.12.08-.34.21-.63.33-.9zM2.29 20a23.64 23.64 0 0 1 1.08-9c2 1.41 6 4.72 6.6 9zm0 5.78v-3.57h65v3.57z"/></symbol><symbol id="icon-tv" viewBox="0 0 36.97 40.36"><title>finishing-touches-tv</title><circle cx="31.07" cy="34.95" r="1.13" fill="#231f20"/><circle cx="27.88" cy="34.95" r="1.13" fill="#231f20"/><path fill="none" stroke="#231f20" stroke-linecap="round" stroke-linejoin="round" stroke-width="2.5" d="M1.25 9.67h34.47v29.44H1.25zM25.45 1.55l-6.96 8.11-6.93-8.41"/><path fill="none" stroke="#231f20" stroke-linecap="round" stroke-linejoin="round" stroke-width="2.5" d="M5.21 13.72h26.15v16.5H5.21z"/></symbol><symbol id="icon-twitter" viewBox="0 0 19.472 15.829"><path d="M17.481 3.943c.007.172.007.348.007.515 0 5.282-4.016 11.371-11.364 11.371A11.28 11.28 0 0 1 0 14.032a8.024 8.024 0 0 0 5.915-1.653A4.006 4.006 0 0 1 2.18 9.603a4.058 4.058 0 0 0 1.806-.07A3.992 3.992 0 0 1 .787 5.615v-.051c.529.305 1.147.48 1.8.499A3.993 3.993 0 0 1 .815 2.738c0-.731.198-1.42.54-2.007A11.34 11.34 0 0 0 9.59 4.906a3.997 3.997 0 0 1 6.805-3.646 8.03 8.03 0 0 0 2.544-.969 4.04 4.04 0 0 1-1.762 2.213 7.913 7.913 0 0 0 2.294-.631 8.076 8.076 0 0 1-1.99 2.07z"/></symbol><symbol id="icon-washing-machine" viewBox="0 0 40.8 47.68"><title>laundry-1</title><path fill="none" stroke="#000" stroke-linecap="round" stroke-linejoin="round" stroke-width="2.5" d="M1.25 1.25h38.3v45.42H1.25z"/><circle cx="20.4" cy="27.47" r="13.14" fill="none" stroke="#000" stroke-linecap="round" stroke-linejoin="round" stroke-width="2.5"/><circle cx="5.79" cy="5.26" r="1.48"/><circle cx="9.59" cy="5.26" r="1.48"/><path fill="none" stroke="#000" stroke-linecap="round" stroke-linejoin="round" stroke-width="2.5" d="M1.25 9.31h38.3M33.54 27.47S23.2 21.73 19 26.23 7.48 27.91 7.48 27.91"/></symbol><symbol id="icon-wifi" viewBox="0 0 50.59 42.05"><title>wifi</title><g fill="none" stroke="#000" stroke-linecap="round" stroke-linejoin="round" stroke-width="2.5"><path d="M14.74 26.66a14.38 14.38 0 0 1 21.11 0M8.19 19.32a23.31 23.31 0 0 1 34.22 0M49.34 11.76a32.76 32.76 0 0 0-48.09 0"/><circle cx="25.3" cy="36.42" r="4.38"/></g></symbol><symbol id="icon-youtube" viewBox="0 0 20.791 24.061"><path fill-rule="evenodd" clip-rule="evenodd" fill="#FFF" d="M10.584 2.219a1.864 1.864 0 0 0-.558 0c-.411.077-1.137.34-1.405 1.22 0 0-.059.441-.059.629v3.123s.013.537.31 1.004c.224.355.616.664 1.237.732.086.011.363.011.462-.002.585-.086.96-.39 1.181-.73.294-.467.303-1.004.303-1.004V4.068c0-.188-.057-.629-.057-.629-.271-.889-1.017-1.15-1.414-1.22zm.289 1.848V7.19c0 .749-.563.69-.563.69s-.625.059-.625-.69V4.067c0-.879.625-.812.625-.812.626.001.563.812.563.812zm4.436-1.814v5.065c-.18.437-.683.562-.683.562-.44 0-.38-.312-.38-.312V2.253h-1.189V7.94c0 .629.319 1.001.943 1.001.626 0 1.309-.811 1.309-.811v.748h1.188V2.253h-1.188zM6.25 3.438L5.309 0H3.932l1.691 5.251v3.568h1.246V5.251L8.496 0h-1.31L6.25 3.438zM17.828 16.436s-.059-.693-.566-.693c-.502 0-.633.568-.633.693v.818h1.199v-.818zm.822-5.863c-1.447-.25-3.095-.188-8.316-.25-3.53 0-5.305.062-5.545.062-2.273.126-3.848-.189-4.418 2.274C.127 14.042 0 15.807 0 17.155c.127 2.936-.133 6.461 2.707 6.719 1.453.129 5.229.188 7.719.188 3.404 0 7.089-.064 8.356-.316.551-.135 1.031-.705 1.192-.943.734-.99.75-2.479.816-5.672-.128-2.711.067-6.242-2.14-6.558zM6.109 13.725H4.664v7.629h-1.33v-7.629H1.947v-1.324h4.162s.063 1.324 0 1.324zm3.717 7.692H8.625v-.764s-.629.824-1.32.824c-.695 0-.943-.439-.943-1.258v-5.482h1.19v5.354s0 .254.325.254c.305 0 .748-.445.748-.57v-5.037h1.201v6.679zm4.604-1.198s-.135 1.258-.889 1.258-1.195-.439-1.443-.756v.695h-1.195v-8.952h1.195v2.899s.636-.756 1.195-.756c.566 0 1.137.377 1.137 1.199v4.413zm4.535 0c-.183 1.135-1.578 1.258-1.578 1.258-2.019 0-1.954-1.893-1.954-1.893v-3.148c0-.253.123-.629.123-.629.137-.381.267-1.133 1.77-1.133 1.764 0 1.704 1.762 1.704 1.762v1.83h-2.4v1.318c0 .377.191.76.696.76.503 0 .503-.76.503-.76v-.498h1.201c-.001 0 .059.309-.065 1.133zm-6.232-4.476c-.326 0-.576.254-.576.254v4.094c.188.254.576.254.576.254.497 0 .497-.57.497-.57v-3.338c0-.44-.189-.694-.497-.694z"/></symbol></svg>