<svg xmlns="http://www.w3.org/2000/svg" version="1.1" x="0" y="0" viewBox="0 0 141.7 61.8" xml:space="preserve">
    <path d="M28.2 44.8L28.3 27H10.2l-0.1 17.8H0L0.3 0h10.1l-0.1 17.6h18.1L28.4 0h10.1l-0.3 44.8H28.2zM74.7 28.2c0 7-4.3 13.4-10.9 15.7 -6.6 2.3-14.4 0.6-18.9-4.8 -4.6-5.4-5-13.7-1.4-19.8 3.7-6.1 11.1-8.7 18-7.4C69.3 13.4 74.7 20.3 74.7 28.2 74.6 38 74.7 18.5 74.7 28.2zM65 28.2c0-3.2-1.5-6.3-4.7-7.4 -2.7-0.9-5.9-0.2-7.8 1.9 -2.2 2.6-2.5 6.9-0.8 9.8 1.5 2.6 4.5 3.9 7.4 3.4C62.9 35.3 65 31.9 65 28.2zM84 33.6c0.2 3.3 3.7 5 6.7 4 1.1-0.4 2.1-1.4 1.9-2.7 -0.2-1.5-1.8-2.1-3.1-2.3l-3.6-0.8c-3.4-0.7-7-2.4-8.5-5.7 -1.4-2.9-1-6.4 0.6-9.1 3.9-6.2 13.8-7.1 19.5-2.9 2.2 1.6 3.7 4.1 3.9 6.8l-8 1.5c-0.3-2.7-2.8-4.3-5.5-3.7 -1.2 0.3-2.4 1.1-2.5 2.5 -0.1 1.5 1.2 2.2 2.5 2.5l4.2 0.8c3.7 0.7 7.4 2.6 9 6.2 1.3 2.9 0.8 6.5-0.9 9.1 -2.1 3.2-5.8 4.8-9.5 5.1 -3.8 0.3-8-0.4-11.1-2.8 -2.1-1.7-3.7-4.2-3.8-7L84 33.6zM119.3 12.6h6.2l0 8.4h-6.2l-0.1 11.8c0 3.5 3.3 3.6 6 3l0 8c-3.1 1.5-7.6 1.2-10.6-0.3 -3.4-1.7-5-5.2-5-8.9l0.1-13.5h-5.6l0-8.4h1.6c3.3 0 4.9-2.2 4.9-5.1l0-4h8.7L119.3 12.6zM135.2 31.6c2.7 0 5.2 1.7 6.1 4.2 1 2.6 0.1 5.4-2 7.2 -4.6 3.9-11.8-0.2-10.6-6.1C129.4 33.8 132.2 31.6 135.2 31.6zM9.1 54.3h1.1L8 61.6H6.9l-1.9-5.9 -1.9 5.9h-1L0 54.3h1.1L2.6 60l1.9-5.7h1.1l1.9 5.8L9.1 54.3zM11.7 61.6h-1l0-7.5h1l0 3.1c1.1-1.6 3.3-0.5 3.3 1.2l0 3.1h-1l0-3c0-1.7-2.3-1.6-2.3 0.1L11.7 61.6zM20.5 60.2c-0.5 1.4-2.1 1.9-3.4 1.3 -1.2-0.6-1.6-2-1.3-3.2 0.9-2.9 5.2-1.9 4.7 1.1h-3.8c0 1.6 2.4 2.1 2.9 0.5L20.5 60.2zM19.6 58.6c0-1.7-2.6-1.6-2.7 0H19.6zM24.2 57.6c-1.1-0.2-1.8 0.4-1.8 1.5l0 2.5h-1l0-5h1l0 0.9c0.3-0.7 1.1-1.1 1.8-0.9L24.2 57.6zM29.2 60.2c-0.5 1.4-2.1 1.9-3.4 1.3 -1.2-0.6-1.6-2-1.3-3.2 0.9-2.9 5.2-1.9 4.7 1.1h-3.8c0 1.6 2.4 2.1 2.9 0.5L29.2 60.2zM28.2 58.6c0-1.7-2.6-1.6-2.7 0H28.2zM33 60c0.1 0.7 0.8 1.1 1.5 0.9 0.8-0.2 0.7-1.1-0.1-1.3l-0.9-0.2c-1.6-0.3-1.6-2.3-0.1-2.8 1-0.4 2.3 0.1 2.6 1.2l-0.9 0.3c-0.1-0.6-0.6-0.9-1.2-0.8 -0.7 0.1-1 1.1-0.1 1.2l0.8 0.2c1.4 0.3 1.9 2 0.6 2.8 -1 0.6-2.9 0.1-3.1-1.2L33 60zM38.3 56.7h1.1l0 0.9h-1.1l0 2.6c0 0.6 0.5 0.8 1.1 0.6l0 0.8c-1 0.4-2.1-0.2-2.1-1.3l0-2.7h-1l0-0.9h0.3c0.5 0 0.8-0.3 0.8-0.8l0-0.8h0.9L38.3 56.7zM41.9 61.8c-1.2 0-1.9-0.9-1.9-2l0-3.1h1l0 3c0 1.7 2.3 1.7 2.3 0l0-3h1l0 4c0 0.4 0 0.7 0 0.9h-0.9c0-0.1 0-0.4 0-0.6C43.1 61.5 42.5 61.8 41.9 61.8zM49.1 60.9c-0.5 1-1.8 1.1-2.7 0.6 -0.9-0.4-1.3-1.4-1.3-2.4 0-1 0.5-1.9 1.4-2.4 0.8-0.4 2.2-0.4 2.6 0.6l0-3.2h1l0 6.6c0 0.5 0 0.8 0 0.9h-0.9C49.1 61.5 49.1 61.3 49.1 60.9L49.1 60.9zM47.6 60.9c1.9 0 2-3.5 0-3.5C45.7 57.4 45.6 60.9 47.6 60.9zM55.6 60.2c-0.5 1.4-2.1 1.9-3.4 1.3 -1.2-0.6-1.6-2-1.3-3.2 0.9-2.9 5.2-1.9 4.7 1.1h-3.8c0 1.6 2.4 2.1 2.9 0.5L55.6 60.2zM54.6 58.6c0-1.7-2.6-1.6-2.7 0H54.6zM57.4 61.6h-1l0-5h1l0 0.7c1-1.7 3.3-0.7 3.3 1.1l0 3.1h-1l0-3c0-1.7-2.3-1.5-2.3 0.1L57.4 61.6zM63.2 56.7h1.1l0 0.9h-1.1l0 2.6c0 0.6 0.5 0.8 1.1 0.6l0 0.8c-1 0.4-2.1-0.2-2.1-1.3l0-2.7h-1l0-0.9h0.3c0.5 0 0.8-0.3 0.8-0.8l0-0.8h0.9L63.2 56.7zM65.6 60c0.1 0.7 0.8 1.1 1.5 0.9 0.8-0.2 0.7-1.1-0.1-1.3l-0.9-0.2c-1.6-0.3-1.6-2.3-0.1-2.8 1-0.4 2.3 0.1 2.6 1.2l-0.9 0.3c-0.1-0.6-0.6-0.9-1.2-0.8 -0.7 0.1-1 1.1-0.1 1.2l0.8 0.2c1.4 0.3 1.9 2 0.6 2.8 -1 0.6-2.9 0.1-3.1-1.2L65.6 60zM73.2 58.8l1.4-0.2c0.8-0.1 0.2-1.1-0.3-1.2 -0.7-0.2-1.5 0.2-1.6 0.9l-0.9-0.2c0.3-2.2 4.1-2.1 4.1 0.2l0 2.5c0 0.4 0 0.7 0.1 0.8h-1c0-0.1-0.1-0.3 0-0.7 -0.6 1-2.3 1.2-3 0.2C71.2 60.1 72.1 59 73.2 58.8zM74.9 59.5l0-0.2 -1.5 0.2c-1.1 0.2-0.8 1.5 0.2 1.5C74.4 61 74.9 60.3 74.9 59.5zM79.8 57.6C78.7 57.5 78 58 78 59.1l0 2.5h-1l0-5h1l0 0.9c0.3-0.7 1.1-1.1 1.8-0.9L79.8 57.6zM84.8 60.2c-0.5 1.4-2.1 1.9-3.4 1.3 -1.2-0.6-1.6-2-1.3-3.2 0.9-2.9 5.2-1.9 4.7 1.1H81c0 1.6 2.4 2.1 2.9 0.5L84.8 60.2zM83.8 58.6c0-1.7-2.6-1.6-2.7 0H83.8zM89.4 58.8l1.4-0.2c0.8-0.1 0.2-1.1-0.3-1.2 -0.7-0.2-1.5 0.2-1.6 0.9l-0.9-0.2c0.3-2.2 4.1-2.1 4.1 0.2l0 2.5c0 0.4 0 0.7 0.1 0.8h-1c0-0.1-0.1-0.3 0-0.7 -0.6 1-2.3 1.2-3 0.2C87.3 60.1 88.2 59 89.4 58.8zM91.1 59.5l0-0.2 -1.5 0.2c-1.1 0.2-0.8 1.5 0.2 1.5C90.6 61 91.1 60.3 91.1 59.5zM94.5 56.7h1.1l0 0.9h-1.1l0 2.6c0 0.6 0.5 0.8 1.1 0.6l0 0.8c-1 0.4-2.1-0.2-2.1-1.3l0-2.7h-1l0-0.9h0.3c0.5 0 0.8-0.3 0.8-0.8l0-0.8h0.9L94.5 56.7zM99.9 61.6h-1l0-7.5h1l0 3.1c1.1-1.6 3.3-0.5 3.3 1.2l0 3.1h-1l0-3c0-1.7-2.3-1.6-2.3 0.1L99.9 61.6zM109.1 59.1c0 3.4-5.1 3.4-5.1 0C104 55.7 109.1 55.7 109.1 59.1 109.1 60.7 109.1 57.6 109.1 59.1zM108.1 59.1c0-2.3-3.1-2.3-3.1 0C105 61.4 108.1 61.4 108.1 59.1 108.1 58 108.1 60.3 108.1 59.1zM109.9 61.6l0-5h0.9l0 0.7c0.6-1.1 2.5-1.1 3 0.1 1-1.7 3.4-0.9 3.4 1l0 3.2h-1l0-3.1c0-1.6-2.2-1.4-2.2 0.1l0 3h-1l0-3.1c0-1.6-2.2-1.4-2.2 0.1l0 3H109.9zM122.8 60.2c-0.5 1.4-2.1 1.9-3.4 1.3 -1.2-0.6-1.6-2-1.3-3.2 0.9-2.9 5.2-1.9 4.7 1.1h-3.8c0 1.6 2.4 2.1 2.9 0.5L122.8 60.2zM121.8 58.6c0-1.7-2.6-1.6-2.7 0H121.8zM124.2 60.2c0.9 0 0.9 1.4 0 1.4C123.3 61.7 123.3 60.2 124.2 60.2z"/>
</svg>
