<svg id="c6c7426b-0be4-4955-bec1-b81bf03193ad" data-name="Layer 1" xmlns="http://www.w3.org/2000/svg" viewBox="0 0 40.74 42.67">
  <title>accessibility-1</title>
  <g>
    <path d="M40.64,33.51A1.25,1.25,0,0,0,39,32.88l-4,1.77L29.48,22.76A1.25,1.25,0,0,0,28.34,22H15.66l-.37-4.52H25.62a1.25,1.25,0,0,0,0-2.5H15.08L14.6,9.15s0-.06,0-.09a4.63,4.63,0,1,0-2.45.18s0,.08,0,.12l1.16,14a1.25,1.25,0,0,0,1.25,1.15h13l5.72,12.29a1.25,1.25,0,0,0,1.13.72,1.23,1.23,0,0,0,.51-.11L40,35.16A1.25,1.25,0,0,0,40.64,33.51ZM13.06,6.83a2.17,2.17,0,1,1,2.17-2.17A2.17,2.17,0,0,1,13.06,6.83Z" style="fill: #000100"/>
    <path d="M27,31.75a1.25,1.25,0,0,0-1.61.73,11.88,11.88,0,0,1-11.08,7.68C6.17,40.17,2.5,33.25,2.5,28.34a11.86,11.86,0,0,1,6-10.27A1.25,1.25,0,1,0,7.23,15.9,14.36,14.36,0,0,0,0,28.34c0,5.95,4.44,14.32,14.32,14.32a14.39,14.39,0,0,0,13.42-9.31A1.25,1.25,0,0,0,27,31.75Z" style="fill: #000100"/>
  </g>
</svg>
