<svg id="8f7e02e7-e30e-4acd-9bc8-3440c859d0c2" data-name="Layer 1" xmlns="http://www.w3.org/2000/svg" viewBox="0 0 45.03 49.22">
  <title>balcony-2</title>
  <g>
    <path d="M43.78,46.72H41.35l2.94-7.42-3.18-9.78h2.67a1.25,1.25,0,0,0,0-2.5H37.33a1.16,1.16,0,0,0,0-.12V1.25A1.25,1.25,0,0,0,36.11,0H9A1.25,1.25,0,0,0,7.75,1.25V26.9a1.16,1.16,0,0,0,0,.12H1.33a1.25,1.25,0,0,0,0,2.5H3.18L0,39.3l2.94,7.42H1.33a1.25,1.25,0,0,0,0,2.5H43.78a1.25,1.25,0,0,0,0-2.5Zm-2.15-7.51-3,7.51H35.38l1.47-7.44-1.58-9.76h3.21Zm-31.8,0,1.58-9.71h3.31l-.64,9.75.59,7.46H11.32Zm6.76,0,.64-9.73H21v17.2H17.19Zm7-9.73h4l.63,9.73-.59,7.47h-4Zm6.49,0h2.7l1.58,9.71-1.48,7.49H30.08l.59-7.46ZM23.55,27V13H34.86V26.9a1.16,1.16,0,0,0,0,.12ZM34.86,10.5H23.55v-8H34.86ZM21,2.5v8H10.25v-8ZM10.25,26.9V13H21V27H10.23A1.16,1.16,0,0,0,10.25,26.9ZM2.66,39.22l3.15-9.69H8.88L7.3,39.28l1.47,7.44H5.63Z" style="fill: #1d1d1b"/>
    <path d="M26.26,20.94A1.25,1.25,0,0,0,25,22.19v2.62a1.25,1.25,0,0,0,2.5,0V22.19A1.25,1.25,0,0,0,26.26,20.94Z" style="fill: #1d1d1b"/>
    <path d="M18.26,20.94A1.25,1.25,0,0,0,17,22.19v2.62a1.25,1.25,0,0,0,2.5,0V22.19A1.25,1.25,0,0,0,18.26,20.94Z" style="fill: #1d1d1b"/>
  </g>
</svg>
