<svg id="0c05abe1-dd04-4ea9-ac76-e4d0948436eb" data-name="Layer 1" xmlns="http://www.w3.org/2000/svg" viewBox="0 0 45.03 49.22">
  <title>balcony-2</title>
  <g>
    <polyline points="9 26.9 9 1.25 36.11 1.25 36.11 26.9" fill="none" stroke="#231f20" stroke-linecap="round" stroke-linejoin="round" stroke-width="2.5"/>
    <line x1="22.3" y1="2.34" x2="22.3" y2="28.27" fill="#fff" stroke="#231f20" stroke-linecap="round" stroke-miterlimit="10" stroke-width="2.5"/>
    <line x1="8.77" y1="11.75" x2="35.87" y2="11.75" fill="#fff" stroke="#231f20" stroke-miterlimit="10" stroke-width="2.5"/>
    <line x1="1.33" y1="28.27" x2="43.78" y2="28.27" fill="none" stroke="#231f20" stroke-linecap="round" stroke-miterlimit="10" stroke-width="2.5"/>
    <line x1="1.33" y1="47.97" x2="43.78" y2="47.97" fill="none" stroke="#231f20" stroke-linecap="round" stroke-miterlimit="10" stroke-width="2.5"/>
    <polyline points="4.78 28.63 1.33 39.26 4.78 47.97" fill="none" stroke="#231f20" stroke-miterlimit="10" stroke-width="2.5"/>
    <polyline points="10.29 28.63 8.57 39.26 10.29 47.97" fill="none" stroke="#231f20" stroke-miterlimit="10" stroke-width="2.5"/>
    <polyline points="16.04 28.63 15.34 39.26 16.04 47.97" fill="none" stroke="#231f20" stroke-miterlimit="10" stroke-width="2.5"/>
    <line x1="22.3" y1="28.27" x2="22.3" y2="47.97" fill="none" stroke="#231f20" stroke-miterlimit="10" stroke-width="2.5"/>
    <polyline points="39.51 28.63 42.96 39.26 39.51 47.97" fill="none" stroke="#231f20" stroke-miterlimit="10" stroke-width="2.5"/>
    <polyline points="33.86 28.63 35.59 39.26 33.86 47.97" fill="none" stroke="#231f20" stroke-miterlimit="10" stroke-width="2.5"/>
    <polyline points="28.73 28.63 29.42 39.26 28.73 47.97" fill="none" stroke="#231f20" stroke-miterlimit="10" stroke-width="2.5"/>
    <line x1="26.26" y1="22.19" x2="26.26" y2="24.81" fill="none" stroke="#231f20" stroke-linecap="round" stroke-miterlimit="10" stroke-width="2.5"/>
    <line x1="18.26" y1="22.19" x2="18.26" y2="24.81" fill="none" stroke="#231f20" stroke-linecap="round" stroke-miterlimit="10" stroke-width="2.5"/>
  </g>
</svg>
