<svg id="c7771421-7596-4326-ba91-e11bbca13a1a" data-name="Layer 1" xmlns="http://www.w3.org/2000/svg" viewBox="0 0 56.83 39.85">
  <title>bed-double-2_1</title>
  <g>
    <path d="M37.25,15.23c10-.72,9.61-1.95,12.8,2a87.65,87.65,0,0,1,5.53,7.67" fill="none" stroke="#231f20" stroke-linecap="round" stroke-linejoin="round" stroke-width="2.5"/>
    <path d="M17.5,24.9s3.75-3.62,3.75-7.67l8.48-.6" fill="none" stroke="#231f20" stroke-linecap="round" stroke-linejoin="round" stroke-width="2.5"/>
    <rect x="1.25" y="1.25" width="5" height="37.35" fill="none" stroke="#231f20" stroke-linecap="round" stroke-linejoin="round" stroke-width="2.5"/>
    <polyline points="6.25 25.82 55.58 25.82 55.58 30.1 6.25 30.1" fill="none" stroke="#231f20" stroke-linecap="round" stroke-linejoin="round" stroke-width="2.5"/>
    <polyline points="51.42 30.1 51.42 38.6 55.58 38.6 55.58 30.1" fill="none" stroke="#231f20" stroke-linecap="round" stroke-linejoin="round" stroke-width="2.5"/>
    <circle cx="13.25" cy="17.93" r="4.25" transform="translate(-5.86 29.41) rotate(-84.53)" fill="none" stroke="#231f20" stroke-linecap="round" stroke-linejoin="round" stroke-width="2.5"/>
    <circle cx="21.75" cy="9.63" r="4.25" transform="translate(10.09 30.36) rotate(-84.53)" fill="none" stroke="#231f20" stroke-linecap="round" stroke-linejoin="round" stroke-width="2.5"/>
    <path d="M27.75,15.76c.81-.07,4.25,1.75,4.25,1.75l-4.42,4.66,2.67,1.09s4.5-2.67,6.29-5.33-5.62-6.67-5.62-6.67a22.19,22.19,0,0,0-5.7.81" fill="none" stroke="#231f20" stroke-linecap="round" stroke-linejoin="round" stroke-width="2.5"/>
  </g>
</svg>
