<svg id="87851b87-b690-4377-9784-68ea1a04f83d" data-name="Layer 1" xmlns="http://www.w3.org/2000/svg" viewBox="0 0 61.72 51.8">
  <title>bed-double-2</title>
  <g>
    <path d="M60.47,0H1.25A1.25,1.25,0,0,0,0,1.25v49.3A1.25,1.25,0,0,0,1.25,51.8H60.47a1.25,1.25,0,0,0,1.25-1.25V1.25A1.25,1.25,0,0,0,60.47,0Zm-44,24.8h42.8v8.67ZM59.22,2.5V22.3H2.5V2.5ZM2.5,49.3V24.8H3.82L59.22,36V49.3Z" style="fill: #1d1d1b"/>
    <path d="M6.66,17.67H26.72A1.25,1.25,0,0,0,28,16.42V6.93a1.25,1.25,0,0,0-1.25-1.25H6.66A1.25,1.25,0,0,0,5.41,6.93v9.49A1.25,1.25,0,0,0,6.66,17.67ZM7.91,8.18H25.47v7H7.91Z" style="fill: #1d1d1b"/>
    <path d="M34.11,17.67H54.17a1.25,1.25,0,0,0,1.25-1.25V6.93a1.25,1.25,0,0,0-1.25-1.25H34.11a1.25,1.25,0,0,0-1.25,1.25v9.49A1.25,1.25,0,0,0,34.11,17.67Zm1.25-9.49H52.92v7H35.36Z" style="fill: #1d1d1b"/>
  </g>
</svg>
