<svg id="bec14445-160c-42f0-a32e-39d01d4d032c" data-name="Layer 1" xmlns="http://www.w3.org/2000/svg" viewBox="0 0 34.17 51.8">
  <title>bed-single-1</title>
  <g>
    <path d="M32.92,0H1.25A1.25,1.25,0,0,0,0,1.25v49.3A1.25,1.25,0,0,0,1.25,51.8H32.92a1.25,1.25,0,0,0,1.25-1.25V1.25A1.25,1.25,0,0,0,32.92,0ZM31.18,23.48a1.24,1.24,0,0,0,.49-.1v8.5L8.83,23.48Zm.49-21V21.08a1.24,1.24,0,0,0-.49-.1H2.5V2.5ZM2.5,49.3V23.82L31.67,34.55V49.3Z" style="fill: #1d1d1b"/>
    <path d="M6.92,17.67H27a1.25,1.25,0,0,0,1.25-1.25V6.93A1.25,1.25,0,0,0,27,5.68H6.92A1.25,1.25,0,0,0,5.67,6.93v9.49A1.25,1.25,0,0,0,6.92,17.67ZM8.17,8.18H25.73v7H8.17Z" style="fill: #1d1d1b"/>
  </g>
</svg>
