<svg id="fb1989c3-32b9-4a95-9e34-ce51c1925793" data-name="Layer 1" xmlns="http://www.w3.org/2000/svg" viewBox="0 0 56.83 39.85">
  <title>bed-single-2</title>
  <g>
    <path d="M56.73,25.33a1.23,1.23,0,0,0-.09-1.1A88,88,0,0,0,51,16.44c-2.67-3.3-4.73-3-8.85-2.31-1.78.28-4,.64-7,.85l-14,1A1.25,1.25,0,0,0,20,17.23c0,3.44-3.3,6.71-3.37,6.77a1.22,1.22,0,0,0-.32.57H7.5V1.25A1.25,1.25,0,0,0,6.25,0h-5A1.25,1.25,0,0,0,0,1.25V38.6a1.25,1.25,0,0,0,1.25,1.25h5A1.25,1.25,0,0,0,7.5,38.6V31.35H50.17V38.6a1.25,1.25,0,0,0,1.25,1.25h4.17a1.25,1.25,0,0,0,1.25-1.25V25.82A1.24,1.24,0,0,0,56.73,25.33ZM22.41,18.4l12.93-.92c3.12-.22,5.4-.59,7.23-.88,3.94-.63,4.76-.76,6.52,1.42,2.14,2.64,3.9,5.2,4.8,6.55H19.47A13.42,13.42,0,0,0,22.41,18.4ZM5,37.35H2.5V2.5H5ZM7.5,27.07H54.33v1.77H7.5ZM52.67,37.35v-6h1.67v6Z" style="fill: #1d1d1b"/>
    <path d="M13.25,23.43a5.5,5.5,0,1,0-5.5-5.5A5.51,5.51,0,0,0,13.25,23.43Zm0-8.5a3,3,0,1,1-3,3A3,3,0,0,1,13.25,14.93Z" style="fill: #1d1d1b"/>
  </g>
</svg>
