<svg id="ad4cc68b-a0a8-4d5e-bc01-1d5c75dfe78d" data-name="Layer 1" xmlns="http://www.w3.org/2000/svg" viewBox="0 0 49.47 49.47">
  <title>bike-storage-1</title>
  <path d="M44.57,19.21l-1.12,1.12L27.12,4l-.43-.4C20.39-1.65,11.06-1,5,5A16.06,16.06,0,0,0,3.65,26.75l16.68,16.7-1.12,1.12,4.9,4.9L49.47,24.11ZM5.82,25.41l-.3-.31C1,19.7,1.56,12,6.77,6.78a14.15,14.15,0,0,1,10-4.3,12.94,12.94,0,0,1,8.31,3L41.68,22.1,22.1,41.68ZM22.74,44.57,44.57,22.75l1.37,1.37L24.11,45.93Z" style="fill: #1d1d1b"/>
</svg>
