<svg id="ae249ed8-c376-435c-a0aa-28baf81b3a8d" data-name="Layer 1" xmlns="http://www.w3.org/2000/svg" viewBox="0 0 79.61 40.76">
  <title>bike-storage-2</title>
  <g>
    <path d="M66,13.57a13.58,13.58,0,0,0-1.85.14l-.91-3.89h0l-.85-3.63h0l-.93-4a1.25,1.25,0,0,0-.95-.94L54.93,0a1.25,1.25,0,0,0-.54,2.44l4.84,1.08.4,1.72L35.12,6h0l-.27-1.43h2a1.25,1.25,0,0,0,0-2.5H33.33A1.25,1.25,0,0,0,32.1,3.57L32.74,7l-3.55,7.42a13.59,13.59,0,1,0,8.52,15.84h.38a1.24,1.24,0,0,0,.45-.09l.14-.08a1.22,1.22,0,0,0,.18-.1l22.4-17.69.46,2a13.57,13.57,0,1,0,4.29-.7ZM35.56,27.76h-10l4.78-10a11.09,11.09,0,0,1,5.22,9.4C35.59,27.37,35.57,27.56,35.56,27.76Zm-2-16.58,1.34,7.2a13.69,13.69,0,0,0-3.41-2.88Zm-9,27.08a11.1,11.1,0,1,1,3.62-21.57L22.48,28.47a1.25,1.25,0,0,0,1.13,1.79H35.14A11.11,11.11,0,0,1,24.49,38.26ZM39,26.75,35.56,8.51l24.65-.75.07.31.36,1.55ZM66,38.26A11.09,11.09,0,0,1,62.3,16.72l2.5,10.72a1.25,1.25,0,0,0,2.44-.57l-2.5-10.73A11.09,11.09,0,1,1,66,38.26Z" style="fill: #1d1d1b"/>
    <path d="M1.25,3.22h22.6a1.25,1.25,0,0,0,0-2.5H1.25a1.25,1.25,0,0,0,0,2.5Z" style="fill: #1d1d1b"/>
    <path d="M1.25,10.33h22.6a1.25,1.25,0,1,0,0-2.5H1.25a1.25,1.25,0,1,0,0,2.5Z" style="fill: #1d1d1b"/>
    <path d="M8.15,15H1.25a1.25,1.25,0,0,0,0,2.5h6.9a1.25,1.25,0,1,0,0-2.5Z" style="fill: #1d1d1b"/>
  </g>
</svg>
