<svg id="ac53771b-7a7d-4bea-b9db-5c4056fabb19" data-name="Layer 1" xmlns="http://www.w3.org/2000/svg" viewBox="0 0 44.77 59.37">
  <title>bills-1</title>
  <path d="M44.64,28.66A1.25,1.25,0,0,0,43.52,28H33L40.11,6.51A1.25,1.25,0,0,0,38,5.31L24.28,21.5A218.08,218.08,0,0,0,14.54.66,1.23,1.23,0,0,0,13.43,0a1.25,1.25,0,0,0-1.1.68C11.82,1.66,0,24.85,0,31.53A13.45,13.45,0,0,0,13.44,45a13.46,13.46,0,0,0,10.29-4.45L20.82,57.91a1.25,1.25,0,0,0,2.24,1L44.53,30A1.25,1.25,0,0,0,44.64,28.66Zm-31.2,13.8A11,11,0,0,1,2.5,31.53C2.5,27,9.62,11.7,13.46,4a189.93,189.93,0,0,1,9,19.71L12.48,35.45a1.25,1.25,0,0,0,1,2.06h9.39A10.56,10.56,0,0,1,13.44,42.47Zm10.7,10.74,2.81-16.75A1.25,1.25,0,0,0,25.71,35H16.13L35.7,11.87l-5.64,17a1.25,1.25,0,0,0,1.19,1.64H41Z" style="fill: #000100"/>
</svg>
