<svg xmlns="http://www.w3.org/2000/svg" data-name="Layer 1" viewBox="0 0 43.26 36.53">
    <path d="M15.71 0a1.44 1.44 0 0 0-1.14.8l-2.49 5H6.25A6.27 6.27 0 0 0 0 12v18.28a6.27 6.27 0 0 0 6.25 6.25H37a6.27 6.27 0 0 0 6.25-6.25V12A6.27 6.27 0 0 0 37 5.77h-5.82L28.69.8A1.44 1.44 0 0 0 27.4 0H15.71zm1.05 2.88h9.73l2.49 5a1.44 1.44 0 0 0 1.29.8H37A3.33 3.33 0 0 1 40.37 12v18.28A3.33 3.33 0 0 1 37 33.65H6.25a3.33 3.33 0 0 1-3.36-3.36V12a3.33 3.33 0 0 1 3.36-3.35H13a1.44 1.44 0 0 0 1.29-.8zm4.87 7.21a11.05 11.05 0 1 0 11.05 11.06 11.08 11.08 0 0 0-11.05-11.06zm0 2.88a8.17 8.17 0 1 1-8.17 8.17A8.15 8.15 0 0 1 21.63 13zm-.06 1a1.44 1.44 0 0 0 .06 2.88 4.3 4.3 0 0 1 4.37 4.3 1.44 1.44 0 1 0 2.88 0 7.23 7.23 0 0 0-7.21-7.21z"/>
</svg>
