<svg id="67b82fe3-bae1-40b3-95d5-e21cc0418384" data-name="Layer 1" xmlns="http://www.w3.org/2000/svg" viewBox="0 0 25.38 61.16">
  <title>cleaning-4</title>
  <path d="M25.35,59.64l-1.07-4.83a1.25,1.25,0,0,0-1.22-1h-.91L22,51.51a1.25,1.25,0,0,0-1.25-1.16H15.58l-.19-3.56h2.85a1.25,1.25,0,0,0,1.25-1.29l-.85-24.24a1.25,1.25,0,0,0-1.25-1.21H15.63L15.37,1.23A1.25,1.25,0,0,0,14.12,0H10.89A1.25,1.25,0,0,0,9.64,1.23L9.37,20.06H7.62a1.25,1.25,0,0,0-1.25,1.21L5.52,45.51A1.25,1.25,0,0,0,6.77,46.8H9.61l-.19,3.56h-5A1.25,1.25,0,0,0,3.15,51.6v2.23H2A1.25,1.25,0,0,0,.77,54.89L0,59.72a1.25,1.25,0,0,0,1.24,1.44H24.13a1.25,1.25,0,0,0,1.22-1.52ZM12.12,2.5h.76l.25,17.56H11.87ZM8.82,22.56h7.36l.76,21.74H8.06ZM12.12,46.8h.77l.19,3.56H11.93ZM5.65,52.86H19.58l.07,1h-14Zm-2.94,5.8.36-2.33h19l.51,2.33Z" style="fill: #000100"/>
</svg>
