<svg id="645e7e30-2ba4-414b-9627-33219cb53102" data-name="Layer 1" xmlns="http://www.w3.org/2000/svg" viewBox="0 0 63.22 54.5">
  <title>cleaning-1</title>
  <g>
    <polygon points="61.97 1.25 61.97 3.17 51.4 6.96 51.41 12.25 46.11 12.26 46.1 6.97 35.51 3.21 35.51 1.3 61.97 1.25" fill="none" stroke="#000" stroke-linecap="round" stroke-linejoin="round" stroke-width="2.5"/>
    <path d="M31.75,42.64c0,9.5-1.22,10.59-13.21,10.61C6.71,53.27,5.3,52.19,5.29,42.69S7.81,18.87,18.48,18.85C29,18.83,31.73,33.14,31.75,42.64Z" fill="none" stroke="#000" stroke-linecap="round" stroke-linejoin="round" stroke-width="2.5"/>
    <ellipse cx="18.49" cy="30.08" rx="2.65" ry="4.19" transform="translate(-0.05 0.03) rotate(-0.1)" fill="none" stroke="#000" stroke-linecap="round" stroke-linejoin="round" stroke-width="2.5"/>
    <path d="M18.48,18.85v-4c0-5.12,2.63-9.27,7.75-9.28s8.14,4.13,8.15,9.25l0,8.81c0,5.12,1.91,9.26,7,9.25s7.38-4.16,7.37-9.27l0-11.32" fill="none" stroke="#000" stroke-linecap="round" stroke-linejoin="round" stroke-width="2.5"/>
    <path d="M4.43,49.33c-1.75,0-3.18-2.46-3.18-5.51s1.41-5.52,3.17-5.52" fill="none" stroke="#000" stroke-linecap="round" stroke-linejoin="round" stroke-width="2.5"/>
    <path d="M32.49,38.26c1.75,0,3.18,2.46,3.18,5.51s-1.41,5.52-3.17,5.52" fill="none" stroke="#000" stroke-linecap="round" stroke-linejoin="round" stroke-width="2.5"/>
  </g>
</svg>
