<svg id="ac6fa1db-c860-4efe-8be9-1fa21caf72d6" data-name="Layer 1" xmlns="http://www.w3.org/2000/svg" viewBox="0 0 59.92 53.1">
  <title>cleaning-3</title>
  <g>
    <path d="M24.71,48.15c2,2.54,4.91,3.48,8.9,3.57,11.89.27,13.38,0,13.38,0s11.68-.58,11.68-20.29-19-13.6-15.85-24.66c2.46-3.5,2.12-4.17,2.12-4.17a10,10,0,0,0-10,0s0,1.26,1.9,4.17c1.54,7.89-8.19,3.16-13.61,11.6" fill="none" stroke="#000" stroke-linecap="round" stroke-linejoin="round" stroke-width="2.5"/>
    <path d="M47.34,41.21a39.23,39.23,0,0,0,2.93-6.72A19.76,19.76,0,0,0,49.79,22" fill="none" stroke="#000" stroke-linecap="round" stroke-linejoin="round" stroke-width="2.5"/>
    <path d="M47.93,30.3a11.63,11.63,0,0,0-1.41-7,34.66,34.66,0,0,0-4.21-5.92" fill="none" stroke="#000" stroke-linecap="round" stroke-linejoin="round" stroke-width="2.5"/>
    <path d="M26.29,22.83c-.9-.27-1.93-.66-2.19-1.57a6.46,6.46,0,0,1-.11-1c-.23-1.85-2.54-2.83-4.34-2.35a3,3,0,0,1-1,.18,2.66,2.66,0,0,1-1.09-.49c-3.2-1.94-7.77-4.15-10.14-1.26a5.65,5.65,0,0,1-.9,1A7.82,7.82,0,0,1,5.37,18,4.53,4.53,0,0,0,3,22.28" fill="none" stroke="#000" stroke-linecap="round" stroke-linejoin="round" stroke-width="2.5"/>
    <path d="M1.25,23.15H28L24.68,47.84a2.44,2.44,0,0,1-2.41,2.11H7a2.44,2.44,0,0,1-2.41-2.11Z" fill="none" stroke="#000" stroke-linecap="round" stroke-linejoin="round" stroke-width="2.5"/>
    <line x1="8.45" y1="45.08" x2="6.12" y2="28.02" fill="none" stroke="#000" stroke-linecap="round" stroke-linejoin="round" stroke-width="2.5"/>
  </g>
</svg>
