<svg id="951f3b1b-0bd1-4555-af5d-2f3dae4d0ab3" data-name="Layer 1" xmlns="http://www.w3.org/2000/svg" viewBox="0 0 34.42 43.99">
  <title>cleaning-2</title>
  <g>
    <path d="M31.09,10.44c-1.07-.32-2.3-.79-2.61-1.87a7.69,7.69,0,0,1-.13-1.15c-.28-2.2-3-3.37-5.17-2.8A3.53,3.53,0,0,1,22,4.84a3.17,3.17,0,0,1-1.3-.58C16.87,1.95,11.42-.12,8.6,3.33A6.73,6.73,0,0,1,7.53,4.51a9.32,9.32,0,0,1-1.37.73,5.39,5.39,0,0,0-2.81,5.11" fill="none" stroke="#000" stroke-linecap="round" stroke-linejoin="round" stroke-width="2.5"/>
    <path d="M1.25,10.82H33.17l-4,29.41a2.9,2.9,0,0,1-2.88,2.51H8.14a2.9,2.9,0,0,1-2.88-2.51Z" fill="none" stroke="#000" stroke-linecap="round" stroke-linejoin="round" stroke-width="2.5"/>
    <polyline points="9.82 36.94 7.05 16.62 24.39 16.62" fill="none" stroke="#000" stroke-linecap="round" stroke-linejoin="round" stroke-width="2.5"/>
  </g>
</svg>
