<svg id="247ff02d-be8c-43a9-bc2e-16d21ae2ea4a" data-name="Layer 1" xmlns="http://www.w3.org/2000/svg" viewBox="0 0 34.42 43.99">
  <title>cleaning-2</title>
  <g>
    <path d="M34.11,10a1.25,1.25,0,0,0-.94-.43H32a1.21,1.21,0,0,0-.52-.33c-.44-.13-1.61-.48-1.76-1a2.56,2.56,0,0,1,0-.46c0-.17,0-.34,0-.5a4.33,4.33,0,0,0-2-3,6,6,0,0,0-4.77-.8l-.25.07a2.5,2.5,0,0,1-.52.11,2.27,2.27,0,0,1-.61-.31l-.15-.09c-6-3.67-11-3.9-13.7-.65l-.22.28a4,4,0,0,1-.63.7,4,4,0,0,1-.69.37l-.5.24A6.69,6.69,0,0,0,2.1,9.57H1.25A1.25,1.25,0,0,0,0,11L4,40.4A4.17,4.17,0,0,0,8.14,44H26.29A4.17,4.17,0,0,0,30.4,40.4l4-29.41A1.25,1.25,0,0,0,34.11,10ZM6.74,6.35l.4-.19a6,6,0,0,0,1.15-.65A6,6,0,0,0,9.37,4.37l.19-.24C12.11,1,17.73,3.93,20,5.33l.13.08a3.83,3.83,0,0,0,1.71.67,3.77,3.77,0,0,0,1.43-.2l.2-.06a3.5,3.5,0,0,1,2.74.46,1.88,1.88,0,0,1,.88,1.29c0,.11,0,.22,0,.33a4.46,4.46,0,0,0,.14,1,3,3,0,0,0,.27.65H4.61A4.18,4.18,0,0,1,6.74,6.35ZM27.92,40.06a1.66,1.66,0,0,1-1.64,1.43H8.14A1.66,1.66,0,0,1,6.5,40.06l-3.82-28H31.74Z" style="fill: #000100"/>
    <path d="M5.82,16.79,8.59,37.11a1.25,1.25,0,0,0,1.24,1.08H10a1.25,1.25,0,0,0,1.07-1.41L8.49,17.87h15.9a1.25,1.25,0,0,0,0-2.5H7.05a1.25,1.25,0,0,0-1.24,1.42Z" style="fill: #000100"/>
  </g>
</svg>
