<svg id="c50869de-6f6e-46e8-95f0-7fd56475bb49" data-name="Layer 1" xmlns="http://www.w3.org/2000/svg" viewBox="0 0 63.22 54.5">
  <title>cleaning-1</title>
  <g>
    <path d="M63.22,1.25A1.26,1.26,0,0,0,62,0L35.51,0A1.25,1.25,0,0,0,34.26,1.3V3.22a1.25,1.25,0,0,0,.83,1.17l9.76,3.46v4.41a1.25,1.25,0,0,0,1.25,1.25h1.4l0,10.07c0,2.41-.58,8-6.12,8h0A4.85,4.85,0,0,1,37,29.46a10.73,10.73,0,0,1-1.39-5.85V14.79c0-6.18-3.87-10.5-9.39-10.5h0c-5.39,0-9,4.24-9,10.53v2.85C9.07,18.51,5.3,27.36,4.31,37.06A4,4,0,0,0,1.09,39.3a9.88,9.88,0,0,0,0,9,4,4,0,0,0,3.33,2.24h0a1.21,1.21,0,0,0,.65-.21c1.54,3.38,5.16,4.12,13.22,4.12h.24c6.37,0,9.78-.32,11.89-2A5.6,5.6,0,0,0,32,50.41a1.23,1.23,0,0,0,.53.13h0c2.48,0,4.42-3,4.41-6.77s-1.86-6.6-4.25-6.74A38.17,38.17,0,0,0,30.2,26.69c-2.3-5.47-5.91-8.56-10.47-9V14.82c0-3.87,1.7-8,6.5-8h0c4.75,0,6.88,4,6.89,8v8.81a13,13,0,0,0,1.81,7.24,7.37,7.37,0,0,0,6.45,3.26h0c5.33,0,8.63-4,8.62-10.53L50,13.5h1.4a1.25,1.25,0,0,0,1.25-1.25V7.84L62.4,4.34a1.25,1.25,0,0,0,.83-1.18ZM3.27,47.1a7.41,7.41,0,0,1,0-6.55,2.19,2.19,0,0,1,.86-.91c-.05,1-.08,2-.08,3.06a31.28,31.28,0,0,0,.37,5.39C4,48.06,3.62,47.7,3.27,47.1Zm31.16-3.33c0,2.41-1,4-1.74,4.22A32.84,32.84,0,0,0,33,42.64c0-1,0-2-.1-3C33.62,40.08,34.42,41.59,34.42,43.77ZM27.89,27.66a40.69,40.69,0,0,1,2.61,15c0,4.34-.24,6.75-1.64,7.88S24.06,52,18.53,52c-11.59,0-12-.9-12-9.31,0-3.77.54-22.57,11.94-22.59h0C22.62,20.1,25.78,22.64,27.89,27.66ZM51,5.78A1.25,1.25,0,0,0,50.15,7v4H47.36V7a1.25,1.25,0,0,0-.83-1.18L37.36,2.54l22.76,0Z" style="fill: #000100"/>
    <path d="M18.48,24.65c-2.18,0-3.89,2.4-3.89,5.44a6.86,6.86,0,0,0,1,3.63,3.53,3.53,0,0,0,2.93,1.8h0c2.18,0,3.89-2.4,3.89-5.44s-1.72-5.43-3.9-5.43Zm1.41,5.43c0,1.77-.83,2.94-1.39,2.94-.25,0-.56-.24-.82-.64a4.42,4.42,0,0,1-.58-2.29c0-1.77.83-2.94,1.39-2.94S19.89,28.32,19.89,30.08Z" style="fill: #000100"/>
  </g>
</svg>
