<svg id="9e3c99cd-b12a-4637-9c48-e89b1edd3851" data-name="Layer 1" xmlns="http://www.w3.org/2000/svg" viewBox="0 0 50.35 47.64">
  <title>convenience-1</title>
  <g>
    <path d="M38.51,12.09a1.25,1.25,0,0,0-.37-.88L34.48,7.54h0l-.08-.08,0,0C28.44,1.64,19.06,1.26,11.81,6L6.17.37A1.25,1.25,0,0,0,4.4.37l-4,4a1.25,1.25,0,0,0,0,1.77l5.58,5.58C1,19,1.31,28.6,7.16,34.59l0,0L11,38.39a1.25,1.25,0,0,0,1.77,0L38.14,13A1.25,1.25,0,0,0,38.51,12.09ZM5.29,3,9.46,7.19,7.19,9.46,3,5.29Zm4.94,7.46A17.54,17.54,0,0,1,22.54,5.22a14.34,14.34,0,0,1,9.24,3.24L8.21,32C3.25,26.07,4,16.67,10.23,10.48Zm1.61,25.27-1.9-1.9L33.59,10.19l1.9,1.9Z" style="fill: #1d1d1b"/>
    <path d="M21.29,36.77a1.25,1.25,0,1,0-1.77,1.77l7.72,7.72A1.25,1.25,0,0,0,29,44.5Z" style="fill: #1d1d1b"/>
    <path d="M36.59,19.71a1.25,1.25,0,0,0,0,1.77l7.72,7.72a1.25,1.25,0,1,0,1.77-1.77l-7.72-7.72A1.25,1.25,0,0,0,36.59,19.71Z" style="fill: #1d1d1b"/>
    <path d="M28.15,28.15a1.25,1.25,0,0,0,0,1.77l7.72,7.72a1.25,1.25,0,0,0,1.77-1.77l-7.72-7.72A1.25,1.25,0,0,0,28.15,28.15Z" style="fill: #1d1d1b"/>
    <path d="M31.09,37.78a1.25,1.25,0,1,0-1.77,1.77L37,47.27a1.25,1.25,0,1,0,1.77-1.77Z" style="fill: #1d1d1b"/>
    <path d="M47.36,37l-7.72-7.72A1.25,1.25,0,0,0,37.86,31l7.72,7.72A1.25,1.25,0,0,0,47.36,37Z" style="fill: #1d1d1b"/>
    <path d="M24,32.49a1.25,1.25,0,0,0,0,1.77l1.25,1.25A1.25,1.25,0,0,0,27,33.74l-1.25-1.25A1.25,1.25,0,0,0,24,32.49Z" style="fill: #1d1d1b"/>
    <path d="M34.7,27.33a1.25,1.25,0,0,0,.88-2.13l-1.25-1.25a1.25,1.25,0,0,0-1.77,1.77L33.82,27A1.25,1.25,0,0,0,34.7,27.33Z" style="fill: #1d1d1b"/>
  </g>
</svg>
