<svg id="1c140048-61bc-44ef-8a02-0570207ad1f8" data-name="Layer 1" xmlns="http://www.w3.org/2000/svg" viewBox="0 0 84.55 39.62">
  <title>desk-2</title>
  <g>
    <path d="M83.3,3.43H66.78a4.58,4.58,0,0,0-1.54-2A7.43,7.43,0,0,0,61.1.16,86,86,0,0,0,49.25.25,5.36,5.36,0,0,0,44.4,3.43H1.25A1.25,1.25,0,0,0,0,4.68v5a1.25,1.25,0,0,0,1.25,1.25H4.83V38.37a1.25,1.25,0,0,0,1.25,1.25H37.37a1.25,1.25,0,0,0,1.25-1.25V10.92H43.5c-.07.71-.14.91-.38,1.05a5.79,5.79,0,0,0-.86.68l-.23.2a4.15,4.15,0,0,0-1.62,3.67l0,.49a29.2,29.2,0,0,0,.45,3.38,5,5,0,0,0,5.17,4.21c1.7,0,3.39.06,5.09.08l1.62,0h1.63v5.5l-10.67-.58a1.25,1.25,0,0,0-.13,2.5l9.05.49-4.37,3.95A1.25,1.25,0,1,0,50,38.41l5.7-5.15,5.37,5.13a1.25,1.25,0,1,0,1.73-1.81l-4.11-3.92,8.88-.35a1.25,1.25,0,0,0,1.2-1.3,1.27,1.27,0,0,0-1.3-1.2l-10.53.41V24.67H57l.63,0,3.35,0,4.36-.06a5.07,5.07,0,0,0,4.93-3.92,29.68,29.68,0,0,0,.47-3.12l.09-.78a4.16,4.16,0,0,0-1.46-3.79c-.57-.5-1.06-.89-1.59-1.29l-.06-.7h4.47V38.37a1.25,1.25,0,0,0,1.25,1.25h4.47a1.25,1.25,0,0,0,1.25-1.25V10.92H83.3a1.25,1.25,0,0,0,1.25-1.25v-5A1.25,1.25,0,0,0,83.3,3.43ZM2.5,5.93H43.9q-.08,1.25-.18,2.5H2.5Zm4.83,31.2V25.27H36.12V37.12ZM36.12,22.77H7.33V10.92H36.12ZM68.37,16.4l-.09.79a27.58,27.58,0,0,1-.43,2.86,2.55,2.55,0,0,1-2.53,2L61,22.08l-3.35,0-.76,0-.38,0a17.06,17.06,0,0,1-1.72,0H52.83l-1.63,0c-1.68,0-3.37,0-5.06-.08a2.59,2.59,0,0,1-2.79-2.22,27.24,27.24,0,0,1-.4-3.1l0-.5a1.66,1.66,0,0,1,.74-1.52l.28-.25a3.87,3.87,0,0,1,.49-.4A3.62,3.62,0,0,0,46,11l0-.2c.15-1.7.3-3.37.4-5.05.11-1.9,1-2.78,3.06-3A84,84,0,0,1,61,2.66a4.86,4.86,0,0,1,2.78.82c.66.48.95,1.19,1.05,2.59s.21,2.51.32,3.77l.18,2a2.49,2.49,0,0,0,1.07,1.86c.41.3.85.65,1.37,1.11A1.69,1.69,0,0,1,68.37,16.4Zm8.31,20.72h-2V10.92h2ZM82,8.42H67.52c-.07-.83-.15-1.67-.21-2.5H82Z" style="fill: #1d1d1b"/>
    <path d="M18.66,18.34h6.13a1.25,1.25,0,0,0,0-2.5H18.66a1.25,1.25,0,1,0,0,2.5Z" style="fill: #1d1d1b"/>
    <path d="M24.79,30.2H18.66a1.25,1.25,0,1,0,0,2.5h6.13a1.25,1.25,0,0,0,0-2.5Z" style="fill: #1d1d1b"/>
    <path d="M59.43,4.15H52.05a3.74,3.74,0,0,0-3.73,3.73v2a3.74,3.74,0,0,0,3.73,3.73h7.38a3.74,3.74,0,0,0,3.73-3.73v-2A3.74,3.74,0,0,0,59.43,4.15Zm1.23,5.72a1.24,1.24,0,0,1-1.23,1.23H52.05a1.24,1.24,0,0,1-1.23-1.23v-2a1.24,1.24,0,0,1,1.23-1.23h7.38a1.24,1.24,0,0,1,1.23,1.23Z" style="fill: #1d1d1b"/>
  </g>
</svg>
