<svg id="65c6baa2-c97f-4ca9-9115-4191f7687645" data-name="Layer 1" xmlns="http://www.w3.org/2000/svg" viewBox="0 0 84.55 39.62">
  <title>desk-2</title>
  <g>
    <polyline points="44.37 9.68 1.25 9.68 1.25 4.68 44.87 4.68" fill="none" stroke="#231f20" stroke-linecap="round" stroke-linejoin="round" stroke-width="2.5"/>
    <polyline points="66.37 4.68 83.3 4.68 83.3 9.68 66.81 9.68" fill="none" stroke="#231f20" stroke-linecap="round" stroke-linejoin="round" stroke-width="2.5"/>
    <rect x="6.08" y="9.67" width="31.29" height="28.7" fill="none" stroke="#231f20" stroke-linecap="round" stroke-linejoin="round" stroke-width="2.5"/>
    <rect x="73.46" y="9.67" width="4.47" height="28.7" fill="none" stroke="#231f20" stroke-linecap="round" stroke-linejoin="round" stroke-width="2.5"/>
    <line x1="6.08" y1="24.02" x2="37.37" y2="24.02" fill="#fff" stroke="#231f20" stroke-linecap="round" stroke-linejoin="round" stroke-width="2.5"/>
    <line x1="18.66" y1="17.09" x2="24.79" y2="17.09" fill="none" stroke="#231f20" stroke-linecap="round" stroke-linejoin="round" stroke-width="2.5"/>
    <line x1="18.66" y1="31.45" x2="24.79" y2="31.45" fill="none" stroke="#231f20" stroke-linecap="round" stroke-linejoin="round" stroke-width="2.5"/>
    <path d="M56.54,23.44c.42,0,.76-.05,1.09-.06l7.71-.1a3.8,3.8,0,0,0,3.73-2.94c.28-1.24.39-2.51.54-3.78a2.93,2.93,0,0,0-1-2.7c-.47-.41-.95-.8-1.45-1.17a1.26,1.26,0,0,1-.57-1c-.16-1.92-.35-3.84-.5-5.76a4.35,4.35,0,0,0-1.56-3.5A6.15,6.15,0,0,0,61,1.41a84.15,84.15,0,0,0-11.67.09c-2.36.22-4,1.38-4.19,4.14-.1,1.67-.24,3.35-.39,5-.08.9-.09,1.83-1,2.39a7.88,7.88,0,0,0-.93.76,2.93,2.93,0,0,0-1.18,2.59,33.33,33.33,0,0,0,.47,3.74,3.82,3.82,0,0,0,4,3.22c2.23.05,4.46.07,6.7.1h1.95A16.46,16.46,0,0,0,56.54,23.44Z" fill="none" stroke="#231f20" stroke-linecap="round" stroke-linejoin="round" stroke-width="2.5"/>
    <polyline points="67.5 31.06 55.67 31.52 43.68 30.88" fill="none" stroke="#231f20" stroke-linecap="round" stroke-linejoin="round" stroke-width="2.5"/>
    <polyline points="55.67 23.53 55.67 31.52 61.91 37.48" fill="none" stroke="#231f20" stroke-linecap="round" stroke-linejoin="round" stroke-width="2.5"/>
    <line x1="49.14" y1="37.49" x2="55.68" y2="31.58" fill="none" stroke="#231f20" stroke-linecap="round" stroke-linejoin="round" stroke-width="2.5"/>
    <rect x="49.57" y="5.4" width="12.35" height="6.96" rx="2.48" ry="2.48" fill="none" stroke="#231f20" stroke-linecap="round" stroke-linejoin="round" stroke-width="2.5"/>
  </g>
</svg>
