<svg id="394dc773-666c-414a-8259-ee1a37c1a4ad" data-name="Layer 1" xmlns="http://www.w3.org/2000/svg" viewBox="0 0 49.23 40.95">
  <title>emergency-1</title>
  <g>
    <path d="M24.49,16.48a8,8,0,0,1,7.95,7.95,1.25,1.25,0,1,0,2.5,0A10.46,10.46,0,0,0,24.49,14a1.25,1.25,0,1,0,0,2.5Z" style="fill: #000100"/>
    <path d="M5.07,23.17H1.25a1.25,1.25,0,1,0,0,2.5H5.07a1.25,1.25,0,1,0,0-2.5Z" style="fill: #000100"/>
    <path d="M8.41,13.59,5.1,11.68a1.25,1.25,0,1,0-1.25,2.16l3.31,1.91a1.25,1.25,0,1,0,1.25-2.16Z" style="fill: #000100"/>
    <path d="M13.93,8.22A1.25,1.25,0,1,0,16.09,7L14.18,3.66A1.25,1.25,0,1,0,12,4.91Z" style="fill: #000100"/>
    <path d="M24.81,6.32a1.25,1.25,0,0,0,1.25-1.25V1.25a1.25,1.25,0,0,0-2.5,0V5.07A1.25,1.25,0,0,0,24.81,6.32Z" style="fill: #000100"/>
    <path d="M33.93,8.87a1.25,1.25,0,0,0,1.71-.46L37.55,5.1a1.25,1.25,0,0,0-2.16-1.25L33.48,7.16A1.25,1.25,0,0,0,33.93,8.87Z" style="fill: #000100"/>
    <path d="M46,12.48A1.25,1.25,0,0,0,44.32,12L41,13.93a1.25,1.25,0,0,0,1.25,2.17l3.31-1.91A1.25,1.25,0,0,0,46,12.48Z" style="fill: #000100"/>
    <path d="M48,23.56H44.16a1.25,1.25,0,1,0,0,2.5H48a1.25,1.25,0,0,0,0-2.5Z" style="fill: #000100"/>
    <path d="M39.41,33.7V24.43a14.92,14.92,0,1,0-29.84,0V39.7A1.25,1.25,0,0,0,10.82,41H38.16a1.25,1.25,0,0,0,1.25-1.25v-6h0ZM24.49,12A12.44,12.44,0,0,1,36.91,24.43v8H12.07v-8A12.44,12.44,0,0,1,24.49,12ZM12.07,38.45V35H36.91v3.5Z" style="fill: #000100"/>
  </g>
</svg>
