<svg id="1fe1ae07-8dec-4c16-9366-d9550f02efff" data-name="Layer 1" xmlns="http://www.w3.org/2000/svg" viewBox="0 0 49.23 40.95">
  <title>emergency-1</title>
  <g>
    <path d="M24.49,10.76A13.67,13.67,0,0,0,10.82,24.43V39.7H38.16V24.43A13.67,13.67,0,0,0,24.49,10.76Z" fill="none" stroke="#000" stroke-linecap="round" stroke-linejoin="round" stroke-width="2.5"/>
    <path d="M24.49,15.23a9.21,9.21,0,0,1,9.2,9.2" fill="none" stroke="#000" stroke-linecap="round" stroke-linejoin="round" stroke-width="2.5"/>
    <line x1="5.07" y1="24.42" x2="1.25" y2="24.42" fill="none" stroke="#000" stroke-linecap="round" stroke-linejoin="round" stroke-width="2.5"/>
    <line x1="7.79" y1="14.68" x2="4.48" y2="12.77" fill="none" stroke="#000" stroke-linecap="round" stroke-linejoin="round" stroke-width="2.5"/>
    <line x1="15.01" y1="7.59" x2="13.1" y2="4.28" fill="none" stroke="#000" stroke-linecap="round" stroke-linejoin="round" stroke-width="2.5"/>
    <line x1="24.81" y1="5.07" x2="24.81" y2="1.25" fill="none" stroke="#000" stroke-linecap="round" stroke-linejoin="round" stroke-width="2.5"/>
    <line x1="34.56" y1="7.79" x2="36.47" y2="4.48" fill="none" stroke="#000" stroke-linecap="round" stroke-linejoin="round" stroke-width="2.5"/>
    <line x1="41.64" y1="15.01" x2="44.95" y2="13.1" fill="none" stroke="#000" stroke-linecap="round" stroke-linejoin="round" stroke-width="2.5"/>
    <line x1="44.16" y1="24.81" x2="47.98" y2="24.81" fill="none" stroke="#000" stroke-linecap="round" stroke-linejoin="round" stroke-width="2.5"/>
    <line x1="10.82" y1="33.7" x2="38.16" y2="33.7" fill="none" stroke="#000" stroke-linecap="round" stroke-linejoin="round" stroke-width="2.5"/>
  </g>
</svg>
