<svg id="3c832db6-0871-4780-9d0c-4b064d295c73" data-name="Layer 1" xmlns="http://www.w3.org/2000/svg" viewBox="0 0 36.6 39.32">
  <title>finishing-touches-frame</title>
  <g>
    <path d="M35.35,9.55H29L19.15.34a1.25,1.25,0,0,0-1.71,0L7.58,9.55H1.25A1.25,1.25,0,0,0,0,10.8V38.07a1.25,1.25,0,0,0,1.25,1.25h34.1a1.25,1.25,0,0,0,1.25-1.25V10.8A1.25,1.25,0,0,0,35.35,9.55ZM18.3,3l7.06,6.59H11.24ZM34.1,12V29.6l-8.78-8.78a1.25,1.25,0,0,0-1.77,0l-7,7-3.38-4.21a1.25,1.25,0,0,0-.91-.46,1.27,1.27,0,0,0-1,.36L2.5,32.33V12ZM2.5,35.81a1.18,1.18,0,0,0,.16-.1l9.4-9.4,8.46,10.52H2.5Zm21.23,1-5.63-7,6.34-6.34,9.66,9.66v3.69Z" style="fill: #1d1d1b"/>
    <path d="M9.72,21.17a4,4,0,1,0-4-4A4,4,0,0,0,9.72,21.17Zm0-5.46a1.48,1.48,0,1,1-1.48,1.48A1.48,1.48,0,0,1,9.72,15.72Z" style="fill: #1d1d1b"/>
  </g>
</svg>
