<svg id="a058dd36-54f3-43b2-9e58-1be567884856" data-name="Layer 1" xmlns="http://www.w3.org/2000/svg" viewBox="0 0 36.97 40.36">
  <title>finishing-touches-tv</title>
  <g>
    <circle cx="31.07" cy="34.95" r="1.13" style="fill: #1d1d1b"/>
    <circle cx="27.88" cy="34.95" r="1.13" style="fill: #1d1d1b"/>
    <path d="M35.72,8.42H21.21L26.4,2.36A1.25,1.25,0,0,0,24.5.73l-6,7-6-7.27A1.25,1.25,0,0,0,10.6,2l5.24,6.37H1.25A1.25,1.25,0,0,0,0,9.67V39.11a1.25,1.25,0,0,0,1.25,1.25H35.72A1.25,1.25,0,0,0,37,39.11V9.67A1.25,1.25,0,0,0,35.72,8.42ZM34.47,37.86H2.5V10.92h32Z" style="fill: #1d1d1b"/>
    <path d="M4,13.72v16.5a1.25,1.25,0,0,0,1.25,1.25H31.36a1.25,1.25,0,0,0,1.25-1.25V13.72a1.25,1.25,0,0,0-1.25-1.25H5.21A1.25,1.25,0,0,0,4,13.72ZM6.46,15H30.11V29H6.46Z" style="fill: #1d1d1b"/>
  </g>
</svg>
