<svg id="993a8ad1-4826-4928-8f92-f054e12912ba" data-name="Layer 1" xmlns="http://www.w3.org/2000/svg" viewBox="0 0 37.46 47.76">
  <title>finishing-touches-chair</title>
  <g>
    <path d="M35.7,16.05c-.71-.62-1.31-1.1-1.89-1.53-.19-.14-.19-.2-.2-.29q-.11-1.3-.23-2.6c-.14-1.53-.27-3.06-.39-4.6-.14-1.82-.54-3.88-2.45-5.28a9,9,0,0,0-5-1.56A107.48,107.48,0,0,0,10.78.31C6.89.67,4.63,2.92,4.41,6.66c-.13,2.12-.31,4.24-.49,6.23l0,.26c-.09,1.05-.17,1.48-.64,1.77a7,7,0,0,0-1,.81l-.3.26A4.88,4.88,0,0,0,0,20.3l.06.62a36.21,36.21,0,0,0,.55,4.18,6,6,0,0,0,6.16,5c2.11.05,4.21.08,6.32.1l2.06,0h2.34v7.51L3.86,37a1.25,1.25,0,1,0-.13,2.5l12.06.65-6,5.43a1.25,1.25,0,0,0,1.68,1.86l7.34-6.63,6.91,6.61a1.25,1.25,0,0,0,1.73-1.81L21.76,40.2l11.82-.46a1.25,1.25,0,0,0-.1-2.5L20,37.77V30.21l.41,0,.81,0,4.12-.05,5.5-.08a6,6,0,0,0,5.86-4.65,36.9,36.9,0,0,0,.58-3.85l.12-1A4.9,4.9,0,0,0,35.7,16.05Zm-.75,4.16-.12,1a34.34,34.34,0,0,1-.54,3.59,3.49,3.49,0,0,1-3.46,2.7l-5.5.08-4.13.05c-.3,0-.6,0-.94,0l-.47,0a21.09,21.09,0,0,1-2.16,0H15.21l-2.06,0c-2.1,0-4.2-.05-6.29-.1a3.55,3.55,0,0,1-3.78-3,33.85,33.85,0,0,1-.51-3.9l-.06-.63a2.38,2.38,0,0,1,1-2.17l.35-.31a5.11,5.11,0,0,1,.66-.53,4.21,4.21,0,0,0,1.83-3.7l0-.24c.18-2,.37-4.15.5-6.3C7.05,4.28,8.32,3,11,2.8A105.28,105.28,0,0,1,25.41,2.7a6.36,6.36,0,0,1,3.64,1.08c1,.76,1.32,1.89,1.44,3.46s.25,3.08.39,4.63q.12,1.29.23,2.59a2.82,2.82,0,0,0,1.21,2.09c.52.38,1.07.83,1.73,1.4A2.41,2.41,0,0,1,34.94,20.22Z" style="fill: #1d1d1b"/>
    <path d="M24.08,5.19H13.63A3.74,3.74,0,0,0,9.89,8.92v3.72a3.74,3.74,0,0,0,3.73,3.73H24.08a3.74,3.74,0,0,0,3.73-3.73V8.92A3.74,3.74,0,0,0,24.08,5.19Zm1.23,7.46a1.24,1.24,0,0,1-1.23,1.23H13.63a1.24,1.24,0,0,1-1.23-1.23V8.92a1.24,1.24,0,0,1,1.23-1.23H24.08a1.24,1.24,0,0,1,1.23,1.23Z" style="fill: #1d1d1b"/>
  </g>
</svg>
