<svg id="dcba60e0-6fa5-4095-b5c4-12cf75f4a399" data-name="Layer 1" xmlns="http://www.w3.org/2000/svg" viewBox="0 0 38.96 39.38">
  <title>finishing-touches-lamp</title>
  <g>
    <path d="M26.49,36.88H15.06L2.81,10.94,13.34,3l1.57,2.07c-2.83,3.77-2,9.73,2.11,13.84a1.25,1.25,0,0,0,1.77,0L30.3,7.39a1.25,1.25,0,0,0,0-1.77,12.65,12.65,0,0,0-7.49-3.73,8.85,8.85,0,0,0-6.09,1.43L14.57.49A1.25,1.25,0,0,0,12.83.25L.5,9.55a1.25,1.25,0,0,0-.38,1.53L12.3,36.88H2.46a1.25,1.25,0,0,0,0,2.5h24a1.25,1.25,0,0,0,0-2.5Zm-4-32.51A9.86,9.86,0,0,1,27.6,6.55L18,16.21c-2.7-3.37-3-7.76-.56-10.21a5.94,5.94,0,0,1,4.3-1.67A7.94,7.94,0,0,1,22.54,4.38Z" style="fill: #1d1d1b"/>
    <path d="M23.12,17.33a1.25,1.25,0,0,0-.9,1.52l2,7.72a1.25,1.25,0,0,0,1.21.94,1.27,1.27,0,0,0,.31,0,1.25,1.25,0,0,0,.9-1.52l-2-7.72A1.26,1.26,0,0,0,23.12,17.33Z" style="fill: #1d1d1b"/>
    <path d="M27.8,14.82A1.25,1.25,0,0,0,26,16.59l5.6,5.6a1.25,1.25,0,0,0,1.77-1.77Z" style="fill: #1d1d1b"/>
    <path d="M38,12.56l-8.17-2A1.25,1.25,0,0,0,29.24,13l8.17,2a1.28,1.28,0,0,0,.3,0A1.25,1.25,0,0,0,38,12.56Z" style="fill: #1d1d1b"/>
  </g>
</svg>
