<svg id="3a79d45b-457c-4c18-ad67-1ff5000b1224" data-name="Layer 1" xmlns="http://www.w3.org/2000/svg" viewBox="0 0 37.46 47.76">
  <title>finishing-touches-chair</title>
  <g>
    <path d="M19.85,29c.53,0,.94-.07,1.36-.07l9.62-.13a4.74,4.74,0,0,0,4.66-3.67c.35-1.55.49-3.14.68-4.72A3.66,3.66,0,0,0,34.88,17c-.59-.51-1.18-1-1.81-1.46a1.57,1.57,0,0,1-.71-1.19c-.2-2.4-.44-4.8-.62-7.2-.13-1.7-.47-3.28-1.95-4.37a7.68,7.68,0,0,0-4.33-1.32,105.12,105.12,0,0,0-14.58.11c-2.95.27-5,1.73-5.23,5.17-.12,2.09-.31,4.18-.49,6.27-.1,1.12-.11,2.28-1.26,3a9.84,9.84,0,0,0-1.17,1,3.67,3.67,0,0,0-1.47,3.24,41.63,41.63,0,0,0,.59,4.67,4.78,4.78,0,0,0,5,4c2.79.07,5.58.09,8.37.13h2.43A20.55,20.55,0,0,0,19.85,29Z" fill="none" stroke="#231f20" stroke-linecap="round" stroke-linejoin="round" stroke-width="2.5"/>
    <polyline points="33.54 38.49 18.77 39.06 3.79 38.26" fill="none" stroke="#231f20" stroke-linecap="round" stroke-linejoin="round" stroke-width="2.5"/>
    <polyline points="18.77 29.08 18.77 39.06 26.56 46.51" fill="none" stroke="#231f20" stroke-linecap="round" stroke-linejoin="round" stroke-width="2.5"/>
    <line x1="10.61" y1="46.51" x2="18.78" y2="39.13" fill="none" stroke="#231f20" stroke-linecap="round" stroke-linejoin="round" stroke-width="2.5"/>
    <rect x="11.14" y="6.44" width="15.42" height="8.69" rx="2.48" ry="2.48" fill="none" stroke="#231f20" stroke-linecap="round" stroke-linejoin="round" stroke-width="2.5"/>
  </g>
</svg>
