<svg id="f12953fd-3200-4dcd-8426-04895041370f" data-name="Layer 1" xmlns="http://www.w3.org/2000/svg" viewBox="0 0 39.73 43.4">
  <title>kitchen-2</title>
  <g>
    <line x1="19.86" y1="3.05" x2="19.86" y2="21.7" fill="none" stroke="#231f20" stroke-linecap="round" stroke-linejoin="round" stroke-width="2.5"/>
    <line x1="19.86" y1="10.85" x2="16.09" y2="7.08" fill="none" stroke="#231f20" stroke-linecap="round" stroke-linejoin="round" stroke-width="2.5"/>
    <line x1="19.86" y1="10.85" x2="23.44" y2="7.08" fill="none" stroke="#231f20" stroke-linecap="round" stroke-linejoin="round" stroke-width="2.5"/>
    <line x1="18.06" y1="1.25" x2="19.86" y2="3.05" fill="none" stroke="#231f20" stroke-linecap="round" stroke-linejoin="round" stroke-width="2.5"/>
    <line x1="19.86" y1="3.05" x2="21.57" y2="1.25" fill="none" stroke="#231f20" stroke-linecap="round" stroke-linejoin="round" stroke-width="2.5"/>
    <line x1="3.71" y1="12.38" x2="19.86" y2="21.7" fill="none" stroke="#231f20" stroke-linecap="round" stroke-linejoin="round" stroke-width="2.5"/>
    <line x1="10.47" y1="16.28" x2="5.31" y2="17.66" fill="none" stroke="#231f20" stroke-linecap="round" stroke-linejoin="round" stroke-width="2.5"/>
    <line x1="10.47" y1="16.28" x2="8.99" y2="11.29" fill="none" stroke="#231f20" stroke-linecap="round" stroke-linejoin="round" stroke-width="2.5"/>
    <line x1="1.25" y1="13.04" x2="3.71" y2="12.38" fill="none" stroke="#231f20" stroke-linecap="round" stroke-linejoin="round" stroke-width="2.5"/>
    <line x1="3.71" y1="12.38" x2="3.01" y2="10" fill="none" stroke="#231f20" stroke-linecap="round" stroke-linejoin="round" stroke-width="2.5"/>
    <line x1="3.71" y1="31.03" x2="19.86" y2="21.7" fill="none" stroke="#231f20" stroke-linecap="round" stroke-linejoin="round" stroke-width="2.5"/>
    <line x1="10.47" y1="27.13" x2="9.08" y2="32.28" fill="none" stroke="#231f20" stroke-linecap="round" stroke-linejoin="round" stroke-width="2.5"/>
    <line x1="10.47" y1="27.13" x2="5.41" y2="25.91" fill="none" stroke="#231f20" stroke-linecap="round" stroke-linejoin="round" stroke-width="2.5"/>
    <line x1="3.05" y1="33.49" x2="3.71" y2="31.03" fill="none" stroke="#231f20" stroke-linecap="round" stroke-linejoin="round" stroke-width="2.5"/>
    <line x1="3.71" y1="31.03" x2="1.3" y2="30.45" fill="none" stroke="#231f20" stroke-linecap="round" stroke-linejoin="round" stroke-width="2.5"/>
    <line x1="19.86" y1="40.35" x2="19.86" y2="21.7" fill="none" stroke="#231f20" stroke-linecap="round" stroke-linejoin="round" stroke-width="2.5"/>
    <line x1="19.86" y1="32.55" x2="23.64" y2="36.33" fill="none" stroke="#231f20" stroke-linecap="round" stroke-linejoin="round" stroke-width="2.5"/>
    <line x1="19.86" y1="32.55" x2="16.28" y2="36.33" fill="none" stroke="#231f20" stroke-linecap="round" stroke-linejoin="round" stroke-width="2.5"/>
    <line x1="21.66" y1="42.15" x2="19.86" y2="40.35" fill="none" stroke="#231f20" stroke-linecap="round" stroke-linejoin="round" stroke-width="2.5"/>
    <line x1="19.86" y1="40.35" x2="18.15" y2="42.15" fill="none" stroke="#231f20" stroke-linecap="round" stroke-linejoin="round" stroke-width="2.5"/>
    <line x1="36.02" y1="31.03" x2="19.86" y2="21.7" fill="none" stroke="#231f20" stroke-linecap="round" stroke-linejoin="round" stroke-width="2.5"/>
    <line x1="29.26" y1="27.13" x2="34.41" y2="25.75" fill="none" stroke="#231f20" stroke-linecap="round" stroke-linejoin="round" stroke-width="2.5"/>
    <line x1="29.26" y1="27.13" x2="30.74" y2="32.12" fill="none" stroke="#231f20" stroke-linecap="round" stroke-linejoin="round" stroke-width="2.5"/>
    <line x1="38.48" y1="30.37" x2="36.02" y2="31.03" fill="none" stroke="#231f20" stroke-linecap="round" stroke-linejoin="round" stroke-width="2.5"/>
    <line x1="36.02" y1="31.03" x2="36.72" y2="33.41" fill="none" stroke="#231f20" stroke-linecap="round" stroke-linejoin="round" stroke-width="2.5"/>
    <line x1="36.02" y1="12.38" x2="19.86" y2="21.7" fill="none" stroke="#231f20" stroke-linecap="round" stroke-linejoin="round" stroke-width="2.5"/>
    <line x1="29.26" y1="16.28" x2="30.64" y2="11.12" fill="none" stroke="#231f20" stroke-linecap="round" stroke-linejoin="round" stroke-width="2.5"/>
    <line x1="29.26" y1="16.28" x2="34.32" y2="17.49" fill="none" stroke="#231f20" stroke-linecap="round" stroke-linejoin="round" stroke-width="2.5"/>
    <line x1="36.67" y1="9.92" x2="36.02" y2="12.38" fill="none" stroke="#231f20" stroke-linecap="round" stroke-linejoin="round" stroke-width="2.5"/>
    <line x1="36.02" y1="12.38" x2="38.43" y2="12.96" fill="none" stroke="#231f20" stroke-linecap="round" stroke-linejoin="round" stroke-width="2.5"/>
  </g>
</svg>
