<svg id="566e8fdd-4a8d-476f-b25e-81bf5c10d609" data-name="Layer 1" xmlns="http://www.w3.org/2000/svg" viewBox="0 0 37.92 49.68">
  <title>furnishing-wardrobe</title>
  <g>
    <path d="M36.67,0H1.25A1.25,1.25,0,0,0,0,1.25V48.43a1.25,1.25,0,0,0,1.25,1.25H36.67a1.25,1.25,0,0,0,1.25-1.25V1.25A1.25,1.25,0,0,0,36.67,0ZM2.5,2.5H12.71V47.18H2.5ZM35.42,47.18H15.21V2.5H35.42Z" style="fill: #1d1d1b"/>
    <path d="M18.75,29.33A1.25,1.25,0,0,0,20,28.08V22.25a1.25,1.25,0,0,0-2.5,0v5.83A1.25,1.25,0,0,0,18.75,29.33Z" style="fill: #1d1d1b"/>
    <path d="M8.92,21a1.25,1.25,0,0,0-1.25,1.25v5.83a1.25,1.25,0,0,0,2.5,0V22.25A1.25,1.25,0,0,0,8.92,21Z" style="fill: #1d1d1b"/>
  </g>
</svg>
