<svg id="5c76ebc1-d8a4-4901-9869-793d7f37d41d" data-name="Layer 1" xmlns="http://www.w3.org/2000/svg" viewBox="0 0 29.84 40.69">
  <title>furnishing-bedside</title>
  <g>
    <path d="M12.37,26.06h5.1a1.25,1.25,0,0,0,0-2.5h-5.1a1.25,1.25,0,1,0,0,2.5Z" style="fill: #1d1d1b"/>
    <path d="M17.47,33.18h-5.1a1.25,1.25,0,1,0,0,2.5h5.1a1.25,1.25,0,0,0,0-2.5Z" style="fill: #1d1d1b"/>
    <path d="M28.59,17.85H24.37c.38-1.1.08-2.7-.93-4.87v-1.8h2.1a1.25,1.25,0,0,0,1.22-1.52L24.81,1a1.25,1.25,0,0,0-1.22-1h-7a1.25,1.25,0,0,0-1.22,1l-2,8.67a1.25,1.25,0,0,0,1.22,1.54H17v1.69c-.59.87-1.77,2.88-1.32,4.51a2.59,2.59,0,0,0,.19.47H1.25A1.25,1.25,0,0,0,0,19.1V39.44a1.25,1.25,0,0,0,1.25,1.25H28.59a1.25,1.25,0,0,0,1.25-1.25V19.1A1.25,1.25,0,0,0,28.59,17.85ZM17.62,2.5h5L24,8.68H16.17Zm3.32,8.67v2.09a1.25,1.25,0,0,0,.13.54,8.52,8.52,0,0,1,1,2.88h-4A5.19,5.19,0,0,1,19.25,14a1.25,1.25,0,0,0,.25-.75V11.18Zm6.4,9.17V28H2.5V20.35ZM2.5,38.19V30.52H27.34v7.67Z" style="fill: #1d1d1b"/>
  </g>
</svg>
