<svg id="2a4268aa-47a5-4ee4-a469-9985a057bac9" data-name="Layer 1" xmlns="http://www.w3.org/2000/svg" viewBox="0 0 46.82 49.6">
  <title>gym-1</title>
  <g>
    <path d="M46.1,27.42A89.2,89.2,0,0,0,42.17,10a28.28,28.28,0,0,0-.48-2.88,12.49,12.49,0,0,0-2-5c-.12-.16-.28-.3-1-.63A16.19,16.19,0,0,0,37,.86,16.37,16.37,0,0,0,32,0a10.15,10.15,0,0,0-4,.75c-2.39,1-4.11,3.84-3.54,5.83a2.53,2.53,0,0,0,1.18,1.56s0,.07,0,.1a2.12,2.12,0,0,0,1.22,2,3,3,0,0,0,1.21.24,4.47,4.47,0,0,0,.73-.06,3,3,0,0,0,2,1.72,2.4,2.4,0,0,0,.54.06A4.69,4.69,0,0,0,33,11.88c-.37,8-.3,12.64-.16,15.13a17.24,17.24,0,0,0-3.53-1.86,18.78,18.78,0,0,0-6.7-1.25,24.25,24.25,0,0,0-8.3,1.51,14.6,14.6,0,0,0-2.71-2.91A16,16,0,0,0,1,19a1,1,0,0,0-1,1H0V48.57H0a1,1,0,0,0,1,1,1,1,0,0,0,.67-.25l9-7.74a23.15,23.15,0,0,0,9.93,4,28.41,28.41,0,0,0,4.51.35,32.22,32.22,0,0,0,6.61-.7,30.39,30.39,0,0,0,9.19-3.51,15.22,15.22,0,0,0,5.75-5.47,1,1,0,0,0,.12-.52C46.82,35.62,46.72,32.29,46.1,27.42ZM31.43,10.13h-.07c-.58-.13-.74-1-.75-1.1a1,1,0,0,0-.5-.77,1,1,0,0,0-.92-.06,3.18,3.18,0,0,1-1,.21,1.11,1.11,0,0,1-.35,0,1.57,1.57,0,0,1,0-.66,1,1,0,0,0-1-1.32c-.17,0-.29-.15-.35-.38-.21-.72.65-2.64,2.36-3.36A8.13,8.13,0,0,1,32,2.07a14.93,14.93,0,0,1,6.11,1.47C39.25,5,39.85,8.13,40.06,9.75a6,6,0,0,1-2.88.77H37a2.25,2.25,0,0,1-2-.76,1,1,0,0,0-.61-.55,1,1,0,0,0-.85.12A5.67,5.67,0,0,1,31.43,10.13Zm3.5,4.13q0-1,.08-2a5.38,5.38,0,0,0,2,.35h.29a8.38,8.38,0,0,0,3.33-.78q.33,1,.63,2l.55,2a101.46,101.46,0,0,1,3,19.69c-2,3.33-7.3,6.4-13.42,7.7A28.73,28.73,0,0,1,21,43.56a21.26,21.26,0,0,1-8.65-3.34l1.8-1.55a1,1,0,1,0-1.35-1.57L10,39.5h0L2.07,46.32V21a13.62,13.62,0,0,1,8.11,3,11.68,11.68,0,0,1,2.76,3.12,1,1,0,0,0,1.29.48A22.7,22.7,0,0,1,22.48,26,16.74,16.74,0,0,1,28.41,27a13.82,13.82,0,0,1,4.87,3.05,1,1,0,0,0,.77.35,1,1,0,0,0,.46-.11,1,1,0,0,0,.54-1.13s-.52-2.8-.21-12.79"/>
    <path d="M17.07,31s7.76-2.83,12.59,1.17" fill="none" stroke="#000" stroke-linecap="round" stroke-linejoin="round" stroke-width="2.5"/>
  </g>
</svg>
