<svg id="5bd7c889-375a-4538-9877-4a2b37c6c81c" data-name="Layer 1" xmlns="http://www.w3.org/2000/svg" viewBox="0 0 37.53 48.78">
  <title>insurance-1</title>
  <g>
    <path d="M28.26,22.76H20V14.51a1.25,1.25,0,1,0-2.5,0v8.25H9.26a1.25,1.25,0,0,0,0,2.5h8.25v8.25a1.25,1.25,0,0,0,2.5,0V25.26h8.25a1.25,1.25,0,0,0,0-2.5Z" style="fill: #1d1d1b"/>
    <path d="M37.5,20.7c0-.76,0-1.52,0-2.27v-2.3c0-2.29,0-4.59,0-6.88a2.15,2.15,0,0,0-1.37-2.12C34.8,6.49,33.47,5.77,32.24,5a.75.75,0,0,1-.14-.31A1.93,1.93,0,0,0,30.56,3l-2-.54c-2.33-.63-4.74-1.28-7.07-2A8.63,8.63,0,0,0,16,.44c-.92.29-1.86.57-2.8.83l-.9.25L10,2.16,6.9,3A1.83,1.83,0,0,0,5.48,4.72c0,.12,0,.28-.4.51-1.17.66-2.43,1.3-3.75,1.92A2.05,2.05,0,0,0,0,9.17q0,4.2,0,8.41H0v9A17.72,17.72,0,0,0,1,32.3a22.84,22.84,0,0,0,6.28,9.45,35.17,35.17,0,0,0,7.62,5.43q1.4.74,2.89,1.38a2.81,2.81,0,0,0,1,.22,2,2,0,0,0,.77-.15,32.83,32.83,0,0,0,13.8-10.35,19.72,19.72,0,0,0,4.1-10.77v0c0-.58,0-1.16,0-1.75C37.48,24,37.49,22.35,37.5,20.7ZM31.38,36.77a27.31,27.31,0,0,1-5.33,5.31l0,0a35.13,35.13,0,0,1-7.26,4.16h0A33.23,33.23,0,0,1,9,39.93,20.39,20.39,0,0,1,3.34,31.5a15.23,15.23,0,0,1-.83-4.86V21.92c0-4.17,0-8.34,0-12.55,1.34-.63,2.62-1.28,3.8-2A3.06,3.06,0,0,0,7.92,5.35l2.79-.77,1.4-.39h0l.95-.27.86-.24c.94-.27,1.89-.55,2.85-.85a6.15,6.15,0,0,1,3.93,0c2.38.75,4.81,1.41,7.17,2l1.77.48A3,3,0,0,0,30.9,7.14c1.33.8,2.72,1.55,4.13,2.23,0,2.26,0,4.51,0,6.77v2.3c0,.75,0,1.5,0,2.26s0,1.68,0,2.53,0,1.71,0,2.56h0c0,.49,0,1,0,1.52A17.28,17.28,0,0,1,31.38,36.77Z" style="fill: #1d1d1b"/>
  </g>
</svg>
