<svg id="4f5e2d40-b2d5-4e3b-9fac-0b8203e6ce96" data-name="Layer 1" xmlns="http://www.w3.org/2000/svg" viewBox="0 0 30.04 51.51">
  <title>kitchen-1</title>
  <g>
    <path d="M30,24.8V7.91A7.92,7.92,0,0,0,22.13,0H7.91A7.92,7.92,0,0,0,0,7.91v39.6c0,2.08,2.85,2.85,5.33,3.29a58.49,58.49,0,0,0,9.69.71c6.85,0,15-.69,15-4ZM7.91,2.5H22.13a5.42,5.42,0,0,1,5.41,5.41v10c-2.95-1.15-8-1.45-12.52-1.45s-9.57.31-12.52,1.45v-10A5.42,5.42,0,0,1,7.91,2.5ZM15,49C7.66,49,3.3,48,2.5,47.33V20.65C3.3,19.95,7.66,19,15,19s11.72,1,12.52,1.68V47.33C26.74,48,22.38,49,15,49Z" style="fill: #1d1d1b"/>
    <path d="M22.82,13.46a1.25,1.25,0,0,0,1.25-1.25V9.16a1.25,1.25,0,0,0-2.5,0v3.05A1.25,1.25,0,0,0,22.82,13.46Z" style="fill: #1d1d1b"/>
    <path d="M22.82,29.11a1.25,1.25,0,0,0,1.25-1.25V24.8a1.25,1.25,0,0,0-2.5,0v3.05A1.25,1.25,0,0,0,22.82,29.11Z" style="fill: #1d1d1b"/>
  </g>
</svg>
