<svg id="d58dd1bd-2851-4ca2-963e-5645b7ecafda" data-name="Layer 1" xmlns="http://www.w3.org/2000/svg" viewBox="0 0 39.73 43.4">
  <title>kitchen-2</title>
  <path d="M39.68,30a1.25,1.25,0,0,0-1.53-.88l-2,.52L32.5,27.55l2.24-.6a1.25,1.25,0,0,0-.65-2.41l-4.65,1.25L22.36,21.7l7.09-4.09L34,18.71a1.25,1.25,0,0,0,.58-2.43l-2-.48,3.61-2.08,1.93.46a1.25,1.25,0,1,0,.58-2.43l-1.17-.28.33-1.22a1.25,1.25,0,1,0-2.41-.65l-.52,2-3.69,2.13.6-2.24a1.25,1.25,0,1,0-2.41-.65l-1.25,4.65-7.07,4.08V11.35l3.24-3.41a1.25,1.25,0,0,0-1.81-1.72l-1.42,1.5V3.55l1.37-1.44A1.25,1.25,0,0,0,20.67.39l-.83.87L18.94.37a1.25,1.25,0,0,0-1.77,1.77l1.44,1.43V7.83L17,6.19A1.25,1.25,0,0,0,15.21,8l3.41,3.41v8.17l-7.09-4.09-1.33-4.51a1.25,1.25,0,1,0-2.4.71l.59,2L4.77,11.54,4.2,9.64a1.25,1.25,0,0,0-2.4.71l.34,1.15-1.22.33a1.25,1.25,0,1,0,.65,2.41l2-.52,3.69,2.13L5,16.45a1.25,1.25,0,1,0,.65,2.41l4.65-1.25,7.07,4.08L10.27,25.8,5.7,24.7a1.25,1.25,0,0,0-.58,2.43l2,.48L3.52,29.7l-1.93-.46A1.25,1.25,0,0,0,1,31.66l1.17.28-.33,1.22a1.25,1.25,0,1,0,2.41.65l.52-2,3.69-2.13L7.88,32a1.25,1.25,0,1,0,2.41.65L11.54,28l7.07-4.08v8.19l-3.24,3.41a1.25,1.25,0,1,0,1.81,1.72l1.42-1.5v4.17l-1.37,1.44A1.25,1.25,0,1,0,19.06,43l.83-.87.89.89a1.25,1.25,0,1,0,1.77-1.77l-1.44-1.44V35.57l1.64,1.64a1.25,1.25,0,1,0,1.77-1.77L21.11,32V23.87L28.2,28l1.34,4.51a1.25,1.25,0,0,0,2.4-.71l-.59-2L35,31.86l.56,1.9a1.25,1.25,0,0,0,2.4-.71l-.34-1.15,1.22-.33A1.25,1.25,0,0,0,39.68,30Z" style="fill: #1d1d1b"/>
</svg>
