<svg id="d4f23a0c-a76e-4887-9faa-afe93d4a239c" data-name="Layer 1" xmlns="http://www.w3.org/2000/svg" viewBox="0 0 55.53 37.79">
  <title>laundry-2</title>
  <path d="M55.26,3.75a1.26,1.26,0,0,0-1.12-.46C54,3.31,41.07,4.69,16.42,0A1.25,1.25,0,0,0,15,1.48L15.79,6a1.25,1.25,0,0,0,.87,1A21.81,21.81,0,0,1,22,9.69l-16.86.6A1.25,1.25,0,0,0,4,11.53l0,2.93L0,35a1.25,1.25,0,0,0,1.12,1.48l15.55,1.3h.1a1.25,1.25,0,0,0,1.2-.91l1.57-5.5,2.32,5.42a1.25,1.25,0,0,0,1.34.74l15.19-2.39a1.25,1.25,0,0,0,1-1.54L36.74,23a1.17,1.17,0,0,0,.08-.14c0-.1,3.47-10.22,16.1-12.42a1.25,1.25,0,0,0,1-.83l1.57-4.62A1.25,1.25,0,0,0,55.26,3.75ZM6.45,14.82a1.21,1.21,0,0,0,0-.23V12.74l18.46-.66a18.72,18.72,0,0,1,1.87,2.16L6.41,15ZM23.8,34.93l-3.32-7.77a1.25,1.25,0,0,0-2.35.15l-2.25,7.9L2.74,34.11,5.92,17.55l22.39-.86A17.24,17.24,0,0,1,30,22.22a1.25,1.25,0,0,0,.57.89,6.84,6.84,0,0,0,3.34.92l.49,0,2.25,8.89Zm28-26.86c-11.86,2.38-16.13,11-17.09,13.38a3.75,3.75,0,0,1-2.26-.23C30.55,10.16,20.9,5.82,18.11,4.78l-.36-2c18.8,3.42,30.4,3.33,34.74,3.11Z" style="fill: #000100"/>
</svg>
