<svg id="546630a9-bdd5-451f-a994-63362019c5cd" data-name="Layer 1" xmlns="http://www.w3.org/2000/svg" viewBox="0 0 52.07 33.88">
  <title>laundry-3</title>
  <g>
    <polyline points="50.82 5.24 50.82 1.25 1.25 1.25 1.25 5.24" fill="none" stroke="#000" stroke-linecap="round" stroke-linejoin="round" stroke-width="2.5"/>
    <path d="M1.25,5.24H50.82V15.33S38.91,32.63,26,32.63,1.25,15.33,1.25,15.33Z" fill="none" stroke="#000" stroke-linecap="round" stroke-linejoin="round" stroke-width="2.5"/>
    <path d="M1.25,14.3a26.13,26.13,0,0,1,10.35.83,9.89,9.89,0,0,1,6.68,5.71,13.33,13.33,0,0,1,1.1,5.09c0,1.42-.18,3.68-.87,4.75" fill="none" stroke="#000" stroke-linecap="round" stroke-linejoin="round" stroke-width="2.5"/>
    <path d="M50.82,14.28s-14.4-1.55-17.11,6.59c-2.22,8.23.19,9.81.19,9.81" fill="none" stroke="#000" stroke-linecap="round" stroke-linejoin="round" stroke-width="2.5"/>
    <polyline points="33.7 20.87 25.56 13.74 18.58 20.87" fill="none" stroke="#000" stroke-linecap="round" stroke-linejoin="round" stroke-width="2.5"/>
    <line x1="25.56" y1="13.74" x2="25.56" y2="5.24" fill="none" stroke="#000" stroke-linecap="round" stroke-linejoin="round" stroke-width="2.5"/>
  </g>
</svg>
