<svg id="7e2aedf5-e721-4e4d-a6dc-a4b849d75328" data-name="Layer 1" xmlns="http://www.w3.org/2000/svg" viewBox="0 0 40.8 47.68">
  <title>laundry-1</title>
  <g>
    <path d="M39.55,0H1.25A1.25,1.25,0,0,0,0,1.25V46.67a1.25,1.25,0,0,0,1.25,1.25h38.3a1.25,1.25,0,0,0,1.25-1.25V1.25A1.25,1.25,0,0,0,39.55,0ZM38.3,2.5V8.06H2.5V2.5ZM2.5,45.42V10.56H38.3V45.42Z" style="fill: #000100"/>
    <path d="M20.4,13.08A14.39,14.39,0,1,0,34.79,27.47,14.4,14.4,0,0,0,20.4,13.08Zm0,2.5a11.9,11.9,0,0,1,11.69,9.8c-3.46-1.52-10.41-3.85-14,0-2.94,3.13-7.82,2.07-9.52,1.57A11.89,11.89,0,0,1,20.4,15.58Zm0,23.78A11.9,11.9,0,0,1,8.71,29.58a16.34,16.34,0,0,0,3.73.45,9.89,9.89,0,0,0,7.44-3c2.7-2.87,9.3-.42,12.37,1.12A11.89,11.89,0,0,1,20.4,39.35Z" style="fill: #000100"/>
    <circle cx="5.79" cy="5.26" r="1.48" style="fill: #000100"/>
    <circle cx="9.59" cy="5.26" r="1.48" style="fill: #000100"/>
  </g>
</svg>
