<svg id="566059f9-a2f5-4317-8000-df7c113b8ced" data-name="Layer 1" xmlns="http://www.w3.org/2000/svg" viewBox="0 0 52.07 33.88">
  <title>laundry-3</title>
  <path d="M50.82,0H1.25A1.25,1.25,0,0,0,0,1.25V15.33A1.25,1.25,0,0,0,.22,16c.5.73,12.44,17.84,25.81,17.84S51.35,16.77,51.85,16a1.25,1.25,0,0,0,.22-.71V1.25A1.25,1.25,0,0,0,50.82,0ZM33.27,18.83l-6.47-5.66V6.49H49.57v6.45C46,12.78,36.72,13,33.27,18.83ZM18.7,19a11.23,11.23,0,0,0-6.74-5,26.82,26.82,0,0,0-9.46-1V6.49H24.31v6.74ZM49.57,2.5V4H2.5V2.5ZM2.86,15.42a24.26,24.26,0,0,1,8.38.91,8.64,8.64,0,0,1,5.89,5,12.15,12.15,0,0,1,1,4.61,12.62,12.62,0,0,1-.33,3.14C10.62,25.28,4.69,17.86,2.86,15.42ZM20.1,30.15a14.93,14.93,0,0,0,.53-4.24,14.7,14.7,0,0,0-.81-4.52l5.8-5.92,6.68,5.85c-1.16,4.7-.84,7.36-.25,8.81a16.15,16.15,0,0,1-6,1.26A16.1,16.1,0,0,1,20.1,30.15Zm14.22-1.09c-.35-1-.67-3.17.57-7.79h0c1.89-5.65,10.74-5.94,14.3-5.82C47.36,17.88,41.46,25.25,34.32,29.06Z" style="fill: #000100"/>
</svg>
