<?xml version="1.0" encoding="utf-8"?>
<!-- Generator: Adobe Illustrator 16.0.0, SVG Export Plug-In . SVG Version: 6.00 Build 0)  -->
<!DOCTYPE svg PUBLIC "-//W3C//DTD SVG 1.1//EN" "http://www.w3.org/Graphics/SVG/1.1/DTD/svg11.dtd">
<svg version="1.1" id="Layer_1" xmlns="http://www.w3.org/2000/svg" xmlns:xlink="http://www.w3.org/1999/xlink" x="0px" y="0px"
	 width="16.4px" height="16.374px" viewBox="0 0 16.4 16.374" enable-background="new 0 0 16.4 16.374" xml:space="preserve">
<path fill="#FFFFFF" d="M3.677,16.374H0.265V5.438h3.412V16.374z M1.973,3.942C0.88,3.942,0,3.058,0,1.97S0.88,0,1.973,0
	c1.08,0,1.966,0.882,1.966,1.97S3.053,3.942,1.973,3.942z M16.4,16.374h-3.403v-5.322c0-1.268-0.019-2.898-1.761-2.898
	c-1.772,0-2.039,1.38-2.039,2.804v5.417H5.796V5.438h3.262v1.49h0.047c0.447-0.859,1.561-1.768,3.207-1.768
	c3.444,0,4.089,2.27,4.089,5.211V16.374z"/>
</svg>
