<svg id="5a741733-8f6e-4620-96ae-1f1a7a555d0c" data-name="Layer 1" xmlns="http://www.w3.org/2000/svg" viewBox="0 0 50.11 47.95">
  <title>love heart</title>
  <path d="M37.58,2.5a9.78,9.78,0,0,1,10,9.49c0,10.39-11.18,21.59-22.56,32.5C13.68,33.58,2.5,22.38,2.5,12a9.78,9.78,0,0,1,10-9.49c4.79,0,7.3,1.86,10.31,7.64l2.22,4.26,2.22-4.26c3-5.79,5.52-7.64,10.31-7.64m0-2.5c-6.24,0-9.41,3-12.53,9-3.12-6-6.24-9-12.53-9A12.27,12.27,0,0,0,0,12c0,12,12.53,24,25.05,36C37.58,36,50.11,24,50.11,12A12.27,12.27,0,0,0,37.58,0Z" style="fill: #1d1d1b"/>
</svg>
