<svg id="7da330b1-9cce-4155-9741-a1658c07c50d" data-name="Layer 1" xmlns="http://www.w3.org/2000/svg" viewBox="0 0 51.81 45.5">
  <title>maintenance-1</title>
  <g>
    <path d="M23.6,17.85a4,4,0,0,1-4.5-4.5h0L9,3.21C7.1,1.34,5.2,2.47,3.33,4.34S.34,8.1,2.21,10L12.34,20.1h0a4,4,0,0,1,4.5,4.51L18,25.73,24.73,19Z" fill="none" stroke="#000" stroke-linecap="round" stroke-linejoin="round" stroke-width="2.5"/>
    <line x1="21.28" y1="22.48" x2="41.98" y2="43.06" fill="none" stroke="#000" stroke-linecap="round" stroke-linejoin="round" stroke-width="2.5"/>
    <path d="M30.75,8.36C26.67,3.58,20.3,2.83,20.3,2.83S31.87-1.87,38.58,5L43.06,9.5a3.25,3.25,0,0,0,0,4.55,3.48,3.48,0,0,0,3.07.83c2-.26,2.53.31,2.53.31l1.68,1.71a.81.81,0,0,1,0,1.14l-6.72,6.82a.78.78,0,0,1-1.12,0l-1.68-1.71s-.56-.57-.29-2.62a3.57,3.57,0,0,0-.83-3.06,3.13,3.13,0,0,0-4.48,0l-1.44,1.48L29.3,14.39" fill="none" stroke="#000" stroke-linecap="round" stroke-linejoin="round" stroke-width="2.5"/>
    <path d="M14.72,29.15l-10,10.2a1.22,1.22,0,0,0,0,1.7l2.8,2.84a1.18,1.18,0,0,0,1.68,0L23.09,29.8" fill="none" stroke="#000" stroke-linecap="round" stroke-linejoin="round" stroke-width="2.5"/>
    <path d="M30.75,8.36a3.25,3.25,0,0,1,0,4.55l-3,3" fill="none" stroke="#000" stroke-linecap="round" stroke-linejoin="round" stroke-width="2.5"/>
    <line x1="33.78" y1="18.94" x2="28.85" y2="23.9" fill="none" stroke="#000" stroke-linecap="round" stroke-linejoin="round" stroke-width="2.5"/>
  </g>
</svg>
