<svg id="5848ea6e-0aff-422c-8368-c0401826a07a" data-name="Layer 1" xmlns="http://www.w3.org/2000/svg" viewBox="0 0 51.26 42.91">
  <title>maintenance-2</title>
  <g>
    <line x1="38.66" y1="8.82" x2="50.01" y2="8.82" fill="none" stroke="#000" stroke-linecap="round" stroke-linejoin="round" stroke-width="2.5"/>
    <path d="M33.42,5h2.84a1.89,1.89,0,0,1,1.89,1.89v3.78a1.89,1.89,0,0,1-1.89,1.89H33.42" fill="none" stroke="#000" stroke-linecap="round" stroke-linejoin="round" stroke-width="2.5"/>
    <line x1="3.14" y1="33.42" x2="6.93" y2="16.39" fill="none" stroke="#000" stroke-linecap="round" stroke-linejoin="round" stroke-width="2.5"/>
    <line x1="22.89" y1="10.71" x2="28.24" y2="10.71" fill="none" stroke="#000" stroke-linecap="round" stroke-linejoin="round" stroke-width="2.5"/>
    <line x1="15.9" y1="6.93" x2="28.24" y2="6.93" fill="none" stroke="#000" stroke-linecap="round" stroke-linejoin="round" stroke-width="2.5"/>
    <path d="M3.14,33.42v6.34A1.89,1.89,0,0,0,5,41.66H20.17a1.89,1.89,0,0,0,1.89-1.89V35.31a1.89,1.89,0,0,0-1.89-1.89H13.91a2.49,2.49,0,0,1-2.39-3.18l3-13.85" fill="none" stroke="#000" stroke-linecap="round" stroke-linejoin="round" stroke-width="2.5"/>
    <line x1="3.14" y1="33.42" x2="14.5" y2="33.42" fill="none" stroke="#000" stroke-linecap="round" stroke-linejoin="round" stroke-width="2.5"/>
    <rect x="1.25" y="1.25" width="32.17" height="15.14" rx="3.78" ry="3.78" fill="none" stroke="#000" stroke-linecap="round" stroke-linejoin="round" stroke-width="2.5"/>
    <polyline points="13.58 20.66 19.73 20.66 19.73 16.39" fill="none" stroke="#000" stroke-linecap="round" stroke-linejoin="round" stroke-width="2.5"/>
  </g>
</svg>
