<svg id="d44de1e6-c34e-45e0-82d5-8293c05c675b" data-name="Layer 1" xmlns="http://www.w3.org/2000/svg" viewBox="0 0 51.26 42.91">
  <title>maintenance-2</title>
  <g>
    <path d="M50,7.57H39.4V6.93a3.15,3.15,0,0,0-3.14-3.14H34.5A5,5,0,0,0,29.64,0H5A5,5,0,0,0,0,5v7.57a5,5,0,0,0,5,5h.33L1.92,33.15a1.21,1.21,0,0,0,0,.14,1.2,1.2,0,0,0,0,.13v6.34A3.15,3.15,0,0,0,5,42.91H20.18a3.15,3.15,0,0,0,3.14-3.14V35.32a3.15,3.15,0,0,0-3.14-3.14H13.91a1.24,1.24,0,0,1-1.23-1.23,1.57,1.57,0,0,1,.07-.43l1.85-8.6h5.14A1.25,1.25,0,0,0,21,20.65v-3h8.66a5,5,0,0,0,4.86-3.79h1.76a3.15,3.15,0,0,0,3.14-3.14v-.64H50a1.25,1.25,0,0,0,0-2.5ZM14.5,34.67h5.68a.64.64,0,0,1,.64.64v4.45a.64.64,0,0,1-.64.64H5a.64.64,0,0,1-.64-.64V34.67H14.5Zm-9.8-2.5L7.93,17.64h5L10.32,29.9a3.74,3.74,0,0,0-.15,1,3.69,3.69,0,0,0,.23,1.23ZM18.48,19.4H15.13l.38-1.76h3Zm11.16-4.26H5A2.54,2.54,0,0,1,2.5,12.61V5A2.54,2.54,0,0,1,5,2.5h24.6A2.54,2.54,0,0,1,32.17,5v7.57A2.54,2.54,0,0,1,29.64,15.14Zm7.27-4.43a.64.64,0,0,1-.64.64H34.67V6.28h1.59a.64.64,0,0,1,.64.64Z" style="fill: #000100"/>
    <path d="M28.23,9.46H22.89a1.25,1.25,0,1,0,0,2.5h5.35a1.25,1.25,0,1,0,0-2.5Z" style="fill: #000100"/>
    <path d="M28.23,5.68H15.9a1.25,1.25,0,0,0,0,2.5H28.23a1.25,1.25,0,1,0,0-2.5Z" style="fill: #000100"/>
  </g>
</svg>
