<svg id="f9f0b61e-d3e1-4a60-972d-796cb5beb8e6" data-name="Layer 1" xmlns="http://www.w3.org/2000/svg" viewBox="0 0 33.37 48.5">
  <title>maintenance-3</title>
  <g>
    <path d="M20.54,37.1a1.25,1.25,0,0,0-1.25,1.25c0,3.16-.81,5.88-2,7V39.83c0-2.4-2.77-4.22-6.44-4.22s-6.44,1.81-6.44,4.22v5.56c-1.15-1.17-2-3.88-2-7,0-2.51,1.13-3.44,1.15-3.46l.08-.07a14.84,14.84,0,0,0,4.7-10.57V5a2.46,2.46,0,1,1,4.92,0V24.25a14.84,14.84,0,0,0,4.7,10.57,1.25,1.25,0,0,0,1.63-1.89,12.38,12.38,0,0,1-3.84-8.67V5A5,5,0,1,0,5.94,5V24.25a12.51,12.51,0,0,1-3.82,8.66C1.71,33.23,0,34.8,0,38.35,0,43.24,1.78,48.5,5.7,48.5A1.25,1.25,0,0,0,7,47.25V39.83c0-.68,1.57-1.72,3.94-1.72s3.94,1,3.94,1.72v7.42a1.25,1.25,0,0,0,1.25,1.25c3.92,0,5.7-5.26,5.7-10.15A1.25,1.25,0,0,0,20.54,37.1Z" style="fill: #000100"/>
    <path d="M32.81,22.47a2.3,2.3,0,0,1-.93-1.93,8.32,8.32,0,0,1,.93-3.63,1.25,1.25,0,0,0,.56-1V4.22c0-2.8-1.92-4.22-5.7-4.22S22,1.42,22,4.22V15.87a1.18,1.18,0,0,0,.52,1,8.15,8.15,0,0,1,1,3.72A6.58,6.58,0,0,1,23,23.76a1.25,1.25,0,0,0,.22,2.48h3.2v21a1.25,1.25,0,0,0,2.5,0v-21h3.2A1.25,1.25,0,0,0,33.37,25V23.51A1.25,1.25,0,0,0,32.81,22.47Zm-1.94-7.11c-1.1,1.4-1.48,4.21-1.48,5.18a4.93,4.93,0,0,0,1.14,3.2H25.68a11,11,0,0,0,.27-3.2c0-1-.38-3.78-1.48-5.18V4.22c0-.77,0-1.72,3.2-1.72s3.2,1,3.2,1.72Z" style="fill: #000100"/>
  </g>
</svg>
