<svg id="ea991bbe-6ab1-488f-9040-25367a054dc8" data-name="Layer 1" xmlns="http://www.w3.org/2000/svg" viewBox="0 0 33.37 48.5">
  <title>maintenance-3</title>
  <g>
    <path d="M18.87,33.87a13.65,13.65,0,0,1-4.27-9.62V5A3.71,3.71,0,0,0,7.19,5V24.25a13.65,13.65,0,0,1-4.27,9.62s-1.67,1.21-1.67,4.48c0,4.51,1.58,8.9,4.45,8.9V39.83c0-1.64,2.33-3,5.19-3s5.19,1.33,5.19,3v7.42c2.87,0,4.45-4.4,4.45-8.9" fill="none" stroke="#000" stroke-linecap="round" stroke-linejoin="round" stroke-width="2.5"/>
    <path d="M30.64,20.54c0-1.27.6-4.08,1.48-4.67V4.22c0-2.46-2-3-4.45-3s-4.45.51-4.45,3V15.87c.89.59,1.48,3.4,1.48,4.67,0,0,.24,4.26-1.48,4.45h8.9V23.51A3.55,3.55,0,0,1,30.64,20.54Z" fill="none" stroke="#000" stroke-linecap="round" stroke-linejoin="round" stroke-width="2.5"/>
    <line x1="27.67" y1="47.25" x2="27.67" y2="24.99" fill="none" stroke="#000" stroke-linecap="round" stroke-linejoin="round" stroke-width="2.5"/>
  </g>
</svg>
