<svg id="5514ce08-3532-4b95-ab60-83bb9e645ce8" data-name="Layer 1" xmlns="http://www.w3.org/2000/svg" viewBox="0 0 51.81 45.5">
  <title>maintenance-1</title>
  <g>
    <path d="M23,22.45l2.59-2.59a1.25,1.25,0,0,0,0-1.77L24.49,17a1.24,1.24,0,0,0-1.13-.34,2.74,2.74,0,0,1-3-3A1.25,1.25,0,0,0,20,12.46L9.85,2.33C7.77.25,5.28.63,2.45,3.45s-3.21,5.32-1.13,7.4L11.46,21a1.25,1.25,0,0,0,1.17.33,2.6,2.6,0,0,1,2.21.79,2.57,2.57,0,0,1,.79,2.25A1.25,1.25,0,0,0,16,25.49l1.13,1.13a1.25,1.25,0,0,0,1.77,0l2.4-2.4L41.1,43.95a1.25,1.25,0,1,0,1.76-1.77Zm-4.87,1.33a5.32,5.32,0,0,0-5.19-5H12.8L3.09,9.08c-.72-.72-1.18-1.56,1.13-3.86S7.36,3.38,8.08,4.09l9.71,9.71a5.31,5.31,0,0,0,5,5.35Z" style="fill: #000100"/>
    <path d="M51.22,16l-1.68-1.71c-.3-.3-1.25-1-3.59-.67-1.38.18-1.85-.31-2-.47a2,2,0,0,1,0-2.79,1.25,1.25,0,0,0,0-1.75L39.47,4.07C32.25-3.26,20.34,1.47,19.83,1.67a1.25,1.25,0,0,0,.32,2.4c.06,0,6,.77,9.64,5.1l0,0,0,0a2,2,0,0,1,0,2.79l-3,3a1.25,1.25,0,0,0,1.78,1.76l.61-.61L32,18.93,28,23a1.25,1.25,0,0,0,1.77,1.76l4.93-5h0l1.44-1.47a1.88,1.88,0,0,1,1.35-.57h0a1.88,1.88,0,0,1,1.35.57,2.33,2.33,0,0,1,.48,2c-.32,2.4.34,3.36.64,3.66l1.68,1.7a2,2,0,0,0,2.9,0l6.72-6.82A2.07,2.07,0,0,0,51.22,16Zm-8.17,7.62-1.25-1.27a3.79,3.79,0,0,1,0-1.68,4.74,4.74,0,0,0-1.18-4.11,4.36,4.36,0,0,0-3.13-1.31h0a4.37,4.37,0,0,0-3.13,1.32l-.55.57L31,14.38l.59-.59a4.51,4.51,0,0,0,.07-6.21v0l0-.05h0A17.39,17.39,0,0,0,25,2.85c3.7-.65,9-.72,12.69,3l3.74,3.8a4.52,4.52,0,0,0,.74,5.3,4.62,4.62,0,0,0,4.12,1.19,3.41,3.41,0,0,1,1.57,0l1.28,1.3Z" style="fill: #000100"/>
    <path d="M22.2,28.93,8.36,43,5.62,40.23l10-10.2a1.25,1.25,0,1,0-1.79-1.75l-10,10.2a2.47,2.47,0,0,0,0,3.46l2.8,2.84a2.41,2.41,0,0,0,1.73.73h0a2.42,2.42,0,0,0,1.73-.73L24,30.68a1.25,1.25,0,1,0-1.78-1.75Z" style="fill: #000100"/>
  </g>
</svg>
