<svg id="fd73d570-b7a2-4d1e-afb3-2f4167993cdc" data-name="Layer 1" xmlns="http://www.w3.org/2000/svg" viewBox="0 0 46.39 46.39">
  <title>no-smoking-1</title>
  <g>
    <path d="M23.2,0a23.2,23.2,0,1,0,23.2,23.2A23.22,23.22,0,0,0,23.2,0Zm20.7,23.2a20.6,20.6,0,0,1-4.74,13.16l-5.51-5.51h4.88a1.25,1.25,0,0,0,1.25-1.25V24.2a1.25,1.25,0,0,0-1.25-1.25H25.74L10,7.24a20.68,20.68,0,0,1,33.86,16ZM9.11,28.35v-2.9h7.5v2.9Zm10-2.9h5.6l2.9,2.9h-8.5Zm9.13,0h9v2.9H31.14ZM2.5,23.2A20.6,20.6,0,0,1,8.22,9l14,14H7.86A1.25,1.25,0,0,0,6.61,24.2v5.4a1.25,1.25,0,0,0,1.25,1.25H30.11l7.33,7.33A20.67,20.67,0,0,1,2.5,23.2Z" style="fill: #1d1d1b"/>
    <path d="M35.22,20.44a1.25,1.25,0,0,0,2.35-.84l-2.32-6.5a1.25,1.25,0,1,0-2.35.84Z" style="fill: #1d1d1b"/>
    <path d="M30.37,20.44a1.25,1.25,0,1,0,2.35-.84l-1.16-3.25a1.25,1.25,0,1,0-2.35.84Z" style="fill: #1d1d1b"/>
  </g>
</svg>
