<svg id="e686cd56-578b-471f-95c0-df80a738b061" data-name="Layer 1" xmlns="http://www.w3.org/2000/svg" viewBox="0 0 46.54 27.29">
  <title>no-smoking-2</title>
  <g>
    <path d="M42.38,18.21,4.49,2.54a1.25,1.25,0,0,0-1.63.68L.1,9.9a1.25,1.25,0,0,0,.68,1.63L38.66,27.2a1.25,1.25,0,0,0,1.63-.68l2.76-6.68A1.25,1.25,0,0,0,42.38,18.21ZM4.69,5.33l11,4.53-1.77,4.29s0,.06,0,.09L2.88,9.7ZM38.46,24.41,16.15,15.18l0-.08L18,10.82,40.27,20Z" style="fill: #1d1d1b"/>
    <path d="M35.7,12.86a1.25,1.25,0,0,0,1.63-.68L41.6,1.85a1.25,1.25,0,0,0-2.31-1L35,11.22A1.25,1.25,0,0,0,35.7,12.86Z" style="fill: #1d1d1b"/>
    <path d="M39.48,14.42a1.25,1.25,0,0,0,1.63-.68l5-12a1.25,1.25,0,0,0-2.31-1l-5,12A1.25,1.25,0,0,0,39.48,14.42Z" style="fill: #1d1d1b"/>
    <path d="M45.77,10a1.25,1.25,0,0,0-1.63.68l-1.52,3.67a1.25,1.25,0,0,0,2.31,1l1.52-3.67A1.25,1.25,0,0,0,45.77,10Z" style="fill: #1d1d1b"/>
  </g>
</svg>
