<svg height="100" width="100" xmlns="http://www.w3.org/2000/svg">
  <path d="M92.908 72a4.845 4.845 0 0 0 .984-2.913v-13.62c0-2.286-.82-4.386-2.182-6.022a2.65 2.65 0 0 0 2.105-2.59v-2.281a2.65 2.65 0 0 0-2.646-2.647h-4.355l-1.785-3.356c-1.883-3.538-5.398-5.649-9.404-5.649H57.971V33h-3.857c-4.007 0-7.524 2.112-9.406 5.65l-1.742 3.275h-4.399a2.65 2.65 0 0 0-2.646 2.647v2.281c0 1.297.939 2.373 2.173 2.598a9.399 9.399 0 0 0-2.173 6.015v13.62a4.85 4.85 0 0 0 .983 2.913h-14.02v-19.98h7.053a2.958 2.958 0 0 0 2.955-2.956V27.956A2.958 2.958 0 0 0 29.937 25H8.83a2.958 2.958 0 0 0-2.955 2.956v21.106a2.958 2.958 0 0 0 2.955 2.956h7.054V72H3.108v3h93.785v-3h-3.985zM8.875 49.063L8.83 28l21.063-.044v21.063l-21.018.044zM19.884 72h-1.001V52.019h1.001V72zM88.1 44.926h2.717v1.575H88.1v-1.575zm-43.462.242l2.718-5.108c1.372-2.58 3.835-4.06 6.757-4.06h15.902v-.08h5.609c2.92 0 5.383 1.479 6.756 4.059l2.719 5.108v.95a9.14 9.14 0 0 0-.725-.036H45.436c-.27 0-.534.018-.798.039v-.872zm37.284 3.833L78.15 54.09c-.928 1.25-2.26 1.911-3.854 1.911H56.119c-1.594 0-2.926-.661-3.852-1.91l-3.773-5.09h33.428zm-43.003-4.075h2.719v1.575h-2.719v-1.575zM47.159 72c.605-.81.978-1.8.985-2.88.003-.494.508-1.078.849-1.119h.399v-.008l30 .008h1.48c.318 0 .791.59.795 1.119.008 1.08.379 2.07.984 2.88H47.159zm43.734-2.913c0 1.055-.869 1.914-1.936 1.914h-2.354c-1.061 0-1.93-.854-1.936-1.9a4.07 4.07 0 0 0-.182-1.1h4.314v-3h-7.926l-31.844-.008c-.022 0-.042.008-.064.008h-8.982v3h5.353a3.85 3.85 0 0 0-.192 1.1c-.007 1.047-.875 1.9-1.936 1.9h-2.354c-1.067 0-1.936-.859-1.936-1.914v-13.62c0-3.347 2.576-6.108 5.865-6.434l5.072 6.843a7.538 7.538 0 0 0 4.776 2.98v.145H75.781v-.145a7.547 7.547 0 0 0 4.777-2.98l5.012-6.762c3.023.561 5.32 3.193 5.32 6.353v13.62z"/>
  <path d="M44.135 53.278a4.26 4.26 0 0 0-4.257 4.257c0 2.347 1.909 4.257 4.257 4.257s4.257-1.91 4.257-4.257a4.262 4.262 0 0 0-4.257-4.257zm0 5.514a1.258 1.258 0 1 1 1.257-1.257c0 .693-.563 1.257-1.257 1.257zM85.648 53.278a4.26 4.26 0 0 0-4.256 4.257c0 2.347 1.908 4.257 4.256 4.257s4.258-1.91 4.258-4.257a4.262 4.262 0 0 0-4.258-4.257zm0 5.514a1.258 1.258 0 1 1 .003-2.515 1.258 1.258 0 0 1-.003 2.515zM20.223 30h-5.33v16.935h3v-4.934h2.33c3.214 0 5.828-2.424 5.828-5.401v-1.2c0-2.977-2.614-5.4-5.828-5.4zm2.828 6.6c0 1.302-1.295 2.401-2.828 2.401h-2.33V33h2.33c1.533 0 2.828 1.1 2.828 2.4v1.2z"/>
</svg>
