<svg xmlns="http://www.w3.org/2000/svg" data-name="Layer 1" viewBox="0 0 65.8 41.7">
  <path d="M0 40.4A1.3 1.3 0 0 1 1.2 39H6.4l-.2-.3a4.7 4.7 0 0 1-1-2.8V22.3a9.2 9.2 0 0 1 2.2-5.8l.2-.3h-.3a2.4 2.4 0 0 1-2-2.5v-2.3A2.4 2.4 0 0 1 7.7 9h4.5L14 5.6A10.5 10.5 0 0 1 23.3.1h4L44.8 0A10.3 10.3 0 0 1 54 5.5L55.8 9h4.5a2.4 2.4 0 0 1 2.5 2.3V13.7a2.4 2.4 0 0 1-2 2.4h-.3l.2.4a9.2 9.2 0 0 1 2.1 5.8V36a4.6 4.6 0 0 1-.9 2.8l-.2.3h2.8a1.3 1.3 0 0 1 1.3 1.3 1.3 1.3 0 0 1-1.3 1.3H1.3A1.3 1.3 0 0 1 0 40.4zm18.1-5.7a1.5 1.5 0 0 0-1 1.3 4.6 4.6 0 0 1-1 2.8l-.2.3h36.3l-.2-.3a4.6 4.6 0 0 1-1-2.8c0-.6-.5-1.3-1-1.3zm35.3.2a3.8 3.8 0 0 1 .2 1 2.1 2.1 0 0 0 2 2.2h2.5a2.1 2.1 0 0 0 2.1-2.1V22.3a6.7 6.7 0 0 0-5.4-6.5h-.2l-5 6.8a7.3 7.3 0 0 1-4.7 3H23.8a7.3 7.3 0 0 1-4.6-3L14 15.7a6.7 6.7 0 0 0-6.1 6.6V36a2.1 2.1 0 0 0 2.1 2h2.4a2.1 2.1 0 0 0 2-2 3.6 3.6 0 0 1 .3-1v-.3h-4a1.3 1.3 0 0 1-1.4-1.2v-.1a1.3 1.3 0 0 1 1.3-1.3h45.8a1.3 1.3 0 1 1 0 2.6h-3zM21.3 21.1a4.8 4.8 0 0 0 4 2h18.1a4.8 4.8 0 0 0 4-2l4-5.4H17.3zM57 13.6h3.2v-2H57zm-49 0h3v-2H8zm15.4-11a7.6 7.6 0 0 0-7 4.2L13.6 12v1h40.8v-1l-2.7-5.2a7.6 7.6 0 0 0-7-4.2H23.4z"/>
  <path d="M13.3 28.5a4 4 0 1 1 4-4 4 4 0 0 1-4 4zm0-5.5a1.5 1.5 0 1 0 1.4 1.6 1.6 1.6 0 0 0 0-.2 1.5 1.5 0 0 0-1.4-1.4zm41.5 5.5a4 4 0 1 1 4-4 4 4 0 0 1-4 4zm0-5.5a1.5 1.5 0 1 0 1.5 1.5v-.1a1.5 1.5 0 0 0-1.5-1.4z"/>
</svg>
