<svg data-name="Layer 1" xmlns="http://www.w3.org/2000/svg" viewBox="0 0 100 100">
  <path d="M92.91 72a4.86 4.86 0 0 0 1-2.91V55.47a9.37 9.37 0 0 0-2.18-6 2.66 2.66 0 0 0 2.11-2.59v-2.31a2.65 2.65 0 0 0-2.65-2.64h-4.38L85 38.57a10.49 10.49 0 0 0-9.41-5.65H58V33h-3.89a10.49 10.49 0 0 0-9.4 5.65L43 41.93h-4.4a2.65 2.65 0 0 0-2.65 2.64v2.28a2.64 2.64 0 0 0 2.17 2.6 9.44 9.44 0 0 0-2.17 6v13.64a4.86 4.86 0 0 0 1 2.91h-14V52h7.06a3 3 0 0 0 2.95-3V28a3 3 0 0 0-2.95-3H8.83a3 3 0 0 0-2.95 3v21.1a3 3 0 0 0 3 3h7.05V72H3.11v3h93.78v-3zm-84-22.94L8.83 28h21.06v21zM19.88 72h-1V52h1zM88.1 44.93h2.72v1.57H88.1zm-43.46.24l2.72-5.11A7.44 7.44 0 0 1 54.11 36H70v-.08h5.61A7.45 7.45 0 0 1 82.38 40l2.72 5.11V46H44.64zM81.92 49l-3.77 5.09A4.62 4.62 0 0 1 74.3 56H56.12a4.6 4.6 0 0 1-3.85-1.91L48.49 49zm-43-4.07h2.72v1.57h-2.72zM47.16 72a4.83 4.83 0 0 0 1-2.88A1.32 1.32 0 0 1 49 68h31.87c.32 0 .79.59.8 1.12a4.9 4.9 0 0 0 1 2.88zm43.73-2.91A1.93 1.93 0 0 1 89 71h-2.4a1.92 1.92 0 0 1-1.93-1.9 4.15 4.15 0 0 0-.18-1.1h4.31v-3H40v3h5.36a3.81 3.81 0 0 0-.2 1.1 1.92 1.92 0 0 1-1.95 1.9h-2.36a1.93 1.93 0 0 1-1.93-1.91V55.47A6.5 6.5 0 0 1 44.78 49l5.08 6.85a7.51 7.51 0 0 0 4.77 3V59h21.15v-.14a7.56 7.56 0 0 0 4.78-3l5-6.77a6.51 6.51 0 0 1 5.32 6.36v13.64z"/>
  <path d="M44.13 53.28a4.26 4.26 0 1 0 4.26 4.26 4.25 4.25 0 0 0-4.26-4.26zm0 5.51a1.26 1.26 0 1 1 1.26-1.26 1.25 1.25 0 0 1-1.26 1.26zm41.52-5.51a4.26 4.26 0 1 0 4.26 4.26 4.26 4.26 0 0 0-4.26-4.26zm0 5.51a1.26 1.26 0 0 1-.07-2.51h.07a1.26 1.26 0 0 1 0 2.51zM20.22 30h-5.33v16.94h3V42h2.33a5.63 5.63 0 0 0 5.83-5.4v-1.2a5.63 5.63 0 0 0-5.83-5.4zm2.83 6.6a2.67 2.67 0 0 1-2.83 2.4h-2.33v-6h2.33a2.67 2.67 0 0 1 2.83 2.4z"/>
</svg>
