<svg id="bd0fda5e-2f3b-4a38-b366-9a5c6a6b6298" data-name="Layer 1" xmlns="http://www.w3.org/2000/svg" viewBox="0 0 19.28 46.63">
  <title>room-occupancy-single</title>
  <path d="M13.5,14.42a7.73,7.73,0,1,0-7.72,0A11.41,11.41,0,0,0,0,24.69a12,12,0,0,0,3.7,8.84V45.38a1.25,1.25,0,0,0,2.5,0V32.95a1.25,1.25,0,0,0-.47-1A9.32,9.32,0,0,1,2.5,24.69C2.5,19.88,5.7,16,9.64,16s7.14,3.91,7.14,8.71A9.31,9.31,0,0,1,13.54,32a1.25,1.25,0,0,0-.47,1V45.38a1.25,1.25,0,0,0,2.5,0V33.54a12,12,0,0,0,3.72-8.85A11.41,11.41,0,0,0,13.5,14.42ZM9.64,2.5A5.23,5.23,0,1,1,4.41,7.73,5.24,5.24,0,0,1,9.64,2.5Z" style="fill: #010101"/>
</svg>
