<svg id="ffac26d6-7c7b-4213-b3d9-b4c96221f0bd" data-name="Layer 1" xmlns="http://www.w3.org/2000/svg" viewBox="0 0 23.96 46.63">
  <title>room-gender-male</title>
  <path d="M23.73,14.39a1.25,1.25,0,0,0-1-.52h-6a7.73,7.73,0,1,0-9.38,0h-6A1.25,1.25,0,0,0,.07,15.51L6,33.2V45.38a1.25,1.25,0,0,0,2.5,0V32.95a1.21,1.21,0,0,0-.06-.32s0,0,0,0v0a1.19,1.19,0,0,0,0-.13L3,16.36H21l-5.46,16.1v0l0,.08a1.17,1.17,0,0,0,0,.16,1.18,1.18,0,0,0,0,.22V45.38a1.25,1.25,0,0,0,2.5,0V33.19l6-17.67A1.25,1.25,0,0,0,23.73,14.39ZM12,2.5A5.23,5.23,0,1,1,6.74,7.73,5.24,5.24,0,0,1,12,2.5Z" style="fill: #010101"/>
</svg>
