<svg xmlns="http://www.w3.org/2000/svg" viewBox="0 0 49.76 38.02">
    <path d="M48.51 0H1.25A1.25 1.25 0 0 0 0 1.25v35.52A1.25 1.25 0 0 0 1.25 38h47.26a1.25 1.25 0 0 0 1.25-1.25V1.25A1.25 1.25 0 0 0 48.51 0zm-1.25 35.52H2.5V2.5h44.76z"/>
    <path d="M42.77 25.37a1.25 1.25 0 0 0-1.25 1.25v2l-4.7-5.06A1.25 1.25 0 0 0 35 25.3l4.56 4.91h-1.82a1.25 1.25 0 0 0 0 2.5h5A1.25 1.25 0 0 0 44 31.45v-4.83a1.25 1.25 0 0 0-1.23-1.25zM7.55 13.09a1.25 1.25 0 0 0 1.25-1.25V10l4.61 5a1.25 1.25 0 0 0 1.83-1.7l-4.65-5h2a1.25 1.25 0 0 0 0-2.5h-5A1.25 1.25 0 0 0 6.3 7v4.83a1.25 1.25 0 0 0 1.25 1.26zM7.55 32.7h5a1.25 1.25 0 0 0 0-2.5h-2l4.76-4.42a1.25 1.25 0 0 0-1.7-1.83L8.8 28.48v-1.86a1.25 1.25 0 0 0-2.5 0v4.83a1.25 1.25 0 0 0 1.25 1.25zM35.7 14.95a1.24 1.24 0 0 0 .85-.33l5-4.62v1.84a1.25 1.25 0 1 0 2.5 0V7a1.25 1.25 0 0 0-1.25-1.25h-5a1.25 1.25 0 0 0 0 2.5h2l-4.87 4.53a1.25 1.25 0 0 0 .85 2.17z"/>
</svg>
