<svg id="f37a257c-ba22-467e-a2f3-be010ca86597" data-name="Layer 1" xmlns="http://www.w3.org/2000/svg" viewBox="0 0 44.21 47.37">
  <title>room-gender-mixed</title>
  <g>
    <path d="M12.39,15.25a7.74,7.74,0,1,0-3.73-.05L.13,32.39A1.25,1.25,0,0,0,1.25,34.2H4.69V45.38a1.25,1.25,0,0,0,2.5,0V32.95A1.25,1.25,0,0,0,5.94,31.7H3.27L10.5,17.12,17.16,31.7H15.3A1.25,1.25,0,0,0,14,32.95s0,0,0,0V45.38a1.25,1.25,0,0,0,2.5,0V34.2h2.55a1.25,1.25,0,0,0,1.14-1.77Zm-7-7.52A5.23,5.23,0,1,1,10.63,13,5.24,5.24,0,0,1,5.39,7.73Z" style="fill: #010101"/>
    <path d="M44,15.12a1.25,1.25,0,0,0-1-.52h-6a7.73,7.73,0,1,0-9.38,0h-6a1.25,1.25,0,0,0-1.18,1.65l6,17.69V46.12a1.25,1.25,0,0,0,2.5,0V33.68a1.21,1.21,0,0,0-.06-.31s0,0,0-.06v0a1.25,1.25,0,0,0,0-.12L23.23,17.1h18L35.75,33.2v0l0,.08a1.17,1.17,0,0,0,0,.16,1.19,1.19,0,0,0,0,.22V46.12a1.25,1.25,0,0,0,2.5,0V33.92l6-17.67A1.25,1.25,0,0,0,44,15.12ZM32.22,3.23A5.23,5.23,0,1,1,27,8.46,5.24,5.24,0,0,1,32.22,3.23Z" style="fill: #010101"/>
  </g>
</svg>
