<svg id="7a37b7b8-721a-4dac-baea-c433ffbd4599" data-name="Layer 1" xmlns="http://www.w3.org/2000/svg" viewBox="0 0 41.86 56.27">
  <title>Satellite</title>
  <path d="M41.6,39.81l-14.79-19,1.94-1.45a4.62,4.62,0,0,0,2.67.86h.24a4.7,4.7,0,1,0-4.5-2.79l-1.89,1.41L11,.48A1.25,1.25,0,0,0,10.17,0a1.24,1.24,0,0,0-.92.25C-.51,7.86-1.57,23,6.73,34.28L.06,54.63a1.25,1.25,0,0,0,1.19,1.64H17a1.25,1.25,0,0,0,1.19-1.64l-4.42-13.5a26.1,26.1,0,0,0,14.69,4.75,20.84,20.84,0,0,0,12.92-4.33,1.25,1.25,0,0,0,.22-1.75ZM31.31,13.39a2.16,2.16,0,0,1,.22,4.32,2.16,2.16,0,0,1-.22-4.32ZM10.18,38.22l5.09,15.55H3L8.6,36.59l.17.17q.63.69,1.28,1.32Zm1.47-2.08c-.35-.34-.69-.68-1-1-.49-.53-1-1.09-1.42-1.67h0l-.1-.14h0C1.52,23.38,1.91,10.15,9.83,3l29,37.28C30.82,45.69,19.47,43.82,11.65,36.14Z" style="fill: #1d1d1b"/>
</svg>
