<svg id="ee2ed80f-dcb1-4dce-8552-e9d90d6be427" data-name="Layer 1" xmlns="http://www.w3.org/2000/svg" viewBox="0 0 44.96 48.5">
  <title>security-1</title>
  <g>
    <path d="M41.06,15.92H32.32l8.91-14A1.25,1.25,0,1,0,39.12.58l-12,18.88H19.45L30.61,1.92A1.25,1.25,0,1,0,28.5.58l-3.89,6.1-4-6.11a1.25,1.25,0,1,0-2.1,1.36L23.14,9l-3.87,6.08L10,.58A1.25,1.25,0,1,0,7.93,1.92l8.91,14H3.9A3.91,3.91,0,0,0,0,19.83V44.6a3.91,3.91,0,0,0,3.9,3.9H41.06A3.91,3.91,0,0,0,45,44.6V19.83A3.91,3.91,0,0,0,41.06,15.92Zm1.4,28.67a1.41,1.41,0,0,1-1.4,1.4H3.9a1.41,1.41,0,0,1-1.4-1.4V19.83a1.41,1.41,0,0,1,1.4-1.4H17.15l-1,1.62A1.25,1.25,0,0,0,17.17,22H27.79a1.25,1.25,0,0,0,1.05-.58l1.88-3H41.06a1.41,1.41,0,0,1,1.4,1.4Z" style="fill: #000100"/>
    <path d="M36.07,29.74H24.68a1.25,1.25,0,0,0,0,2.5H36.07a1.25,1.25,0,0,0,0-2.5Z" style="fill: #000100"/>
    <path d="M31,34h-6.3a1.25,1.25,0,0,0,0,2.5H31A1.25,1.25,0,1,0,31,34Z" style="fill: #000100"/>
    <path d="M14.7,35.88a6.31,6.31,0,1,0-6.31-6.31A6.32,6.32,0,0,0,14.7,35.88Zm0-10.12a3.81,3.81,0,1,1-3.81,3.81A3.81,3.81,0,0,1,14.7,25.76Z" style="fill: #000100"/>
    <path d="M14.7,37a9.57,9.57,0,0,0-7.86,3.83A1.25,1.25,0,1,0,8.9,42.27a7,7,0,0,1,5.8-2.75,7.05,7.05,0,0,1,5.8,2.75,1.25,1.25,0,0,0,2.05-1.42A9.57,9.57,0,0,0,14.7,37Z" style="fill: #000100"/>
  </g>
</svg>
