<svg id="Layer_1" data-name="Layer 1" xmlns="http://www.w3.org/2000/svg" viewBox="0 0 44.96 48.5"><defs><style>.cls-1{fill:none;stroke:#000100;stroke-linecap:round;stroke-linejoin:round;stroke-width:2.5px;}</style></defs><title>security-1</title><path class="cls-1" d="M30,17.17h11a2.65,2.65,0,0,1,2.65,2.65V44.6a2.65,2.65,0,0,1-2.65,2.65H3.9A2.65,2.65,0,0,1,1.25,44.6V19.83A2.65,2.65,0,0,1,3.9,17.17H19.42"/><line class="cls-1" x1="24.68" y1="30.99" x2="36.07" y2="30.99"/><line class="cls-1" x1="24.68" y1="35.23" x2="30.98" y2="35.23"/><polyline class="cls-1" points="40.17 1.25 27.79 20.71 17.17 20.71 29.56 1.25"/><line class="cls-1" x1="8.99" y1="1.25" x2="19.12" y2="17.18"/><line class="cls-1" x1="19.6" y1="1.25" x2="24.63" y2="9"/><circle class="cls-1" cx="14.7" cy="29.57" r="5.06"/><path class="cls-1" d="M7.87,41.55a8.27,8.27,0,0,1,6.83-3.29,8.27,8.27,0,0,1,6.83,3.29"/></svg>