<svg id="7802d074-e2b9-427b-8f9e-125a4b8c5b1b" data-name="Layer 1" xmlns="http://www.w3.org/2000/svg" viewBox="0 0 26.13 58.83">
  <title>snacks-2</title>
  <path d="M26.05,57.14l-1.62-4.32V22.38a3.33,3.33,0,0,0,.67-1.85,3.1,3.1,0,0,0-1.17-2.45,1.23,1.23,0,0,0-.18-.09l-.14-.07a1.24,1.24,0,0,0-.45-.09H23V1.25A1.25,1.25,0,0,0,21.79,0H18a1.25,1.25,0,0,0-1.11.67,2.27,2.27,0,0,1-2,1.23H14.8a1.2,1.2,0,0,0-1,.43,1.25,1.25,0,0,0-.29,1,3.62,3.62,0,0,1,.06.57,3.74,3.74,0,0,1-3.47,3.71A1.25,1.25,0,0,0,9,9C9,9,9,9.08,9,9.19a2.73,2.73,0,0,1-3.39,2.68,1.25,1.25,0,0,0-1.54,1.22v4.73a3.5,3.5,0,0,0-2.52,1.11A5.33,5.33,0,0,0,.52,21a12.91,12.91,0,0,0,0,7.11,2.62,2.62,0,0,0,.6,1.13,2.12,2.12,0,0,0,1.56.63h.05V52.82L1.07,57.14a1.25,1.25,0,0,0,1.17,1.69H24.88a1.25,1.25,0,0,0,1.17-1.69ZM9.73,54.46a1.2,1.2,0,0,0,0-.17h2.54v2H8.92C9.16,55.74,9.46,55.07,9.73,54.46Zm5.08-.17h2.36a1.2,1.2,0,0,0,0,.17c.27.61.57,1.28.81,1.86H14.81ZM5.19,51.8V29.31a1.23,1.23,0,0,0-.08-.4l.58-.4a5.77,5.77,0,0,1,2-1.07,5.82,5.82,0,0,1,1.58,0c.37,0,.75.07,1.12.07a7.58,7.58,0,0,0,3.82-1c.23-.13.46-.27.69-.41a4.16,4.16,0,0,1,1.32-.64,6.68,6.68,0,0,1,1.16-.06H18a8.12,8.12,0,0,0,4-.87V51.8ZM11.46,9.91a6.26,6.26,0,0,0,4.63-5.68A4.76,4.76,0,0,0,18.65,2.5h1.89V17.82H14.81V13.56a1.25,1.25,0,0,0-2.5,0v4.26H6.59V14.44A5.27,5.27,0,0,0,11.46,9.91ZM2.92,21.71a3.07,3.07,0,0,1,.52-1.13,1,1,0,0,1,.65-.25h18.5a.39.39,0,0,1,0,.13c0,.29-.37.84-1.35,1.5a1.25,1.25,0,0,0-.22.19c-.62.68-1.79.77-3.14.81h-.54a8.93,8.93,0,0,0-1.62.1,6.2,6.2,0,0,0-2.18,1l-.57.34a5.14,5.14,0,0,1-2.58.65c-.31,0-.62,0-.92-.06a7.83,7.83,0,0,0-2.3,0,7.81,7.81,0,0,0-2.93,1.47,10.82,10.82,0,0,1-1.25.8l-.15.07A10.41,10.41,0,0,1,2.92,21.71ZM4.81,54.3H7.07c-.41.92-.68,1.57-.85,2H4Zm15.92,2c-.18-.46-.45-1.11-.85-2h2.44l.76,2Z" style="fill: #1d1d1b"/>
</svg>
