<svg id="cafe090f-c474-4a63-9ca6-b45ec312417e" data-name="Layer 1" xmlns="http://www.w3.org/2000/svg" viewBox="0 0 26.13 58.83">
  <title>snacks-2</title>
  <g>
    <path d="M21.79,18.31V1.25H18a3.51,3.51,0,0,1-3.11,1.9h-.08a5,5,0,0,1,.08.76,5,5,0,0,1-4.63,5c0,.11,0,.22,0,.33a4,4,0,0,1-4.92,3.89v5.78" fill="none" stroke="#231f20" stroke-linecap="round" stroke-linejoin="round" stroke-width="2.5"/>
    <polyline points="23.18 21.95 23.18 53.05 3.94 53.05 3.94 29.32" fill="none" stroke="#231f20" stroke-linecap="round" stroke-linejoin="round" stroke-width="2.5"/>
    <line x1="3.94" y1="19.07" x2="23.18" y2="19.07" fill="none" stroke="#231f20" stroke-linecap="round" stroke-linejoin="round" stroke-width="2.5"/>
    <polygon points="24.88 57.58 2.24 57.58 3.94 53.05 23.18 53.05 24.88 57.58" fill="none" stroke="#231f20" stroke-linecap="round" stroke-linejoin="round" stroke-width="2.5"/>
    <path d="M19.82,57.58a35.16,35.16,0,0,0-1.47-3.63" fill="#fff" stroke="#231f20" stroke-linecap="round" stroke-linejoin="round" stroke-width="2.5"/>
    <path d="M7.12,57.58a35.16,35.16,0,0,1,1.47-3.63" fill="#fff" stroke="#231f20" stroke-linecap="round" stroke-linejoin="round" stroke-width="2.5"/>
    <line x1="13.56" y1="57.58" x2="13.56" y2="53.41" fill="#fff" stroke="#231f20" stroke-linecap="round" stroke-linejoin="round" stroke-width="2.5"/>
    <path d="M23.18,19.07S25.34,20.72,22,23c-1,1.09-2.63,1.17-4,1.21a13.36,13.36,0,0,0-2,.09,8.25,8.25,0,0,0-2.38,1.18,6.49,6.49,0,0,1-3.2.8,14.12,14.12,0,0,0-3-.06c-1.45.29-2.53,1.49-3.85,2.16-.51.26-1.2.42-1.59,0a1.42,1.42,0,0,1-.3-.61,11.66,11.66,0,0,1,0-6.42,4.12,4.12,0,0,1,.78-1.61c.83-.94,2.29-.68,3.43-.68H23.18Z" fill="none" stroke="#231f20" stroke-linecap="round" stroke-linejoin="round" stroke-width="2.5"/>
    <line x1="13.56" y1="13.56" x2="13.56" y2="18.59" fill="#fff" stroke="#231f20" stroke-linecap="round" stroke-linejoin="round" stroke-width="2.5"/>
  </g>
</svg>
