<svg id="0e8432b6-770c-434b-82fd-cc4b95d212c4" data-name="Layer 1" xmlns="http://www.w3.org/2000/svg" viewBox="0 0 34.53 64.96">
  <title>snacks-1</title>
  <g>
    <polyline points="33.28 57.09 33.28 19.67 31.35 17.47" fill="none" stroke="#231f20" stroke-linecap="round" stroke-linejoin="round" stroke-width="2.5"/>
    <polyline points="3.58 57.09 3.58 19.67 5.51 17.47" fill="none" stroke="#231f20" stroke-linecap="round" stroke-linejoin="round" stroke-width="2.5"/>
    <path d="M32.25,58.92c0,2.64-6.18,4.78-13.81,4.78S4.62,61.56,4.62,58.92" fill="none" stroke="#231f20" stroke-linecap="round" stroke-linejoin="round" stroke-width="2.5"/>
    <ellipse cx="18.43" cy="15.78" rx="13.81" ry="4.78" fill="none" stroke="#231f20" stroke-linecap="round" stroke-linejoin="round" stroke-width="2.5"/>
    <ellipse cx="18.79" cy="16.94" rx="4.8" ry="1.66" fill="#231f20"/>
    <path d="M33.28,57.72a30,30,0,0,1-7.2,1.9A48.89,48.89,0,0,1,9,59.09c-1.73-.35-3.54-.8-5.41-1.37" fill="none" stroke="#231f20" stroke-linecap="round" stroke-linejoin="round" stroke-width="2.5"/>
    <polyline points="18.79 16.94 13.06 1.25 1.25 4.62" fill="none" stroke="#231f20" stroke-linecap="round" stroke-linejoin="round" stroke-width="2.5"/>
    <path d="M28.15,48.64s-.78,1.94-11.77,1.94-12.8-4.93-12.8-4.93V27S6,31.33,15.86,31.33,28.15,30,28.15,30Z" fill="none" stroke="#231f20" stroke-linecap="round" stroke-linejoin="round" stroke-width="2.5"/>
  </g>
</svg>
