<svg id="21b0d5d0-176a-4601-8127-c7e753201c3e" data-name="Layer 1" xmlns="http://www.w3.org/2000/svg" viewBox="0 0 34.53 64.96">
  <title>snacks-1</title>
  <path d="M34.53,19.67a1.25,1.25,0,0,0-.31-.82L33,17.44a3.1,3.1,0,0,0,.51-1.66c0-4-7.58-6-15.06-6l-.93,0L14.23.82A1.25,1.25,0,0,0,12.71,0L.91,3.42a1.25,1.25,0,1,0,.69,2.4L12.28,2.77l2.61,7.14c-6.16.55-11.52,2.54-11.52,5.87a3.1,3.1,0,0,0,.51,1.66L2.64,18.85a1.25,1.25,0,0,0-.31.82V57.09a1.18,1.18,0,0,0,.05.27,1.25,1.25,0,0,0,.83,1.56l.16,0c0,3.94,7.6,6,15.06,6s15-2.05,15.06-6l.31-.13a1.23,1.23,0,0,0,.67-1.45,1.21,1.21,0,0,0,.06-.32ZM4.83,29.87c2,1.32,5.37,2.72,11,2.72a49.8,49.8,0,0,0,11-.91v16.4c-.7.37-3.12,1.26-10.52,1.26-8.72,0-11.12-3.24-11.55-4Zm0,26.9V48.89c2,1.46,5.47,2.94,11.55,2.94,9.78,0,12.43-1.48,12.93-2.72a1.24,1.24,0,0,0,.09-.47V30a1.25,1.25,0,0,0-.61-1.06,1.28,1.28,0,0,0-1.23,0S25,30.08,15.86,30.08c-7.63,0-10.4-2.74-11-3.51V20.14l.87-1c2.82,1.75,7.78,2.66,12.73,2.66s9.91-.91,12.73-2.66l.87,1V56.87a32.93,32.93,0,0,1-6.14,1.51,47.57,47.57,0,0,1-16.66-.52C7.78,57.57,6.3,57.19,4.83,56.77Zm11-44.43,1.12,3.07c-1.71.25-2.91.84-2.91,1.53,0,.92,2.15,1.66,4.8,1.66s4.8-.74,4.8-1.66-1.76-1.51-4.06-1.64l-1.12-3.06h0c8.13,0,12.56,2.33,12.56,3.53a1.12,1.12,0,0,1-.42.73l0,0,0,.06C29.12,17.8,25,19.31,18.43,19.31S7.76,17.8,6.38,16.59l0-.06,0,0a1.12,1.12,0,0,1-.42-.72C5.87,14.72,9.35,12.77,15.78,12.33Zm2.65,50.12c-6.43,0-10.54-1.46-12-2.66.77.19,1.53.37,2.29.52a52.9,52.9,0,0,0,10.45,1.07,46.51,46.51,0,0,0,7.09-.53c1.43-.22,2.68-.49,3.72-.75C28.27,61.23,24.33,62.46,18.43,62.46Z" style="fill: #1d1d1b"/>
</svg>
