<svg id="9cc112d1-fb20-41d8-9b4b-6481fcf2421a" data-name="Layer 1" xmlns="http://www.w3.org/2000/svg" viewBox="0 0 58.28 51.64">
  <title>Snooker</title>
  <g>
    <path d="M57.69,45.06,32.94,2.19A4.34,4.34,0,0,0,29.14,0h0a4.34,4.34,0,0,0-3.8,2.19L.59,45.06a4.39,4.39,0,0,0,3.8,6.58h49.5a4.39,4.39,0,0,0,3.8-6.58ZM55.52,48.2a1.87,1.87,0,0,1-1.63.94H4.39a1.89,1.89,0,0,1-1.63-2.83L27.51,3.44a1.89,1.89,0,0,1,3.27,0L55.52,46.31A1.86,1.86,0,0,1,55.52,48.2Z" style="fill: #1d1d1b"/>
    <path d="M30.52,7a1.3,1.3,0,0,0-2.17,0l-22,38a1.25,1.25,0,0,0,1.08,1.88H51.4A1.25,1.25,0,0,0,52.48,45ZM35,37.83a5.7,5.7,0,0,0-1.36-2.39,5.53,5.53,0,0,0,2.76,0A5.71,5.71,0,0,0,35,37.83Zm-11-.1a5.71,5.71,0,0,0-1.35-2.31,5.51,5.51,0,0,0,2.7,0A5.71,5.71,0,0,0,24,37.73Zm5.45-6.14a5.71,5.71,0,0,0,1.32,2.22,5.52,5.52,0,0,0-2.64,0A5.71,5.71,0,0,0,29.44,31.6Zm0-3.43A5.72,5.72,0,0,0,28,25.85a5.52,5.52,0,0,0,2.85,0A5.71,5.71,0,0,0,29.44,28.17Zm-2.24,1.71A3.21,3.21,0,1,1,24,26.68,3.21,3.21,0,0,1,27.21,29.89Zm2.25,6.28a3.21,3.21,0,1,1-3.21,3.21A3.21,3.21,0,0,1,29.46,36.16Zm5.43-3.07a3.21,3.21,0,1,1,3.21-3.21A3.21,3.21,0,0,1,34.89,33.09Zm0-8.92a5.68,5.68,0,0,0-1.46.2,5.69,5.69,0,0,0,1.7-4.05c0-.12,0-.24,0-.36l3,5.24A5.67,5.67,0,0,0,34.89,24.18Zm-5.47-.65a3.21,3.21,0,1,1,3.21-3.21A3.21,3.21,0,0,1,29.42,23.53Zm-4,.83a5.63,5.63,0,0,0-4.67.87l3-5.21c0,.1,0,.2,0,.31A5.69,5.69,0,0,0,25.39,24.35Zm-5.51,9.48a5.63,5.63,0,0,0-4.64.88l3.08-5.33c0,.17,0,.33,0,.5A5.68,5.68,0,0,0,19.88,33.83Zm-1.35,2.33a3.21,3.21,0,1,1-3.21,3.21A3.21,3.21,0,0,1,18.52,36.16ZM24,41a5.73,5.73,0,0,0,2.81,3.41H21.19A5.73,5.73,0,0,0,24,41Zm11-.1a5.73,5.73,0,0,0,2.83,3.51H32.12A5.73,5.73,0,0,0,35,40.91Zm5.49,1.67a3.21,3.21,0,1,1,3.21-3.21A3.21,3.21,0,0,1,40.45,42.58Zm0-8.92a5.68,5.68,0,0,0-1.46.2,5.69,5.69,0,0,0,1.62-4c0-.16,0-.31,0-.46l3,5.17A5.67,5.67,0,0,0,40.45,33.66Zm-11-23.54,3.14,5.44a5.68,5.68,0,0,0-6.27,0ZM12.84,38.86c0,.17,0,.34,0,.51a5.71,5.71,0,0,0,3,5H9.63Zm30.27,5.56a5.71,5.71,0,0,0,3-5c0-.11,0-.21,0-.31l3.09,5.36Z" style="fill: #1d1d1b"/>
  </g>
</svg>
