<svg id="23d2ff38-c7c9-4219-94e7-1a026f12ff21" data-name="Layer 1" xmlns="http://www.w3.org/2000/svg" viewBox="0 0 59.45 40.97">
  <title>social-room-3</title>
  <g>
    <path d="M21.71,1.25H7.18A5.94,5.94,0,0,0,1.25,7.18V18.05A5.94,5.94,0,0,0,7.18,24H13.3c1.15,2.16,3.23,5.08,9.91,5.08,0,0-2-1-2.82-5.08h1.32a5.94,5.94,0,0,0,5.93-5.93V7.18A5.94,5.94,0,0,0,21.71,1.25Z" fill="none" stroke="#231f20" stroke-linecap="round" stroke-linejoin="round" stroke-width="2.5"/>
    <path d="M37.74,11.91H52.27a5.94,5.94,0,0,1,5.93,5.93V28.71a5.94,5.94,0,0,1-5.93,5.93H46.15c-1.15,2.16-3.23,5.08-9.91,5.08,0,0,2-1,2.82-5.08H37.74a5.94,5.94,0,0,1-5.93-5.93V17.84A5.94,5.94,0,0,1,37.74,11.91Z" fill="none" stroke="#231f20" stroke-linecap="round" stroke-linejoin="round" stroke-width="2.5"/>
    <line x1="7.12" y1="9.49" x2="21.57" y2="9.49" fill="none" stroke="#231f20" stroke-linecap="round" stroke-linejoin="round" stroke-width="2.5"/>
    <line x1="7.12" y1="15.6" x2="15.35" y2="15.6" fill="none" stroke="#231f20" stroke-linecap="round" stroke-linejoin="round" stroke-width="2.5"/>
    <line x1="39.85" y1="20.66" x2="52.23" y2="20.66" fill="none" stroke="#231f20" stroke-linecap="round" stroke-linejoin="round" stroke-width="2.5"/>
    <line x1="45" y1="26.77" x2="52.23" y2="26.77" fill="none" stroke="#231f20" stroke-linecap="round" stroke-linejoin="round" stroke-width="2.5"/>
  </g>
</svg>
