<svg id="d63c4faf-7978-471b-8d5f-3dc7e28f3b61" data-name="Layer 1" xmlns="http://www.w3.org/2000/svg" viewBox="0 0 48.04 47.74">
  <title>social-room-4</title>
  <g>
    <path d="M47,7.87C46.38,7.11,40,0,24.12,0,8.54,0,2.12,6.36,1.29,7.26A3.56,3.56,0,0,0,.63,12a4.4,4.4,0,0,0,3.47,2.1l18.4,33a1.25,1.25,0,0,0,1.07.64h0a1.25,1.25,0,0,0,1.07-.61L44.37,14A4.11,4.11,0,0,0,47,12.8,3.42,3.42,0,0,0,47,7.87ZM17.38,31.24a3.47,3.47,0,0,1,3.35,5.91ZM23.63,44l-2.35-4.21a6,6,0,1,0-5.8-10.4L6.39,13.08C8.07,11.64,13.36,8,24.12,8c13.15,0,17.46,5.2,17.5,5.25a1.25,1.25,0,0,0,.2.17l-3.21,5.39a6.28,6.28,0,1,0-5,8.37ZM31.3,24.48a3.77,3.77,0,1,1,4.92-2.06A3.75,3.75,0,0,1,31.3,24.48ZM45.2,11a1.69,1.69,0,0,1-1.83.44c-1.1-1.2-6.29-6-19.25-6-12.54,0-18.37,4.69-19.85,6.12a1.93,1.93,0,0,1-1.52-1,1,1,0,0,1,.17-1.5A1.28,1.28,0,0,0,3.09,9C3.15,8.93,9,2.5,24.12,2.5s20.93,6.92,21,7l.09.1A.93.93,0,0,1,45.2,11Z" style="fill: #1d1d1b"/>
    <path d="M16.69,11.25a6,6,0,1,0,6,6A6,6,0,0,0,16.69,11.25Zm0,9.44a3.47,3.47,0,1,1,3.47-3.47A3.47,3.47,0,0,1,16.69,20.68Z" style="fill: #1d1d1b"/>
  </g>
</svg>
