<svg id="51bf909c-6ab6-4c7b-8160-0893d8122063" data-name="Layer 1" xmlns="http://www.w3.org/2000/svg" viewBox="0 0 62.08 25.52">
  <title>social-room-1</title>
  <path d="M60.83,9.55H57C56.89,3.83,52.53,0,46,0H15.75C9.22,0,4.83,3.89,4.83,9.69c0,0,0,0,0,.07H1.25A1.25,1.25,0,0,0,0,11V24.27a1.25,1.25,0,0,0,1.25,1.25H8.09l.1,0,.1,0H60.83a1.25,1.25,0,0,0,1.25-1.25V10.8A1.25,1.25,0,0,0,60.83,9.55Zm-53.5.13c0-5.3,4.35-7.19,8.42-7.19H46c4,0,8.34,1.86,8.41,7.05H54a1.25,1.25,0,0,0-1.25,1.25v4.59H9.34V11A1.25,1.25,0,0,0,8.09,9.76H7.32S7.33,9.71,7.33,9.69ZM6.84,23H2.5V12.26H6.84Zm2.7-5.12h43.2V23H9.54Zm50,5.12H55.25v-11h4.34Z" style="fill: #1d1d1b"/>
</svg>
