<svg id="8ae34bb1-8f8b-44d3-9bec-ac4cc336ac1a" data-name="Layer 1" xmlns="http://www.w3.org/2000/svg" viewBox="0 0 59.45 40.97">
  <title>social-room-3</title>
  <g>
    <path d="M21.71,0H7.18A7.18,7.18,0,0,0,0,7.18V18.05a7.18,7.18,0,0,0,7.18,7.18h5.39c1.49,2.49,4.16,5.08,10.64,5.08a1.24,1.24,0,0,0,1.19-.93A1.27,1.27,0,0,0,23.81,28,5,5,0,0,1,22,25.22a7.18,7.18,0,0,0,6.88-7.17V7.18A7.18,7.18,0,0,0,21.71,0Zm4.68,18.05a4.68,4.68,0,0,1-4.68,4.68H20.39a1.25,1.25,0,0,0-1.23,1.49,11.87,11.87,0,0,0,1.15,3.37,7.43,7.43,0,0,1-5.91-4.19,1.25,1.25,0,0,0-1.1-.67H7.18A4.68,4.68,0,0,1,2.5,18.05V7.18A4.68,4.68,0,0,1,7.18,2.5H21.71a4.68,4.68,0,0,1,4.68,4.68Z" style="fill: #1d1d1b"/>
    <path d="M52.27,10.66H37.74a7.18,7.18,0,0,0-7.18,7.18V28.71a7.18,7.18,0,0,0,6.88,7.17,5,5,0,0,1-1.77,2.73A1.25,1.25,0,0,0,36.24,41c6.49,0,9.15-2.59,10.64-5.08h5.39a7.18,7.18,0,0,0,7.18-7.18V17.84A7.18,7.18,0,0,0,52.27,10.66Zm4.68,18.05a4.68,4.68,0,0,1-4.68,4.68H46.15a1.25,1.25,0,0,0-1.1.67,7.43,7.43,0,0,1-5.91,4.19,11.87,11.87,0,0,0,1.15-3.37,1.25,1.25,0,0,0-1.23-1.49H37.74a4.68,4.68,0,0,1-4.68-4.68V17.84a4.68,4.68,0,0,1,4.68-4.68H52.27a4.68,4.68,0,0,1,4.68,4.68Z" style="fill: #1d1d1b"/>
    <path d="M21.57,8.24H7.12a1.25,1.25,0,0,0,0,2.5H21.57a1.25,1.25,0,0,0,0-2.5Z" style="fill: #1d1d1b"/>
    <path d="M15.35,14.35H7.12a1.25,1.25,0,1,0,0,2.5h8.23a1.25,1.25,0,0,0,0-2.5Z" style="fill: #1d1d1b"/>
    <path d="M52.23,19.41H39.85a1.25,1.25,0,0,0,0,2.5H52.23a1.25,1.25,0,1,0,0-2.5Z" style="fill: #1d1d1b"/>
    <path d="M52.23,25.52H45A1.25,1.25,0,0,0,45,28h7.22a1.25,1.25,0,0,0,0-2.5Z" style="fill: #1d1d1b"/>
  </g>
</svg>
