<svg id="6137a15b-27ab-456f-9a7f-f71223100c29" data-name="Layer 1" xmlns="http://www.w3.org/2000/svg" viewBox="0 0 43.27 51.87">
  <title>social-room-2</title>
  <g>
    <path d="M23.41,34.94a3.35,3.35,0,1,0,3.35,3.35A3.36,3.36,0,0,0,23.41,34.94Zm0,4.21a.85.85,0,1,1,.85-.85A.86.86,0,0,1,23.41,39.15Z" style="fill: #1d1d1b"/>
    <path d="M22.51,29.16a4.26,4.26,0,1,0-4.26,4.26A4.27,4.27,0,0,0,22.51,29.16Zm-4.26,1.76A1.76,1.76,0,1,1,20,29.16,1.77,1.77,0,0,1,18.25,30.93Z" style="fill: #1d1d1b"/>
    <path d="M43.27,10.85A10.85,10.85,0,0,0,21.64,9.6h-9.4L10.08,1.45A1.25,1.25,0,0,0,8,.9L.35,8.73a1.25,1.25,0,1,0,1.79,1.74L8.23,4.22,9.65,9.6H7.71A1.25,1.25,0,0,0,6.47,11l5.11,39.76a1.25,1.25,0,0,0,1.24,1.09H28.16a1.25,1.25,0,0,0,1.24-1.12l3.11-29A10.86,10.86,0,0,0,43.27,10.85ZM27.5,12.1H31l-.7,6.58H14.64L12.9,12.1Zm-17.18,0,1.74,6.58H10L9.13,12.1ZM27,49.37H13.92L10.29,21.18H30.05Zm5.75-30.18.67-6.29,2.6,1.5a1.25,1.25,0,1,0,1.25-2.17l-2.39-1.38L37.3,9.48a1.25,1.25,0,1,0-1.25-2.17L33.67,8.69V5.93a1.25,1.25,0,0,0-2.5,0V8.69L28.78,7.31a1.25,1.25,0,0,0-1.25,2.17l.22.13H24.17a8.35,8.35,0,1,1,8.61,9.59Z" style="fill: #1d1d1b"/>
  </g>
</svg>
