<svg id="779d5cb2-8db2-4d17-9f94-77332a8cda75" data-name="Layer 1" xmlns="http://www.w3.org/2000/svg" viewBox="0 0 48.04 47.74">
  <title>social-room-4</title>
  <g>
    <polyline points="43.34 13.31 23.6 46.49 4.83 12.84" fill="none" stroke="#231f20" stroke-linecap="round" stroke-linejoin="round" stroke-width="2.5"/>
    <path d="M46.08,8.71s-5.94-7.46-22-7.46-22,6.92-22,6.92a2.33,2.33,0,0,0-.46,3.17,3.14,3.14,0,0,0,3.14,1.5S10,6.76,24.12,6.76,42.6,12.5,42.6,12.5a3,3,0,0,0,3.48-.58A2.23,2.23,0,0,0,46.08,8.71Z" fill="none" stroke="#231f20" stroke-linecap="round" stroke-linejoin="round" stroke-width="2.5"/>
    <circle cx="16.69" cy="17.22" r="4.72" fill="none" stroke="#231f20" stroke-linecap="round" stroke-linejoin="round" stroke-width="2.5"/>
    <circle cx="32.73" cy="20.99" r="5.02" transform="translate(0.88 43.29) rotate(-67.68)" fill="none" stroke="#231f20" stroke-linecap="round" stroke-linejoin="round" stroke-width="2.5"/>
    <path d="M20.28,38.89a4.72,4.72,0,1,0-4.63-8.15Z" fill="none" stroke="#231f20" stroke-linecap="round" stroke-linejoin="round" stroke-width="2.5"/>
  </g>
</svg>
