<svg id="caffeee7-6513-42e5-962e-34ec847871e0" data-name="Layer 1" xmlns="http://www.w3.org/2000/svg" viewBox="0 0 40.6 35.63">
  <title>study-2</title>
  <g>
    <path d="M37.15,0H3.45A3.45,3.45,0,0,0,0,3.45V26.89a3.45,3.45,0,0,0,3.45,3.45H16.19l-.5,2.79H13.8a1.25,1.25,0,0,0,0,2.5H26.5a1.25,1.25,0,0,0,0-2.5H24.84l-.71-2.79h13a3.45,3.45,0,0,0,3.45-3.45V3.45A3.45,3.45,0,0,0,37.15,0ZM3.45,2.5h33.7a1,1,0,0,1,.95.95V20.6H2.5V3.45A1,1,0,0,1,3.45,2.5ZM22.26,33.13h-4l.5-2.79h2.82Zm14.89-5.29H3.45a1,1,0,0,1-.95-.95V23.1H38.1v3.79A1,1,0,0,1,37.15,27.84Z" style="fill: #1d1d1b"/>
    <circle cx="20.3" cy="25.45" r="1.16" style="fill: #1d1d1b"/>
  </g>
</svg>
