<svg id="fa9af885-e0bd-4a67-8d7c-c0f63e5fd01f" data-name="Layer 1" xmlns="http://www.w3.org/2000/svg" viewBox="0 0 57.5 37.13">
  <title>study-3</title>
  <path d="M56.25,5.38H52.77V3.21a1.25,1.25,0,0,0-.71-1.13C40.94-3.28,31.16,3.28,28.67,5.2,26.14,3.27,16.15-3.37,4.83,2.09a1.25,1.25,0,0,0-.71,1.13V5.38H1.25A1.25,1.25,0,0,0,0,6.63V35.88a1.25,1.25,0,0,0,1.25,1.25h55a1.25,1.25,0,0,0,1.25-1.25V6.63A1.25,1.25,0,0,0,56.25,5.38ZM50.27,4V30.48c-3.83-1.12-13.29-3-20.57,2.35V7.57h0C29.82,7.47,39.21-.79,50.27,4ZM19.72,3.38V18l-2.2-1.55a1.25,1.25,0,0,0-1.44,0L13.87,18V2.49A19.88,19.88,0,0,1,19.72,3.38ZM6.62,4a18.28,18.28,0,0,1,4.75-1.35V20.38a1.25,1.25,0,0,0,2,1L16.8,19l3.45,2.43a1.25,1.25,0,0,0,2-1V4.31a24.31,24.31,0,0,1,5,2.91V32.56A20.22,20.22,0,0,0,15.48,29.2a32.86,32.86,0,0,0-8.86,1.29ZM2.5,7.88H4.12V32.21a1.25,1.25,0,0,0,1.7,1.17c.13,0,11.82-4.39,20,1.25H2.5ZM55,34.63H31.47c8.06-5.62,19.47-1.31,19.6-1.26a1.25,1.25,0,0,0,1.7-1.17V7.88H55Z" style="fill: #1d1d1b"/>
</svg>
