<svg id="efc1e373-5291-4df5-98b7-ee17871ee437" data-name="Layer 1" xmlns="http://www.w3.org/2000/svg" viewBox="0 0 69.57 27.99">
  <title>travel-walking</title>
  <path d="M62.35,13.48l-.11,0L49.55,11,47.33,9.73l.28-.41a1.11,1.11,0,0,0-1.83-1.25l-.38.55-1.56-.9.42-.54a1.11,1.11,0,1,0-1.73-1.37l-.63.79-2.3-1.33.26-.34a1.11,1.11,0,0,0-1.74-1.36l-.46.58-6.93-4A1.1,1.1,0,0,0,30.07,0a3,3,0,0,0-1.94,1.25c-.8,1.1-1,2.71-.71,4.8-1,.86-4.29,3.08-10.67,3.08a30.72,30.72,0,0,1-3.37-.19C6.68,8.2,5.33,5.57,5.33,5.57a1.11,1.11,0,0,0-2-.14A26.76,26.76,0,0,0,.09,20.34v6.55A1.11,1.11,0,0,0,1.2,28H68.45a1.11,1.11,0,0,0,1.11-1.11V20.73C69.64,19.91,69.72,15.68,62.35,13.48Zm5,6.52H28.26C30,17.32,33.36,15,41,16.31c5.55.92,8.89.55,10.21-1.14a2.64,2.64,0,0,0,.56-1.48l10,1.92C66.39,17,67.21,19.09,67.34,20ZM30.11,2.33l6.2,3.58-.13.16L30.8,4a1.1,1.1,0,0,0-1.12.18l-.19.16A2.58,2.58,0,0,1,30.11,2.33ZM4.53,8c1.29,1.16,3.81,2.6,8.61,3.14a33,33,0,0,0,3.61.21c7.32,0,11.08-2.71,12.27-3.75h0l1.59-1.34,4.15,1.63-.1.12A1.11,1.11,0,1,0,36.4,9.38l.5-.64,2.53,1-.38.48a1.11,1.11,0,1,0,1.73,1.37l.8-1,2,.77-.14.2a1.11,1.11,0,0,0,1.83,1.25l.43-.62,3.89,1.53a.49.49,0,0,1-.06.11c-.19.25-1.48,1.42-8.1.32-7.85-1.3-12.86.57-15.69,5.87H12.2c-.64-5.67-6-9.73-8-11.12C4.28,8.56,4.41,8.27,4.53,8ZM2.29,20a23.64,23.64,0,0,1,1.08-9c2,1.41,6,4.72,6.6,9Zm0,5.78V22.21h65v3.57Z"/>
</svg>
