<svg id="Layer_1" data-name="Layer 1" xmlns="http://www.w3.org/2000/svg" viewBox="0 0 55.9 38.42"><defs><style>.sdlhjd-1{fill:#1d1d1b;stroke:#1d1d1b;stroke-miterlimit:10;stroke-width:0.75px;}</style></defs><title>travel-public</title><path class="sdlhjd-1" d="M4.86,1.84A2.84,2.84,0,0,0,2.27,3.38l-.37.74H54l-.37-.74A2.84,2.84,0,0,0,51,1.84Zm-3,9.77H9.74v-6H1.84Zm9.36,0h7.27v-6H11.21Zm8.74,0h7.27v-6H19.95Zm8.74,0H36v-6H28.68Zm8.74,0h7.27v-6H37.42Zm8.74,0h7.89v-6H46.16ZM1.84,24.09H9.74v-6H1.84Zm9.36,0h7.27v-6H11.21Zm8.74,0h7.27v-6H19.95Zm8.74,0H36v-6H28.68Zm17.48,0h7.89v-11H46.16Zm2.39,5a4.5,4.5,0,0,1,3.86,2.24l.15.25h1.5v-6H45.43a.73.73,0,0,1-.73-.73V13.08H1.84V16.6H36.69a.74.74,0,0,1,.73.73v7.49a.73.73,0,0,1-.73.73H1.84v6H3.34l.15-.25a4.45,4.45,0,0,1,7.73,0l.15.25H44.54l.15-.25a4.49,4.49,0,0,1,3.86-2.24M7.35,30.55a3,3,0,1,0,3,3,3,3,0,0,0-3-3m41.19,0a3,3,0,1,0,3,3,3,3,0,0,0-3-3m0,7.49a4.49,4.49,0,0,1-4.48-4.48v-.51H11.83v.51a4.48,4.48,0,1,1-9,0v-.51H1.11a.74.74,0,0,1-.73-.73V4.85A4.48,4.48,0,0,1,4.86.38H51a4.48,4.48,0,0,1,4.48,4.48V32.32a.73.73,0,0,1-.73.73H53v.51A4.49,4.49,0,0,1,48.55,38"/></svg>
