<svg id="528af615-fb87-4b60-ae76-85edae2784ed" data-name="Layer 1" xmlns="http://www.w3.org/2000/svg" viewBox="0 0 30.8 42.29">
  <title>travel-location-2</title>
  <g>
    <path d="M15.4,8.84A6.56,6.56,0,1,0,22,15.4,6.56,6.56,0,0,0,15.4,8.84Zm0,10.61a4.06,4.06,0,1,1,4.06-4.06A4.06,4.06,0,0,1,15.4,19.45Z" style="fill: #1d1d1b"/>
    <path d="M15.4,0A15.42,15.42,0,0,0,0,15.4c0,8.16,13.83,25.67,14.42,26.41a1.25,1.25,0,0,0,2,0C17,41.07,30.8,23.56,30.8,15.4A15.42,15.42,0,0,0,15.4,0Zm0,39C11.05,33.32,2.5,21,2.5,15.4a12.9,12.9,0,0,1,25.8,0C28.3,21,19.74,33.32,15.4,39Z" style="fill: #1d1d1b"/>
  </g>
</svg>
