<svg id="5c9e6fde-eeb1-496c-91b4-217bc6a4f4ed" data-name="Layer 1" xmlns="http://www.w3.org/2000/svg" viewBox="0 0 55.9 38.42">
  <title>travel-public</title>
  <path d="M51,0H4.86A4.86,4.86,0,0,0,0,4.85V32.32a1.11,1.11,0,0,0,1.11,1.11H2.5v.14a4.85,4.85,0,1,0,9.71,0v-.14H43.69v.14a4.85,4.85,0,1,0,9.71,0v-.14h1.39a1.11,1.11,0,0,0,1.11-1.11V4.85A4.86,4.86,0,0,0,51,0ZM2.22,11.23V6H9.36v5.27Zm9.36,0V6H18.1v5.27Zm8.74,0V6h6.52v5.27Zm8.74,0V6h6.52v5.27Zm19.49,19.7a2.64,2.64,0,1,1-2.63,2.64A2.64,2.64,0,0,1,48.55,30.93ZM7.35,36.2A2.64,2.64,0,1,1,10,33.57,2.64,2.64,0,0,1,7.35,36.2ZM35.58,18.45v5.27H29.06V18.45Zm-8.74,0v5.27H20.32V18.45Zm-8.74,0v5.27H11.58V18.45Zm19.7,6.38V17.34a1.11,1.11,0,0,0-1.11-1.11H2.22V13.45h42.1V24.83a1.11,1.11,0,0,0,1.11,1.11h8.25v5.27h-.91l0-.07a4.82,4.82,0,0,0-8.37,0l0,.07H11.58l0-.07a4.83,4.83,0,0,0-8.37,0l0,.07H2.22V25.94H36.69A1.11,1.11,0,0,0,37.8,24.83Zm0-13.59V6h6.52v5.27ZM2.22,23.72V18.45H9.36v5.27ZM53.68,13.45V23.72H46.54V13.45Zm0-7.49v5.27H46.54V6Zm-.29-2.22H2.51l.1-.2A2.47,2.47,0,0,1,4.86,2.22H51a2.47,2.47,0,0,1,2.25,1.33Z"/>
</svg>
