<svg id="1d621a30-a637-4379-b8f3-13ee6e549b82" data-name="Layer 1" xmlns="http://www.w3.org/2000/svg" viewBox="0 0 40.71 57.22">
  <title>Tree</title>
  <path d="M13.48,31.26c1.92-.33,2.5-1.65,2.18-3.65" style="fill: #fff"/>
  <path d="M22.09,26.67c-.06,3,1.81,4.31,5,4.41" style="fill: #fff"/>
  <path d="M16,27.71c1.6,2,3.5,1.84,5.61.2" style="fill: #fff"/>
  <g>
    <path d="M39.94,23.5a10,10,0,0,0-2.48-10.65,6.72,6.72,0,0,0,.34-2.11A6.82,6.82,0,0,0,31,3.92,6.71,6.71,0,0,0,29.69,4,11.28,11.28,0,0,0,13.87,2.56a7.49,7.49,0,0,0-2.54-.44A7.63,7.63,0,0,0,3.71,9.75q0,.36,0,.73a6.79,6.79,0,0,0-3.1,9,5.5,5.5,0,0,0,.23,5.42,6.83,6.83,0,0,0-.6,2.8,6.9,6.9,0,0,0,6.89,6.89,6.61,6.61,0,0,0,.67,0,6.84,6.84,0,0,0,6.2,5,146.49,146.49,0,0,1-2.1,16.23,1.25,1.25,0,0,0,1.23,1.47H25.35a1.25,1.25,0,0,0,1.24-1.44c-1-6.39-1.65-12.23-2-17.68a9.74,9.74,0,0,0,9.61-4.65,6.81,6.81,0,0,0,5.73-10ZM14.65,54.72a134.72,134.72,0,0,0,2.11-20.39c0-.26,0-.53,0-.79,0-.44,0-.87,0-1.3q0-1.12,0-2.21v0a4,4,0,0,0,1.83.45,5.48,5.48,0,0,0,2.84-.91,4.62,4.62,0,0,0,.37.6q0,1.48,0,3c0,.08,0,.17,0,.25q0,1.59.13,3.23v0h0c.29,5.57.9,11.54,1.88,18.08ZM33.9,31l-.32,0a1.25,1.25,0,0,0-1.2.67,7.47,7.47,0,0,1-6.66,4.07,7.39,7.39,0,0,1-1.25-.11c-.06-1.26-.09-2.49-.11-3.69a9.12,9.12,0,0,0,2.66.45h0a1.25,1.25,0,0,0,0-2.5c-3.34-.1-3.78-1.57-3.75-3.14a1.25,1.25,0,0,0-1.23-1.27h0a1.25,1.25,0,0,0-1.25,1.23c0,.09,0,.18,0,.27h0c-2.21,1.71-3.15.9-3.87,0a1.24,1.24,0,0,0-.86-.46,1.2,1.2,0,0,0-.64-.09,1.25,1.25,0,0,0-1,1.43c.29,1.82-.35,2.08-1.16,2.22a1.25,1.25,0,0,0,.21,2.48l.21,0a5.06,5.06,0,0,0,.6-.15h0c0,.3,0,.6,0,.9s0,.91,0,1.37c0,.79,0,1.58-.09,2.41a4.33,4.33,0,0,1-4-3.68,1.25,1.25,0,0,0-.6-.9l-.26-.18-.19-.13a1.26,1.26,0,0,0-1-.19,4.39,4.39,0,0,1-5.33-4.29,4.36,4.36,0,0,1,.64-2.26,1.25,1.25,0,0,0-.12-1.46,3,3,0,0,1-.19-3.75,1.25,1.25,0,0,0,0-1.38,4.3,4.3,0,0,1,2.37-6.37A1.25,1.25,0,0,0,6.36,11a5.1,5.1,0,0,1,5-6.33,5.05,5.05,0,0,1,2.23.52A1.25,1.25,0,0,0,15,4.93,8.79,8.79,0,0,1,28.19,6.19a1.25,1.25,0,0,0,1.41.46,4.3,4.3,0,0,1,5.69,4.08,4.25,4.25,0,0,1-.45,1.91,1.25,1.25,0,0,0,.35,1.54,7.46,7.46,0,0,1,2.22,8.91,1.25,1.25,0,0,0,.1,1.19A4.31,4.31,0,0,1,33.9,31Z" style="fill: #1d1d1b"/>
    <path d="M29.69,13.78c-1.34-.25-3.77-.16-5,3.29A1.25,1.25,0,1,0,27,17.9c.64-1.8,1.47-1.8,2.19-1.67a1.25,1.25,0,1,0,.46-2.46Z" style="fill: #1d1d1b"/>
    <path d="M10.58,15.08a1.25,1.25,0,0,0-.12,1.76c1.26,1.44.86,2.16.39,2.72a1.25,1.25,0,0,0,1.92,1.6c.87-1,2-3.22-.43-6A1.25,1.25,0,0,0,10.58,15.08Z" style="fill: #1d1d1b"/>
  </g>
</svg>
