<svg xmlns="http://www.w3.org/2000/svg" viewBox="0 0 393.18 110.117">
  <path d="M25.186 46.39h-2.1v3.337h1.993a2.722 2.722 0 0 0 1.57-.383 1.45 1.45 0 0 0 .54-1.278q0-1.675-2.01-1.677zm-.315-4.35h-1.78v2.737h1.98a1.55 1.55 0 0 0 .94-.295 1.164 1.164 0 0 0 .4-1.01 1.373 1.373 0 0 0-.38-1.122 1.8 1.8 0 0 0-1.14-.31zm.47 9.38h-4.28V40.347h2.99a13.855 13.855 0 0 1 1.43.062 5.976 5.976 0 0 1 1.16.23 2.354 2.354 0 0 1 .9.48 2.165 2.165 0 0 1 .55.81 3.29 3.29 0 0 1 .21 1.23 2.887 2.887 0 0 1-.92 2.33 3.267 3.267 0 0 1 1.47 1.01 2.686 2.686 0 0 1 .48 1.67 3.316 3.316 0 0 1-.35 1.57 2.452 2.452 0 0 1-.94 1.01 4.576 4.576 0 0 1-1.25.5 6.074 6.074 0 0 1-1.42.15zm16.25 0h-2.02l-.97-7.62-2.91 5.24-2.75-5.023-.96 7.4h-2.09l1.47-11.073h1.69l2.74 5.043 2.7-5.043h1.66l1.44 11.076m9.71-9.112h-3.14v9.112h-2.03v-9.112H43v-1.96h8.29v1.96m4.49-.268h-1.566v3.37H55.7a2.61 2.61 0 0 0 1.757-.445 1.662 1.662 0 0 0 .475-1.28 1.56 1.56 0 0 0-.458-1.242 2.625 2.625 0 0 0-1.694-.4zm4.89 9.38h-2.157l-2.242-4.113h-2.05v4.113h-2.03V40.347h4.05q3.8 0 3.81 3.2a3.458 3.458 0 0 1-.49 1.937 4.382 4.382 0 0 1-1.4 1.3l2.53 4.637zm6.384-4.635l-1.154-3.27-1.167 3.27h2.322zm3.716 4.635h-2.082l-.943-2.673h-3.71l-.953 2.673H61l3.94-11.073h1.912zm4.878-9.112H73.53v7.15h2.118a3.042 3.042 0 0 0 2.413-.944 3.845 3.845 0 0 0 .84-2.63 3.853 3.853 0 0 0-.83-2.63 3.043 3.043 0 0 0-2.41-.946zm0 9.112H71.5V40.347h4.144a5.54 5.54 0 1 1 0 11.073zm11.337-4.635l-1.152-3.27-1.168 3.27zM90.7 51.42h-2.08l-.943-2.673h-3.71l-.952 2.673h-2.082l3.943-11.073h1.91zM36.505 7.9a1.28 1.28 0 0 0 .725-.408.894.894 0 0 0 .114-.8.793.793 0 0 0-.383-.544 1.017 1.017 0 0 0-.75-.05c-.12.03-.23.06-.35.094a1.416 1.416 0 0 0-.26.1l.42 1.735zm20.225 75a2.783 2.783 0 0 0-.387-.683 1.218 1.218 0 0 0-.483-.378.914.914 0 0 0-.59-.03.95.95 0 0 0-.725.79 4.29 4.29 0 0 0 .18 1.81 6.31 6.31 0 0 0 .312.91 2.808 2.808 0 0 0 .4.67 1.318 1.318 0 0 0 .482.38.84.84 0 0 0 .56.03.956.956 0 0 0 .73-.79 4.228 4.228 0 0 0-.18-1.82 7.122 7.122 0 0 0-.31-.92zm-4.35 1.03a2.785 2.785 0 0 0-.308-.722 1.2 1.2 0 0 0-.435-.434.907.907 0 0 0-.58-.093.952.952 0 0 0-.814.7 4.286 4.286 0 0 0-.036 1.83 6.284 6.284 0 0 0 .2.95 2.8 2.8 0 0 0 .318.72 1.3 1.3 0 0 0 .436.44.85.85 0 0 0 .56.1.958.958 0 0 0 .82-.7 4.273 4.273 0 0 0 .04-1.83 7.19 7.19 0 0 0-.19-.94zm-4.637.055a1.645 1.645 0 0 0-.22-.486.977.977 0 0 0-.37-.34 1.074 1.074 0 0 0-.528-.11.98.98 0 0 0-.77.33 1.307 1.307 0 0 0-.258.88 1.14 1.14 0 0 0 .324.86 1.115 1.115 0 0 0 .81.27 1.616 1.616 0 0 0 .69-.15.854.854 0 0 0 .4-.35 1.07 1.07 0 0 0 .01-.19v-.17a2.283 2.283 0 0 0-.07-.57zM63.34 11.92l.187-1.435.256-.95-.04-.02-.59.796-1 1.03v.01l1.186.58M40.78 82.91a1.358 1.358 0 0 0-.69-.3 1.4 1.4 0 0 0-1.26.382 2.99 2.99 0 0 0-.7 1.684 4.14 4.14 0 0 0-.05.9 2.433 2.433 0 0 0 .17.784 1.53 1.53 0 0 0 .414.586 1.337 1.337 0 0 0 .683.3 1.41 1.41 0 0 0 1.26-.38 2.943 2.943 0 0 0 .71-1.686 4.29 4.29 0 0 0 .05-.9 2.45 2.45 0 0 0-.175-.787 1.594 1.594 0 0 0-.423-.584zm31.44-63.03a1.116 1.116 0 0 0 .31.543 1.148 1.148 0 0 0 1.05.36 2.9 2.9 0 0 0 1.41-.883 4.285 4.285 0 0 0 .55-.635 2.28 2.28 0 0 0 .32-.64 1.216 1.216 0 0 0 .036-.61 1.236 1.236 0 0 0-1.382-.91 2.924 2.924 0 0 0-1.4.878 4.4 4.4 0 0 0-.556.658 2.246 2.246 0 0 0-.31.65 1.216 1.216 0 0 0-.02.61zm289.964 89.336a2.907 2.907 0 0 1 .345-.444c.14-.15.46-.43.95-.84a13.093 13.093 0 0 0 1.26-1.175 3 3 0 0 0 .55-.814 2 2 0 0 0 .16-.784 1.744 1.744 0 0 0-.56-1.32 2.12 2.12 0 0 0-1.52-.54 2.213 2.213 0 0 0-1.52.49 2.076 2.076 0 0 0-.65 1.43l.84.08a1.35 1.35 0 0 1 .36-.98 1.282 1.282 0 0 1 .94-.36 1.244 1.244 0 0 1 .91.33 1.09 1.09 0 0 1 .35.82 1.7 1.7 0 0 1-.39.99 9.09 9.09 0 0 1-1.47 1.41 8.482 8.482 0 0 0-1.07 1.01 2.973 2.973 0 0 0-.54.89 1.423 1.423 0 0 0-.1.57h4.41v-.79z"/>
  <path d="M76.565 57.92a32.622 32.622 0 1 1-.2-24.063H90.61a46.12 46.12 0 1 0 .145 24.064h-14.19zm2.818-37.74l.5.72-1.35 3.79-.5.92.024.035.69-.654 2.653-1.85.655.94-5.075 3.56-.506-.72 1.34-3.76.514-.95-.025-.03-.71.67-2.628 1.84-.656-.93zm-3.048-3.487a2.74 2.74 0 0 1 .643.982 2.183 2.183 0 0 1 .107 1.04 2.877 2.877 0 0 1-.384 1.052 4.984 4.984 0 0 1-.82 1.03 3.65 3.65 0 0 1-2.17 1.17 2.355 2.355 0 0 1-1.94-.8 2.713 2.713 0 0 1-.65-.987 2.148 2.148 0 0 1-.1-1.037 2.915 2.915 0 0 1 .38-1.043 5 5 0 0 1 .83-1.03 3.656 3.656 0 0 1 2.17-1.174 2.354 2.354 0 0 1 1.95.797zm-3.19-2.946l-3.86 4.79-.94-.757 3.86-4.79zm-6.68-3.36l.585-.9 4.024 2.613-.583.9-1.5-.976-2.76 4.262-1.01-.655 2.77-4.26zm-1.61-2.03l-.717 6.54L63 14.342l.154-1.44-1.7-.825L60.44 13.1l-1.083-.526 4.7-4.6zm-9.11-.17a4.053 4.053 0 0 1 .696-1.37 2.765 2.765 0 0 1 .92-.74 2.362 2.362 0 0 1 1.01-.244 3.124 3.124 0 0 1 .99.142 4.938 4.938 0 0 1 .83.336 3.3 3.3 0 0 1 .53.35l-.53.9a1.71 1.71 0 0 0-.41-.28 4.227 4.227 0 0 0-.62-.24 1.466 1.466 0 0 0-1.27.14 2.432 2.432 0 0 0-.91 1.4 3.34 3.34 0 0 0-.16.86 1.81 1.81 0 0 0 .1.74 1.477 1.477 0 0 0 .38.57 1.744 1.744 0 0 0 .67.37 2.345 2.345 0 0 0 .66.13 1.927 1.927 0 0 0 .52-.05l-.06 1.01a1.867 1.867 0 0 1-.77.06 4.375 4.375 0 0 1-.88-.18 3.125 3.125 0 0 1-.95-.48 2.248 2.248 0 0 1-.66-.79 2.723 2.723 0 0 1-.27-1.13 4.3 4.3 0 0 1 .24-1.47zm-1.877-3.52l1.18.243-1.238 6.026-1.18-.243zM48.7 4.06l3.627.385-.114 1.065-2.43-.257-.16 1.512L51.86 7l-.11 1.067-2.24-.236-.26 2.48-1.2-.12zm-2.988-.07l1.2.01-.05 6.152-1.2-.01.05-6.15zM44.3 3.92l.1 1.066-1.78.174.492 5.056-1.2.117-.49-5.056-1.794.174-.1-1.06zM34.2 5.627c.125-.053.26-.108.406-.165s.295-.107.44-.155.295-.09.437-.132.27-.073.39-.1a4.515 4.515 0 0 1 .845-.12 2.346 2.346 0 0 1 .79.09 1.445 1.445 0 0 1 .636.4 1.657 1.657 0 0 1 .39.777 2.01 2.01 0 0 1-.056 1.278 1.8 1.8 0 0 1-.762.86l.482.165 1.914 1.955-1.35.323-1.92-2.023-.643.037.58 2.453-1.17.28-1.41-5.923zm-5.118 1.738l3.408-1.3.382 1-2.283.87.51 1.338 2.07-.79.38 1-2.08.792.53 1.4 2.32-.885.38 1-3.45 1.315-2.19-5.75zm-4.207 2.876a2.4 2.4 0 0 1 .53-.9 3.1 3.1 0 0 1 .786-.61 5.046 5.046 0 0 1 .82-.36 3.39 3.39 0 0 1 .61-.14l.28 1.01a1.77 1.77 0 0 0-.48.1 4.42 4.42 0 0 0-.61.29 1.464 1.464 0 0 0-.78 1.02 2.444 2.444 0 0 0 .38 1.63 3.166 3.166 0 0 0 .51.71 1.867 1.867 0 0 0 .6.44 1.468 1.468 0 0 0 .68.13 1.7 1.7 0 0 0 .73-.21 2.392 2.392 0 0 0 .55-.39 1.883 1.883 0 0 0 .32-.4l.68.74a1.855 1.855 0 0 1-.49.6 4.464 4.464 0 0 1-.74.5 3.16 3.16 0 0 1-1 .35 2.236 2.236 0 0 1-1.03-.07 2.722 2.722 0 0 1-1-.58 4.335 4.335 0 0 1-.9-1.2 3.994 3.994 0 0 1-.5-1.45 2.73 2.73 0 0 1 .1-1.16zm-8.555 5.59l3.095 1.02.684.34.02-.02-.28-.71-.69-3.12.81-.72 4.07 4.61-.9.8-2.12-2.39-.71-1-.04.04.37.99.54 2.59-.29.26-2.56-.81-.94-.47-.04.03.93.79 2.12 2.4-.86.76-4.07-4.62zm-2.18 2.32l.834.68-1.545 1.9 1.11.91 1.4-1.72.83.68-1.41 1.73 1.16.95 1.57-1.92.83.68-2.34 2.85L11.81 21zm-3.2 4.04l.914.56-.94 1.53 4.326 2.67-.63 1.03-4.323-2.66-.944 1.54-.913-.56zm-.95 19.4a4.886 4.886 0 0 1-.286 1.13 3.367 3.367 0 0 1-.35.7l-.953-.53c.05-.06.1-.13.15-.23a3.488 3.488 0 0 0 .16-.33 4.164 4.164 0 0 0 .15-.39 2.9 2.9 0 0 0 .1-.43 1.56 1.56 0 0 0-.06-.84.61.61 0 0 0-.5-.35.573.573 0 0 0-.48.14 2.325 2.325 0 0 0-.39.47c-.12.19-.25.4-.39.63a3.418 3.418 0 0 1-.47.62 1.924 1.924 0 0 1-.62.44 1.6 1.6 0 0 1-.87.09 1.848 1.848 0 0 1-.74-.25 1.456 1.456 0 0 1-.48-.5 1.853 1.853 0 0 1-.23-.69 3.212 3.212 0 0 1 .02-.85 5.34 5.34 0 0 1 .24-.98 2.613 2.613 0 0 1 .38-.73l.95.52a2.13 2.13 0 0 0-.3.54 3.3 3.3 0 0 0-.21.81 1.066 1.066 0 0 0 .07.67.53.53 0 0 0 .41.29.554.554 0 0 0 .47-.14 2.418 2.418 0 0 0 .4-.47c.13-.19.26-.4.4-.63a3.754 3.754 0 0 1 .47-.62 1.95 1.95 0 0 1 .62-.43 1.5 1.5 0 0 1 .84-.09 2.032 2.032 0 0 1 .82.28 1.575 1.575 0 0 1 .52.54 1.93 1.93 0 0 1 .25.75 3.523 3.523 0 0 1-.03.92zm.806-4.63l-2.2-.63-4.265.88.4-1.37 2.54-.44.66.07.01-.04-.6-.31-1.9-1.68.36-1.24 3.16 3 2.2.63zm2.218-5.9a3.492 3.492 0 0 1-.27.89 4.707 4.707 0 0 1-.582 1.01 3.5 3.5 0 0 1-.523.58l-.79-.77a2.085 2.085 0 0 0 .2-.18 3.214 3.214 0 0 0 .24-.27c.08-.1.16-.22.24-.34a2.42 2.42 0 0 0 .21-.39 1.533 1.533 0 0 0 .17-.82.6.6 0 0 0-.38-.48.574.574 0 0 0-.5 0 2.348 2.348 0 0 0-.5.35c-.18.15-.36.32-.55.5a3.482 3.482 0 0 1-.62.47 1.9 1.9 0 0 1-.72.25 1.6 1.6 0 0 1-.87-.15 1.852 1.852 0 0 1-.65-.45 1.475 1.475 0 0 1-.33-.61 1.848 1.848 0 0 1-.03-.73A3.127 3.127 0 0 1 7 29.1a5.277 5.277 0 0 1 .5-.89 2.67 2.67 0 0 1 .56-.606l.77.754a2.09 2.09 0 0 0-.44.44 3.23 3.23 0 0 0-.43.72 1.076 1.076 0 0 0-.11.66.535.535 0 0 0 .32.383.556.556 0 0 0 .483-.01 2.36 2.36 0 0 0 .51-.34c.174-.15.36-.31.554-.49a3.588 3.588 0 0 1 .62-.46 1.933 1.933 0 0 1 .72-.25 1.5 1.5 0 0 1 .833.15 2.054 2.054 0 0 1 .71.5 1.6 1.6 0 0 1 .356.66 1.935 1.935 0 0 1 .03.8zm17.18 54.23l2.1-5.31.63.25-2.1 5.32zm6.352-3.09a2.5 2.5 0 0 0-.477-.33 3.677 3.677 0 0 0-.76-.32 1.185 1.185 0 0 0-.85 0 .756.756 0 0 0-.38 1.03 2.106 2.106 0 0 0 .37.51c.16.17.34.34.54.51a3.86 3.86 0 0 1 .52.56 1.95 1.95 0 0 1 .34.65 1.318 1.318 0 0 1-.03.78 1.63 1.63 0 0 1-.32.6 1.367 1.367 0 0 1-.52.38 1.76 1.76 0 0 1-.68.14 2.755 2.755 0 0 1-.81-.12 4.45 4.45 0 0 1-.94-.38 2.7 2.7 0 0 1-.54-.38l.4-.51a2.645 2.645 0 0 0 .47.36 3.187 3.187 0 0 0 .76.33 2.317 2.317 0 0 0 .5.1 1.158 1.158 0 0 0 .44-.04.9.9 0 0 0 .35-.2.837.837 0 0 0 .21-.37.784.784 0 0 0-.03-.59 2.07 2.07 0 0 0-.38-.51 6.852 6.852 0 0 0-.55-.5 3.588 3.588 0 0 1-.53-.53 1.91 1.91 0 0 1-.34-.64 1.4 1.4 0 0 1 .03-.8 1.317 1.317 0 0 1 .75-.88 2 2 0 0 1 1.38.01 5.135 5.135 0 0 1 .84.34 2.4 2.4 0 0 1 .55.36zm5.48 3.1a3.44 3.44 0 0 1-.945 2.07 2.094 2.094 0 0 1-1.83.48 2.332 2.332 0 0 1-.98-.37 1.96 1.96 0 0 1-.62-.7 2.626 2.626 0 0 1-.28-.98 4.985 4.985 0 0 1 .06-1.22 3.474 3.474 0 0 1 .94-2.06 2.07 2.07 0 0 1 1.82-.49 2.384 2.384 0 0 1 1 .38 1.94 1.94 0 0 1 .63.71 2.637 2.637 0 0 1 .28.99 4.845 4.845 0 0 1-.05 1.23zm6.264.83a3.535 3.535 0 0 1-.553 1.18 2.637 2.637 0 0 1-.852.76 3.13 3.13 0 0 1-1.082.37l-.158-.52a2.617 2.617 0 0 0 .846-.29 2.337 2.337 0 0 0 .65-.53 2.7 2.7 0 0 0 .43-.71 3.4 3.4 0 0 0 .22-.86 1.2 1.2 0 0 1-.48.38 2 2 0 0 1-.7.12 1.757 1.757 0 0 1-.63-.1 1.553 1.553 0 0 1-.53-.31 1.49 1.49 0 0 1-.37-.51 1.774 1.774 0 0 1-.14-.7 2.252 2.252 0 0 1 .1-.73 1.68 1.68 0 0 1 .32-.58 1.528 1.528 0 0 1 .55-.4 1.966 1.966 0 0 1 .77-.15 1.635 1.635 0 0 1 1.31.51 2.257 2.257 0 0 1 .5 1.51 5.563 5.563 0 0 1-.17 1.63zm4.787.92a1.564 1.564 0 0 1-1.283.93 1.525 1.525 0 0 1-1.514-.56 4.363 4.363 0 0 1-.746-2.09 4.135 4.135 0 0 1 .166-2.25 1.72 1.72 0 0 1 2.795-.4 4.382 4.382 0 0 1 .748 2.14 4.13 4.13 0 0 1-.166 2.25zm4.713-1.14a1.556 1.556 0 0 1-1.164 1.08 1.52 1.52 0 0 1-1.57-.39 4.4 4.4 0 0 1-.986-1.99 4.122 4.122 0 0 1-.1-2.26 1.72 1.72 0 0 1 2.73-.73 4.375 4.375 0 0 1 .994 2.04 4.122 4.122 0 0 1 .097 2.26zm2.307-.03l-.22-.56 1.064-.41-1.44-3.67-.1-.48-.16.48-.6.93-.44-.27 1.17-1.95.28-.11 1.9 4.85 1.04-.41.22.57zM357.67 104.2a4.96 4.96 0 0 1-1.2.782v.792a5.6 5.6 0 0 0 .86-.422 4.223 4.223 0 0 0 .776-.564V110h.82v-6.7h-.526a3.093 3.093 0 0 1-.73.9zm-3.357-.053a1.817 1.817 0 0 0-.668-.623 1.97 1.97 0 0 0-.94-.216 1.86 1.86 0 0 0-1.21.393 2.35 2.35 0 0 0-.723 1.11 6.1 6.1 0 0 0-.244 1.9 4.4 4.4 0 0 0 .66 2.72 2.033 2.033 0 0 0 2.728.3 2.36 2.36 0 0 0 .72-1.11 6.083 6.083 0 0 0 .242-1.9 6.59 6.59 0 0 0-.15-1.57 3.335 3.335 0 0 0-.415-.98zm-.662 4.75a1.1 1.1 0 0 1-1.9 0 4.2 4.2 0 0 1-.38-2.185 4.2 4.2 0 0 1 .43-2.25 1.045 1.045 0 0 1 .9-.477 1.136 1.136 0 0 1 .96.54 6.39 6.39 0 0 1 0 4.372zM132.64 46.243h-2.1v3.328h1.988a2.733 2.733 0 0 0 1.57-.38 1.45 1.45 0 0 0 .543-1.27q0-1.67-2-1.67m-.31-4.33h-1.78v2.73h1.97a1.553 1.553 0 0 0 .94-.29 1.162 1.162 0 0 0 .4-1 1.368 1.368 0 0 0-.38-1.11 1.81 1.81 0 0 0-1.14-.31m.47 9.35h-4.27V40.22h2.98a13.716 13.716 0 0 1 1.43.062 6.058 6.058 0 0 1 1.15.235 2.357 2.357 0 0 1 .9.477 2.154 2.154 0 0 1 .55.812 3.3 3.3 0 0 1 .2 1.228 2.883 2.883 0 0 1-.92 2.32 3.24 3.24 0 0 1 1.47 1.01 2.673 2.673 0 0 1 .48 1.664 3.31 3.31 0 0 1-.34 1.568 2.437 2.437 0 0 1-.94 1 4.544 4.544 0 0 1-1.25.5 5.98 5.98 0 0 1-1.42.158m16.19 0H147l-.96-7.6-2.91 5.232-2.74-5.008-.954 7.38h-2.087l1.46-11.038h1.68l2.73 5.026 2.69-5.026h1.65m11.12 1.956h-3.13v9.082h-2.02v-9.082h-3.12V40.22h8.26m4.48 1.687h-1.56v3.36h1.48a2.6 2.6 0 0 0 1.75-.442 1.662 1.662 0 0 0 .47-1.278 1.56 1.56 0 0 0-.46-1.238 2.6 2.6 0 0 0-1.69-.4m4.87 9.35h-2.15l-2.24-4.1h-2.05v4.1h-2.01V40.22h4.03q3.79 0 3.79 3.185a3.44 3.44 0 0 1-.49 1.932 4.363 4.363 0 0 1-1.4 1.3l2.512 4.62zm6.36-4.62l-1.15-3.26-1.16 3.26zm3.7 4.62H176l-.94-2.67h-3.7l-.95 2.66h-2.074l3.93-11.04h1.9l3.9 11.03zm4.86-9.09h-2.12v7.13h2.11a3.03 3.03 0 0 0 2.4-.95 3.833 3.833 0 0 0 .83-2.62 3.83 3.83 0 0 0-.82-2.62 3.023 3.023 0 0 0-2.4-.95m0 9.08h-4.14V40.22h4.13a5.52 5.52 0 1 1 0 11.037m11.3-4.62l-1.15-3.26-1.16 3.26zm3.71 4.62h-2.08l-.94-2.663h-3.7l-.94 2.664h-2.07l3.93-11.038h1.9l3.9 11.038zM156.8 83.695l.03-.67h-.024l-.24.574-1.01 1.64-.36.43.564-.11 1.19-.1-.14-1.77M143.92 7.88a1.278 1.278 0 0 0 .723-.41.89.89 0 0 0 .113-.8.79.79 0 0 0-.38-.543 1.04 1.04 0 0 0-.75-.05c-.12.03-.24.06-.35.1a1.41 1.41 0 0 0-.264.1L143.42 8zm18.075 75.33a2.785 2.785 0 0 0-.35-.7 1.222 1.222 0 0 0-.46-.408.914.914 0 0 0-.584-.06.95.95 0 0 0-.76.743 4.27 4.27 0 0 0 .07 1.82 6.035 6.035 0 0 0 .26.93 2.8 2.8 0 0 0 .36.69 1.286 1.286 0 0 0 .46.4.826.826 0 0 0 .56.064.95.95 0 0 0 .78-.74 4.236 4.236 0 0 0-.07-1.83 6.8 6.8 0 0 0-.24-.93zm8.86-72.77l.255-.95-.04-.02-.59.796-.996 1.027 1.184.573.19-1.42m-24.78 71.86a1.332 1.332 0 0 0-.67-.34 1.384 1.384 0 0 0-1.27.31 2.95 2.95 0 0 0-.8 1.633 4.01 4.01 0 0 0-.1.89 2.46 2.46 0 0 0 .12.78 1.535 1.535 0 0 0 .376.61 1.344 1.344 0 0 0 .66.34 1.407 1.407 0 0 0 1.282-.3 2.958 2.958 0 0 0 .8-1.63 4.146 4.146 0 0 0 .1-.89 2.364 2.364 0 0 0-.123-.79 1.57 1.57 0 0 0-.38-.62zm33.45-62.48a1.12 1.12 0 0 0 .312.543 1.134 1.134 0 0 0 1.05.35 2.877 2.877 0 0 0 1.4-.88 4.383 4.383 0 0 0 .544-.64 2.344 2.344 0 0 0 .32-.64 1.215 1.215 0 0 0 .032-.61 1.237 1.237 0 0 0-1.38-.91 2.93 2.93 0 0 0-1.39.88 4.41 4.41 0 0 0-.55.65 2.217 2.217 0 0 0-.314.64 1.2 1.2 0 0 0-.02.6z"/>
  <path d="M183.854 57.738a32.525 32.525 0 1 1-.2-23.986h14.2A45.984 45.984 0 1 0 198 57.738zm2.8-37.618l.5.717-1.346 3.776-.5.918.025.04.688-.65 2.64-1.85.66.94-5.06 3.55-.5-.72 1.33-3.75.52-.94-.02-.03-.71.67-2.62 1.84-.65-.93zm-3.03-3.47a2.682 2.682 0 0 1 .64.98 2.165 2.165 0 0 1 .107 1.035 2.866 2.866 0 0 1-.38 1.05 4.985 4.985 0 0 1-.82 1.024 3.626 3.626 0 0 1-2.16 1.16 2.353 2.353 0 0 1-1.94-.8 2.73 2.73 0 0 1-.64-.99 2.12 2.12 0 0 1-.1-1.04 2.828 2.828 0 0 1 .39-1.05 5.024 5.024 0 0 1 .83-1.03 3.652 3.652 0 0 1 2.16-1.17 2.34 2.34 0 0 1 1.94.8zm-4.124-3.707l.934.753-3.85 4.774-.934-.753 3.85-4.773zm-5.71-2.6l.582-.895 4.012 2.6-.582.9-1.5-.972-2.755 4.247-1.007-.654 2.758-4.25zm-1.616-2.023l-.715 6.52-1.14-.552.15-1.435-1.7-.824-1.01 1.01-1.08-.53 4.68-4.59zm-9.083-.16a4.015 4.015 0 0 1 .7-1.365 2.77 2.77 0 0 1 .92-.74 2.39 2.39 0 0 1 1.01-.24 3.063 3.063 0 0 1 .98.14 4.884 4.884 0 0 1 .83.336 3.087 3.087 0 0 1 .52.34l-.53.9a1.8 1.8 0 0 0-.41-.28 4.55 4.55 0 0 0-.62-.24 1.46 1.46 0 0 0-1.27.15 2.42 2.42 0 0 0-.91 1.4 3.33 3.33 0 0 0-.16.86 1.877 1.877 0 0 0 .1.74 1.47 1.47 0 0 0 .38.58 1.72 1.72 0 0 0 .66.37 2.435 2.435 0 0 0 .66.13 1.83 1.83 0 0 0 .51-.05l-.06 1a1.85 1.85 0 0 1-.76.06 4.474 4.474 0 0 1-.87-.18 3.15 3.15 0 0 1-.94-.48 2.217 2.217 0 0 1-.66-.79 2.65 2.65 0 0 1-.27-1.12 4.32 4.32 0 0 1 .24-1.47zm-1.86-3.513l1.18.242-1.23 6.01-1.17-.25zm-5.15-.6l3.62.38-.11 1.064-2.42-.25-.16 1.51 2.23.24-.11 1.06-2.23-.23-.26 2.47-1.19-.12.65-6.1zm-2.97-.074l1.2.01-.05 6.132-1.2-.01zm-1.41-.062l.1 1.07-1.78.18.49 5.04-1.2.12-.49-5.04-1.78.18-.1-1.06zm-9.66 1.54q.22-.08.44-.15c.15-.05.3-.09.44-.13s.27-.07.39-.1a4.58 4.58 0 0 1 .84-.12 2.336 2.336 0 0 1 .79.09 1.487 1.487 0 0 1 .64.4 1.647 1.647 0 0 1 .39.78 2 2 0 0 1-.05 1.28 1.807 1.807 0 0 1-.76.86l.48.17 1.91 1.95-1.34.32-1.91-2.01-.64.04.59 2.45-1.16.28-1.41-5.9c.13-.06.26-.12.41-.17zm-5.5 1.9l3.4-1.29.38 1-2.27.87.51 1.34 2.07-.79.38 1-2.07.79.53 1.4 2.32-.88.38 1-3.44 1.31-2.18-5.73zm-4.2 2.85a2.388 2.388 0 0 1 .53-.89 3.182 3.182 0 0 1 .79-.61 4.91 4.91 0 0 1 .82-.36 3.46 3.46 0 0 1 .61-.14l.28 1.01a1.72 1.72 0 0 0-.48.1 4.416 4.416 0 0 0-.61.28 1.468 1.468 0 0 0-.78 1.02 2.435 2.435 0 0 0 .38 1.63 3.383 3.383 0 0 0 .51.71 1.887 1.887 0 0 0 .6.44 1.487 1.487 0 0 0 .68.13 1.68 1.68 0 0 0 .73-.22 2.377 2.377 0 0 0 .55-.38 1.9 1.9 0 0 0 .32-.4l.68.74a1.82 1.82 0 0 1-.49.6 4.588 4.588 0 0 1-.74.5 3.2 3.2 0 0 1-1 .35 2.245 2.245 0 0 1-1.03-.07 2.7 2.7 0 0 1-1-.58 4.28 4.28 0 0 1-.9-1.19 4.005 4.005 0 0 1-.5-1.44 2.733 2.733 0 0 1 .1-1.17zm-8.53 5.58l3.09 1.02.68.34.03-.02-.28-.71-.68-3.11.82-.72 4.06 4.6-.9.8-2.1-2.38-.71-1-.04.04.37.98.54 2.58-.29.26-2.55-.81-.93-.47-.03.03.94.79 2.11 2.39-.86.76-4.06-4.6zm-4.45 5.14l2.3-2.81.83.68-1.54 1.89 1.1.9 1.4-1.72.83.68-1.4 1.72 1.16.95 1.57-1.92.83.68-2.32 2.85-4.75-3.88zm-1.86 20.55a4.82 4.82 0 0 1-.28 1.13 3.424 3.424 0 0 1-.35.7l-.96-.52a2.13 2.13 0 0 0 .15-.23 2.935 2.935 0 0 0 .16-.32 3.638 3.638 0 0 0 .15-.39 2.92 2.92 0 0 0 .1-.43 1.532 1.532 0 0 0-.06-.83.608.608 0 0 0-.5-.36.57.57 0 0 0-.48.14 2.255 2.255 0 0 0-.39.47c-.12.19-.25.4-.39.63a3.38 3.38 0 0 1-.47.62 1.9 1.9 0 0 1-.62.43 1.568 1.568 0 0 1-.87.09 1.854 1.854 0 0 1-.75-.26 1.445 1.445 0 0 1-.48-.5 1.847 1.847 0 0 1-.23-.69 3.113 3.113 0 0 1 .02-.85 5.28 5.28 0 0 1 .24-.98 2.535 2.535 0 0 1 .38-.73l.95.52a2.1 2.1 0 0 0-.3.54 3.278 3.278 0 0 0-.21.81 1.06 1.06 0 0 0 .08.66.533.533 0 0 0 .42.28.55.55 0 0 0 .46-.14 2.324 2.324 0 0 0 .39-.46c.13-.19.26-.4.4-.62a3.586 3.586 0 0 1 .47-.61 1.94 1.94 0 0 1 .62-.43 1.534 1.534 0 0 1 .84-.09 2.044 2.044 0 0 1 .82.28 1.6 1.6 0 0 1 .52.53 1.942 1.942 0 0 1 .25.75 3.4 3.4 0 0 1-.03.92zm.76-4.52l-2.19-.63-4.26.87.4-1.37 2.52-.44.66.06.01-.04-.6-.31-1.9-1.67.36-1.23 3.15 2.99 2.2.63zm2.26-5.99a3.464 3.464 0 0 1-.27.89 4.98 4.98 0 0 1-.58 1.01 3.477 3.477 0 0 1-.52.58l-.78-.77c.06-.04.13-.1.2-.18a3.392 3.392 0 0 0 .25-.27 3.907 3.907 0 0 0 .25-.33 2.592 2.592 0 0 0 .21-.39 1.525 1.525 0 0 0 .17-.82.6.6 0 0 0-.38-.48.573.573 0 0 0-.5 0 2.207 2.207 0 0 0-.5.35c-.17.15-.35.32-.55.5a3.36 3.36 0 0 1-.62.47 1.922 1.922 0 0 1-.71.25 1.6 1.6 0 0 1-.86-.16 1.848 1.848 0 0 1-.65-.45 1.442 1.442 0 0 1-.33-.61 1.8 1.8 0 0 1-.03-.72 3.173 3.173 0 0 1 .25-.81 5.458 5.458 0 0 1 .49-.88 2.572 2.572 0 0 1 .56-.6l.77.75a2.1 2.1 0 0 0-.44.44 3.252 3.252 0 0 0-.43.72 1.06 1.06 0 0 0-.11.66.527.527 0 0 0 .32.39.55.55 0 0 0 .48-.01 2.382 2.382 0 0 0 .51-.34c.17-.15.36-.32.55-.5a3.472 3.472 0 0 1 .62-.46 1.966 1.966 0 0 1 .71-.25 1.52 1.52 0 0 1 .84.15 2.034 2.034 0 0 1 .71.49 1.64 1.64 0 0 1 .36.66 1.93 1.93 0 0 1 .04.79zm-2.72-5.73l-.95 1.53-.91-.56 2.51-4.07.91.56-.93 1.52 4.31 2.66-.63 1.02zm17.51 58.73l2.4-5.16.61.29-2.4 5.16zm6.64-2.65a2.7 2.7 0 0 0-.45-.35 3.623 3.623 0 0 0-.74-.36 1.166 1.166 0 0 0-.84-.05.757.757 0 0 0-.44 1.01 2.14 2.14 0 0 0 .35.53c.16.17.32.35.51.54a3.912 3.912 0 0 1 .49.58 2.047 2.047 0 0 1 .3.66 1.317 1.317 0 0 1-.06.77 1.587 1.587 0 0 1-.35.57 1.4 1.4 0 0 1-.53.34 1.754 1.754 0 0 1-.68.09 2.636 2.636 0 0 1-.8-.17 4.5 4.5 0 0 1-.91-.43 2.78 2.78 0 0 1-.51-.41l.42-.48a2.7 2.7 0 0 0 .45.38 3.18 3.18 0 0 0 .74.38 2.28 2.28 0 0 0 .49.13 1.142 1.142 0 0 0 .44-.01.913.913 0 0 0 .36-.19.855.855 0 0 0 .25-.36.775.775 0 0 0 0-.59 2.078 2.078 0 0 0-.35-.53 6.456 6.456 0 0 0-.51-.52 3.766 3.766 0 0 1-.5-.57 1.893 1.893 0 0 1-.3-.65 1.36 1.36 0 0 1 .08-.8 1.3 1.3 0 0 1 .8-.83 1.965 1.965 0 0 1 1.37.09 4.937 4.937 0 0 1 .82.38 2.392 2.392 0 0 1 .53.4zm5.24 3.45a3.444 3.444 0 0 1-1.06 2 2.09 2.09 0 0 1-1.85.37 2.35 2.35 0 0 1-.96-.43 1.95 1.95 0 0 1-.57-.74 2.59 2.59 0 0 1-.21-1 4.732 4.732 0 0 1 .12-1.21 3.455 3.455 0 0 1 1.06-2 2.055 2.055 0 0 1 1.84-.37 2.38 2.38 0 0 1 .97.43 1.974 1.974 0 0 1 .58.74 2.63 2.63 0 0 1 .22 1 4.875 4.875 0 0 1-.12 1.21zM153.3 88l-2.885-.11.02-.6 1.136.05.15-3.93.1-.48-.34.37-.91.61-.29-.43 1.84-1.32.29.01-.2 5.18 1.12.04zm5.27-2.1l-.957.08.14 1.75-.634.05-.14-1.75-2.5.2-.02-.265 2.39-3.97.44-.037.28 3.455.96-.07.04.57zm4.3.37a1.557 1.557 0 0 1-1.223 1 1.516 1.516 0 0 1-1.54-.48 4.39 4.39 0 0 1-.864-2.04 4.132 4.132 0 0 1 .03-2.252 1.713 1.713 0 0 1 2.754-.565 4.37 4.37 0 0 1 .87 2.086 4.13 4.13 0 0 1-.03 2.25zm4.655-1.42a1.564 1.564 0 0 1-1.1 1.14 1.515 1.515 0 0 1-1.585-.3 4.367 4.367 0 0 1-1.1-1.92 4.1 4.1 0 0 1-.23-2.242 1.716 1.716 0 0 1 2.673-.883 4.374 4.374 0 0 1 1.11 1.97 4.153 4.153 0 0 1 .23 2.25zm2.274-.18l-.26-.542 1.03-.476-1.65-3.57-.13-.47-.14.483-.54.958-.46-.245 1.04-2 .27-.124 2.17 4.714 1.01-.47.25.55z"/>
  <path d="M166.294 81.918a2.854 2.854 0 0 0-.428-.656 1.217 1.217 0 0 0-.5-.348.92.92 0 0 0-.586.01.95.95 0 0 0-.676.83 4.208 4.208 0 0 0 .282 1.8 5.956 5.956 0 0 0 .364.9 2.823 2.823 0 0 0 .438.645 1.266 1.266 0 0 0 .5.35.834.834 0 0 0 .562 0 .953.953 0 0 0 .683-.83 4.223 4.223 0 0 0-.283-1.8 7.29 7.29 0 0 0-.356-.91zm104.926 2.31a2.35 2.35 0 0 0 .388-.686 1.133 1.133 0 0 0 .017-.64.806.806 0 0 0-.412-.558.905.905 0 0 0-.655-.064.958.958 0 0 0-.362.17 1 1 0 0 0-.24.257.738.738 0 0 0-.11.3.767.767 0 0 0 .018.32.847.847 0 0 0 .19.37 1.067 1.067 0 0 0 .31.245 2.22 2.22 0 0 0 .4.164c.15.048.303.087.456.12zm7.735-73.654l.26-.956-.04-.02-.597.802-1.003 1.034 1.19.58.19-1.44M272.49 85.72a.925.925 0 0 0-.2-.392 1.28 1.28 0 0 0-.335-.26 2.172 2.172 0 0 0-.423-.175c-.153-.045-.31-.086-.474-.124a1.893 1.893 0 0 0-.533.78 1.244 1.244 0 0 0-.044.69 1.1 1.1 0 0 0 .16.35.823.823 0 0 0 .27.25.978.978 0 0 0 .37.12 1.166 1.166 0 0 0 .45-.04 1.267 1.267 0 0 0 .37-.16 1 1 0 0 0 .28-.26.892.892 0 0 0 .15-.35 1.012 1.012 0 0 0-.02-.44zm-30.79-7.763a1.4 1.4 0 0 0-1.312-.127 3.008 3.008 0 0 0-1.3 1.3 4.1 4.1 0 0 0-.393.817 2.462 2.462 0 0 0-.145.792 1.55 1.55 0 0 0 .158.7 1.352 1.352 0 0 0 .518.54 1.413 1.413 0 0 0 1.323.13 2.957 2.957 0 0 0 1.3-1.29 4.068 4.068 0 0 0 .39-.82 2.343 2.343 0 0 0 .14-.8 1.616 1.616 0 0 0-.17-.71 1.348 1.348 0 0 0-.52-.55zM251.8 7.94a1.3 1.3 0 0 0 .73-.41.906.906 0 0 0 .114-.81.794.794 0 0 0-.387-.545 1.032 1.032 0 0 0-.756-.05c-.12.03-.24.06-.35.1a1.247 1.247 0 0 0-.26.1l.42 1.744zm35.9 11.998a1.242 1.242 0 0 0 1.37.907 2.914 2.914 0 0 0 1.415-.89 4.546 4.546 0 0 0 .546-.642 2.37 2.37 0 0 0 .33-.644 1.228 1.228 0 0 0 .04-.62 1.244 1.244 0 0 0-1.39-.92 2.932 2.932 0 0 0-1.4.88 4.236 4.236 0 0 0-.56.66 2.17 2.17 0 0 0-.31.64 1.247 1.247 0 0 0-.02.61zm-31.895 63.608h-.008l-.33.847-.87 1.623 1.663.24-.38-1.82-.075-.89"/>
  <path d="M292.014 58.217a32.792 32.792 0 1 1-.2-24.186h14.316a46.36 46.36 0 1 0 .144 24.19zm2.867-37.988l.51.72-1.35 3.81-.5.92.03.03.69-.66 2.67-1.87.66.94-5.1 3.57-.51-.72 1.35-3.78.52-.96-.02-.04-.71.67-2.64 1.85-.66-.94zm-3.04-3.49a2.712 2.712 0 0 1 .65.98 2.187 2.187 0 0 1 .11 1.04 2.884 2.884 0 0 1-.38 1.06 5.08 5.08 0 0 1-.82 1.03 3.667 3.667 0 0 1-2.18 1.18 2.363 2.363 0 0 1-1.95-.8 2.733 2.733 0 0 1-.65-1 2.12 2.12 0 0 1-.1-1.05 2.847 2.847 0 0 1 .39-1.06 4.963 4.963 0 0 1 .83-1.03 3.666 3.666 0 0 1 2.18-1.18 2.36 2.36 0 0 1 1.96.8zm-3.32-2.9l-3.88 4.81-.94-.76 3.88-4.82zm-6.65-3.38l.59-.9 4.05 2.62-.58.9-1.51-.98-2.78 4.28-1.01-.66 2.78-4.29zm-1.57-2.03l-.73 6.57-1.14-.56.16-1.45-1.71-.83-1.02 1.03-1.08-.53 4.73-4.63zm-9.18-.17a4.05 4.05 0 0 1 .7-1.38 2.746 2.746 0 0 1 .92-.75 2.385 2.385 0 0 1 1.01-.25 3.13 3.13 0 0 1 1 .15 4.954 4.954 0 0 1 .83.34 3.285 3.285 0 0 1 .53.34l-.54.9a1.888 1.888 0 0 0-.41-.28 4.842 4.842 0 0 0-.63-.25 1.477 1.477 0 0 0-1.28.14 2.46 2.46 0 0 0-.91 1.41 3.368 3.368 0 0 0-.16.86 1.87 1.87 0 0 0 .1.74 1.5 1.5 0 0 0 .38.57 1.72 1.72 0 0 0 .67.37 2.4 2.4 0 0 0 .66.13 2.006 2.006 0 0 0 .52-.05l-.06 1.01a1.91 1.91 0 0 1-.77.06 4.382 4.382 0 0 1-.88-.19 3.193 3.193 0 0 1-.95-.48 2.257 2.257 0 0 1-.67-.8 2.714 2.714 0 0 1-.28-1.14 4.387 4.387 0 0 1 .24-1.48zm-1.9-3.54l1.19.24-1.24 6.06-1.18-.25zm-5.21-.69l3.65.38-.11 1.07-2.44-.26-.16 1.52 2.25.24-.11 1.07-2.25-.24-.26 2.48-1.2-.13zM261 3.97l1.21.01-.05 6.18-1.21-.01zm-1.466-.03l.105 1.07-1.8.18.5 5.08-1.2.117-.5-5.08-1.8.175-.1-1.073zm-10.04 1.71c.127-.057.264-.11.41-.168s.3-.11.443-.16.29-.09.43-.13.276-.08.398-.1a4.52 4.52 0 0 1 .85-.12 2.3 2.3 0 0 1 .79.09 1.475 1.475 0 0 1 .64.4 1.686 1.686 0 0 1 .394.78 2.018 2.018 0 0 1-.06 1.285 1.816 1.816 0 0 1-.77.863l.48.167 1.92 1.963-1.36.324-1.93-2.026-.65.036.59 2.464-1.18.29-1.43-5.95zm-1.752.47l.383 1.005-2.3.875.51 1.346 2.09-.793.385 1.007-2.09.8.54 1.413 2.335-.89.38 1.006-3.47 1.32-2.2-5.78zm-7.7 4.122a2.4 2.4 0 0 1 .53-.9 3.133 3.133 0 0 1 .792-.62 4.836 4.836 0 0 1 .82-.367 3.2 3.2 0 0 1 .61-.14l.28 1.014a1.714 1.714 0 0 0-.49.1 4.23 4.23 0 0 0-.62.28 1.472 1.472 0 0 0-.79 1.02 2.457 2.457 0 0 0 .38 1.63 3.192 3.192 0 0 0 .51.71 1.864 1.864 0 0 0 .6.44 1.478 1.478 0 0 0 .68.12 1.665 1.665 0 0 0 .73-.22 2.38 2.38 0 0 0 .55-.39 1.913 1.913 0 0 0 .32-.41l.68.74a1.853 1.853 0 0 1-.494.6 4.536 4.536 0 0 1-.747.5 3.224 3.224 0 0 1-1.01.35 2.206 2.206 0 0 1-1.04-.07 2.7 2.7 0 0 1-1.01-.59 4.322 4.322 0 0 1-.905-1.2 4.033 4.033 0 0 1-.506-1.46 2.733 2.733 0 0 1 .1-1.19zm-8.507 5.68l3.11 1.02.685.335.026-.024-.28-.718-.69-3.14.82-.73 4.1 4.63-.91.8-2.125-2.4-.71-1.01-.04.03.37.993.54 2.6-.29.253-2.57-.81-.94-.48-.03.03.94.8 2.13 2.41-.86.76-4.09-4.63zm-4.507 5.12l2.32-2.84.838.68-1.552 1.9 1.117.91 1.42-1.73.84.68-1.41 1.73 1.17.953 1.58-1.937.84.68-2.34 2.88-4.79-3.91zm-.91 1.204l.92.56-.944 1.53 4.346 2.674-.633 1.03-4.35-2.676-.95 1.54-.92-.565zm-.962 19.5a4.912 4.912 0 0 1-.285 1.14 3.53 3.53 0 0 1-.35.7l-.97-.53a2.28 2.28 0 0 0 .15-.24 2.985 2.985 0 0 0 .17-.33 4.113 4.113 0 0 0 .14-.393 2.89 2.89 0 0 0 .1-.437 1.556 1.556 0 0 0-.07-.843.615.615 0 0 0-.51-.36.573.573 0 0 0-.48.14 2.322 2.322 0 0 0-.39.474l-.39.63a3.46 3.46 0 0 1-.47.62 1.967 1.967 0 0 1-.63.437 1.606 1.606 0 0 1-.88.09 1.884 1.884 0 0 1-.75-.26 1.462 1.462 0 0 1-.48-.5 1.832 1.832 0 0 1-.23-.7 3.083 3.083 0 0 1 .01-.854 5.19 5.19 0 0 1 .24-.992 2.59 2.59 0 0 1 .38-.74l.95.52a2.158 2.158 0 0 0-.3.55 3.343 3.343 0 0 0-.22.817 1.072 1.072 0 0 0 .08.668.537.537 0 0 0 .42.286.554.554 0 0 0 .47-.14 2.34 2.34 0 0 0 .4-.47c.13-.19.26-.4.4-.63a3.7 3.7 0 0 1 .48-.62 1.97 1.97 0 0 1 .62-.44 1.53 1.53 0 0 1 .85-.09 2.018 2.018 0 0 1 .82.28 1.6 1.6 0 0 1 .53.54 1.934 1.934 0 0 1 .25.76 3.56 3.56 0 0 1-.03.93zm.787-4.548l-2.206-.636-4.3.88.4-1.384 2.54-.444.66.064.01-.04-.61-.313-1.92-1.69.36-1.25 3.17 3.017 2.21.636zm2.19-5.966a3.332 3.332 0 0 1-.268.89 4.953 4.953 0 0 1-.588 1.02 3.514 3.514 0 0 1-.53.576l-.79-.77a2.317 2.317 0 0 0 .2-.18 3.46 3.46 0 0 0 .245-.27 4.06 4.06 0 0 0 .246-.34 2.89 2.89 0 0 0 .213-.395 1.563 1.563 0 0 0 .17-.83.6.6 0 0 0-.38-.484.575.575 0 0 0-.5 0 2.282 2.282 0 0 0-.5.35c-.17.15-.35.32-.55.5a3.433 3.433 0 0 1-.62.47 1.973 1.973 0 0 1-.72.25 1.59 1.59 0 0 1-.87-.16 1.878 1.878 0 0 1-.65-.46 1.474 1.474 0 0 1-.33-.61 1.8 1.8 0 0 1-.03-.74 3.153 3.153 0 0 1 .25-.82 5.14 5.14 0 0 1 .5-.89 2.54 2.54 0 0 1 .57-.61l.78.76a2.048 2.048 0 0 0-.44.44 3.258 3.258 0 0 0-.43.72 1.057 1.057 0 0 0-.11.66.53.53 0 0 0 .32.39.565.565 0 0 0 .49-.01 2.427 2.427 0 0 0 .51-.35q.27-.23.56-.5a3.625 3.625 0 0 1 .63-.47 1.93 1.93 0 0 1 .72-.25 1.5 1.5 0 0 1 .84.14 2.022 2.022 0 0 1 .71.49 1.623 1.623 0 0 1 .36.66 1.92 1.92 0 0 1 .02.8zm12.68 51.51a2.11 2.11 0 0 1-1.887-.26 2.333 2.333 0 0 1-.774-.726 2.007 2.007 0 0 1-.307-.9 2.67 2.67 0 0 1 .12-1.02 5.11 5.11 0 0 1 .52-1.11 3.483 3.483 0 0 1 1.67-1.556 2.08 2.08 0 0 1 1.87.252 2.418 2.418 0 0 1 .78.73 1.975 1.975 0 0 1 .31.9 2.62 2.62 0 0 1-.126 1.02 4.877 4.877 0 0 1-.52 1.11 3.473 3.473 0 0 1-1.68 1.56zm5.2 3.166l1.027-2.424-2.537-1.07-1.025 2.423-.626-.264 2.237-5.29.63.266-.97 2.3 2.54 1.07.98-2.3.62.26-2.24 5.29zm6.33-3.4a3.563 3.563 0 0 0-.77-.3 1.184 1.184 0 0 0-.848.02.766.766 0 0 0-.354 1.05 2.122 2.122 0 0 0 .4.5c.17.164.36.33.56.5a4.052 4.052 0 0 1 .55.544 1.99 1.99 0 0 1 .36.64 1.294 1.294 0 0 1 0 .78 1.61 1.61 0 0 1-.3.606 1.405 1.405 0 0 1-.5.39 1.788 1.788 0 0 1-.68.16 2.7 2.7 0 0 1-.82-.105 4.59 4.59 0 0 1-.95-.356 2.922 2.922 0 0 1-.54-.37l.39-.527a2.647 2.647 0 0 0 .48.34 3.152 3.152 0 0 0 .77.315 2.4 2.4 0 0 0 .5.084 1.14 1.14 0 0 0 .44-.06.91.91 0 0 0 .35-.22.855.855 0 0 0 .22-.39.784.784 0 0 0-.05-.6 2.056 2.056 0 0 0-.39-.51 6.734 6.734 0 0 0-.56-.48 3.683 3.683 0 0 1-.55-.52 1.932 1.932 0 0 1-.36-.64 1.39 1.39 0 0 1 .01-.81 1.317 1.317 0 0 1 .74-.9 2.02 2.02 0 0 1 1.39-.03 5.365 5.365 0 0 1 .86.31 2.5 2.5 0 0 1 .57.35l-.36.53a2.615 2.615 0 0 0-.49-.32zm4.4 6.006l-.353-1.654-2.082-.3-.793 1.49-.672-.1 2.99-5.46.31.046 1.32 6.08zm5.21-.613a1.427 1.427 0 0 1-.4.5 1.794 1.794 0 0 1-.62.32 2.778 2.778 0 0 1-.825.1 4.61 4.61 0 0 1-1.015-.12 2.8 2.8 0 0 1-.62-.22l.243-.6a2.613 2.613 0 0 0 .552.22 3.217 3.217 0 0 0 .82.12 2.332 2.332 0 0 0 .51-.04 1.14 1.14 0 0 0 .41-.16.9.9 0 0 0 .28-.29.855.855 0 0 0 .11-.42.79.79 0 0 0-.196-.56 2.032 2.032 0 0 0-.5-.4 6.446 6.446 0 0 0-.66-.33 3.52 3.52 0 0 1-.66-.37 1.888 1.888 0 0 1-.5-.53 1.4 1.4 0 0 1-.19-.79 1.326 1.326 0 0 1 .49-1.05 2.01 2.01 0 0 1 1.337-.36 5.267 5.267 0 0 1 .91.1 2.468 2.468 0 0 1 .63.2l-.22.6a2.712 2.712 0 0 0-.55-.19 3.807 3.807 0 0 0-.82-.1 1.182 1.182 0 0 0-.82.23.763.763 0 0 0-.09 1.1 2.06 2.06 0 0 0 .5.4c.2.12.42.24.66.35a4.083 4.083 0 0 1 .66.4 2 2 0 0 1 .5.53 1.332 1.332 0 0 1 .19.76 1.647 1.647 0 0 1-.15.66zm3.69.62l-.085-.6 1.14-.15-.538-3.93.02-.49-.27.43-.8.77-.36-.37 1.6-1.62.293-.04.71 5.19 1.114-.15.08.6zm7.52-2.36a1.37 1.37 0 0 1-.2.57 1.562 1.562 0 0 1-.44.46 2.06 2.06 0 0 1-.68.3 1.936 1.936 0 0 1-.7.07 1.49 1.49 0 0 1-.575-.17 1.267 1.267 0 0 1-.422-.37 1.565 1.565 0 0 1-.247-.53 1.513 1.513 0 0 1 .04-.93 2.41 2.41 0 0 1 .64-.88 4.038 4.038 0 0 1-.44-.15 1.71 1.71 0 0 1-.38-.22 1.383 1.383 0 0 1-.5-.78 1.5 1.5 0 0 1-.04-.59 1.317 1.317 0 0 1 .2-.51 1.508 1.508 0 0 1 .41-.41 1.918 1.918 0 0 1 .61-.27 1.86 1.86 0 0 1 .63-.06 1.384 1.384 0 0 1 .52.15 1.25 1.25 0 0 1 .4.32 1.277 1.277 0 0 1 .23.48 1.542 1.542 0 0 1 0 .86 2.4 2.4 0 0 1-.51.86 3.72 3.72 0 0 1 .46.16 1.958 1.958 0 0 1 .41.23 1.43 1.43 0 0 1 .31.34 1.512 1.512 0 0 1 .21.48 1.735 1.735 0 0 1 .03.64zm4.522-1.42a1.574 1.574 0 0 1-1.044 1.21 1.526 1.526 0 0 1-1.61-.21 4.4 4.4 0 0 1-1.21-1.88 4.164 4.164 0 0 1-.36-2.24 1.73 1.73 0 0 1 2.64-1.03 4.4 4.4 0 0 1 1.22 1.93 4.15 4.15 0 0 1 .35 2.25zm3.5-.87a1.53 1.53 0 0 1-1.627-.02 4.462 4.462 0 0 1-1.42-1.72 4.155 4.155 0 0 1-.615-2.18 1.73 1.73 0 0 1 2.5-1.34 4.363 4.363 0 0 1 1.44 1.77 4.162 4.162 0 0 1 .612 2.19 1.567 1.567 0 0 1-.895 1.32zm3.116-1.91l-.34-.5.95-.65-2.25-3.27-.21-.44-.05.5-.37 1.05-.49-.16.69-2.17.25-.16 2.98 4.3.93-.64.35.5zm7.73-23.74"/>
  <path d="M276.27 81.865a2.816 2.816 0 0 0-.468-.637 1.228 1.228 0 0 0-.525-.323.914.914 0 0 0-.59.043.956.956 0 0 0-.634.87 4.28 4.28 0 0 0 .383 1.8 6.293 6.293 0 0 0 .416.88 2.935 2.935 0 0 0 .476.626 1.316 1.316 0 0 0 .525.325.846.846 0 0 0 .564-.03.964.964 0 0 0 .643-.87 4.272 4.272 0 0 0-.385-1.8 7.317 7.317 0 0 0-.406-.89zm4.073-2.005a2.823 2.823 0 0 0-.537-.577 1.22 1.22 0 0 0-.56-.26.917.917 0 0 0-.582.112.956.956 0 0 0-.526.94 4.24 4.24 0 0 0 .59 1.736h-.005a6.332 6.332 0 0 0 .518.83 2.927 2.927 0 0 0 .55.57 1.314 1.314 0 0 0 .56.26.85.85 0 0 0 .56-.09.966.966 0 0 0 .54-.94 4.265 4.265 0 0 0-.59-1.74 6.856 6.856 0 0 0-.5-.83zm-39.82-28.177h-4.3v-11.13h3a13.685 13.685 0 0 1 1.44.063 6.13 6.13 0 0 1 1.157.236 2.373 2.373 0 0 1 .9.48 2.186 2.186 0 0 1 .547.82 3.313 3.313 0 0 1 .206 1.236 2.9 2.9 0 0 1-.924 2.338 3.3 3.3 0 0 1 1.47 1.02 2.71 2.71 0 0 1 .48 1.678 3.32 3.32 0 0 1-.35 1.58 2.475 2.475 0 0 1-.95 1.014 4.622 4.622 0 0 1-1.26.506 6.094 6.094 0 0 1-1.43.16zm-.47-9.428h-1.8V45h1.988a1.565 1.565 0 0 0 .95-.3 1.176 1.176 0 0 0 .41-1.016 1.378 1.378 0 0 0-.39-1.128 1.81 1.81 0 0 0-1.15-.31zm.32 4.372h-2.115v3.355h2a2.727 2.727 0 0 0 1.583-.386 1.458 1.458 0 0 0 .55-1.284c0-1.123-.67-1.685-2.02-1.685zm16.475 5.056h-2.023l-.97-7.662-2.93 5.27-2.762-5.04-.965 7.44h-2.1l1.478-11.13h1.693l2.75 5.07 2.71-5.07h1.67l1.45 11.13m9.76-9.16h-3.15v9.16h-2.04v-9.16h-3.15v-1.97h8.33v1.98m9.43 9.16h-2.17l-2.26-4.13h-2.07v4.13h-2.03V40.56h4.06q3.82 0 3.82 3.21a3.467 3.467 0 0 1-.5 1.947 4.43 4.43 0 0 1-1.4 1.31l2.54 4.66zm-4.92-9.43h-1.58v3.39h1.49a2.63 2.63 0 0 0 1.76-.44 1.676 1.676 0 0 0 .48-1.29 1.58 1.58 0 0 0-.46-1.25 2.646 2.646 0 0 0-1.7-.4zm15.07 9.43h-2.09l-.94-2.69h-3.73l-.96 2.69h-2.1l3.96-11.13h1.92l3.94 11.13zm-3.74-4.65l-1.16-3.29-1.17 3.29h2.33zm8.64 4.66h-4.17V40.56h4.17a5.567 5.567 0 1 1 0 11.13zm0-9.15h-2.13v7.19h2.13a3.058 3.058 0 0 0 2.42-.95 3.874 3.874 0 0 0 .83-2.64 3.874 3.874 0 0 0-.83-2.64 3.06 3.06 0 0 0-2.43-.95zm15.13 9.16h-2.1l-.93-2.69h-3.73l-.96 2.69h-2.09l3.96-11.13h1.92l3.94 11.13zm-3.74-4.66l-1.16-3.29-1.17 3.29h2.33zM352 25.93l1.58-.2a.582.582 0 1 0-.14-1.14l-1.583.2a.583.583 0 1 0 .15 1.14zm6.403-14.022a1.76 1.76 0 0 1-1.11 0c0 .016-.013.03-.013.045a.568.568 0 1 0 1.138 0c0-.018-.01-.03-.013-.047zm-.52 13.677l.916-.914-.92-.91-.92.92.91.92"/>
  <circle cx="357.868" cy="13.186" r=".508"/>
  <path d="M357.868 16.195a.51.51 0 0 0 0 1.018.508.508 0 0 0 0-1.017z"/>
  <circle cx="357.868" cy="14.359" r=".508"/>
  <path d="M364.594 65.837c-.486 1.086-.93 2.184-1.346 3.31h2.62c-.417-1.126-.814-2.224-1.274-3.31zm-24.8 13.643h1.615l-.82-1.88-.8 1.88m19.36-69.072a.288.288 0 0 0 .42-.253c0-.187-.02-.4-.21-.467l-.51-.053h-.71V8.343c0-.153-.19-.236-.19-.236h-.24c-.13 0-.17.236-.17.236v1.292h-.79l-.5.053a.453.453 0 0 0-.25.467c0 .2.28.327.47.253a14.928 14.928 0 0 1 2.65 0z"/>
  <path d="M393.18 92.258V.615h-70.867v91.643zm-50.9-10.51l-.066-.218-.332-.87-.355-.87-.88-.025-.99.025c-.358.917-.6 1.57-.72 1.958a1.02 1.02 0 0 0-.252-.022 2.45 2.45 0 0 0-.273.022l2.29-5.108h.146l2.076 4.845.125.263c-.17-.015-.29-.022-.37-.022a2.556 2.556 0 0 0-.41.022zm3.424 6a1.57 1.57 0 0 1-.66.573 2.126 2.126 0 0 1-.92.2 2.2 2.2 0 0 1-.66-.11 1.184 1.184 0 0 1-.53-.3 2.585 2.585 0 0 0 .137-.64h.08a1.817 1.817 0 0 0 .5.56 1.16 1.16 0 0 0 .68.19.958.958 0 0 0 .73-.31 1.054 1.054 0 0 0 .29-.74 1.018 1.018 0 0 0-.73-.92c-.11-.05-.23-.1-.37-.16s-.26-.11-.37-.16a2.3 2.3 0 0 1-.3-.17 1.133 1.133 0 0 1-.51-1.01 1.24 1.24 0 0 1 .46-1.03 1.82 1.82 0 0 1 1.17-.36 1.544 1.544 0 0 1 1.06.34 4.11 4.11 0 0 0-.21.61h-.06a1.032 1.032 0 0 0-.35-.48.915.915 0 0 0-.55-.18.93.93 0 0 0-.66.25.815.815 0 0 0-.26.63.84.84 0 0 0 .31.68 1.35 1.35 0 0 0 .29.18 1.64 1.64 0 0 0 .29.13c.07.03.14.06.2.08a1.16 1.16 0 0 1 .14.06l.19.08a1.02 1.02 0 0 1 .15.07 1.8 1.8 0 0 1 .46.32 1.235 1.235 0 0 1 .31.78 1.594 1.594 0 0 1-.25.87zm-1.294-9.925l-.012.688v1.67l.012.87.045.7a.988.988 0 0 0-.252-.02 1.017 1.017 0 0 0-.252.02c.04-.43.05-.75.06-.96l.05-1.7v-2.46h.13l3.61 3.86.05.05c.02-.17.02-.44.02-.8v-2.35l-.02-.58-.01-.06a2.9 2.9 0 0 0 .32.03 1.288 1.288 0 0 0 .19-.02l-.01.09a.866.866 0 0 1-.01.09l-.03.73-.07 1.74-.02 1.64.02.83h-.1c-.19-.21-.33-.38-.45-.51L346.45 80zm6.067 5.93c-.133.19-.227.325-.28.41l-.8 1.293a6.412 6.412 0 0 0-.445.814l.02 1.487.024.666c-.168-.015-.3-.022-.39-.022a3.132 3.132 0 0 0-.32.03.728.728 0 0 1 .01-.15l.038-.72.01-.73v-.46l-1.787-2.94c.184.02.316.02.4.02a2.757 2.757 0 0 0 .412-.02q.52 1 .71 1.33l.59 1.02a.55.55 0 0 0 .08.13 1.065 1.065 0 0 0 .21-.32q.44-.72.98-1.8l.18-.35c.07 0 .18.01.33.03a.96.96 0 0 0 .24-.02c-.03.04-.1.15-.24.34zm-.663-20.526a9.54 9.54 0 0 0 2.348 0c-.115.738-.115 2.643-.115 4.435 1.287-1.474 3.146-3.724 3.648-4.436a7.214 7.214 0 0 0 .8.073c.26 0 .528-.05.858-.08-.642.62-2.944 3.1-3.688 4 1.23 1.8 3.13 4.6 3.906 5.59-.55-.03-.97-.07-1.39-.07s-.83.04-1.24.07c-.94-1.46-1.92-2.92-2.86-4.37h-.02a42.39 42.39 0 0 0 .12 4.36 9.6 9.6 0 0 0-2.35 0c.09-1.23.11-2.3.11-3.85v-1.89c0-1.56-.02-2.63-.11-3.85zm1.64 13.415h.15l2.074 4.845.125.263c-.165-.015-.288-.022-.364-.022a2.54 2.54 0 0 0-.4.022l-.07-.218-.33-.87-.36-.87-.88-.025-.99.025q-.54 1.375-.72 1.958a1.033 1.033 0 0 0-.26-.022 2.457 2.457 0 0 0-.28.022zm2.553 11.106a1.55 1.55 0 0 1-.658.573 2.13 2.13 0 0 1-.92.2 2.192 2.192 0 0 1-.66-.11 1.184 1.184 0 0 1-.53-.3 2.58 2.58 0 0 0 .13-.64h.08a1.843 1.843 0 0 0 .5.56 1.155 1.155 0 0 0 .67.19.958.958 0 0 0 .73-.31 1.05 1.05 0 0 0 .29-.74 1.02 1.02 0 0 0-.74-.92c-.11-.05-.23-.1-.37-.16s-.26-.11-.37-.16a2.38 2.38 0 0 1-.31-.17 1.134 1.134 0 0 1-.52-1.01 1.246 1.246 0 0 1 .46-1.03 1.83 1.83 0 0 1 1.16-.36 1.535 1.535 0 0 1 1.05.34 4.548 4.548 0 0 0-.21.61h-.07a1.022 1.022 0 0 0-.35-.48.9.9 0 0 0-.56-.18.926.926 0 0 0-.66.25.825.825 0 0 0-.27.63.84.84 0 0 0 .31.68 1.4 1.4 0 0 0 .28.18 1.79 1.79 0 0 0 .28.13c.07.03.13.06.2.08s.1.04.13.06l.18.08a1.17 1.17 0 0 1 .15.07 1.776 1.776 0 0 1 .45.32 1.24 1.24 0 0 1 .31.78 1.58 1.58 0 0 1-.24.87zm4.59-3.873a1.433 1.433 0 0 0-.208-.022l-.78-.068h-.57a1.207 1.207 0 0 0-.01.173l-.03.766v2.92l.04.735.01.04c-.04 0-.1-.01-.17-.02a1.36 1.36 0 0 0-.18-.02 1.85 1.85 0 0 0-.38.03 1.278 1.278 0 0 0 .01-.19l.03-.77.03-2.95v-.76l-.46.01c-.2 0-.36.01-.46.02l-.71.04c0-.1.01-.25.01-.44.11 0 .28.01.5.02s.39.02.5.02l.96.01.91-.03.91-.04a1.588 1.588 0 0 0-.02.23 2.262 2.262 0 0 0 .01.23zm.26-6.225a2.025 2.025 0 0 0-.74-.544 2.25 2.25 0 0 0-.91-.19 2.213 2.213 0 0 0-.87.178 2.033 2.033 0 0 0-.713.51 2.39 2.39 0 0 0-.537 1.626 3.014 3.014 0 0 0 .154.96 1.932 1.932 0 0 0 2.05 1.39 2.556 2.556 0 0 0 1.17-.24v-1.196q0-.447-.02-.666c.19.014.3.02.36.02a.764.764 0 0 0 .32-.044v.218l-.02.732v1.12a6.09 6.09 0 0 1-1.99.334 3.217 3.217 0 0 1-1.44-.322 2.2 2.2 0 0 1-1.01-.962 2.778 2.778 0 0 1-.26-1.306 2.623 2.623 0 0 1 .37-1.42 2.32 2.32 0 0 1 1.02-.892 3.476 3.476 0 0 1 1.48-.3 4.845 4.845 0 0 1 .93.082 4.02 4.02 0 0 1 .86.274.214.214 0 0 0 .05.034.192.192 0 0 1 .05.025l-.1.31-.08.27h-.08zm2.76 10.764c-.396-.016-.7-.023-.9-.023-.07 0-.177 0-.32.01s-.25.01-.323.01-.16 0-.3.01-.24.01-.31.01l.046-.91.01-2.51-.01-.64c0-.08-.013-.4-.036-.94l.79.03h1.055c.16 0 .41 0 .75-.02a.694.694 0 0 1-.01.1c-.01.05-.01.08-.01.11a.9.9 0 0 0 .02.22c-.07 0-.17-.01-.3-.02l-.36-.02-.73-.02h-.54l-.04 1.1v.75h.74l.39-.02.33-.01.32-.02c-.03.14-.04.21-.04.22s.01.08.03.22a6.43 6.43 0 0 0-.66-.05l-.4-.01h-.73v1.5q0 .42.01.64c.44 0 .88-.01 1.32-.03a3.96 3.96 0 0 0 .66-.06c0 .19 0 .34.01.44zm.082-6.7c-.07 0-.18 0-.32.006s-.25.005-.33.005-.16 0-.3.006-.24.01-.31.01l.04-.91.01-2.5-.01-.64c0-.09-.01-.4-.04-.94l.79.03h1.05-.01c.17 0 .42-.01.75-.02a.7.7 0 0 1-.02.1.934.934 0 0 0-.01.12.92.92 0 0 0 .02.22c-.07 0-.17-.01-.3-.02s-.25-.02-.36-.02l-.73-.02h-.54l-.04 1.1v.75h.74l.39-.02.33-.01.33-.01c-.03.14-.04.21-.04.22s.01.08.03.22a6.41 6.41 0 0 0-.65-.05l-.4-.01h-.73v1.5q0 .43.01.64c.44 0 .88-.01 1.31-.03a3.96 3.96 0 0 0 .67-.06c0 .2 0 .34.01.44l-.51-.01c-.4-.01-.7-.02-.9-.02zm-1.19-8.9c.7-1.546 2.85-6.494 4.08-9.664a2.14 2.14 0 0 0 1.08 0c1.22 3.17 2.89 7.4 3.98 9.664-.46-.03-.86-.072-1.26-.072s-.82.042-1.22.072c-.3-.947-.63-1.905-.99-2.85-.62-.013-1.22-.03-1.84-.03-.5 0-.99.017-1.49.03a27.15 27.15 0 0 0-.98 2.85 5.066 5.066 0 0 0-.67-.072 6.723 6.723 0 0 0-.72.076zm7.87 15.586a2.11 2.11 0 0 0-.37.022l-.23-2.667-.14-1.088-1.03 1.888-.39.758c-.06.114-.14.268-.23.464l-.28.59h-.08l-.4-.825c-.12-.244-.26-.52-.42-.832s-.33-.63-.5-.96l-.57-1.082-.32 2.863-.03.74v.16h-.29a2.07 2.07 0 0 0-.23.01v-.07l.25-1.51.35-2.66.05-.36.05-.48h.13l.99 1.94c.36.69.73 1.35 1.12 2l.31-.56q.13-.23.26-.48l.96-1.77.29-.5.35-.62h.09l.35 3.19c.03.31.07.66.13 1.03l.12.88a3.01 3.01 0 0 0-.32-.02zm.61-6.65l-.23-2.668-.14-1.087-1.03 1.888-.39.76c-.06.113-.14.267-.23.463l-.28.59h-.08l-.4-.825c-.12-.24-.25-.52-.41-.83s-.33-.63-.5-.96-.36-.69-.57-1.08l-.32 2.87-.04.74v.16h-.29a2.1 2.1 0 0 0-.23.01v-.07l.25-1.51.35-2.65.05-.36.06-.48h.12v-.01l.99 1.94c.36.68.73 1.35 1.12 2l.31-.56q.13-.23.25-.47l.96-1.77.29-.5.35-.62h.09l.35 3.19q.05.47.13 1.03c.05.37.09.66.11.88a3.013 3.013 0 0 0-.32-.02 2.14 2.14 0 0 0-.37.02zm3.25 6a1.554 1.554 0 0 1-.66.572 2.126 2.126 0 0 1-.92.2 2.2 2.2 0 0 1-.66-.112 1.2 1.2 0 0 1-.53-.3 2.62 2.62 0 0 0 .14-.64h.07a1.844 1.844 0 0 0 .5.554 1.163 1.163 0 0 0 .67.187.958.958 0 0 0 .73-.3 1.05 1.05 0 0 0 .29-.74 1.02 1.02 0 0 0-.73-.92c-.11-.05-.23-.1-.37-.16s-.26-.11-.37-.16a2.388 2.388 0 0 1-.31-.17 1.136 1.136 0 0 1-.52-1 1.246 1.246 0 0 1 .46-1.03 1.83 1.83 0 0 1 1.17-.36 1.535 1.535 0 0 1 1.05.34 4.752 4.752 0 0 0-.21.61H372a1.022 1.022 0 0 0-.35-.48.9.9 0 0 0-.556-.18.922.922 0 0 0-.657.25.83.83 0 0 0-.267.63.84.84 0 0 0 .31.68 1.4 1.4 0 0 0 .29.18 1.8 1.8 0 0 0 .29.13l.2.08s.1.04.133.06l.183.08a1.17 1.17 0 0 1 .15.08 1.776 1.776 0 0 1 .453.32 1.235 1.235 0 0 1 .31.78 1.594 1.594 0 0 1-.24.87zm.68-6.01c-.4-.014-.7-.02-.9-.02-.07 0-.18 0-.32.005s-.25.005-.33.005-.16 0-.3.006-.24.005-.31.005l.05-.91.01-2.5-.01-.64c0-.09-.01-.4-.04-.94l.79.03h1.05c.17 0 .42 0 .75-.02a.767.767 0 0 1-.01.1.534.534 0 0 0-.01.12.757.757 0 0 0 .02.22c-.08 0-.17-.01-.3-.02s-.25-.02-.36-.02l-.73-.02h-.54l-.03 1.1v.75h.74l.39-.02.33-.01.32-.02-.04.22.03.22a6.41 6.41 0 0 0-.65-.04l-.4-.01h-.73v1.5c0 .28 0 .5.01.64.45 0 .88-.01 1.32-.03a3.965 3.965 0 0 0 .66-.06c0 .19 0 .34.02.44zm6-4.91l-.01.086-.04.725-.07 1.74-.03 1.64.02.83h-.1l-.45-.51-1.2-1.33-2.04-2.17-.01.69v1.67l.01.87.05.7a.988.988 0 0 0-.26-.02 1.017 1.017 0 0 0-.25.03c.03-.43.05-.75.05-.96l.04-1.7v-2.46h.12l3.6 3.86.05.05c.01-.17.02-.44.02-.8V77.4l-.02-.58-.01-.06a3 3 0 0 0 .32.02 1.372 1.372 0 0 0 .18-.02.783.783 0 0 0-.02.083zm.88-.082c.11 0 .28.012.5.023l.5.03.96.02.91-.02.9-.03a1.6 1.6 0 0 0-.02.23c0 .05 0 .12.02.23a1.336 1.336 0 0 0-.21-.02l-.78-.07h-.56a1.216 1.216 0 0 0-.01.18l-.03.77V81l.04.733.01.044c-.04 0-.1-.01-.17-.02a1.37 1.37 0 0 0-.18-.015 1.85 1.85 0 0 0-.38.035 1.15 1.15 0 0 0 .01-.187l.03-.766.03-2.944v-.76l-.46.013c-.2 0-.36.01-.46.02l-.71.043c.01-.1.02-.245.02-.435zm-1.15-13.02c-.17.43-.27.763-.46 1.376h-.2a1.69 1.69 0 0 0-1.74-1.2 1.368 1.368 0 0 0-1.49 1.25c0 2.058 4.35 1.544 4.35 4.7 0 1.862-1.52 3.143-3.79 3.143a4.157 4.157 0 0 1-2.31-.6 13.622 13.622 0 0 0 .41-1.766h.27a1.865 1.865 0 0 0 1.97 1.5c1.12 0 1.67-.64 1.67-1.41 0-2.1-4.27-1.54-4.27-4.7a2.977 2.977 0 0 1 3.22-2.97 3.783 3.783 0 0 1 2.35.69zm-3.01-33.238l-19.72 28.962-9.95-10.662V34.93l9.95 12.795 19.72-27.185zm-5.26-12.9a.634.634 0 0 1-.56-.608l-.02.178-.41-.044.05-.494.41.044-.02.123a.63.63 0 0 1 .67-.47.64.64 0 1 1-.14 1.27zm-1.01-5.045a.64.64 0 1 1-.14.956l.09.16-.36.22-.27-.42.36-.22.07.11a.64.64 0 0 1 .24-.78zm-23.94.2a.633.633 0 0 1 1.12.584l.06-.11.35.22-.26.42-.36-.22.1-.15a.637.637 0 0 1-.82.13.64.64 0 0 1-.21-.88zm-.16 1.508a.63.63 0 0 1 .62.54v-.123h.41v.4a4.256 4.256 0 0 1 1.5-2.437l-.27-.313.14-.117a.63.63 0 0 1-.82-.122.638.638 0 1 1 .96 0l.09-.08.27.32-.15.13a3.415 3.415 0 0 1 .42-.28 5.667 5.667 0 0 1 .76-.28l-.1.03-.11-.4.17-.05a.63.63 0 0 1-.69-.45.638.638 0 1 1 .87.41l.12-.03.11.4a5.3 5.3 0 0 1 1.37-.14v-.39h.18a.64.64 0 1 1 .2 0h.12v.42h-.16a5.207 5.207 0 0 1 1.39.34l.1-.33.17.05a.632.632 0 0 1-.34-.75.643.643 0 0 1 .8-.43.637.637 0 0 1 .42.8.626.626 0 0 1-.7.44l.12.04-.12.4-.04-.01a.577.577 0 0 0 .05.03 7.134 7.134 0 0 0 1.47.51l.1-.39.17.04a.636.636 0 0 1-.37-.73.64.64 0 0 1 1.24.32.634.634 0 0 1-.68.46l.12.03-.09.37a7.87 7.87 0 0 0 1.15.13v.54a8.613 8.613 0 0 1-3.37-.78h-.01l-.01-.01a4.6 4.6 0 0 0-4.21-.04 3.777 3.777 0 0 0-1.92 3.48l.01.02-.01.03a4.37 4.37 0 0 0 .48 2.13l.23.36a2.825 2.825 0 0 0-.56 1.76 4.69 4.69 0 0 0 .85 2.61 1.97 1.97 0 0 0 3.17.5 1.455 1.455 0 0 0 .145-2.21s-.7-.45-.95.2c0 0-.1.45.2.6a1 1 0 0 1-1.21-.6s-.4-1.06.9-1.31c0 0 .81.1.654-.5a2.954 2.954 0 0 1 .2-2.21 2.3 2.3 0 0 1 1.11 1.86s0 .75.7.25c1.35-.4 1.41.5 1.41.5.3.958-.76 1.41-.76 1.41a1.305 1.305 0 0 0-.06-.752c-.5-.4-.9.25-.9.25a2.5 2.5 0 0 0 .8 1.86 1.84 1.84 0 0 0 1.56.6c.954-.05 1.054-.25 1.054-.25 1.61-1.11 1.26-2.267 1.26-2.267a2.09 2.09 0 0 0-.56.1 3.027 3.027 0 0 0-1.51 1.26v.5h-.3v-4.41h.36a1.65 1.65 0 0 0 1.41 1.5h.652v-.8a2.292 2.292 0 0 0-1.205-1.31h-.51v-.45h.93v-5.16c-.006-.21.334-.534.334-.534l.2.14-.202.4v5.15h.34v-5.53a1.95 1.95 0 0 1-.1-3.52l.04-.066c.43-.4.45-.61.45-.61V6.4a1.556 1.556 0 0 0-.366 0l-.1.044s-.4.15-.4.41h-.24v-1.44h.24c0 .256.4.406.4.406h.12l.35.004s.13.056.13-.294h.027l-.05-.472s-.15-.4-.41-.4v-.24h1.44v.242c-.26 0-.4.4-.4.4l-.06.473c0 .35.14.294.14.294l.37-.006h.1s.4-.15.4-.4h.243v1.43h-.25c0-.25-.4-.41-.4-.41a.617.617 0 0 0-.47-.04v1.25s.02.2.45.6l.015.05a1.95 1.95 0 0 1-.08 3.54v5.53h.35v-5.15l-.2-.4.2-.14s.346.33.34.54v5.15h.92v.46h-.5a2.3 2.3 0 0 0-1.21 1.31v.8h.66a1.647 1.647 0 0 0 1.4-1.51h.355v4.43h-.3v-.5a3.04 3.04 0 0 0-1.51-1.26 2.122 2.122 0 0 0-.55-.1s-.35 1.16 1.26 2.27c0 0 .1.2 1.055.25a1.837 1.837 0 0 0 1.56-.6 2.5 2.5 0 0 0 .8-1.86s-.4-.65-.9-.25a1.306 1.306 0 0 0-.05.75s-1.06-.45-.75-1.41c0 0 .05-.9 1.4-.5.71.5.71-.25.71-.25a2.3 2.3 0 0 1 1.1-1.86 2.955 2.955 0 0 1 .2 2.21c-.15.61.66.5.66.5 1.3.25.91 1.31.91 1.31a1 1 0 0 1-1.21.6c.3-.15.2-.6.2-.6-.26-.65-.96-.2-.96-.2a1.455 1.455 0 0 0 .15 2.21 1.97 1.97 0 0 0 3.17-.5 4.765 4.765 0 0 0 .85-2.61 2.828 2.828 0 0 0-.56-1.76l.226-.37a4.3 4.3 0 0 0 .48-2.13v-.05a3.78 3.78 0 0 0-1.92-3.48 4.6 4.6 0 0 0-4.2.04l-.01.01-.01.01a8.583 8.583 0 0 1-3.36.79v-.54a8 8 0 0 0 1.156-.12l-.1-.36.12-.03a.63.63 0 0 1-.68-.46.64.64 0 1 1 .87.42l.18-.04.1.39a7.193 7.193 0 0 0 1.48-.51l.044-.03-.04.01-.11-.4.114-.04a.627.627 0 0 1-.7-.44.638.638 0 1 1 .88.38l.18-.05.1.34a5.183 5.183 0 0 1 1.39-.33h-.17v-.413h.125a.632.632 0 0 1-.543-.62.64.64 0 0 1 1.28 0 .63.63 0 0 1-.54.62h.176v.39a5.35 5.35 0 0 1 1.37.14l.11-.4.12.04a.637.637 0 1 1 .87-.41.63.63 0 0 1-.685.46l.17.05-.103.4-.1-.03a6.037 6.037 0 0 1 .76.28 4.553 4.553 0 0 1 .425.28l-.15-.13.27-.315.09.083a.636.636 0 1 1 .97 0 .627.627 0 0 1-.81.12l.13.11-.26.31a4.253 4.253 0 0 1 1.5 2.44l.01-.4h.42v.14a.63.63 0 0 1 .62-.54.64.64 0 1 1 0 1.28.628.628 0 0 1-.62-.55h-.01v.18h-.39a3.81 3.81 0 0 1 .04.99 4.715 4.715 0 0 1-.19 1.52l.172.75a.624.624 0 0 1 .64-.28.64.64 0 1 1-.244 1.26c-.08-.01-.124-.08-.19-.12l.22.95-2.22 5.6a.49.49 0 0 0-.76.42.493.493 0 0 0 .4.48l-.33.84a25.467 25.467 0 0 0-8.954-1.46h-.24a25.448 25.448 0 0 0-8.957 1.46l-.333-.85a.5.5 0 0 0-.162-.976.475.475 0 0 0-.2.05l-2.21-5.56.22-.94c-.06.04-.11.1-.19.12a.64.64 0 0 1-.25-1.26.616.616 0 0 1 .64.28l.177-.75a4.57 4.57 0 0 1-.18-1.528 3.725 3.725 0 0 1 .04-.98h-.39V15a.63.63 0 0 1-.61.543.64.64 0 0 1-.01-1.28zm2.47 5.458l.07-.43 1.87 4.36h-.37a3.643 3.643 0 0 0-.81-.93c-.63-.6-1-.1-1-.1l-.4-1.04c.33.27.63-.13.63-.13a3.512 3.512 0 0 0 0-1.7zm20.09-.43l.07.44a3.525 3.525 0 0 0 0 1.72s.3.4.63.14l-.4 1.04s-.37-.5-1 .1a3.753 3.753 0 0 0-.8.94H366l1.87-4.36zm-22.69-2.95a.63.63 0 0 1 .68.47l-.02-.12.41-.04.05.5-.41.05-.02-.18a.634.634 0 1 1-.7-.66zm-7.75 46.98a10.862 10.862 0 0 0 1.17-.07 43.51 43.51 0 0 0-.2 4.87c0 3.4 1 3.95 2.86 3.95 2.29 0 2.45-2.4 2.45-4.99 0-1.28-.05-2.54-.12-3.82a4.3 4.3 0 0 0 .73.08 4.1 4.1 0 0 0 .72-.07c-.09.82-.19 2.81-.19 5.22 0 3.23-1.45 4.56-4.22 4.56-2.45 0-4.35-1.04-4.35-3.66 0-1.5.02-2.25.02-3.25 0-1.47-.03-2.4-.06-2.86a11.01 11.01 0 0 0 1.17.07zm-5.16 16.87l.35-2.65.05-.36.05-.48h.13l.99 1.94c.36.68.73 1.35 1.12 2l.31-.56q.13-.23.26-.47l.96-1.77.28-.5.35-.62h.09l.35 3.19c.03.31.07.66.13 1.03s.08.67.11.88a3.012 3.012 0 0 0-.32-.02 2.108 2.108 0 0 0-.37.02l-.23-2.67-.14-1.09-1.03 1.89-.39.76-.22.47-.28.59h-.08l-.4-.82c-.12-.24-.26-.52-.42-.83s-.33-.63-.5-.96l-.57-1.09-.32 2.86-.04.74v.16h-.28a2.074 2.074 0 0 0-.23.01v-.07z"/>
  <path d="M351.35 77.6l-.8 1.88h1.614l-.814-1.88"/>
  <circle cx="357.868" cy="15.533" r=".508"/>
  <path d="M362.123 25.73l1.587.2a.583.583 0 1 0 .144-1.142l-1.585-.2a.58.58 0 1 0-.15 1.14z"/>
</svg>
