<svg id="7034f6c5-825e-4385-85de-cc9058418b92" data-name="Layer 1" xmlns="http://www.w3.org/2000/svg" viewBox="0 0 50.59 42.05">
  <title>wifi</title>
  <g>
    <path d="M25.3,20.79a15.68,15.68,0,0,0-11.47,5,1.25,1.25,0,1,0,1.83,1.7,13.13,13.13,0,0,1,19.28,0,1.25,1.25,0,1,0,1.83-1.7A15.68,15.68,0,0,0,25.3,20.79Z" style="fill: #000100"/>
    <path d="M25.3,10.59a24.63,24.63,0,0,0-18,7.88,1.25,1.25,0,0,0,1.84,1.7,22.06,22.06,0,0,1,32.38,0,1.25,1.25,0,0,0,1.84-1.7A24.63,24.63,0,0,0,25.3,10.59Z" style="fill: #000100"/>
    <path d="M50.26,10.92a34,34,0,0,0-49.93,0,1.25,1.25,0,1,0,1.83,1.7,31.51,31.51,0,0,1,46.26,0,1.25,1.25,0,1,0,1.83-1.7Z" style="fill: #000100"/>
    <path d="M25.3,30.79a5.63,5.63,0,1,0,5.63,5.63A5.64,5.64,0,0,0,25.3,30.79Zm0,8.76a3.13,3.13,0,1,1,3.13-3.13A3.14,3.14,0,0,1,25.3,39.55Z" style="fill: #000100"/>
  </g>
</svg>
