<svg xmlns="http://www.w3.org/2000/svg" width="20" height="20" viewBox="0 0 20 20"><title>Google Plus</title><path d="M1.99 5.59c0 1.492.5 2.57 1.482 3.204.805.52 1.74.597 2.226.597h.278s-.154 1.01.59 2h-.034c-1.29 0-5.494.27-5.494 3.73 0 3.52 3.862 3.7 4.636 3.7h.254c.497 0 1.782-.06 2.976-.64 1.548-.75 2.334-2.06 2.334-3.88 0-1.76-1.196-2.81-2.07-3.58-.533-.47-.994-.87-.994-1.27s.336-.7.762-1.08c.688-.61 1.338-1.49 1.338-3.15 0-1.46-.19-2.43-1.354-3.05.122-.06.55-.11.764-.14.63-.08 1.554-.18 1.554-.7v-.1H6.64c-.046 0-4.65.17-4.65 4.39zm7.423 9.01c.088 1.406-1.115 2.444-2.92 2.575-1.835.135-3.346-.69-3.434-2.097-.05-.675.25-1.336.83-1.863.59-.533 1.4-.862 2.28-.928.1-.007.2-.012.31-.012 1.69 0 2.84.998 2.93 2.324zm-1.2-9.976c.45 1.587-.23 3.246-1.316 3.552-.125.035-.254.053-.384.053-.995 0-1.98-1.01-2.345-2.39-.204-.78-.188-1.46.046-2.12.23-.65.643-1.08 1.163-1.23.125-.04.255-.06.385-.06 1.2 0 1.972.5 2.45 2.18zM15.96 8.08v-3h-1.9v3h-3v1.9h3v3h1.9v-3h3v-1.9h-3z"/></svg>