<svg xmlns="http://www.w3.org/2000/svg" version="1.1" x="0" y="0" viewBox="0 0 120 74.9" xml:space="preserve">
    <path d="M34.5 0c-3.5 0-6.3 2.8-6.3 6.3v13.3c0 1.5-1.2 2.6-2.6 2.6H6.3C2.8 22.2 0 25 0 28.5c0 1.7 0.7 3.3 1.9 4.4C0.7 34 0 35.6 0 37.4c0 1.7 0.7 3.3 1.9 4.4C0.7 42.9 0 44.5 0 46.2c0 1.7 0.7 3.3 1.9 4.4C0.7 51.8 0 53.4 0 55.1c0 3.5 2.8 6.3 6.3 6.3h17.4c9.4 0 17.1-7.7 17.1-17.1v-38C40.8 2.8 38 0 34.5 0zM17.3 57.8h-2.5H6.3c-1.5 0-2.6-1.2-2.6-2.6 0-1.5 1.2-2.6 2.6-2.6h11.1c1.5 0 2.6 1.2 2.6 2.6C20 56.6 18.8 57.8 17.3 57.8zM17.3 48.9H6.3c-1.5 0-2.6-1.2-2.6-2.6 0-1.5 1.2-2.6 2.6-2.6h11.1c1.5 0 2.6 1.2 2.6 2.6C20 47.7 18.8 48.9 17.3 48.9zM17.3 40H6.3c-1.5 0-2.6-1.2-2.6-2.6 0-1.5 1.2-2.6 2.6-2.6h11.1c1.5 0 2.6 1.2 2.6 2.6C20 38.8 18.8 40 17.3 40zM17.3 31.1H6.3c-1.5 0-2.6-1.2-2.6-2.6 0-1.5 1.2-2.6 2.6-2.6h11.1c1.5 0 2.6 1.2 2.6 2.6C20 29.9 18.8 31.1 17.3 31.1zM37.1 44.3c0 7.4-6.1 13.5-13.5 13.5H23c0.4-0.8 0.6-1.7 0.6-2.6 0-1.7-0.7-3.3-1.9-4.4 1.1-1.1 1.9-2.7 1.9-4.4 0-1.7-0.7-3.3-1.9-4.4 1.1-1.1 1.9-2.7 1.9-4.4 0-1.7-0.7-3.3-1.9-4.4 1.1-1.1 1.9-2.7 1.9-4.4 0-0.9-0.2-1.8-0.6-2.6h2.6c3.5 0 6.3-2.8 6.3-6.3V6.3c0-1.5 1.2-2.6 2.6-2.6 1.5 0 2.6 1.2 2.6 2.6V44.3zM51.7 38.3h-2.4v-9.5H52l1.8 3.1c0.6 1 1.1 2 1.6 3 -0.1-1.7-0.1-2.9-0.1-3.7v-2.4h2.4v9.5H55l-1.9-3.2c-0.4-0.7-0.9-1.7-1.5-2.8 0.1 1.3 0.1 2.4 0.1 3.1V38.3zM61.5 36.6h3.2l0.6 1.7h2.6l-3.4-9.5h-2.7l-3.4 9.5H61L61.5 36.6zM63.1 31.3l1.1 3.3h-2.1L63.1 31.3zM70.1 30.8h-2.7v-1.9h7.9v1.9h-2.7v7.6h-2.4V30.8zM78.7 38.3h-2.4v-9.5h2.4V38.3zM84.9 38.6c2.9 0 4.8-1.9 4.8-5 0-3.1-1.9-5-4.8-5 -2.9 0-4.8 1.9-4.8 5C80.1 36.7 81.9 38.6 84.9 38.6zM84.9 30.6c1.5 0 2.3 1 2.3 3 0 2-0.8 3-2.3 3 -1.5 0-2.3-1-2.3-3C82.6 31.6 83.4 30.6 84.9 30.6zM93.3 38.3H91v-9.5h2.6l1.8 3.1c0.6 1 1.1 2 1.6 3 -0.1-1.7-0.1-2.9-0.1-3.7v-2.4h2.4v9.5h-2.6l-1.9-3.2c-0.4-0.7-0.9-1.7-1.5-2.8 0.1 1.3 0.1 2.4 0.1 3.1V38.3zM103.1 36.6h3.2l0.6 1.7h2.6l-3.4-9.5h-2.7l-3.4 9.5h2.5L103.1 36.6zM104.7 31.3l1.1 3.3h-2.1L104.7 31.3zM117.4 38.3h-7v-9.5h2.4v7.4h4.6V38.3zM48.2 50.6c0-5.9 3.6-9.7 9.1-9.7 4.4 0 7.4 2.5 7.8 6.5h-4.4c-0.4-1.7-1.6-2.6-3.6-2.6 -2.5 0-4.2 2.1-4.2 5.8 0 3.6 1.6 5.6 4.1 5.6 2.1 0 3.4-1 3.7-3h4.3c-0.6 4.4-3.6 6.9-8 6.9C51.8 60.1 48.2 56.3 48.2 50.6zM65.9 50.5c0 5.9 3.5 9.6 9.1 9.6 5.6 0 9.1-3.7 9.1-9.6S80.6 41 75 41C69.4 41 65.9 44.6 65.9 50.5zM79.4 50.5c0 3.7-1.6 5.7-4.4 5.7 -2.8 0-4.4-2-4.4-5.7 0-3.7 1.6-5.7 4.4-5.7C77.8 44.8 79.4 46.8 79.4 50.5zM85.9 41.4v18.1H93c6 0 8.9-3 8.9-9.1 0-5.8-2.9-9.1-8.3-9.1H85.9zM97.2 50.5c0 3.6-1.3 5.2-4.2 5.2h-2.5V45.3h2.5C95.9 45.3 97.2 46.9 97.2 50.5zM108.3 45.1v3.2h8.3V52h-8.3v3.9h9.4v3.7h-14.1V41.4h13.8v3.7H108.3zM2.1 70.6c-0.2 0.9-0.9 2.1-0.5 2.9 1.6-0.7 2.8-2.4 4.2-3.4 -0.2 1.2-0.5 2.5-0.5 3.9 0.2 0.3 0.5 0.5 1 0.4 0.4-0.3 1.3-0.8 1.1-1.4 -0.6 0-0.7 0.6-1.3 0.5 -0.3-1.4 0.3-2.6 0.7-3.8 0-0.6 1-0.6 0.7-1.4C5.7 67.4 3.1 68.6 2.1 70.6zM2.2 72.3c0.2-1.1 1-2.3 2-3 0.5-0.2 1.6-0.9 1.7-0.2C4.8 70.1 3.6 71.4 2.2 72.3zM9.2 74.6c-0.7 0.3-1.2-0.4-1.6-0.5 0.1-0.1-0.3-0.6 0.2-0.6 0 0.4 0.5 0.6 0.8 0.7 1.9-0.8 0.1-2.8 0.6-4.5 0.1-0.7 0.2-1.5 1-1.7 0.3 0.1 0.8-0.2 0.9 0.2 0 0.6-1.1 0.2-1.3 1C9.1 71 11.3 73.4 9.2 74.6zM14.4 68.2c0 0.6-1.1 0.2-1.3 1 -0.7 1.9 1.5 4.3-0.6 5.5 -0.7 0.3-1.2-0.4-1.6-0.5 0.1-0.1-0.3-0.6 0.2-0.6 0 0.4 0.5 0.6 0.8 0.7 1.9-0.8 0.1-2.8 0.6-4.5 0.1-0.7 0.2-1.5 1-1.7C13.8 68.1 14.3 67.8 14.4 68.2zM24.4 69.6c-2.1 0.8-1.6 3-2.6 4.3 -0.1-0.2-0.3 0-0.4-0.1 -0.1-0.4-0.2-0.8-0.1-1.2 -0.2 0.2-0.6 0.3-0.8 0.4 -0.7 0.5-1.4-0.2-1.5-0.8 -0.2-0.7 0-1.6-0.1-2.1 -1.3 1.1-2.2 2.5-3.5 3.4 -0.8 0.2-0.6-0.6-0.6-1.1 0.2-1.2-0.1-3.4 1.1-3.8 -0.3 1-0.3 2.5-0.5 3.8 1.6-1 3.3-2.6 4.2-4.3 0.1-0.1 0.1 0.2 0.3 0.1 0 1.4-0.9 2.9-0.1 4.3 0.7 0.4 1.1-0.2 1.6-0.4 0.4-1.3 1.5-2.4 0.7-4.1 1.1-0.1 0.4 1.2 0.8 1.8 0.8-0.2 1.6-1.3 2.7-0.8 0.3 0.3 0.4 0.7 0.3 1.2C25.1 70.4 25.4 68.7 24.4 69.6zM30 68.7c0.2-0.2 0.2-0.6 0-0.8 -2.8-0.7-2.4 3.5-4.8 3.5 0 0.7 0.8 0.3 1.1 0.4 0 1-0.6 2.2 0.4 3 1.8 0.4 2.7-1.7 3.6-2.9 -1 0.8-1.9 2-3.1 2.4C25.2 71.2 29.7 71.3 30 68.7zM27.9 69.9c0.5-0.5 0.7-1.2 1.5-1.2 -0.2 0.5-0.6 1-1 1.3C28.2 70.6 27.2 70.5 27.9 69.9zM34.4 73.2c-0.9-0.1 0-1.5 0-2.2 1.3-1.5 0.9-3.5 1.8-5.2 0.1-0.3 0.3-1.3-0.4-1 -0.4 1.4-0.6 2.8-1.2 4 -0.9 0.1-1.9 0.2-2.6 0.8 -1 1.1-2 3-1.4 4.5 1-0.5 1.8-2 3.1-2.9 -0.1 1-0.2 1.8-0.3 3 1.7-0.1 3.4-1.9 4.4-3.5C36.5 71 35.8 72.7 34.4 73.2zM33.7 70.3c-0.8 0.3-3.3 4.2-2.2 1.1 0.3-0.7 1.1-1.7 1.9-1.8C34.3 69.3 34.1 69.9 33.7 70.3zM42.1 70.6c-0.2 0.9-0.9 2.1-0.5 2.9 1.6-0.7 2.8-2.4 4.2-3.4 -0.2 1.2-0.5 2.5-0.5 3.9 0.2 0.3 0.5 0.5 1 0.4 0.4-0.3 1.3-0.8 1.1-1.4 -0.6 0-0.7 0.6-1.3 0.5 -0.3-1.4 0.3-2.6 0.7-3.8 0-0.6 1-0.6 0.7-1.4C45.7 67.4 43.1 68.6 42.1 70.6zM42.2 72.3c0.2-1.1 1-2.3 2-3 0.5-0.2 1.6-0.9 1.7-0.2C44.8 70.1 43.6 71.4 42.2 72.3zM52.7 70.9c0 1.2-1.7 1.8-2.6 2.6 -0.8 0.2-1.7 0.8-2.5 0.3 0.6-2 0.9-4.5 3.2-5.5 0.6-0.1 1.3 0.1 1.5 0.8 0 1.7-0.4-0.4-1.1-0.2 -1.8 0.6-2.5 2.6-2.9 4.3C50 73.2 51.5 72 52.7 70.9zM53.4 73.2c1.6 0 3-1.1 4.3-2.3 0 1.2-1.7 1.8-2.6 2.6 -0.8 0.2-1.7 0.8-2.5 0.3 0.6-2 0.9-4.5 3.2-5.5 0.6-0.1 1.3 0.1 1.5 0.8 0 1.7-0.4-0.4-1.1-0.2C54.5 69.5 53.8 71.5 53.4 73.2zM62.7 68.8c-1.4 0.4-2.3 0.2-3.5-0.4 -1.3 1.1-1.1 2.7-1 4.4 0.2 0.8 0.6 1.9 1.6 1.4 1-1.4 0.9-3 0.8-4.7C61.3 69.6 62.1 69.7 62.7 68.8zM59.3 73.7c-0.6-1.2-0.6-3.2 0-4.4 0.9 0 0.7 1 0.8 1.5C60.4 72 60 72.9 59.3 73.7zM86.9 68.8c-1.4 0.4-2.3 0.2-3.5-0.4 -1.1 0.9-1.1 2.2-1.1 3.6 -0.3 0.3-0.8 0.6-1.2 0.7 -1.1-1.2-0.4-3-1.4-4.3 -1.3 0.3-2 1.7-2.9 2.6 -0.1-0.5 0.1-1.1 0.2-1.6C77 68.9 77 68 76.3 68.1c-1 0.8-2.2 2.3-2.9 3.1 0.2-1.1 0.5-2.3 0.6-3.4 -0.1-0.2-0.1-0.8-0.6-0.4 0 1.4-0.4 2.7-0.7 4 0 0 0 0 0 0 -0.2 0.6-0.9 1.1-1.5 1.3 -1.1-1.2-0.4-3-1.4-4.3 -1.3 0.3-2 1.7-2.9 2.6 -0.1-0.5 0.1-1.1 0.2-1.6 -0.1-0.5-0.1-1.3-0.8-1.3 -1 0.8-2.2 2.3-2.9 3.1 0.2-1.1 0.5-2.3 0.6-3.4 -0.1-0.2-0.1-0.8-0.6-0.4 0 2-0.7 3.7-1.1 5.6 -0.1 0.3-0.4 1.5 0.5 1.1 0.8-2 1.7-3.9 3.5-5.3 0.4 1.7-0.6 3.5-0.9 5 1.1-0.1 1.2-1.5 1.8-2.3 0.8-0.8 1.3-2.1 2.4-2.5 0.4 1.5 0.2 2.9 1.3 4.1 0.6 0.1 1-0.2 1.4-0.6 0.1-0.1 0.2-0.3 0.3-0.4 -0.1 0.3-0.1 0.6-0.2 0.9 -0.1 0.3-0.4 1.5 0.5 1.1 0.8-2 1.7-3.9 3.5-5.3 0.4 1.7-0.6 3.5-0.9 5 1.1-0.1 1.2-1.5 1.8-2.3 0.8-0.8 1.3-2.1 2.4-2.5 0.4 1.5 0.2 2.9 1.3 4.1 0.6 0.1 1-0.2 1.4-0.6 0-0.1 0.1-0.1 0.1-0.2 0 0.1 0 0.2 0 0.4 0.2 0.8 0.6 1.9 1.6 1.4 1-1.4 0.9-3 0.8-4.7C85.5 69.6 86.2 69.7 86.9 68.8zM83.5 73.7c-0.6-1.2-0.6-3.2 0-4.4 0.9 0 0.7 1 0.8 1.5C84.5 72 84.1 72.9 83.5 73.7zM93.2 70.6c0 0.1 0 0.2-0.1 0.2 -1.1 0.4-1.8 2-3.2 2.4 -0.9-0.1 0-1.5 0-2.2 1.3-1.5 0.9-3.5 1.8-5.2 0.1-0.3 0.3-1.3-0.4-1 -0.4 1.4-0.6 2.8-1.2 4 -0.9 0.1-1.9 0.2-2.6 0.8 -1 1.1-2 3-1.4 4.5 1-0.5 1.8-2 3.1-2.9 -0.1 1-0.2 1.8-0.3 3 1.6-0.1 3.1-1.6 4.1-3 -0.3 0.8-0.7 1.7-0.3 2.3 1.6-0.7 2.8-2.4 4.2-3.4 -0.2 1.2-0.5 2.5-0.5 3.9 0.2 0.3 0.5 0.5 1 0.4 0.4-0.3 1.3-0.8 1.1-1.4 -0.6 0-0.7 0.6-1.3 0.5 -0.3-1.4 0.3-2.6 0.7-3.8 0-0.6 1-0.6 0.7-1.4C96.8 67.4 94.2 68.6 93.2 70.6zM89.2 70.3c-0.8 0.3-3.3 4.2-2.2 1.1 0.3-0.7 1.1-1.7 1.9-1.8C89.9 69.3 89.7 69.9 89.2 70.3zM93.3 72.3c0.2-1.1 1-2.3 2-3 0.5-0.2 1.6-0.9 1.7-0.2C95.9 70.1 94.7 71.4 93.3 72.3zM101.3 74c0.3 0.4-0.1 0.9-0.5 0.8 -0.6 0-0.8-0.8-0.9-1.4 0.1-1-0.2-2.4 0.4-3.4 -0.6-0.6-1.5 0.9-1.5-0.4 2.1 0.5 1.8-2 3.3-2.4 0.3 0.2-0.1 0.4-0.1 0.6 -0.4 0.3-0.6 0.7-0.6 1.2 1.2 0.1 2.5 0 3.8-0.4 0.2 0.1 0 0.4 0 0.5 -1.3 0.4-2.7 0.6-4.1 0.7 -0.5 1.4-0.8 2.9-0.1 4.3C101.1 74.2 100.9 73.8 101.3 74zM107.9 64.9c0.1 0.3-0.1 0.4-0.2 0.7 0-0.3-0.7-0.6-0.4-1C107.7 64.5 107.7 64.8 107.9 64.9zM113.2 68.8c-1.4 0.4-2.3 0.2-3.5-0.4 -0.9 0.8-1.1 1.8-1.1 3 -1 0.8-1.5 2.2-2.8 2.7 -1-1.4-0.1-3.3 0.4-4.8 0-0.3 0.5-1.5-0.4-1.2 -0.3 2.1-1.8 4.3-0.7 6.5 1.9 0.3 2.7-1.4 3.5-2.8 0 0.4 0.1 0.8 0.1 1.1 0.2 0.8 0.6 1.9 1.6 1.4 1-1.4 0.9-3 0.8-4.7C111.8 69.6 112.6 69.7 113.2 68.8zM109.8 73.7c-0.6-1.2-0.6-3.2 0-4.4 0.9 0 0.7 1 0.8 1.5C110.9 72 110.5 72.9 109.8 73.7zM120 71.2c-0.3 0.8-1 2.1-1.9 2.6 -0.6 0.3-1.5 0-1.5-0.8 -0.2-1.4 0-2.3-0.2-3.5 -1.7 1.2-2.8 3-3.5 4.7 -0.2-0.1-0.4 0-0.5-0.2 0.7-1.9 0.8-4.2 1.6-5.9 0.1 0.2 0.3 0 0.3 0.2 -0.1 0.5-0.2 0.9-0.2 1.1 -0.1 0.6-0.3 1.3-0.4 1.9 0.1 0.3 0.2-0.1 0.3 0 0.6-1.2 1.7-2.2 2.9-2.6 0.8 1.4-0.3 3.1 0.5 4.4C118.3 73.2 119.3 71.9 120 71.2zM114 69.5c0.1-0.4 0.1-0.7 0.2-1.1C114 69.4 113.9 69.6 114 69.5z"/>
</svg>
