<svg xmlns="http://www.w3.org/2000/svg" width="20" height="20" viewBox="0 0 20 20"><title>Twitter</title><path d="M19.2 4.293c-.678.3-1.405.503-2.17.595.78-.467 1.38-1.207 1.66-2.088-.728.432-1.536.747-2.395.916-.69-.734-1.67-1.192-2.756-1.192-2.09 0-3.78 1.69-3.78 3.774 0 .296.03.584.1.86C6.72 7 3.94 5.498 2.08 3.214c-.325.557-.512 1.206-.512 1.898 0 1.31.666 2.465 1.68 3.142-.62-.02-1.202-.19-1.71-.472v.047c0 1.82 1.3 3.35 3.027 3.7-.316.08-.65.13-.995.13-.243 0-.48-.03-.71-.07.48 1.5 1.875 2.59 3.526 2.62-1.292 1.01-2.92 1.61-4.688 1.61-.305 0-.605-.02-.9-.06 1.67 1.07 3.654 1.69 5.787 1.69 6.943 0 10.74-5.76 10.74-10.74 0-.17-.003-.33-.01-.49.737-.53 1.376-1.2 1.883-1.96z"/></svg>