<?xml version="1.0" encoding="utf-8"?>
<!-- Generator: Adobe Illustrator 16.0.0, SVG Export Plug-In . SVG Version: 6.00 Build 0)  -->
<!DOCTYPE svg PUBLIC "-//W3C//DTD SVG 1.1//EN" "http://www.w3.org/Graphics/SVG/1.1/DTD/svg11.dtd">
<svg version="1.1" id="Layer_1" xmlns="http://www.w3.org/2000/svg" xmlns:xlink="http://www.w3.org/1999/xlink" x="0px" y="0px"
	 width="19.472px" height="15.829px" viewBox="0 0 19.472 15.829" enable-background="new 0 0 19.472 15.829" xml:space="preserve">
<path d="M17.481,3.943c0.007,0.172,0.007,0.348,0.007,0.515c0,5.282-4.016,11.371-11.364,11.371
	c-2.256,0-4.356-0.66-6.124-1.797c0.312,0.038,0.625,0.057,0.949,0.057c1.877,0,3.597-0.639,4.966-1.71
	c-1.751-0.033-3.226-1.191-3.735-2.776c0.246,0.047,0.491,0.071,0.754,0.071c0.359,0,0.721-0.051,1.052-0.141
	C2.156,9.166,0.787,7.549,0.787,5.615c0-0.017,0-0.037,0-0.051c0.529,0.305,1.147,0.48,1.8,0.499
	C1.521,5.349,0.815,4.129,0.815,2.738c0-0.731,0.198-1.42,0.54-2.007C3.322,3.148,6.27,4.739,9.59,4.906
	c-0.072-0.292-0.105-0.6-0.105-0.911C9.484,1.791,11.275,0,13.48,0c1.15,0,2.188,0.483,2.915,1.26
	c0.915-0.178,1.767-0.512,2.544-0.969c-0.303,0.936-0.937,1.716-1.762,2.213c0.811-0.096,1.58-0.313,2.294-0.631
	C18.939,2.674,18.262,3.378,17.481,3.943z"/>
</svg>
