<svg xmlns="http://www.w3.org/2000/svg" width="25.583" height="22.075" viewBox="0 0 25.583 22.075"><title>Vimeo</title><path d="M25.57 5.104c-.113 2.486-1.854 5.888-5.215 10.203-3.48 4.514-6.424 6.768-8.83 6.768-1.492 0-2.754-1.373-3.785-4.125l-2.064-7.568C4.91 7.628 4.09 6.252 3.21 6.252c-.192 0-.858.4-2.007 1.205L0 5.907C1.262 4.8 2.503 3.69 3.73 2.584 5.407 1.13 6.67.37 7.51.29c1.985-.193 3.21 1.165 3.67 4.068.494 3.136.84 5.086 1.03 5.85.575 2.6 1.204 3.896 1.894 3.896.533 0 1.336-.838 2.406-2.52 1.07-1.683 1.643-2.962 1.72-3.843.154-1.45-.42-2.17-1.72-2.17-.61 0-1.242.13-1.892.4 1.262-4.09 3.67-6.08 7.226-5.96 2.636.08 3.877 1.78 3.724 5.1z"/></svg>