<svg id="Host_Logo" data-name="Host Logo" xmlns="http://www.w3.org/2000/svg" viewBox="0 0 787.95 500.96"><title>Host Logo</title><path class="cls-1" d="M239.75,301.47V236.53H174.57v64.95H138.18V138.18h36.39v64h65.18v-64h36.62V301.47Z"/><path class="cls-1" d="M407.38,241.1c0,35.47-26.49,60.8-60.8,60.8-34.09,0-60.8-25.33-60.8-60.8s26.72-60.57,60.8-60.57C380.89,180.53,407.38,205.63,407.38,241.1Zm-35,0c0-19.35-12.44-28.33-25.79-28.33-13.13,0-25.8,9-25.8,28.33,0,19.12,12.67,28.56,25.8,28.56C359.93,269.66,372.37,260.45,372.37,241.1Z"/><path class="cls-1" d="M441.18,260.68c.46,7.83,6,15.43,18,15.43,9,0,13.36-4.84,13.36-9.9,0-4.15-2.76-7.6-11.29-9.44l-13.13-3c-24.41-5.3-34.09-19.12-34.09-35.24,0-21,18.43-38,44-38,33.16,0,44.68,20.73,45.83,34.09l-29,5.3c-.92-7.6-5.76-14-16.35-14-6.68,0-12.44,3.92-12.44,9.9,0,4.84,3.91,7.6,9,8.52l15.2,3c23.72,4.84,35.24,19.12,35.24,35.93,0,19.58-15,38.69-45.6,38.69-35.93,0-47.44-23.26-48.36-35.93Z"/><path class="cls-1" d="M568.28,184h22.34v30.63H568.28v42.84c0,9.44,5.07,12,12.67,12a43.13,43.13,0,0,0,9.21-1.15v29c-1.38.69-7.14,3.22-18.19,3.22-23.72,0-38.23-14-38.23-36.85V214.62H513.47V184h5.76c12,0,17.73-8.06,17.73-18.65V150.59h31.32Z"/><path class="cls-1" d="M626,253.31a23.79,23.79,0,0,1,23.72,23.49A24.14,24.14,0,0,1,626,300.52c-12.9,0-23.49-11.06-23.49-23.72A23.59,23.59,0,0,1,626,253.31Z"/><path class="cls-1" d="M171.07,336.11h3.8l-7.6,26.66h-3.8l-7-21.62-6.88,21.62H146l-7.71-26.66H142L147.91,357l6.69-20.87h3.87l6.84,21.1Z"/><path class="cls-1" d="M180.6,362.77h-3.53V335.55h3.53v11.24a6.4,6.4,0,0,1,5.49-2.63c4.32,0,6.47,3.12,6.47,7.14v11.47H189V351.9c0-2.52-1.05-4.55-4.21-4.55-2.71,0-4.14,2.11-4.21,4.78Z"/><path class="cls-1" d="M212.5,357.62a8.2,8.2,0,0,1-8.12,5.72c-4.85,0-9.1-3.54-9.1-9.66,0-5.68,4.1-9.55,8.65-9.55,5.57,0,8.69,3.84,8.69,9.48a7.9,7.9,0,0,1-.08,1.13H198.92a5.37,5.37,0,0,0,5.45,5.49,4.93,4.93,0,0,0,5.08-3.65Zm-3.57-5.75a4.56,4.56,0,0,0-5-4.63,4.87,4.87,0,0,0-4.93,4.63Z"/><path class="cls-1" d="M225.71,348.26a11,11,0,0,0-1.54-.11c-3,0-5,1.58-5,5.57v9.06h-3.53V344.68h3.46v3.16a5.66,5.66,0,0,1,5.41-3.46,6.62,6.62,0,0,1,1.17.11Z"/><path class="cls-1" d="M243.78,357.62a8.2,8.2,0,0,1-8.12,5.72c-4.85,0-9.1-3.54-9.1-9.66,0-5.68,4.1-9.55,8.65-9.55,5.57,0,8.69,3.84,8.69,9.48a7.9,7.9,0,0,1-.08,1.13H230.2a5.37,5.37,0,0,0,5.45,5.49,4.93,4.93,0,0,0,5.08-3.65Zm-3.57-5.75a4.56,4.56,0,0,0-5-4.63,4.87,4.87,0,0,0-4.93,4.63Z"/><path class="cls-1" d="M257.43,356.94c.23,1.88,1.65,3.38,4.21,3.38,2,0,3.08-1.13,3.08-2.41s-.83-2-2.33-2.33l-3.08-.68c-2.82-.6-4.51-2.52-4.51-5.08,0-3.08,2.9-5.72,6.43-5.72,5,0,6.51,3.23,6.88,4.85L265,350.14a3.51,3.51,0,0,0-3.76-3c-1.8,0-3,1.17-3,2.41,0,1.09.68,1.88,2.07,2.18l2.93.64c3.27.71,5,2.71,5,5.38s-2.14,5.6-6.62,5.6c-5,0-7.07-3.2-7.37-5.26Z"/><path class="cls-1" d="M276.61,344.68h3.91v3.2h-3.91v9.4c0,1.65.68,2.48,2.52,2.48a7.14,7.14,0,0,0,1.39-.15v3a7.72,7.72,0,0,1-2.41.34c-3.08,0-5-1.88-5-5.15v-9.93h-3.46v-3.2h1a2.53,2.53,0,0,0,2.78-2.78V339h3.23Z"/><path class="cls-1" d="M289.76,363.34c-4.21,0-6.77-3.16-6.77-7.26V344.68h3.53v10.87c0,2.48,1.13,4.66,4.1,4.66s4.29-1.88,4.29-4.63v-10.9h3.53v14.74a30.39,30.39,0,0,0,.19,3.35h-3.38a16.08,16.08,0,0,1-.15-2.18C294.12,362.47,291.87,363.34,289.76,363.34Z"/><path class="cls-1" d="M315.53,360a6.05,6.05,0,0,1-5.6,3.23c-5.3,0-8.57-4.21-8.57-9.59,0-5.11,3.46-9.48,8.57-9.48,3.2,0,4.93,1.58,5.53,3V335.55H319v23.88a28.65,28.65,0,0,0,.19,3.35h-3.42a15.19,15.19,0,0,1-.19-2.44Zm-5.26.11c3.23,0,5.23-2.82,5.23-6.54s-2-6.28-5.19-6.28-5.34,2.63-5.34,6.35S306.88,360.14,310.27,360.14Z"/><path class="cls-1" d="M339.1,357.62a8.2,8.2,0,0,1-8.12,5.72c-4.85,0-9.1-3.54-9.1-9.66,0-5.68,4.1-9.55,8.65-9.55,5.57,0,8.69,3.84,8.69,9.48a7.9,7.9,0,0,1-.08,1.13H325.52a5.37,5.37,0,0,0,5.45,5.49,4.93,4.93,0,0,0,5.08-3.65Zm-3.57-5.75a4.56,4.56,0,0,0-5-4.63,4.87,4.87,0,0,0-4.93,4.63Z"/><path class="cls-1" d="M345.81,362.77h-3.53V344.68h3.46v2.59a6.2,6.2,0,0,1,5.57-3.12c4.32,0,6.47,3.12,6.47,7.14v11.47h-3.53V351.9c0-2.52-1.05-4.55-4.21-4.55-2.78,0-4.21,2.22-4.21,5Z"/><path class="cls-1" d="M366.52,344.68h3.91v3.2h-3.91v9.4c0,1.65.68,2.48,2.52,2.48a7.14,7.14,0,0,0,1.39-.15v3A7.72,7.72,0,0,1,368,363c-3.08,0-5-1.88-5-5.15v-9.93h-3.46v-3.2h1a2.53,2.53,0,0,0,2.78-2.78V339h3.23Z"/><path class="cls-1" d="M375.27,356.94c.23,1.88,1.65,3.38,4.21,3.38,2,0,3.08-1.13,3.08-2.41s-.83-2-2.33-2.33l-3.08-.68c-2.82-.6-4.51-2.52-4.51-5.08,0-3.08,2.9-5.72,6.43-5.72,5,0,6.51,3.23,6.88,4.85l-3.12,1.17a3.51,3.51,0,0,0-3.76-3c-1.8,0-3,1.17-3,2.41,0,1.09.68,1.88,2.07,2.18l2.93.64c3.27.71,5,2.71,5,5.38s-2.14,5.6-6.62,5.6c-5,0-7.07-3.2-7.37-5.26Z"/><path class="cls-1" d="M402.65,352.43l4.89-.71c1.09-.15,1.39-.71,1.39-1.35,0-1.77-1.17-3.23-3.91-3.23a3.84,3.84,0,0,0-4.1,3.65l-3.38-.79c.38-3.46,3.5-5.87,7.41-5.87,5.41,0,7.52,3.08,7.52,6.62v9.06a17,17,0,0,0,.23,3h-3.46a13.21,13.21,0,0,1-.19-2.44,6.6,6.6,0,0,1-5.83,3c-3.69,0-6.05-2.56-6.05-5.41C397.16,354.69,399.53,352.88,402.65,352.43Zm6.28,2.59v-.83l-5.53.83a2.7,2.7,0,0,0-2.63,2.71,2.74,2.74,0,0,0,2.93,2.63C406.6,360.36,408.93,359,408.93,355Z"/><path class="cls-1" d="M426.37,348.26a11,11,0,0,0-1.54-.11c-3,0-5,1.58-5,5.57v9.06h-3.53V344.68h3.46v3.16a5.66,5.66,0,0,1,5.41-3.46,6.62,6.62,0,0,1,1.17.11Z"/><path class="cls-1" d="M444.44,357.62a8.2,8.2,0,0,1-8.12,5.72c-4.85,0-9.1-3.54-9.1-9.66,0-5.68,4.1-9.55,8.65-9.55,5.57,0,8.69,3.84,8.69,9.48a7.9,7.9,0,0,1-.08,1.13H430.87a5.37,5.37,0,0,0,5.45,5.49,4.93,4.93,0,0,0,5.08-3.65Zm-3.57-5.75a4.56,4.56,0,0,0-5-4.63,4.87,4.87,0,0,0-4.93,4.63Z"/><path class="cls-1" d="M461,352.43l4.89-.71c1.09-.15,1.39-.71,1.39-1.35,0-1.77-1.17-3.23-3.91-3.23a3.84,3.84,0,0,0-4.1,3.65l-3.38-.79c.38-3.46,3.5-5.87,7.41-5.87,5.41,0,7.52,3.08,7.52,6.62v9.06a17,17,0,0,0,.23,3h-3.46a13.21,13.21,0,0,1-.19-2.44,6.6,6.6,0,0,1-5.83,3c-3.69,0-6.05-2.56-6.05-5.41C455.46,354.69,457.83,352.88,461,352.43Zm6.28,2.59v-.83l-5.53.83a2.7,2.7,0,0,0-2.63,2.71,2.74,2.74,0,0,0,2.93,2.63C464.9,360.36,467.23,359,467.23,355Z"/><path class="cls-1" d="M479.49,344.68h3.91v3.2h-3.91v9.4c0,1.65.68,2.48,2.52,2.48a7.14,7.14,0,0,0,1.39-.15v3A7.72,7.72,0,0,1,481,363c-3.08,0-5-1.88-5-5.15v-9.93H472.5v-3.2h1a2.53,2.53,0,0,0,2.78-2.78V339h3.23Z"/><path class="cls-1" d="M499.16,362.77h-3.53V335.55h3.53v11.24a6.4,6.4,0,0,1,5.49-2.63c4.32,0,6.47,3.12,6.47,7.14v11.47h-3.54V351.9c0-2.52-1.05-4.55-4.21-4.55-2.71,0-4.14,2.11-4.21,4.78Z"/><path class="cls-1" d="M532.32,353.71c0,5.53-3.84,9.63-9.25,9.63s-9.25-4.1-9.25-9.63,3.84-9.59,9.25-9.59S532.32,348.22,532.32,353.71Zm-3.61,0c0-4.17-2.63-6.43-5.64-6.43s-5.64,2.26-5.64,6.43,2.63,6.47,5.64,6.47S528.71,357.92,528.71,353.71Z"/><path class="cls-1" d="M535.26,362.77V344.68h3.38v2.41a6.24,6.24,0,0,1,5.49-2.93,5.65,5.65,0,0,1,5.41,3.42,6.49,6.49,0,0,1,6.05-3.42c3.16,0,6.24,2.14,6.24,6.88v11.73h-3.5V351.42c0-2.37-1.17-4.14-3.84-4.14-2.48,0-4.17,2-4.17,4.55v10.94h-3.53V351.42c0-2.33-1.13-4.14-3.84-4.14-2.52,0-4.21,1.88-4.21,4.59v10.91Z"/><path class="cls-1" d="M581.83,357.62a8.2,8.2,0,0,1-8.12,5.72c-4.85,0-9.1-3.54-9.1-9.66,0-5.68,4.1-9.55,8.65-9.55,5.57,0,8.69,3.84,8.69,9.48a7.9,7.9,0,0,1-.08,1.13H568.26a5.37,5.37,0,0,0,5.45,5.49,4.93,4.93,0,0,0,5.08-3.65Zm-3.57-5.75a4.56,4.56,0,0,0-5-4.63,4.87,4.87,0,0,0-4.93,4.63Z"/><path class="cls-1" d="M586.83,357.73a2.62,2.62,0,0,1,2.63,2.63,2.58,2.58,0,0,1-2.63,2.59,2.55,2.55,0,0,1-2.59-2.59A2.58,2.58,0,0,1,586.83,357.73Z"/></svg>