<svg id="c6334b33-cfd6-4b36-8df0-356b4974a2d7" data-name="Host Logo" xmlns="http://www.w3.org/2000/svg" viewBox="0 0 511.54 225.2">
  <title>Artboard 1</title>
  <path d="M101.57,163.29V98.35H36.39V163.3H0V0H36.39V64h65.18V0h36.62V163.29Z" style="fill: #d50e3c"/>
  <path d="M269.2,102.92c0,35.47-26.49,60.8-60.8,60.8-34.09,0-60.8-25.33-60.8-60.8s26.72-60.57,60.8-60.57C242.71,42.35,269.2,67.45,269.2,102.92Zm-35,0c0-19.35-12.44-28.33-25.79-28.33-13.13,0-25.8,9-25.8,28.33,0,19.12,12.67,28.56,25.8,28.56,13.34,0,25.78-9.21,25.78-28.56Z" style="fill: #d50e3c"/>
  <path d="M303,122.5c.46,7.83,6,15.43,18,15.43,9,0,13.36-4.84,13.36-9.9,0-4.15-2.76-7.6-11.29-9.44l-13.13-3c-24.41-5.3-34.09-19.12-34.09-35.24,0-21,18.43-38,44-38,33.16,0,44.68,20.73,45.83,34.09l-29,5.3c-.92-7.6-5.76-14-16.35-14-6.68,0-12.44,3.92-12.44,9.9,0,4.84,3.91,7.6,9,8.52l15.2,3c23.72,4.84,35.24,19.12,35.24,35.93,0,19.58-15,38.69-45.6,38.69-35.93,0-47.44-23.26-48.36-35.93Z" style="fill: #d50e3c"/>
  <path d="M430.1,45.82h22.34V76.45H430.1v42.84c0,9.44,5.07,12,12.67,12a43.13,43.13,0,0,0,9.21-1.15v29c-1.38.69-7.14,3.22-18.19,3.22-23.72,0-38.23-14-38.23-36.85V76.44H375.29V45.82H381c12,0,17.73-8.06,17.73-18.65V12.41H430.1Z" style="fill: #d50e3c"/>
  <path d="M487.82,115.13a23.79,23.79,0,0,1,23.72,23.49,24.14,24.14,0,0,1-23.72,23.72c-12.9,0-23.49-11.06-23.49-23.72A23.59,23.59,0,0,1,487.82,115.13Z" style="fill: #d50e3c"/>
  <path d="M32.89,197.93h3.8l-7.6,26.66h-3.8l-7-21.62-6.88,21.62H7.82L.11,197.93H3.82l5.91,20.89L16.42,198h3.87l6.84,21.1Z" style="fill: #d50e3c"/>
  <path d="M42.42,224.59H38.89V197.37h3.53v11.24A6.4,6.4,0,0,1,47.91,206c4.32,0,6.47,3.12,6.47,7.14v11.47H50.82V213.72c0-2.52-1.05-4.55-4.21-4.55-2.71,0-4.14,2.11-4.21,4.78Z" style="fill: #d50e3c"/>
  <path d="M74.32,219.44a8.2,8.2,0,0,1-8.12,5.72c-4.85,0-9.1-3.54-9.1-9.66,0-5.68,4.1-9.55,8.65-9.55,5.57,0,8.69,3.84,8.69,9.48a7.9,7.9,0,0,1-.08,1.13H60.74A5.37,5.37,0,0,0,66,222h.2a4.93,4.93,0,0,0,5.08-3.65Zm-3.57-5.75a4.56,4.56,0,0,0-5-4.63,4.87,4.87,0,0,0-4.93,4.63Z" style="fill: #d50e3c"/>
  <path d="M87.53,210.08A11,11,0,0,0,86,210c-3,0-5,1.58-5,5.57v9.06H77.46V206.5h3.46v3.16a5.66,5.66,0,0,1,5.41-3.46,6.62,6.62,0,0,1,1.17.11Z" style="fill: #d50e3c"/>
  <path d="M105.6,219.44a8.2,8.2,0,0,1-8.12,5.72c-4.85,0-9.1-3.54-9.1-9.66,0-5.68,4.1-9.55,8.65-9.55,5.57,0,8.69,3.84,8.69,9.48a7.9,7.9,0,0,1-.08,1.13H92A5.37,5.37,0,0,0,97.27,222h.2a4.93,4.93,0,0,0,5.08-3.65ZM102,213.69a4.56,4.56,0,0,0-5-4.63,4.87,4.87,0,0,0-4.93,4.63Z" style="fill: #d50e3c"/>
  <path d="M119.25,218.76c.23,1.88,1.65,3.38,4.21,3.38,2,0,3.08-1.13,3.08-2.41s-.83-2-2.33-2.33l-3.08-.68c-2.82-.6-4.51-2.52-4.51-5.08,0-3.08,2.9-5.72,6.43-5.72,5,0,6.51,3.23,6.88,4.85L126.82,212a3.51,3.51,0,0,0-3.76-3c-1.8,0-3,1.17-3,2.41s.68,1.88,2.07,2.18l2.93.64c3.27.71,5,2.71,5,5.38s-2.14,5.6-6.62,5.6c-5,0-7.07-3.2-7.37-5.26Z" style="fill: #d50e3c"/>
  <path d="M138.43,206.5h3.91v3.2h-3.91v9.4c0,1.65.68,2.48,2.52,2.48a7.14,7.14,0,0,0,1.39-.15v3a7.72,7.72,0,0,1-2.41.34c-3.08,0-5-1.88-5-5.15v-9.93h-3.46v-3.2h1a2.53,2.53,0,0,0,2.78-2.78v-2.89h3.23Z" style="fill: #d50e3c"/>
  <path d="M151.58,225.16c-4.21,0-6.77-3.16-6.77-7.26V206.5h3.53v10.87c0,2.48,1.13,4.66,4.1,4.66s4.29-1.88,4.29-4.63V206.5h3.53v14.74a30.39,30.39,0,0,0,.19,3.35h-3.38a16.08,16.08,0,0,1-.15-2.18C155.94,224.29,153.69,225.16,151.58,225.16Z" style="fill: #d50e3c"/>
  <path d="M177.35,221.82a6.05,6.05,0,0,1-5.6,3.23c-5.3,0-8.57-4.21-8.57-9.59,0-5.11,3.46-9.48,8.57-9.48,3.2,0,4.93,1.58,5.53,3V197.37h3.54v23.88a28.65,28.65,0,0,0,.19,3.35h-3.42a15.19,15.19,0,0,1-.19-2.44Zm-5.26.11c3.23,0,5.23-2.82,5.23-6.54s-2-6.28-5.19-6.28-5.34,2.63-5.34,6.35,1.91,6.5,5.3,6.5Z" style="fill: #d50e3c"/>
  <path d="M200.92,219.44a8.2,8.2,0,0,1-8.12,5.72c-4.85,0-9.1-3.54-9.1-9.66,0-5.68,4.1-9.55,8.65-9.55,5.57,0,8.69,3.84,8.69,9.48a7.9,7.9,0,0,1-.08,1.13H187.34a5.37,5.37,0,0,0,5.25,5.49h.2a4.93,4.93,0,0,0,5.08-3.65Zm-3.57-5.75a4.56,4.56,0,0,0-5-4.63,4.87,4.87,0,0,0-4.93,4.63Z" style="fill: #d50e3c"/>
  <path d="M207.63,224.59H204.1V206.5h3.46v2.59a6.2,6.2,0,0,1,5.57-3.12c4.32,0,6.47,3.12,6.47,7.14v11.47h-3.53V213.72c0-2.52-1-4.55-4.21-4.55-2.78,0-4.21,2.22-4.21,5Z" style="fill: #d50e3c"/>
  <path d="M228.34,206.5h3.91v3.2h-3.91v9.4c0,1.65.68,2.48,2.52,2.48a7.14,7.14,0,0,0,1.39-.15v3a7.72,7.72,0,0,1-2.43.39c-3.08,0-5-1.88-5-5.15v-9.93h-3.46v-3.2h1a2.53,2.53,0,0,0,2.78-2.78v-2.94h3.23Z" style="fill: #d50e3c"/>
  <path d="M237.09,218.76c.23,1.88,1.65,3.38,4.21,3.38,2,0,3.08-1.13,3.08-2.41s-.83-2-2.33-2.33l-3.08-.68c-2.82-.6-4.51-2.52-4.51-5.08,0-3.08,2.9-5.72,6.43-5.72,5,0,6.51,3.23,6.88,4.85l-3.12,1.17a3.51,3.51,0,0,0-3.76-3c-1.8,0-3,1.17-3,2.41s.68,1.88,2.07,2.18l2.93.64c3.27.71,5,2.71,5,5.38s-2.14,5.6-6.62,5.6c-5,0-7.07-3.2-7.37-5.26Z" style="fill: #d50e3c"/>
  <path d="M264.47,214.25l4.89-.71c1.09-.15,1.39-.71,1.39-1.35,0-1.77-1.17-3.23-3.91-3.23a3.84,3.84,0,0,0-4.1,3.57v.08l-3.38-.79c.38-3.46,3.5-5.87,7.41-5.87,5.41,0,7.52,3.08,7.52,6.62v9.06a17,17,0,0,0,.23,3h-3.46a13.21,13.21,0,0,1-.19-2.44,6.6,6.6,0,0,1-5.83,3c-3.69,0-6-2.56-6-5.41C259,216.51,261.35,214.7,264.47,214.25Zm6.28,2.59V216l-5.53.83a2.7,2.7,0,0,0-2.63,2.71,2.74,2.74,0,0,0,2.84,2.63h.09c2.9,0,5.23-1.36,5.23-5.36Z" style="fill: #d50e3c"/>
  <path d="M288.19,210.08a11,11,0,0,0-1.54-.11c-3,0-5,1.58-5,5.57v9.06h-3.53V206.5h3.46v3.16A5.66,5.66,0,0,1,287,206.2a6.62,6.62,0,0,1,1.17.11Z" style="fill: #d50e3c"/>
  <path d="M306.26,219.44a8.2,8.2,0,0,1-8.12,5.72c-4.85,0-9.1-3.54-9.1-9.66,0-5.68,4.1-9.55,8.65-9.55,5.57,0,8.69,3.84,8.69,9.48a7.9,7.9,0,0,1-.08,1.13H292.69a5.37,5.37,0,0,0,5.25,5.49h.2a4.93,4.93,0,0,0,5.08-3.65Zm-3.57-5.75a4.56,4.56,0,0,0-5-4.63,4.87,4.87,0,0,0-4.93,4.63Z" style="fill: #d50e3c"/>
  <path d="M322.82,214.25l4.89-.71c1.09-.15,1.39-.71,1.39-1.35,0-1.77-1.17-3.23-3.91-3.23a3.84,3.84,0,0,0-4.1,3.57v.08l-3.38-.79c.38-3.46,3.5-5.87,7.41-5.87,5.41,0,7.52,3.08,7.52,6.62v9.06a17,17,0,0,0,.23,3h-3.46a13.21,13.21,0,0,1-.19-2.44,6.6,6.6,0,0,1-5.83,3c-3.69,0-6-2.56-6-5.41C317.28,216.51,319.65,214.7,322.82,214.25Zm6.28,2.59V216l-5.53.83a2.7,2.7,0,0,0-2.63,2.71,2.74,2.74,0,0,0,2.84,2.63h.09c2.85,0,5.18-1.36,5.18-5.36Z" style="fill: #d50e3c"/>
  <path d="M341.31,206.5h3.91v3.2h-3.91v9.4c0,1.65.68,2.48,2.52,2.48a7.14,7.14,0,0,0,1.39-.15v3a7.72,7.72,0,0,1-2.4.39c-3.08,0-5-1.88-5-5.15v-9.93h-3.5v-3.2h1a2.53,2.53,0,0,0,2.78-2.78v-2.94h3.23Z" style="fill: #d50e3c"/>
  <path d="M361,224.59h-3.53V197.37H361v11.24a6.4,6.4,0,0,1,5.49-2.63c4.32,0,6.47,3.12,6.47,7.14v11.47H369.4V213.72c0-2.52-1-4.55-4.21-4.55-2.71,0-4.14,2.11-4.21,4.78Z" style="fill: #d50e3c"/>
  <path d="M394.14,215.53c0,5.53-3.84,9.63-9.25,9.63s-9.25-4.1-9.25-9.63,3.84-9.59,9.25-9.59S394.14,210,394.14,215.53Zm-3.61,0c0-4.17-2.63-6.43-5.64-6.43s-5.64,2.26-5.64,6.43,2.63,6.47,5.64,6.47S390.53,219.74,390.53,215.53Z" style="fill: #d50e3c"/>
  <path d="M397.08,224.59V206.5h3.38v2.41A6.24,6.24,0,0,1,406,206a5.65,5.65,0,0,1,5.41,3.42,6.49,6.49,0,0,1,6-3.42c3.16,0,6.24,2.14,6.24,6.88v11.73h-3.5V213.24c0-2.37-1.17-4.14-3.84-4.14a4.24,4.24,0,0,0-4.17,4.55v10.94h-3.53V213.24c0-2.33-1.13-4.14-3.84-4.14-2.52,0-4.21,1.88-4.21,4.59V224.6Z" style="fill: #d50e3c"/>
  <path d="M443.65,219.44a8.2,8.2,0,0,1-8.12,5.72c-4.85,0-9.1-3.54-9.1-9.66,0-5.68,4.1-9.55,8.65-9.55,5.57,0,8.69,3.84,8.69,9.48a7.9,7.9,0,0,1-.08,1.13H430.08a5.37,5.37,0,0,0,5.25,5.49h.2a4.93,4.93,0,0,0,5.08-3.65Zm-3.57-5.75a4.56,4.56,0,0,0-5-4.63,4.87,4.87,0,0,0-4.93,4.63Z" style="fill: #d50e3c"/>
  <path d="M448.65,219.55a2.62,2.62,0,0,1,2.63,2.61v0a2.58,2.58,0,0,1-2.57,2.59h-.06a2.55,2.55,0,0,1-2.59-2.51s0-.05,0-.08a2.58,2.58,0,0,1,2.53-2.63Z" style="fill: #d50e3c"/>
</svg>
